<?xml version="1.0" encoding="UTF-8" standalone="no"?>
<!-- Created with Inkscape (http://www.inkscape.org/) -->

<svg
   width="300px"
   height="150px"
   viewBox="0 0 51.600651 4.0491676"
   version="1.1"
   id="svg1"
   inkscape:version="1.3 (0e150ed6c4, 2023-07-21)"
   sodipodi:docname="andreaguerresi.svg"
   xmlns:inkscape="http://www.inkscape.org/namespaces/inkscape"
   xmlns:sodipodi="http://sodipodi.sourceforge.net/DTD/sodipodi-0.dtd"
   xmlns="http://www.w3.org/2000/svg"
   xmlns:svg="http://www.w3.org/2000/svg">
  <sodipodi:namedview
     id="namedview1"
     pagecolor="#ffffff"
     bordercolor="#000000"
     borderopacity="0.25"
     inkscape:showpageshadow="2"
     inkscape:pageopacity="0.0"
     inkscape:pagecheckerboard="0"
     inkscape:deskcolor="#d1d1d1"
     inkscape:document-units="mm"
     inkscape:zoom="1.0449705"
     inkscape:cx="154.07133"
     inkscape:cy="506.71285"
     inkscape:window-width="3440"
     inkscape:window-height="1369"
     inkscape:window-x="-8"
     inkscape:window-y="-8"
     inkscape:window-maximized="1"
     inkscape:current-layer="layer1" />
  <defs
     id="defs1" />
  <g
     inkscape:label="Livello 1"
     inkscape:groupmode="layer"
     id="layer1"
     transform="translate(-13.941379,-14.402014)">
    <path
       class="st1"
       d="m 65.526532,16.355477 c 0,0 0,-0.0026 0,0 -0.008,-0.0635 -0.0132,-0.124354 -0.0212,-0.187854 0,-0.01588 -0.003,-0.02911 -0.003,-0.04498 -0.003,-0.02117 -0.003,-0.04233 -0.005,-0.0635 -0.003,-0.0344 -0.005,-0.06879 -0.008,-0.100541 -0.005,-0.03175 -0.008,-0.06085 -0.0132,-0.08996 0,0 0,0 0,0 -0.0212,-0.07408 -0.045,-0.14552 -0.0688,-0.216958 -0.0132,-0.05292 -0.0265,-0.105833 -0.0529,-0.150812 -0.0503,-0.08996 -0.14023,-0.153459 -0.24077,-0.182563 -0.09,-0.02381 -0.18521,-0.02117 -0.27517,-0.0026 -0.17727,-0.0053 -0.35189,0.05027 -0.52916,0.07673 -0.21961,0.03175 -0.4445,0.0079 -0.65617,-0.06085 -0.22754,-0.224896 -0.47096,-0.439208 -0.74613,-0.600604 -0.29368,-0.171979 -0.62441,-0.280458 -0.96308,-0.3175 -0.13494,-0.01588 -0.27517,-0.01852 -0.40746,0.01323 -0.15346,0.03704 -0.29104,0.119063 -0.41275,0.216959 -0.0847,0.06879 -0.16669,0.148166 -0.20373,0.248708 -0.008,0.02381 -0.0132,0.04763 -0.0159,0.07144 -0.10054,-0.05556 -0.21696,-0.08202 -0.33338,-0.07144 -1.01864,-0.05821 -1.75948,2.902479 0.37042,3.426354 0.23548,0.05821 0.32015,0.0926 0.53446,0.121708 0.21696,0.02911 0.80169,-0.0079 0.889,-0.0291 0.24341,-0.0291 0.49212,-0.0926 0.71966,-0.22225 v 0 c 0,0 0,0 0,-0.0026 0.0582,-0.03439 0.11642,-0.07144 0.17198,-0.116416 0.0291,-0.02117 0.0556,-0.04498 0.0794,-0.07144 l 0.37835,-0.121708 c 0.005,-0.0026 0.008,-0.0026 0.0132,-0.0053 0.0291,0.01852 0.0609,0.03175 0.0952,0.0344 0.0503,0.0053 0.10054,-0.0079 0.14817,-0.01852 l 0.0265,-0.0053 c 0.16668,-0.03704 0.34131,-0.03969 0.51064,-0.03969 0.0106,0 0.0212,0 0.0318,0 0,0 0.003,0 0.003,0 0.0741,0 0.15346,0.0026 0.24077,0.0026 0.0608,0 0.12435,0.0026 0.1905,0.0026 0.0344,0 0.0688,0 0.10319,0 0.0185,0 0.0397,0 0.0609,-0.0026 0.003,0 0.005,0.0026 0.0106,0.0026 0.10584,0.02381 0.21432,-0.03969 0.27517,-0.129646 0.0609,-0.08996 0.0794,-0.198438 0.0926,-0.306917 0.037,-0.301625 0.0291,-0.60325 0.008,-0.907521 0.005,-0.05027 0.005,-0.0979 0.003,-0.148166 z m -5.11969,-1.391709 c -0.0291,0.02117 -0.0609,0.04498 -0.0873,0.06879 0.0265,-0.02646 0.0582,-0.05027 0.0873,-0.06879 z m 4.6699,1.447271 c -0.003,0.201084 -0.005,0.394229 -0.0212,0.605896 0.0106,0.161396 0.0106,0.357188 -0.0609,0.497417 -0.003,0.0344 -0.0159,0.06615 -0.037,0.08996 -0.0529,0.03704 -0.11906,0.05821 -0.18256,0.0635 -0.11906,0.01058 -0.23812,-0.01587 -0.35719,0 -0.14287,0.01852 -0.3122,0.09525 -0.41804,-0.0079 -0.0265,-0.02646 -0.0423,-0.05821 -0.0529,-0.09525 0.008,-0.153459 0.0132,-0.304271 0.0265,-0.45773 0.005,-0.248708 0.005,-0.497416 -0.003,-0.746125 0.005,-0.103187 0.0159,-0.20902 0.0556,-0.298979 0.0291,-0.02381 0.0661,-0.02646 0.10848,-0.0291 0.26194,-0.0079 0.52917,0.0026 0.7911,0.0344 0.0556,0.0053 0.11642,0.01852 0.14288,0.07937 0.008,0.01852 0.0106,0.03969 0.0106,0.0635 0,0.06615 -0.003,0.132292 -0.003,0.201083 z m 0.3175,0.338667 c 0,0.0926 -0.005,0.182562 -0.0106,0.272521 0.003,0.03969 0.003,0.07937 0.003,0.119062 0,0.02646 0,0.05556 0,0.08467 -0.008,0.100542 -0.0212,0.198437 -0.0503,0.293687 -0.0185,0.06085 -0.0503,0.124355 -0.10848,0.145521 -0.0476,0.01588 -0.10054,-0.01058 -0.12965,-0.05027 0.003,-0.03175 0.005,-0.0635 0.008,-0.0926 0,0.0026 0,0.0026 0,0.0053 0,-0.0053 0,-0.01058 0.003,-0.01588 0.0265,-0.338667 0.0635,-0.669396 0.0556,-1.000125 -0.003,0.03175 -0.003,0.06615 -0.005,0.100542 0,0.0079 0,0.01323 0,0.02117 0.003,-0.06615 0.003,-0.134937 0.003,-0.203729 -0.005,-0.134937 -0.0185,-0.269875 -0.045,-0.407458 -0.005,-0.0079 -0.0132,-0.01852 -0.0185,-0.02381 0,0 -0.003,-0.0026 -0.003,-0.0026 -0.037,-0.01058 -0.0714,-0.02381 -0.10584,-0.03704 -0.005,0 -0.0106,0 -0.0159,0 l -0.88635,-0.04763 c -0.0873,-0.02646 -0.1958,0.0344 -0.23813,0.121708 0,0 0,0 0,0 -0.003,-0.01852 -0.005,-0.0291 -0.005,-0.0291 0,0 0,0.01058 0.003,0.03175 -0.0476,0.100542 -0.037,0.219604 -0.0264,0.330729 0.0212,0.230188 0.0291,0.460375 0.0264,0.690563 0,0.02381 -0.003,0.05027 -0.005,0.08202 0,0.02117 -0.003,0.04233 -0.005,0.0635 -0.0529,-0.537104 -0.0556,-1.0795 -0.22754,-1.5875 0.0344,0.48948 0.0608,0.976313 0.0741,1.465792 -0.005,0.164042 -0.0159,0.328083 -0.0238,0.489479 -0.003,0.05556 -0.008,0.113771 -0.0317,0.156104 0.008,-0.251354 0.005,-0.457729 0,-0.605895 -0.005,-0.177271 -0.0132,-0.272521 -0.0132,-0.272521 0,0 0,0.02646 0,0.07673 -0.0106,-0.248708 -0.045,-0.494771 -0.12964,-0.727604 0.0185,0.132291 0.037,0.264583 0.0476,0.396875 -0.003,-0.0053 -0.003,-0.01058 -0.003,-0.01852 0.0265,0.304271 0.0159,0.613833 -0.082,0.902229 -0.0847,0.246063 -0.24077,0.470958 -0.45508,0.613833 -0.0529,0.02646 -0.10848,0.04498 -0.16669,0.05821 -0.0476,0.01588 -0.0979,0.03175 -0.14816,0.04498 -0.51594,0.179917 -1.08744,0.08996 -1.60867,0.0026 -1.29381,-0.216959 -1.35467,-1.418167 -1.35467,-1.418167 -0.0132,-0.47625 0.10848,-0.968375 0.24077,-1.235604 0.003,-0.0053 0.15082,-0.280458 0.254,-0.386292 0.12436,-0.124354 0.37307,-0.140229 0.52917,-0.04498 0.0106,0.0053 0.0212,0.01323 0.0291,0.02117 0.005,0.0026 0.008,0.0053 0.0132,0.0079 0,0 0,0 -0.003,0.0026 0.008,0.0079 0.0185,0.01588 0.0265,0.02381 0.003,-0.0026 0.005,-0.0026 0.008,-0.0053 0.005,0.0053 0.0132,0.01058 0.0185,0.01588 -0.005,0 -0.008,0.0026 -0.0106,0.0053 0.008,0.01058 0.0185,0.01852 0.0265,0.0291 v 0 0 c 0.0265,0.03175 0.0503,0.06615 0.0767,0.09525 0.0714,0.08996 0.15081,0.15875 0.23812,0.22225 0.0423,0.02381 0.0873,0.04498 0.1323,0.0635 0.0926,0.04762 0.1905,0.07937 0.29104,0.09525 0.0635,0.01058 0.127,0.01323 0.19314,0.01323 0.27517,0.05027 0.5715,0.0026 0.81492,-0.140229 -0.15081,0.0344 -0.30956,0.0344 -0.46038,0 -0.1561,-0.0926 -0.29104,-0.227542 -0.381,-0.386292 0.0344,0.08731 0.0794,0.171979 0.12965,0.254 0.0159,0.03175 0.0317,0.06085 0.0476,0.0926 -0.16669,0.07144 -0.35984,0.07673 -0.52917,0.0079 -0.13758,-0.05556 -0.25665,-0.156104 -0.33338,-0.283104 0,-0.0026 0,-0.0053 0.003,-0.0079 -0.0556,-0.108479 -0.0608,-0.235479 0.0265,-0.362479 0.20637,-0.306917 0.72496,-0.336021 1.05039,-0.272521 0.35719,0.07144 0.72232,0.214313 1.016,0.439208 0,0 0.003,0.0026 0.003,0.0026 0.09,0.108479 0.16404,0.259292 0.10848,0.388938 -0.0265,0.0635 -0.0794,0.119062 -0.0794,0.185208 -0.005,0.0079 -0.0106,0.01852 -0.0159,0.02381 0.003,-0.0026 0.005,-0.0053 0.008,-0.0079 l -0.005,0.01323 c 0.0238,-0.02646 0.0476,-0.05027 0.0767,-0.07408 0.0265,-0.01852 0.0529,-0.03704 0.082,-0.05027 v 0 c 0,0 0.003,0 0.003,-0.0026 0.005,-0.0026 0.008,-0.0053 0.0132,-0.0053 0,0 0,0 0,0 0.008,-0.0053 0.0185,-0.0079 0.0265,-0.01323 0,0 0,0 0,0 0.003,-0.0026 0.008,-0.0026 0.0106,-0.0053 0,0 0,0 0,0 0.008,-0.0026 0.0185,-0.0079 0.0265,-0.01058 0,0 0,0 0,0 0.005,-0.0026 0.0106,-0.0053 0.0185,-0.0053 0,0 0,0 0,0 0.0159,-0.0053 0.0318,-0.0079 0.0503,-0.01323 0,0 0,-0.0026 0,-0.0026 0.005,-0.0026 0.0106,-0.0026 0.0159,-0.0053 0,0 0,0.0026 0,0.0026 0.0291,-0.0053 0.0608,-0.01058 0.0926,-0.01323 0,0 0,0 0,-0.0026 0,0 0.003,0 0.003,0 0,0 0,0 0.003,0.0026 0.0238,-0.0026 0.0503,-0.0026 0.0767,-0.0026 0,0 0,0 0,-0.0026 0,0 0,0 0,0 0,0 0.003,0 0.003,0 0,0 0,0 0,0.0026 0.0476,0 0.0979,0.0053 0.14816,0.01323 0.0714,0.01058 0.14552,0.02117 0.21961,0.03175 0.15875,0.0344 0.32014,0.04233 0.48154,0.02646 0.1614,-0.01852 0.32544,-0.06085 0.48419,-0.03175 0.0132,0.0026 0.0238,0.0053 0.037,0.0079 0.0423,0.02381 0.0847,0.05292 0.11906,0.08731 0.14552,0.142875 0.18521,0.354542 0.20108,0.560917 0,0.0026 0,0.0026 0,0.0053 0.003,0.01323 0.003,0.0291 0.003,0.04233 0,0.0053 0,0.01058 0,0.01323 0.0132,0.182563 0.0185,0.362479 0.0212,0.545042 z"
       id="path3"
       style="fill:#f9b233;stroke-width:0.264583" />
    <path
       class="st1"
       d="m 13.959242,16.503643 c -0.0212,0.301625 -0.0291,0.605896 0.008,0.907521 0.0132,0.105834 0.0344,0.216959 0.0926,0.306917 0.0609,0.08996 0.16933,0.153458 0.27517,0.129646 0.003,0 0.008,-0.0026 0.0106,-0.0026 0.0212,0.0026 0.0397,0.0026 0.0609,0.0026 0.0344,0 0.0688,0 0.10319,0 0.0661,0 0.12965,-0.0026 0.1905,-0.0026 0.0873,0 0.16669,-0.0026 0.24077,-0.0026 0,0 0.003,0 0.003,0 0.0106,0 0.0212,0 0.0317,0 0.16933,0 0.34396,0 0.51064,0.03969 l 0.0265,0.0053 c 0.0476,0.01058 0.0979,0.02381 0.14817,0.01852 0.0344,-0.0026 0.0661,-0.01588 0.0953,-0.0344 0.005,0.0026 0.008,0.0026 0.0132,0.0053 l 0.37835,0.121708 c 0.0265,0.02646 0.0529,0.05027 0.0794,0.07144 0.0556,0.04498 0.11377,0.08202 0.17198,0.116416 0,0 0,0 0,0.0026 v 0 c 0.22754,0.129646 0.47889,0.1905 0.71966,0.22225 0.0873,0.02117 0.67204,0.05556 0.889,0.0291 0.21696,-0.0291 0.29898,-0.0635 0.53446,-0.121708 2.13254,-0.523875 1.38906,-3.484562 0.37042,-3.426354 -0.11377,-0.0079 -0.23284,0.01588 -0.33338,0.07144 -0.003,-0.02381 -0.008,-0.04763 -0.0159,-0.07144 -0.037,-0.103188 -0.11642,-0.182563 -0.20373,-0.248708 -0.12171,-0.0979 -0.26194,-0.179917 -0.41275,-0.216959 -0.13229,-0.03175 -0.27252,-0.0291 -0.40746,-0.01323 -0.33867,0.03704 -0.6694,0.145521 -0.96308,0.3175 -0.27782,0.161396 -0.51859,0.375708 -0.74613,0.600604 -0.20902,0.06879 -0.43656,0.08996 -0.65617,0.06085 -0.17727,-0.02381 -0.35189,-0.08202 -0.52916,-0.07673 -0.09,-0.02117 -0.18521,-0.02381 -0.27517,0.0026 -0.10054,0.02646 -0.1905,0.0926 -0.24077,0.182563 -0.0265,0.04763 -0.0397,0.100541 -0.0529,0.150812 -0.0238,0.07144 -0.0476,0.142875 -0.0688,0.216958 0,0 0,0 0,0 -0.005,0.02911 -0.008,0.06085 -0.0132,0.08996 -0.003,0.0344 -0.005,0.06879 -0.008,0.100541 -0.003,0.02117 -0.003,0.04233 -0.005,0.0635 0,0.01588 -0.003,0.02911 -0.003,0.04498 -0.005,0.0635 -0.0132,0.124354 -0.0238,0.187854 0,0 0,0 0.003,0 0.005,0.05027 0.003,0.0979 0.003,0.148166 z m 5.21229,-1.471083 c -0.0291,-0.02381 -0.0582,-0.04762 -0.0873,-0.06879 0.0291,0.01852 0.0582,0.04233 0.0873,0.06879 z m -4.75986,1.17475 c 0,-0.02381 0.003,-0.04498 0.0106,-0.0635 0.0265,-0.06085 0.0873,-0.07144 0.14287,-0.07938 0.26194,-0.03175 0.52917,-0.04233 0.79111,-0.0344 0.0423,0.0026 0.0794,0.0053 0.10848,0.0291 0.0397,0.08996 0.0503,0.195792 0.0556,0.29898 -0.008,0.246062 -0.008,0.497416 -0.003,0.746125 0.0106,0.153458 0.0159,0.30427 0.0265,0.457729 -0.0106,0.03704 -0.0238,0.06879 -0.0529,0.09525 -0.10583,0.100541 -0.27516,0.02646 -0.41804,0.0079 -0.11906,-0.01588 -0.23812,0.01058 -0.35718,0 -0.0635,-0.0053 -0.1323,-0.02646 -0.18257,-0.0635 -0.0212,-0.02646 -0.0344,-0.05556 -0.037,-0.08996 -0.0714,-0.137583 -0.0714,-0.336021 -0.0609,-0.497417 -0.0132,-0.209021 -0.0185,-0.404812 -0.0212,-0.605896 0,-0.06614 -0.003,-0.132291 -0.003,-0.201083 z m -0.31485,0.53975 c 0.003,-0.179917 0.008,-0.359833 0.0212,-0.53975 0,-0.0053 0,-0.01058 0,-0.01323 0,-0.01323 0.003,-0.0291 0.003,-0.04233 0,-0.0026 0,-0.0026 0,-0.0053 0.0185,-0.206375 0.0556,-0.418042 0.20109,-0.560917 0.037,-0.0344 0.0767,-0.0635 0.11906,-0.08731 0.0106,-0.0026 0.0238,-0.0053 0.037,-0.0079 0.15875,-0.0291 0.32279,0.01323 0.48419,0.03175 0.16139,0.01852 0.32279,0.0079 0.48154,-0.02646 0.0741,-0.01058 0.14817,-0.02117 0.2196,-0.03175 0.0503,-0.0079 0.10055,-0.01323 0.14817,-0.01323 0,0 0,0 0,-0.0026 0,0 0.003,0 0.003,0 0,0 0,0 0,0 0,0 0,0 0,0.0026 0.0265,0 0.0503,0 0.0767,0.0026 0,0 0,0 0.003,-0.0026 0,0 0.003,0 0.003,0 0,0 0,0 0,0.0026 0.0318,0.0026 0.0635,0.0053 0.0926,0.01323 0,0 0,-0.0026 0,-0.0026 0.005,0 0.0106,0.0026 0.0159,0.0053 0,0 0,0.0026 0,0.0026 0.0159,0.0026 0.0344,0.0079 0.0503,0.01323 0,0 0,0 0,0 0.005,0.0026 0.0106,0.0053 0.0185,0.0053 0,0 0,0 0,0 0.0106,0.0026 0.0185,0.0079 0.0265,0.01058 0,0 0,0 0,0 0.005,0.0026 0.008,0.0026 0.0106,0.0053 0,0 0,0 0,0 0.008,0.0026 0.0185,0.0079 0.0265,0.01323 0,0 0,0 0,0 0.005,0.0026 0.008,0.0026 0.0132,0.0053 0,0 0.003,0 0.003,0.0026 v 0 c 0.0291,0.01323 0.0556,0.03175 0.082,0.05027 0.0265,0.02381 0.0529,0.04762 0.0767,0.07408 l -0.005,-0.01323 c 0.003,0.0026 0.005,0.0053 0.008,0.0079 -0.003,-0.0079 -0.008,-0.01587 -0.0159,-0.02381 0.003,-0.06879 -0.0529,-0.121708 -0.0794,-0.185208 -0.0556,-0.129646 0.0185,-0.280459 0.10848,-0.388938 0,0 0.003,-0.0026 0.003,-0.0026 0.29369,-0.224896 0.65882,-0.367771 1.016,-0.439208 0.32544,-0.0635 0.84402,-0.0344 1.0504,0.272521 0.0847,0.127 0.082,0.256646 0.0265,0.362479 0,0.0026 0,0.0053 0.003,0.0079 -0.0767,0.127 -0.19579,0.227542 -0.33337,0.283105 -0.16933,0.06614 -0.36248,0.0635 -0.52917,-0.0079 0.0159,-0.03175 0.0317,-0.06085 0.0476,-0.0926 0.0529,-0.07937 0.0952,-0.164042 0.12964,-0.254 -0.09,0.15875 -0.22489,0.291042 -0.381,0.386292 -0.15081,0.0344 -0.30956,0.0344 -0.46037,0 0.24341,0.142875 0.5371,0.1905 0.81491,0.140229 0.0635,0 0.12965,-0.0053 0.19315,-0.01323 0.10054,-0.01588 0.20108,-0.04762 0.29104,-0.09525 0.045,-0.01852 0.09,-0.03969 0.13229,-0.0635 0.0873,-0.06086 0.16669,-0.132292 0.23813,-0.22225 0.0265,-0.03175 0.0503,-0.06615 0.0767,-0.09525 v 0 0 c 0.008,-0.01058 0.0159,-0.01852 0.0265,-0.02911 -0.003,-0.0026 -0.008,-0.0026 -0.0106,-0.0053 0.005,-0.0053 0.0132,-0.01058 0.0185,-0.01588 0.003,0.0026 0.005,0.0026 0.008,0.0053 0.008,-0.0079 0.0159,-0.01587 0.0265,-0.02381 0,0 0,0 -0.003,-0.0026 0.005,-0.0026 0.008,-0.0053 0.0132,-0.0079 0.0106,-0.0079 0.0185,-0.01588 0.0291,-0.02117 0.1561,-0.09525 0.40481,-0.07937 0.52916,0.04498 0.10319,0.103188 0.25136,0.378354 0.254,0.386292 0.12965,0.267229 0.25136,0.756708 0.24077,1.235604 0,0 -0.0609,1.201208 -1.35466,1.418167 -0.52123,0.08731 -1.09273,0.17727 -1.60867,-0.0026 -0.0503,-0.01323 -0.0979,-0.0291 -0.14817,-0.04498 -0.0582,-0.01323 -0.11377,-0.03175 -0.16668,-0.05821 -0.21432,-0.140229 -0.37042,-0.367771 -0.45509,-0.613833 -0.0979,-0.288396 -0.10848,-0.597958 -0.082,-0.902229 -0.003,0.0053 -0.003,0.01058 -0.003,0.01852 0.0106,-0.132292 0.0291,-0.26723 0.0476,-0.396875 -0.0847,0.232833 -0.11906,0.478895 -0.12964,0.727604 0,-0.05027 0,-0.07673 0,-0.07673 0,0 -0.008,0.09525 -0.0132,0.27252 -0.005,0.148167 -0.008,0.354542 0,0.605896 -0.0212,-0.04233 -0.0291,-0.100541 -0.0317,-0.156104 -0.008,-0.161396 -0.0185,-0.325437 -0.0238,-0.489479 0.0132,-0.489479 0.0397,-0.978958 0.0741,-1.465792 -0.17198,0.508 -0.17463,1.053042 -0.22754,1.5875 -0.003,-0.02381 -0.003,-0.04498 -0.005,-0.0635 -0.003,-0.0291 -0.003,-0.05556 -0.005,-0.08202 -0.003,-0.230187 0.005,-0.460375 0.0265,-0.690562 0.0106,-0.111125 0.0212,-0.230188 -0.0265,-0.330729 0.003,-0.02117 0.003,-0.03175 0.003,-0.03175 0,0 -0.003,0.01058 -0.005,0.0291 0,0 0,0 0,0 -0.0423,-0.08731 -0.15082,-0.148167 -0.23813,-0.121708 l -0.88635,0.04762 c -0.005,0 -0.0106,0 -0.0159,0 -0.0344,0.01323 -0.0688,0.02646 -0.10583,0.03704 0,0 -0.003,0.0026 -0.003,0.0026 -0.008,0.0079 -0.0132,0.01588 -0.0185,0.02381 -0.0238,0.137583 -0.0397,0.27252 -0.045,0.407458 0,0.07144 0.003,0.140229 0.003,0.203729 0,-0.0079 0,-0.01323 0,-0.02117 -0.003,-0.03704 -0.003,-0.06879 -0.005,-0.100541 -0.005,0.330729 0.0291,0.661458 0.0556,1.000125 0,0.0053 0.003,0.01058 0.003,0.01588 0,-0.0026 0,-0.0026 0,-0.0053 0.003,0.03175 0.005,0.06085 0.008,0.0926 -0.0291,0.04233 -0.082,0.06615 -0.12964,0.05027 -0.0609,-0.02117 -0.09,-0.08467 -0.10848,-0.145521 -0.0291,-0.09525 -0.0423,-0.193146 -0.0503,-0.293687 0,-0.0291 0,-0.05821 0,-0.08467 0,-0.03969 0.003,-0.07937 0.003,-0.119062 -0.005,-0.08996 -0.008,-0.182563 -0.0106,-0.277813 0,0.0026 0,0.0026 0,0 z"
       id="path4"
       style="fill:#f9b233;stroke-width:0.264583" />
    <g
       id="g19"
       transform="matrix(0.26458333,0,0,0.26458333,7.9188023,-12.566127)">&#10;			<g
   id="g18">&#10;				<path
   class="st1"
   d="m 56.16,104.46 2.28,0.05 0.03,0.02 v 0.05 l -0.03,0.26 0.08,0.19 -0.08,0.07 c 0.14,0.34 0.23,0.81 0.26,1.41 v 0.07 l -0.08,0.19 v 0.05 l 0.08,0.02 -0.03,0.12 c 0.05,0.17 0.09,0.41 0.1,0.73 l 0.08,0.07 c -0.05,0.14 -0.08,0.28 -0.08,0.4 v 0.12 c 0.04,0.92 0.13,1.38 0.29,1.38 0,0.04 0.12,0.08 0.37,0.14 v 0.09 H 59.4 c -0.09,-0.05 -0.17,-0.07 -0.26,-0.07 h -0.03 c 0,0.44 0.06,0.73 0.18,0.87 l -0.05,0.14 0.18,0.84 0.16,0.21 v 0.14 c 0,0.26 0.07,0.77 0.21,1.55 l 0.16,0.07 -0.05,0.33 v 0.02 l 0.05,0.28 -0.03,0.02 h -0.16 c -0.4,0 -0.77,-0.02 -1.13,-0.07 l -0.79,0.07 -0.81,-0.14 -0.16,0.02 c -0.07,-0.05 -0.11,-0.61 -0.13,-1.69 -0.03,-0.08 -0.14,-0.12 -0.34,-0.12 l -0.58,0.02 -0.08,-0.02 c -0.05,0.05 -0.1,0.16 -0.13,0.33 l 0.08,0.26 c -0.15,0.73 -0.25,1.1 -0.29,1.1 l -0.76,-0.02 -2.15,0.09 -0.03,-0.02 v -0.02 c 0.16,-0.77 0.38,-2.12 0.65,-4.05 -0.09,-0.04 -0.41,-0.11 -0.94,-0.19 -0.07,-0.04 -0.26,-0.07 -0.58,-0.09 l -0.08,0.02 v -0.02 l 0.08,-0.07 h 0.1 c 0.69,0.12 1.1,0.19 1.26,0.19 H 53 c 0.08,-0.17 0.18,-0.62 0.29,-1.34 l 0.03,-0.02 h 0.03 l -0.03,-0.02 v -0.02 c 0.24,-1.04 0.41,-1.82 0.5,-2.37 0.09,0 0.19,-0.45 0.29,-1.36 0.04,0 0.05,-0.08 0.05,-0.23 l 0.03,-0.02 h 1.97 z m -3.51,6.33 h 0.11 v 0.05 h -0.11 z m 1.34,-2.18 c 0,0.06 -0.13,0.16 -0.39,0.3 l -0.05,0.14 c 0.14,0.11 0.28,0.16 0.42,0.16 v -0.19 c 0,-0.12 0.05,-0.19 0.16,-0.19 l 0.26,-0.05 v -0.02 c -0.1,0 -0.22,-0.05 -0.37,-0.16 h -0.03 z m 0.91,-3.21 -0.03,0.02 v 0.05 l 0.05,0.05 h 0.05 c -0.01,-0.08 -0.04,-0.12 -0.07,-0.12 z m 0.03,3.23 v 0.02 l 0.13,0.12 h 0.05 l 0.05,-0.19 -0.03,-0.02 H 55 Z m 0.1,-3.75 c 0.1,0.06 0.18,0.09 0.24,0.09 v -0.21 h -0.05 c -0.1,0.01 -0.16,0.05 -0.19,0.12 z m 1.16,2.33 c -0.09,1.14 -0.17,1.71 -0.26,1.71 l -0.26,1.64 -0.03,0.26 0.03,0.02 h 0.13 l 0.63,0.05 c 0.11,0 0.16,-0.05 0.16,-0.14 v -0.07 c -0.12,-1.68 -0.24,-2.83 -0.37,-3.47 z m -0.11,-2.33 c -0.11,0.07 -0.2,0.17 -0.26,0.3 0.03,0 0.06,0.04 0.08,0.12 l 0.18,-0.05 -0.03,-0.16 v -0.05 c 0,-0.09 0.04,-0.14 0.13,-0.14 v -0.02 z m -0.18,0.47 c 0.03,0.14 0.07,0.21 0.11,0.21 v -0.02 c -0.02,-0.12 -0.04,-0.19 -0.08,-0.19 z m 0.5,6.26 v 0.05 h -0.03 l 0.03,0.07 0.05,-0.05 -0.03,-0.07 z m 0.13,-6.63 0.31,0.02 c 0.12,-0.03 0.24,-0.11 0.37,-0.23 h -0.16 c -0.06,0.05 -0.16,0.09 -0.31,0.12 l -0.21,0.07 z m 0.99,4.26 v 0.02 l 0.34,0.05 v -0.02 c -0.01,-0.04 -0.07,-0.08 -0.18,-0.12 -0.11,0.02 -0.16,0.04 -0.16,0.07 z m 2.12,-1.75 h 0.03 l 0.05,0.05 h -0.08 z m 0.5,6.25 h 0.13 l 0.05,0.05 -0.05,0.05 h -0.13 l -0.05,-0.05 z"
   id="path5"
   style="fill:#f9b233" />
&#10;				<path
   class="st1"
   d="m 68.09,105.44 c 0.69,0 1.25,0.23 1.67,0.68 0.12,0.12 0.24,0.44 0.34,0.96 0.05,0.48 0.12,0.88 0.21,1.2 l 0.11,2.41 -0.05,0.7 0.05,2.55 v 0.12 l -0.05,0.05 H 69.9 l -2.43,-0.05 -0.03,-0.02 v -1.8 l 0.05,-0.05 h 0.03 c 0.04,0 0.05,0.05 0.05,0.16 h 0.03 c 0,-0.05 0.04,-0.12 0.13,-0.19 l -0.03,-0.07 -0.24,0.05 c -0.05,-0.18 -0.08,-0.32 -0.08,-0.45 v -1.45 l -0.03,-0.82 0.21,-0.09 c 0.1,0.02 0.19,0.06 0.26,0.12 h 0.39 v -0.07 l -0.08,-0.12 0.03,-0.12 c -0.07,0 -0.1,-0.02 -0.1,-0.05 l 0.05,-0.19 H 68 c -0.03,0 -0.07,0.05 -0.1,0.14 h -0.08 l -0.24,-0.02 c -0.03,0 -0.1,0.05 -0.21,0.16 l -0.05,-0.05 V 109 c 0,-0.24 -0.05,-0.73 -0.16,-1.45 -0.03,-0.28 -0.13,-0.42 -0.29,-0.42 H 66.6 c -0.07,0 -0.14,0.11 -0.21,0.33 0.11,1.62 0.17,3.2 0.21,4.73 -0.04,0 -0.1,0.04 -0.18,0.12 l -0.1,0.02 h -0.03 c -0.07,-0.03 -0.1,-0.08 -0.1,-0.16 v -0.05 c 0,-0.05 0.03,-0.11 0.08,-0.16 h -0.21 c -0.14,0 -0.22,-0.04 -0.26,-0.12 l 0.05,-0.12 H 65.8 l -0.6,-0.09 -0.13,0.02 v -0.02 l 0.08,-0.19 h -0.16 l -0.31,-0.02 c 0,0.09 -0.21,0.16 -0.63,0.21 L 64,111.7 v 0.19 l 0.21,0.09 c 0.21,-0.2 0.4,-0.3 0.55,-0.3 0.24,0 0.37,0.09 0.37,0.26 h 0.13 c 0.16,0 0.29,0.05 0.39,0.16 -0.09,0.14 -0.18,0.21 -0.29,0.21 0,0.04 0.13,0.06 0.39,0.07 l 0.13,0.07 -0.05,0.16 c 0.16,0.02 0.24,0.09 0.24,0.21 -0.01,0.12 -0.07,0.19 -0.18,0.19 v 0.05 h 0.05 l 0.24,-0.19 h 0.18 l 0.05,0.05 v 0.16 l -0.05,0.07 c 0.03,0 0.05,0.02 0.05,0.07 l 0.03,0.02 h 0.03 l 0.1,-0.07 0.05,0.05 v 0.84 l -0.05,0.05 H 65.6 l -0.1,-0.12 c -0.06,0 -0.12,-0.02 -0.18,-0.07 v 0.02 l 0.05,0.14 -0.03,0.02 h -1.05 l -0.05,-0.05 0.45,-0.38 v -0.02 c -0.07,0 -0.1,-0.03 -0.1,-0.09 h -0.03 l -0.1,0.05 -0.16,-0.05 c -0.26,0.14 -0.42,0.21 -0.5,0.21 v 0.02 c 0.1,0 0.16,0.09 0.16,0.26 h 0.16 v 0.05 h -0.39 l -0.05,-0.05 -0.24,-4.95 0.08,-0.07 v -0.02 c -0.05,0 -0.08,-0.02 -0.08,-0.05 v -0.82 l 0.08,-0.09 -0.08,-0.07 v -0.61 l 0.05,-1.59 0.03,-0.02 h 0.05 l 2.51,-0.07 c 0.19,0.01 0.29,0.04 0.29,0.07 v 0.02 l -0.05,0.45 0.03,0.07 c 0.62,-0.58 1.15,-0.87 1.6,-0.87 h 0.14 z m -3.77,3.09 c 0,0.05 -0.02,0.07 -0.05,0.07 l -0.13,-0.02 -0.08,0.16 0.03,0.14 v 0.05 c 0,0.06 -0.08,0.09 -0.24,0.09 l -0.03,0.02 v 0.02 c 0.08,0.03 0.12,0.06 0.13,0.09 0.26,-0.1 0.39,-0.19 0.39,-0.28 0,-0.11 0.1,-0.21 0.29,-0.3 v -0.02 z m -0.39,4.36 -0.08,0.38 c 0.41,-0.16 0.66,-0.23 0.76,-0.23 v 0.02 c 0.01,0.11 0.04,0.16 0.08,0.16 h 0.03 l 0.13,-0.05 v -0.02 c -0.14,0 -0.21,-0.05 -0.21,-0.16 l -0.13,0.02 c -0.25,-0.08 -0.43,-0.12 -0.55,-0.12 z m 0.13,-6.26 -0.03,0.02 v 0.02 l 0.03,0.07 h 0.08 v -0.05 z m 0.39,0.96 v 0.07 l 0.05,-0.05 v -0.02 z m 0.39,0.92 v 0.05 l 0.24,0.05 c -0.04,-0.07 -0.07,-0.11 -0.1,-0.12 z m 0.08,-0.96 v 0.05 l 0.05,0.05 H 65 v -0.02 z m 0.16,6.09 h 0.03 c 0.17,0 0.26,-0.06 0.26,-0.19 z m 1.2,-1.71 v 0.02 l 0.21,0.02 v -0.07 z m 0.29,0.35 h 0.03 v 0.33 h -0.05 c -0.13,0 -0.2,-0.02 -0.21,-0.07 z m 0.55,-6.02 0.03,0.07 h 0.08 l 0.03,-0.07 -0.03,-0.02 h -0.05 l -0.03,0.02 z m 0.31,-0.36 v 0.02 l 0.08,0.07 0.05,-0.05 -0.05,-0.05 h -0.08 z m 0.03,5.84 c 0,0.17 0.07,0.26 0.21,0.26 h 0.03 c 0,-0.05 0.08,-0.09 0.24,-0.09 0.1,-0.07 0.16,-0.14 0.16,-0.19 l -0.13,-0.05 -0.18,0.05 -0.03,-0.07 h -0.05 c -0.08,0 -0.16,0.03 -0.25,0.09 z m 0.44,-5.98 v 0.05 h 0.05 l 0.03,-0.02 h 0.03 l -0.03,-0.09 z m 0.03,2.07 v 0.02 h 0.1 v -0.02 l -0.05,-0.05 z m 0.31,-1.81 c 0,0.05 -0.06,0.09 -0.18,0.12 v 0.02 l 0.16,0.21 -0.08,0.07 0.18,0.28 h 0.03 l 0.81,-0.45 v -0.02 c -0.07,0 -0.13,-0.07 -0.16,-0.21 h -0.08 c 0,0.08 -0.14,0.19 -0.42,0.33 l -0.03,-0.02 v -0.21 z m -0.1,1.53 v 0.02 h 0.08 l -0.03,-0.07 z m 0.13,4.05 c 0,0.03 0.04,0.05 0.13,0.05 l 0.03,0.07 0.16,-0.14 -0.1,-0.05 z m 0.16,-2.79 c 0.05,0 0.08,0.02 0.08,0.05 v 0.12 L 68.48,109 v 0.02 h 0.26 c 0.1,0 0.16,-0.03 0.18,-0.09 l -0.03,-0.02 h -0.03 l 0.05,-0.14 c -0.03,-0.06 -0.05,-0.09 -0.08,-0.09 -0.26,0.03 -0.4,0.08 -0.4,0.13 z m 0.23,2.77 v 0.19 l 0.08,0.07 0.18,-0.02 0.03,0.02 v -0.02 c -0.02,-0.07 -0.06,-0.11 -0.13,-0.12 0,-0.05 -0.03,-0.07 -0.1,-0.07 z m 0.08,0.51 v 0.02 l 0.05,0.05 0.03,-0.07 z m 2.02,-0.65 h 0.05 v 0.05 l -0.11,0.02 v -0.02 z"
   id="path6"
   style="fill:#f9b233" />
&#10;				<path
   class="st1"
   d="m 80.67,103.64 h 0.03 l -0.01,0.05 -0.12,0.54 c 0.01,0.57 0.04,0.92 0.09,1.05 l -0.06,0.16 0.07,0.3 c -0.04,0.02 -0.14,0.12 -0.28,0.3 -0.05,0 -0.08,0.01 -0.08,0.04 l 0.03,0.01 0.29,-0.16 0.05,0.05 -0.08,0.87 0.12,1.65 -0.03,0.66 c -0.02,0.42 0,1.39 0.07,2.93 l -0.06,0.16 0.01,0.45 -0.07,1.17 -0.48,0.12 v 0.02 l 0.07,0.08 0.16,0.01 0.22,-0.13 0.03,0.02 -0.01,0.25 -0.06,0.05 -2.79,-0.09 -0.05,-0.05 0.07,-0.51 -0.03,-0.02 c -0.06,0 -0.23,0.12 -0.51,0.38 l -0.96,0.29 -0.24,0.02 h -0.08 c -0.45,-0.02 -0.95,-0.22 -1.5,-0.61 0,-0.04 -0.06,-0.13 -0.2,-0.29 -0.03,-0.52 -0.09,-0.92 -0.19,-1.22 l 0.05,-0.54 -0.1,-0.73 0.07,-0.59 -0.08,-3.31 c 0.03,-0.76 0.5,-1.28 1.42,-1.55 0.17,-0.02 0.41,-0.03 0.71,-0.02 0.34,0.01 0.6,0.09 0.8,0.24 -0.05,0 -0.08,0.01 -0.08,0.04 v 0.05 l 0.04,0.05 0.09,-0.06 -0.05,-0.07 h 0.05 l 0.59,0.32 h 0.03 c 0.02,-0.12 0.05,-0.19 0.09,-0.18 l 0.34,0.08 -0.05,-0.16 c 0,-0.08 0.04,-0.12 0.11,-0.11 l 0.03,-0.07 0.18,0.1 0.13,-0.06 v -0.02 c -0.14,-0.01 -0.21,-0.07 -0.2,-0.18 l 0.08,-0.18 v -0.02 l -0.14,-0.38 c 0,-0.07 0.08,-0.22 0.25,-0.44 l 0.05,0.01 c 0,0.06 0.06,0.1 0.18,0.1 v -0.02 l -0.28,-0.25 c 0,0.05 -0.02,0.07 -0.05,0.07 l -0.1,-0.01 c -0.26,-0.02 -0.39,-0.07 -0.41,-0.13 l -0.14,0.04 -0.03,-0.02 0.01,-0.23 c 0,-0.11 0.02,-0.19 0.06,-0.25 l 0.03,0.02 0.52,0.01 0.13,0.03 v -0.05 l 1.28,-0.01 0.5,0.04 z m -5.88,4.22 v 0.02 l 0.05,0.05 0.03,0.01 -0.03,-0.12 z m 1.07,2.22 v 0.07 l 0.05,0.05 0.03,-0.02 0.01,-0.13 -0.03,-0.01 z m 0.57,3.53 -0.03,0.02 v 0.05 l 0.05,0.05 h 0.03 l 0.01,-0.07 z m 0.7,-6.52 -0.08,-0.01 c -0.08,0.16 -0.12,0.4 -0.13,0.7 0.07,1.41 0.09,2.65 0.08,3.73 l -0.09,0.38 c 0.02,0.56 0.15,0.85 0.39,0.86 h 0.03 c 0.24,0.01 0.39,-0.11 0.43,-0.34 l 0.01,-0.38 0.08,-0.63 -0.03,-0.59 0.01,-0.28 0.06,-0.05 h 0.03 l 0.24,0.03 0.26,-0.01 h 0.13 c 0,-0.03 -0.08,-0.06 -0.24,-0.1 -0.06,-0.14 -0.15,-0.21 -0.25,-0.22 l -0.21,0.04 0.01,-0.21 c -0.04,-0.43 -0.04,-0.92 -0.02,-1.46 l 0.01,-0.33 c 0.02,-0.6 -0.11,-0.99 -0.4,-1.18 l -0.1,-0.02 z m 0,-0.68 c 0.04,0.1 0.09,0.15 0.15,0.15 l 0.42,-0.03 -0.03,-0.03 -0.39,-0.13 -0.03,-0.02 z m 0.12,5.61 0.15,0.01 0.08,0.07 -0.03,0.02 h -0.03 c -0.12,-0.02 -0.18,-0.04 -0.18,-0.08 z m 0.33,-1.09 v 0.02 c -0.03,0.05 -0.1,0.1 -0.22,0.13 l -0.03,-0.02 v -0.02 c 0.12,-0.08 0.2,-0.11 0.25,-0.11 z m -0.16,-4.7 0.03,0.07 h 0.03 v -0.09 l -0.03,0.02 z m 0.36,-1.65 0.21,0.05 0.16,0.01 c 0,0.07 -0.08,0.19 -0.23,0.37 l -0.03,0.11 c 0.08,0.07 0.12,0.17 0.12,0.29 l -0.27,0.21 v -0.05 l -0.01,-0.97 0.03,-0.02 z m 0.68,8.67 v 0.05 l 0.05,-0.04 0.01,-0.05 z m 0,-6.82 c 0.02,0.06 0.05,0.09 0.07,0.09 h 0.03 l 0.03,-0.07 -0.08,-0.05 -0.03,0.02 h -0.02 z m 0.82,3.89 -0.03,0.09 h -0.1 l -0.39,0.08 c 0,0.03 0.05,0.05 0.15,0.07 l 0.61,-0.19 0.01,-0.02 -0.05,-0.01 -0.1,0.02 -0.05,-0.05 h -0.05 z m -0.4,0.79 0.05,0.05 0.05,-0.05 z m 0.06,-4.85 0.02,0.12 c 0.14,-0.02 0.22,-0.05 0.22,-0.09 l -0.03,-0.02 z m 0.15,-1.17 v 0.02 l 0.05,0.05 h 0.03 v -0.05 h 0.03 l -0.03,-0.07 h -0.03 z m 1.17,-0.46 c 0.02,0.06 0.05,0.09 0.07,0.09 l 0.03,-0.02 v -0.02 c -0.03,0 -0.05,-0.03 -0.05,-0.08 l -0.03,0.02 h -0.02 z m 0.09,-0.18 -0.03,0.02 v 0.02 l 0.02,0.02 0.03,0.01 0.03,-0.02 v -0.02 l -0.03,-0.02 z m 0.04,0.24 v 0.05 h 0.03 l 0.13,-0.02 -0.07,-0.08 h -0.03 z m 0.04,4.33 v 0.02 h 0.03 l 0.08,-0.02 V 109 h -0.03 z"
   id="path7"
   style="fill:#f9b233" />
&#10;				<path
   class="st1"
   d="m 88.71,105.22 0.05,0.09 -0.1,2.11 v 0.54 l 0.03,0.23 -0.86,0.16 c -0.37,0.11 -0.55,0.22 -0.55,0.35 -0.23,0 -0.34,0.44 -0.34,1.31 v 0.21 c -0.07,0 -0.1,0.02 -0.1,0.05 0.09,0.02 0.13,0.08 0.13,0.16 v 0.33 l -0.03,0.02 v 0.02 l -0.03,-0.02 h -0.18 l -0.08,0.05 -0.1,-0.02 -0.05,0.05 h -0.26 l -0.1,-0.09 v -0.12 l 0.08,-0.07 h 0.18 l 0.05,-0.12 h -0.26 c -0.23,0 -0.34,0.02 -0.34,0.07 v 0.21 l -0.03,0.02 c -0.06,0.03 -0.11,0.11 -0.16,0.23 -0.1,0.08 -0.2,0.12 -0.31,0.12 h -0.08 c -0.26,0 -0.39,-0.04 -0.39,-0.12 h -0.03 c -0.03,0 -0.05,0.05 -0.05,0.16 -0.12,0.04 -0.2,0.13 -0.24,0.26 h 0.21 c 0.09,-0.06 0.17,-0.09 0.24,-0.09 h 0.03 c 0.14,0.02 0.21,0.07 0.21,0.14 l -0.08,0.14 h 0.24 c 0,0.05 0.02,0.07 0.05,0.07 0.05,-0.04 0.22,-0.07 0.52,-0.12 l -0.08,-0.33 c 0,-0.04 0.17,-0.14 0.5,-0.3 h 0.05 v 0.19 c 0.09,0.12 0.17,0.2 0.26,0.21 l 0.03,0.02 0.03,-0.02 v -0.02 c -0.12,-0.04 -0.18,-0.13 -0.18,-0.28 l 0.24,-0.09 c 0.12,0.03 0.18,0.06 0.18,0.09 v 0.14 c 0,0.05 -0.03,0.11 -0.08,0.16 0.07,0 0.1,0.07 0.1,0.21 v 0.02 c 0,0.64 0.04,1.43 0.11,2.37 -0.71,0.11 -1.35,0.16 -1.94,0.16 h -0.92 l -0.03,-0.02 h -0.03 c -0.05,-2.46 -0.11,-4.06 -0.18,-4.8 l 0.24,-1.52 -0.05,-0.33 0.05,-1.36 -0.03,-0.23 c 0,-0.07 0.04,-0.14 0.1,-0.23 l 2.8,-0.09 0.03,0.02 v 0.02 l -0.1,0.8 0.42,-0.59 c 0.08,-0.06 0.16,-0.09 0.24,-0.09 0,-0.1 0.09,-0.15 0.26,-0.16 0.09,-0.12 0.32,-0.21 0.71,-0.28 z m -4.35,3.4 0.03,0.07 0.1,-0.07 z m 0.19,1.64 v 0.02 l 0.05,0.05 h 0.03 v -0.02 l -0.05,-0.05 z m 0.15,-4.54 v 0.02 h 0.03 l 0.03,-0.09 c -0.04,0 -0.06,0.02 -0.06,0.07 z m 0.08,4.47 -0.05,0.09 0.08,0.05 h 0.03 l 0.03,-0.09 z m 0.27,1.62 v 0.05 l 0.05,0.05 h 0.05 v -0.05 l -0.05,-0.05 z m 0.23,-5.62 0.05,0.05 h 0.08 v -0.02 l -0.08,-0.07 z m 0.24,2.48 v 0.02 l 0.16,-0.02 -0.05,-0.07 c -0.08,0.02 -0.11,0.05 -0.11,0.07 z m 0.05,1.36 v 0.02 h 0.03 c 0,-0.06 0.03,-0.09 0.08,-0.09 v -0.05 c -0.04,0.01 -0.08,0.05 -0.11,0.12 z m 0.23,-1.15 0.11,0.3 h 0.03 l 0.11,-0.07 -0.08,-0.14 0.03,-0.21 z m 0.63,-0.3 v 0.02 l 0.05,0.05 h 0.03 l 0.03,-0.02 h 0.03 l -0.08,-0.09 z m 1.65,-3.94 0.05,0.07 v 0.02 l -0.05,0.05 -0.05,-0.12 0.03,-0.02 z m 0.34,0.09 0.08,0.07 v 0.05 l -0.05,0.05 H 88.4 l -0.03,-0.02 h -0.03 c 0.03,-0.1 0.05,-0.15 0.08,-0.15 z m 0.29,0.07 c 0.1,0.03 0.17,0.07 0.21,0.12 l -0.08,0.05 c -0.14,-0.02 -0.21,-0.05 -0.21,-0.09 z"
   id="path8"
   style="fill:#f9b233" />
&#10;				<path
   class="st1"
   d="m 95.45,105.6 h 0.24 c 1.13,0.05 1.77,0.18 1.91,0.4 0.23,0.07 0.34,0.11 0.34,0.14 0.08,0.15 0.25,0.34 0.52,0.56 0.28,0.68 0.42,1.09 0.42,1.24 l -0.08,0.4 0.13,0.16 v 0.07 l -0.18,0.16 0.03,0.42 -0.03,0.96 -0.03,0.02 H 98.7 l -0.6,0.02 -0.84,-0.05 v -0.02 l 0.05,-0.16 h -0.03 c -0.16,0.14 -0.38,0.21 -0.65,0.21 l -0.31,0.02 -0.05,-0.07 -0.99,0.09 c 0,0.07 -0.08,0.13 -0.24,0.19 0,0.04 -0.04,0.11 -0.13,0.19 v 0.05 c 0.11,0 0.21,0.05 0.29,0.14 v 0.05 c 0,0.13 -0.12,0.24 -0.37,0.33 -0.05,0.11 -0.13,0.16 -0.24,0.16 l -0.21,-0.09 -0.05,0.05 v 0.02 c 0,0.06 0.1,0.1 0.31,0.12 l 0.13,0.45 c 0.13,-0.06 0.26,-0.09 0.39,-0.09 v 0.02 c -0.03,0.07 -0.05,0.17 -0.05,0.3 v 0.09 c 0,0.44 0.15,0.66 0.45,0.66 0.33,-0.06 0.5,-0.2 0.5,-0.42 0.05,-0.12 0.08,-0.29 0.08,-0.49 v -0.19 l 0.05,-0.05 h 0.05 c 0,0.11 0.08,0.18 0.24,0.23 l 0.08,-0.09 -0.05,-0.07 v -0.02 c 0,-0.14 0.05,-0.21 0.16,-0.21 l 0.42,0.05 c 0,-0.04 0.04,-0.07 0.13,-0.07 v -0.05 c 0,-0.12 -0.06,-0.2 -0.18,-0.26 l -0.24,0.12 -0.39,-0.09 v 0.05 l 0.03,0.12 -0.13,0.02 0.03,0.16 v 0.05 h -0.03 c -0.08,-0.03 -0.14,-0.07 -0.18,-0.14 v -0.3 l -0.03,-0.12 c 0.04,-0.03 0.1,-0.05 0.18,-0.05 l 0.03,-0.12 -0.16,-0.12 v -0.02 c 0,-0.03 0.17,-0.06 0.52,-0.09 0,0.02 0.04,0.05 0.11,0.07 l 0.16,-0.05 c 0.1,0 0.19,0.04 0.26,0.12 l -0.03,0.02 v 0.02 c 0.27,0.11 0.45,0.16 0.55,0.16 l 0.03,0.02 v 0.02 l -0.24,0.21 v 0.02 h 0.08 c 0.17,0 0.26,0.07 0.26,0.21 l 0.13,-0.02 h 0.08 l 0.08,-0.19 -0.05,-0.14 0.05,-0.21 v -0.02 c 0,-0.09 -0.07,-0.14 -0.21,-0.14 l -0.03,-0.02 v -0.02 c 0.09,-0.03 0.28,-0.05 0.55,-0.05 h 0.24 l 0.08,0.05 -0.03,0.28 v 1.03 c 0,0.73 -0.37,1.34 -1.1,1.83 -0.79,0.34 -1.45,0.52 -1.99,0.52 -0.44,0 -1.17,-0.12 -2.2,-0.38 -0.13,-0.06 -0.21,-0.12 -0.21,-0.19 -0.1,0 -0.37,-0.24 -0.81,-0.73 l 0.03,-0.09 -0.21,-0.61 v -0.05 l 0.05,-0.05 h 0.08 l 0.29,0.19 0.21,-0.14 c -0.14,0 -0.26,-0.04 -0.37,-0.12 l -0.03,0.02 h -0.21 l -0.03,-0.02 h -0.03 l 0.03,-0.4 v -0.82 c 0,-0.2 0.05,-0.46 0.16,-0.8 l -0.03,-0.02 v -0.47 c 0.09,0 0.13,-0.04 0.13,-0.12 0,-0.06 0.05,-0.09 0.16,-0.09 v -0.02 c -0.19,0 -0.29,-0.03 -0.29,-0.09 l -0.03,-0.42 v -0.26 c 0,-0.72 0.24,-1.47 0.73,-2.25 0.56,-0.38 1.01,-0.6 1.33,-0.66 0.17,-0.11 0.52,-0.17 1.05,-0.17 z m -3.14,5.44 0.16,0.16 v 0.12 h 0.21 v -0.02 c -0.11,0 -0.18,-0.09 -0.21,-0.28 z m 0.89,-0.47 v 0.16 c -0.09,0.05 -0.13,0.12 -0.13,0.21 -0.03,0.08 -0.08,0.12 -0.16,0.12 l 0.03,0.02 v 0.02 c 0,0.12 -0.07,0.19 -0.21,0.19 v 0.02 l 0.16,0.14 v 0.02 l -0.21,0.23 0.08,0.19 c 0.38,-0.09 0.58,-0.16 0.58,-0.21 -0.28,-0.19 -0.42,-0.3 -0.42,-0.33 0,-0.05 0.15,-0.19 0.45,-0.42 0,-0.05 0.02,-0.07 0.05,-0.07 0.09,0.11 0.18,0.16 0.26,0.16 h 0.03 L 93.68,111 v -0.05 l 0.16,-0.14 c -0.1,0 -0.16,-0.02 -0.16,-0.05 l 0.03,-0.07 c 0,-0.1 -0.1,-0.17 -0.31,-0.21 h -0.03 z m -0.49,-3.12 v 0.05 l 0.03,0.07 h 0.03 v -0.05 l 0.03,-0.02 -0.05,-0.05 z m 0.28,-2.23 c 0.07,0.02 0.11,0.08 0.11,0.16 v 0.05 l -0.03,0.02 v 0.02 c -0.1,-0.03 -0.16,-0.09 -0.16,-0.19 z m 0.58,2.72 -0.05,0.05 0.03,0.07 0.08,-0.02 v -0.05 z m 1.7,-0.23 0.03,1.01 h 0.79 v -0.98 c 0,-0.19 -0.06,-0.39 -0.18,-0.61 h -0.1 c -0.31,0.03 -0.47,0.11 -0.47,0.23 z m 1.02,-1.57 0.03,0.02 h 0.03 c 0.07,-0.02 0.1,-0.05 0.1,-0.07 l -0.05,-0.05 h -0.03 c -0.02,0.01 -0.05,0.04 -0.08,0.1 z m 0.4,0.07 v 0.02 l 0.05,0.05 0.03,-0.02 v -0.02 l -0.03,-0.02 h -0.05 z m 1.17,-1.85 0.13,0.16 v 0.02 c -0.09,0 -0.15,-0.03 -0.18,-0.09 v -0.05 z m 0,2.67 c 0.02,0.17 0.04,0.26 0.08,0.26 h 0.03 v -0.05 H 98 l -0.03,-0.02 v -0.21 h -0.05 l -0.03,0.02 z m 0.29,-1.92 c 0.19,0.02 0.29,0.06 0.29,0.12 v 0.05 h -0.05 c -0.16,-0.01 -0.24,-0.06 -0.24,-0.17 z m 0.16,4.22 v 0.02 c 0.01,0.03 0.05,0.06 0.13,0.09 v -0.02 l -0.08,-0.09 z m 0.6,-0.07 h 0.03 l 0.13,0.09 -0.03,0.02 h -0.13 l -0.05,-0.05 v -0.02 z m 0.31,-0.92 0.05,0.05 v 0.05 l -0.08,0.07 h -0.03 l -0.05,-0.05 c 0.04,-0.07 0.08,-0.11 0.11,-0.12 z"
   id="path9"
   style="fill:#f9b233" />
&#10;				<path
   class="st1"
   d="m 105.15,105.39 c 0.25,0.06 0.86,0.11 1.83,0.14 0.36,0.05 0.66,0.17 0.89,0.35 0.04,0.05 0.13,0.1 0.29,0.14 l 0.52,0.68 0.1,0.35 -0.05,0.63 h 0.05 v 0.05 l -0.03,0.02 0.1,0.21 -0.08,0.38 v 0.16 c 0,0.29 0.04,0.56 0.13,0.8 l -0.1,0.66 0.03,2.88 c -0.02,0.81 -0.07,1.22 -0.16,1.22 h -0.76 c -0.04,0 -0.08,-0.05 -0.1,-0.16 -0.25,0 -0.4,0.05 -0.45,0.14 l -0.05,0.05 h -0.52 l -0.84,-0.02 -0.03,-0.02 v -0.02 c 0.24,-0.22 0.51,-0.33 0.81,-0.33 0.25,-0.13 0.38,-0.21 0.39,-0.26 h -0.26 c -0.21,0.12 -0.41,0.19 -0.6,0.19 -0.17,0 -0.29,-0.11 -0.34,-0.33 l -0.08,-0.05 h -0.1 v 0.02 c 0.14,0.05 0.21,0.13 0.21,0.23 h -0.03 l -0.08,-0.02 c -0.07,0.11 -0.17,0.2 -0.29,0.28 l 0.03,0.07 c -0.14,0 -0.25,0.08 -0.34,0.23 -0.23,0.04 -0.34,0.12 -0.34,0.26 l -0.29,-0.07 -0.65,0.07 c -0.27,0 -0.69,-0.19 -1.28,-0.56 -0.24,-0.35 -0.37,-0.79 -0.37,-1.31 v -0.56 c 0.05,-0.22 0.09,-0.63 0.1,-1.24 0.07,-0.27 0.16,-0.4 0.29,-0.4 0,-0.2 0.46,-0.45 1.39,-0.75 0.42,-0.2 0.93,-0.38 1.52,-0.56 l 0.03,-0.02 v -0.02 l -0.03,-0.07 c 0.19,0 0.29,-0.09 0.29,-0.26 0.03,-0.19 0.05,-0.42 0.05,-0.7 0,-0.4 -0.11,-0.66 -0.34,-0.8 l -0.16,-0.05 c -0.2,0 -0.31,0.19 -0.34,0.56 v 0.07 l 0.05,0.45 -0.05,0.12 0.11,0.35 -0.05,0.05 0.05,0.26 c 0,0.07 -0.4,0.11 -1.2,0.12 h -1.18 c -0.37,0 -0.55,-0.02 -0.55,-0.07 v -0.14 l 0.05,-0.14 c 0.21,0.12 0.45,0.19 0.73,0.19 0,0.03 0.06,0.05 0.18,0.05 l 0.05,-0.05 h 0.13 l 0.05,0.05 c 0.04,0 0.12,-0.05 0.24,-0.14 h 0.1 c 0,-0.03 -0.06,-0.07 -0.18,-0.14 h -0.08 c 0,0.06 -0.05,0.09 -0.16,0.09 h -0.08 c -0.14,0 -0.21,-0.06 -0.21,-0.19 v -0.02 c 0,-0.06 0.05,-0.14 0.16,-0.23 -0.09,-0.02 -0.13,-0.04 -0.13,-0.07 l 0.03,-0.09 -0.6,-0.02 v 0.02 c -0.07,0.12 -0.16,0.19 -0.26,0.19 v -0.68 c 0.09,-0.11 0.17,-0.16 0.26,-0.16 0.28,0 0.52,0.03 0.73,0.09 l 0.08,-0.09 c -0.04,0 -0.09,-0.06 -0.13,-0.19 h -0.16 c -0.05,0 -0.07,-0.04 -0.08,-0.12 h -0.26 l -0.31,-0.05 v -0.02 c 0,-0.25 0.27,-0.59 0.81,-1.03 0.72,-0.44 1.35,-0.65 1.9,-0.65 z m -2.09,4.83 v 0.02 l 0.03,0.07 h 0.03 v -0.07 l -0.03,-0.02 z m 0.05,-0.26 v 0.05 l 0.11,-0.09 h -0.05 z m 1.02,2.07 -0.05,0.07 0.05,0.05 h 0.03 l 0.03,-0.09 -0.03,-0.02 h -0.03 z m 0.24,0.58 c 0,0.05 -0.04,0.09 -0.13,0.14 l -0.03,-0.02 h -0.03 l -0.05,0.14 0.26,0.14 0.42,-0.16 -0.03,-0.02 v -0.14 l -0.08,-0.02 -0.16,0.05 c -0.1,-0.01 -0.16,-0.04 -0.16,-0.09 h -0.01 z m -0.16,0.57 v 0.14 l 0.05,-0.05 -0.03,-0.09 z m 0.02,0.96 0.1,0.07 v -0.07 l -0.05,-0.05 z m 0.16,-6.71 v 0.02 l 0.05,0.05 h 0.03 z m 0.87,5.56 -0.05,0.12 h -0.05 l -0.13,-0.09 v 0.02 c 0.04,0.09 0.12,0.19 0.26,0.28 0,-0.03 0.11,-0.08 0.31,-0.16 l -0.08,-0.16 -0.21,0.05 z m -0.19,-1.13 c 0.04,0.61 0.21,0.91 0.5,0.91 0.23,0 0.36,-0.28 0.39,-0.84 v -0.38 l -0.1,-0.73 0.03,-0.54 c -0.55,0.27 -0.82,0.8 -0.82,1.58 z m 0.29,-6.3 v 0.07 h 0.05 v -0.02 z m 0.63,4.12 -0.03,0.12 v 0.02 h 0.03 l 0.29,0.02 v -0.09 l -0.21,0.05 -0.05,-0.12 z m 0.03,1.03 v 0.07 h 0.05 l 0.05,-0.05 -0.03,-0.07 h -0.03 z m 0.02,1.06 v 0.07 l 0.05,-0.05 v -0.02 z m 1.26,-2.2 -0.08,0.33 0.03,0.02 h 0.16 c 0.12,-0.01 0.23,-0.07 0.34,-0.16 l -0.03,-0.09 0.03,-0.02 -0.03,-0.07 -0.1,-0.02 z m 0.29,4.4 h 0.18 l 0.08,0.07 -0.05,0.05 h -0.29 v -0.05 z"
   id="path10"
   style="fill:#f9b233" />
&#10;				<path
   class="st1"
   d="m 118.21,111.93 h 0.42 v 0.02 l -0.08,0.07 -0.34,-0.05 z m 0.18,2.13 h 0.29 v 0.05 h -0.29 z m 4.32,-9.75 c 0.61,0 1.2,0.19 1.78,0.56 0,0.06 0.1,0.11 0.29,0.14 0.65,0.45 0.97,1.01 0.97,1.69 0.04,0.25 0.05,0.59 0.05,1.03 v 0.42 l -0.03,0.02 v 0.02 l -0.26,-0.05 -1,0.12 -0.29,-0.07 -0.94,0.07 h -0.42 l -0.05,-0.05 v -0.23 l 0.1,-0.02 -0.08,-0.49 0.05,-0.8 v -0.05 c 0,-0.29 -0.1,-0.47 -0.29,-0.54 -0.2,0 -0.37,0.09 -0.52,0.28 0,0.17 0.04,0.31 0.13,0.42 l -0.21,0.49 -0.26,0.07 v 0.02 c 0.04,0 0.11,0.05 0.21,0.16 l 0.08,-0.02 v 0.16 l 0.05,0.05 -0.13,1.66 0.08,1.88 -0.05,0.96 c 0,0.34 0.15,0.52 0.45,0.52 h 0.03 c 0.3,0 0.44,-0.22 0.44,-0.66 l -0.08,-0.61 0.13,-0.75 c -0.02,-0.06 -0.05,-0.09 -0.1,-0.09 l -0.37,0.05 h -0.03 l -0.05,-0.05 v -0.19 l -0.05,-1.29 c 0.31,-0.08 0.83,-0.13 1.54,-0.16 l 0.68,-0.02 1.26,0.05 0.03,0.02 v 0.02 c -0.09,1.04 -0.13,1.84 -0.13,2.39 v 1.73 c -0.05,0.15 -0.1,0.23 -0.13,0.23 -0.06,0 -0.17,-0.1 -0.31,-0.3 l -0.24,0.05 v 0.02 c 0.17,0.04 0.26,0.14 0.26,0.28 -0.11,0.05 -0.22,0.12 -0.34,0.23 l 0.5,0.14 c 0.07,-0.01 0.14,-0.06 0.24,-0.16 h 0.03 l 0.03,0.35 -0.03,0.02 h -0.84 c -0.27,0 -0.55,0.03 -0.84,0.09 -0.08,-0.02 -0.19,-0.19 -0.34,-0.52 l -0.03,-0.02 h -0.03 c -0.62,0.52 -1.13,0.77 -1.54,0.77 l -0.31,-0.12 h -0.31 c -0.73,-0.17 -1.36,-0.47 -1.88,-0.91 -0.08,-0.09 -0.24,-0.38 -0.47,-0.87 l 0.05,-0.38 v -0.26 l -0.03,-0.28 0.08,-1.43 v -1.29 l 0.03,-0.02 -0.03,-0.02 v -0.16 l -0.05,-0.8 c 0.01,-0.2 0.05,-0.3 0.1,-0.3 l 0.37,0.09 c 0,-0.16 0.11,-0.26 0.34,-0.28 0.06,0 0.12,0.02 0.18,0.07 0,-0.2 0.1,-0.3 0.31,-0.3 0.15,-0.12 0.3,-0.19 0.45,-0.19 l -0.13,-0.26 c -0.1,0 -0.17,-0.08 -0.21,-0.23 h -0.16 l -0.08,0.05 h -0.16 c -0.04,0 -0.07,-0.03 -0.08,-0.09 l -0.21,0.05 -0.21,-0.14 h -0.03 c -0.07,0.05 -0.13,0.07 -0.18,0.07 l -0.03,-0.02 h -0.03 c 0.04,-0.28 0.1,-0.42 0.18,-0.42 l 0.05,-0.07 0.1,0.05 v -0.02 c 0,-0.05 -0.05,-0.07 -0.16,-0.07 v -0.02 c 0.12,-0.28 0.23,-0.42 0.31,-0.42 0.29,-0.23 0.47,-0.35 0.52,-0.35 0.62,-0.46 1.37,-0.7 2.28,-0.7 z m -3.32,2.6 0.08,0.02 v 0.05 c -0.06,0.08 -0.13,0.14 -0.21,0.16 v -0.02 z m 0.02,-0.44 h 0.08 v 0.07 l -0.05,0.05 h -0.03 z m 0.21,8.06 c 0.17,0.02 0.26,0.05 0.26,0.09 l -0.08,0.02 -0.24,-0.07 z m 0.05,-6.77 -0.03,0.02 v 0.05 h 0.03 l 0.05,-0.05 -0.03,-0.02 z m 0.19,-1.79 -0.05,0.05 v 0.14 l 0.16,-0.14 v -0.05 z m 0.44,0.68 0.03,0.02 v 0.09 c -0.02,0.19 -0.11,0.28 -0.29,0.28 l -0.18,-0.02 V 107 c 0,-0.19 0.15,-0.31 0.44,-0.35 z m -0.44,1.72 v 0.02 l 0.05,0.05 0.05,-0.07 v -0.02 h -0.03 z m 0.21,-0.36 c 0.03,0.06 0.05,0.09 0.08,0.09 l 0.05,-0.05 v -0.02 z m 0.02,-0.35 h 0.24 l 0.18,-0.02 -0.05,-0.05 h -0.03 l -0.24,0.05 -0.03,-0.07 c -0.01,0 -0.04,0.03 -0.07,0.09 z m 0.13,6.99 v 0.02 l -0.05,0.05 h -0.08 v -0.05 z m -0.1,-6 v 0.02 c 0.07,0.1 0.1,0.2 0.1,0.28 h 0.08 v -0.02 c -0.05,-0.08 -0.08,-0.16 -0.08,-0.23 v -0.05 z m 0.73,2.18 v 0.07 h 0.03 l 0.11,-0.09 -0.03,-0.02 v -0.02 z m 0.19,-3.87 c 0.08,0.07 0.14,0.17 0.18,0.28 l 0.24,0.05 c -0.04,-0.19 -0.11,-0.3 -0.24,-0.35 z m 0.1,-0.82 0.03,0.02 h 0.03 l 0.08,-0.07 -0.05,-0.09 c -0.06,0.01 -0.09,0.06 -0.09,0.14 z m 0.13,-0.73 v 0.02 l 0.03,0.07 h 0.08 l 0.05,-0.05 v -0.02 l -0.13,-0.02 z m 0,3.24 v 0.05 l 0.08,0.02 0.05,-0.07 -0.03,-0.09 z m 0.18,-2.56 v 0.02 l 0.03,0.02 v 0.02 l 0.1,-0.07 -0.08,-0.05 z m 0.08,0.61 v 0.05 l 0.05,0.05 0.05,-0.05 -0.05,-0.05 z m 0.61,7.78 0.05,0.14 v 0.28 l 0.03,0.02 v 0.02 l -0.03,0.02 h -0.05 l -0.05,-0.05 v -0.23 c 0,-0.03 -0.06,-0.05 -0.18,-0.07 v -0.02 c -0.01,-0.03 0.07,-0.07 0.23,-0.11 z m -0.19,-8.72 -0.03,0.09 0.03,0.02 h 0.08 v -0.07 l -0.05,-0.05 h -0.03 z m 0.32,0.61 0.05,0.05 -0.03,0.02 h -0.03 l -0.05,-0.05 0.03,-0.02 z m 0.18,-0.32 h 0.16 v -0.12 z m 1.02,3.44 -0.05,0.05 0.03,0.07 h 0.05 l 0.05,-0.05 z m 0.13,-3.84 -0.03,0.02 v 0.02 l 0.05,0.05 h 0.03 v -0.05 z m 0.21,0.49 c 0,0.08 -0.07,0.16 -0.21,0.26 l 0.03,0.02 h 0.05 c 0.13,0 0.2,-0.02 0.21,-0.07 v -0.21 z m 0,0.94 0.03,0.12 0.86,-0.14 -0.05,-0.05 -0.37,0.07 c -0.16,-0.05 -0.24,-0.09 -0.24,-0.12 l 0.03,-0.07 -0.03,-0.02 h -0.03 z m 0.11,6.77 v 0.05 l 0.05,0.05 0.03,-0.02 v -0.02 z m 0.1,-6.23 v 0.09 h 0.05 v -0.05 z m 0.26,1.96 -0.1,0.05 v 0.02 c 0.31,0.12 0.47,0.27 0.47,0.47 l 0.13,-0.02 0.11,0.07 0.08,-0.07 c -0.09,-0.04 -0.13,-0.1 -0.13,-0.19 0,-0.08 0.05,-0.18 0.16,-0.3 l -0.42,0.09 -0.03,-0.02 0.03,-0.02 v -0.09 l -0.03,0.02 h -0.27 z m 0.03,3.12 -0.05,0.07 h 0.05 l 0.05,-0.05 -0.03,-0.02 z m 0.08,-6.94 v 0.05 c 0,0.02 0.04,0.05 0.11,0.07 0,-0.06 0.04,-0.09 0.13,-0.09 v -0.12 c 0.07,-0.09 0.14,-0.14 0.21,-0.14 v -0.02 h -0.08 z m 0.42,1.46 v 0.02 l 0.24,0.16 v -0.07 c -0.07,0 -0.15,-0.03 -0.24,-0.11 z m 0.07,3.18 0.21,0.07 c 0,-0.09 0.04,-0.14 0.13,-0.14 v -0.02 l -0.05,-0.07 c -0.17,0 -0.26,0.02 -0.26,0.07 z m 0.11,2.02 c 0,0.05 0.04,0.12 0.1,0.19 l -0.1,0.05 v 0.02 l 0.45,-0.07 v -0.02 c -0.16,0 -0.24,-0.09 -0.24,-0.26 h -0.1 z m 0.08,-0.66 -0.03,0.09 0.03,0.02 h 0.05 v -0.07 z m 1.8,-8.29 h 0.05 l 0.05,0.05 -0.03,0.02 h -0.03 l -0.05,-0.05 v -0.02 z"
   id="path11"
   style="fill:#f9b233" />
&#10;				<path
   class="st1"
   d="m 132.33,105.76 c 0.09,0 0.13,0.66 0.13,1.97 l -0.03,0.02 h -0.03 l 0.03,0.19 -0.03,1.78 c 0,0.71 0.08,1.54 0.24,2.48 l -0.05,0.33 c 0.06,0.2 0.21,0.3 0.45,0.3 0.26,0 0.39,-0.13 0.39,-0.4 v -0.12 l -0.13,-0.56 0.08,-1.73 -0.08,-1.27 v -2.02 c 0,-0.38 -0.02,-0.69 -0.05,-0.91 l 0.03,-0.02 h 0.03 l 2.91,-0.07 0.03,0.02 0.05,2.34 -0.05,2.34 0.05,0.21 -0.05,0.77 c 0.09,0.23 0.13,0.39 0.13,0.47 l -0.05,0.3 v 0.02 l 0.1,0.63 c -0.04,0 -0.09,0.09 -0.16,0.26 l -1.12,0.26 c 0,0.04 0.04,0.06 0.13,0.07 l 0.08,-0.07 h 0.05 c 0.16,0.03 0.24,0.08 0.24,0.16 h 0.05 c 0.27,0 0.51,-0.02 0.73,-0.07 0.05,0.07 0.08,0.18 0.08,0.3 v 0.16 c 0,0.17 -0.06,0.26 -0.18,0.26 0,0.03 -0.52,0.05 -1.57,0.07 l -1.23,-0.02 -0.08,-0.12 c 0,-0.13 0.02,-0.24 0.05,-0.33 -0.02,-0.08 -0.05,-0.12 -0.08,-0.12 h -0.03 c -0.03,0 -0.09,0.09 -0.18,0.26 -0.45,0.34 -0.84,0.52 -1.15,0.52 h -0.5 c -0.73,-0.05 -1.1,-0.16 -1.1,-0.33 -0.23,-0.07 -0.45,-0.3 -0.65,-0.68 -0.16,-0.28 -0.24,-0.77 -0.24,-1.48 v -0.63 h 0.03 l 0.03,0.02 h 0.03 l 0.05,-0.09 c -0.09,-0.01 -0.13,-0.04 -0.13,-0.07 l -0.1,-2.06 0.03,-0.02 h 0.03 c 0.03,0.03 0.17,0.06 0.42,0.09 l 0.08,-0.09 c -0.16,-0.05 -0.24,-0.16 -0.24,-0.35 v -0.07 h -0.03 c 0,0.17 -0.1,0.26 -0.29,0.26 l -0.03,-0.02 -0.03,-1.17 v -1.27 l -0.05,-0.66 0.03,-0.02 h 0.03 l 0.5,-0.02 0.6,0.02 v 0.02 l -0.03,0.09 h 0.08 v -0.05 h 0.03 l -0.03,-0.02 v -0.05 h 0.73 z m -2.75,3.58 -0.05,0.07 v 0.05 h 0.1 v -0.07 z m 0.11,-3.14 -0.03,0.02 v 0.02 l 0.1,0.07 0.05,-0.07 z m 0.28,5.14 v 0.07 h 0.05 l 0.03,-0.07 z m 0.03,-3.05 c 0.1,0.09 0.16,0.17 0.16,0.23 v 0.09 l -0.08,0.07 0.05,0.12 c 0.07,-0.06 0.2,-0.09 0.37,-0.09 l -0.05,-0.07 v -0.09 l 0.03,-0.02 v -0.02 h -0.08 l -0.13,0.02 c -0.07,-0.15 -0.12,-0.23 -0.16,-0.23 H 130 Z m 0.16,2.04 v 0.02 l 0.05,0.05 0.03,-0.02 v -0.05 z m 0.47,2.55 -0.03,0.02 v 0.02 l 0.03,0.02 h 0.08 z m 0.34,-3.16 -0.21,-0.07 -0.13,0.05 0.18,0.3 0.29,0.07 c 0.1,-0.08 0.16,-0.15 0.16,-0.21 l 0.05,-0.23 z m -0.34,1.24 c 0,0.04 0.1,0.06 0.31,0.07 0.07,0.07 0.1,0.13 0.1,0.19 v 0.05 l -0.05,0.07 0.03,0.02 v 0.02 c 0,0.07 -0.12,0.18 -0.37,0.33 0.12,0 0.18,0.09 0.18,0.26 l 0.21,0.05 -0.1,-0.12 v -0.02 h 0.16 l 0.13,0.02 c 0.1,-0.16 0.16,-0.26 0.16,-0.3 v -0.02 l -0.16,-0.19 v -0.12 l 0.13,-0.12 c -0.08,-0.22 -0.21,-0.33 -0.39,-0.33 0,-0.03 -0.03,-0.05 -0.1,-0.05 -0.09,0 -0.17,0.07 -0.24,0.19 z m 0.26,-1.71 -0.03,0.09 h 0.08 v -0.02 l -0.03,-0.07 z m 0.76,-0.4 c -0.16,-0.05 -0.31,-0.07 -0.44,-0.07 h -0.08 c 0.09,0.09 0.13,0.16 0.13,0.21 -0.1,0.04 -0.21,0.1 -0.31,0.19 v 0.02 h 0.03 l 0.34,-0.14 -0.03,-0.02 v -0.09 l 0.13,-0.12 c 0.38,0.12 0.58,0.23 0.58,0.3 l 0.13,-0.02 h 0.08 l 0.03,0.02 h 0.03 l 0.03,-0.02 v -0.02 c -0.05,-0.06 -0.08,-0.11 -0.08,-0.16 v -0.05 l 0.03,-0.12 c -0.23,0 -0.42,0.03 -0.6,0.09 z m -0.32,4.76 v 0.05 h 0.03 l 0.05,-0.05 z m 0.61,-3.73 v 0.02 h 0.03 l 0.05,-0.05 v -0.02 h -0.03 z m 1.75,-1.03 v 0.07 h 0.08 z m 0.18,-0.82 v 0.02 c 0.07,0.07 0.1,0.13 0.1,0.19 v 0.05 c 0,0.03 -0.04,0.05 -0.1,0.05 l -0.03,0.12 v 0.02 l 0.24,-0.05 0.24,0.07 0.08,-0.16 h 0.03 c 0.1,0.12 0.18,0.19 0.24,0.19 0.25,0 0.42,-0.06 0.52,-0.19 0.12,-0.06 0.24,-0.09 0.37,-0.09 l 0.29,0.09 v -0.02 l -0.08,-0.21 c -0.4,0 -0.6,0.07 -0.6,0.21 l -0.08,0.05 h -0.47 l -0.16,-0.09 -0.24,0.02 v -0.02 l 0.11,-0.16 -0.05,-0.14 v -0.02 l 0.03,-0.02 v -0.02 h -0.03 l -0.26,0.12 z m 0,0.94 v 0.05 h 0.08 v -0.05 z m 0.11,0.21 c 0,0.03 -0.03,0.05 -0.08,0.05 v 0.07 h 0.1 l 0.03,-0.09 -0.03,-0.02 h -0.02 z m 0.55,0.33 v 0.02 c 0,0.11 0.06,0.16 0.18,0.16 h 0.03 c 0.16,-0.15 0.38,-0.27 0.65,-0.35 0,-0.03 0.03,-0.05 0.08,-0.05 v -0.02 l -0.13,-0.02 h -0.08 c -0.42,0 -0.63,0.03 -0.63,0.09 z m 0.49,0.51 0.03,0.02 h 0.03 l 0.03,-0.02 v -0.05 h -0.03 z m 0.82,-1.66 -0.03,0.07 h 0.05 v -0.07 z"
   id="path12"
   style="fill:#f9b233" />
&#10;				<path
   class="st1"
   d="m 143.14,105.6 h 0.24 c 1.13,0.05 1.77,0.18 1.91,0.4 0.23,0.07 0.34,0.11 0.34,0.14 0.08,0.15 0.25,0.34 0.52,0.56 0.28,0.68 0.42,1.09 0.42,1.24 l -0.08,0.4 0.13,0.16 v 0.07 l -0.18,0.16 0.03,0.42 -0.03,0.96 -0.03,0.02 h -0.03 l -0.6,0.02 -0.84,-0.05 v -0.02 l 0.05,-0.16 h -0.03 c -0.16,0.14 -0.38,0.21 -0.65,0.21 l -0.31,0.02 -0.05,-0.07 -0.99,0.09 c 0,0.07 -0.08,0.13 -0.24,0.19 0,0.04 -0.04,0.11 -0.13,0.19 v 0.05 c 0.11,0 0.21,0.05 0.29,0.14 v 0.05 c 0,0.13 -0.12,0.24 -0.37,0.33 -0.05,0.11 -0.13,0.16 -0.24,0.16 l -0.21,-0.09 -0.05,0.05 v 0.02 c 0,0.06 0.1,0.1 0.31,0.12 l 0.13,0.45 c 0.13,-0.06 0.26,-0.09 0.39,-0.09 v 0.02 c -0.03,0.07 -0.05,0.17 -0.05,0.3 v 0.09 c 0,0.44 0.15,0.66 0.45,0.66 0.33,-0.06 0.5,-0.2 0.5,-0.42 0.05,-0.12 0.08,-0.29 0.08,-0.49 v -0.19 l 0.05,-0.05 h 0.05 c 0,0.11 0.08,0.18 0.24,0.23 l 0.08,-0.09 -0.05,-0.07 v -0.02 c 0,-0.14 0.05,-0.21 0.16,-0.21 l 0.42,0.05 c 0,-0.04 0.04,-0.07 0.13,-0.07 v -0.05 c 0,-0.12 -0.06,-0.2 -0.18,-0.26 l -0.24,0.12 -0.39,-0.09 v 0.05 l 0.03,0.12 -0.13,0.02 0.03,0.16 v 0.05 h -0.03 c -0.08,-0.03 -0.14,-0.07 -0.18,-0.14 v -0.3 l -0.03,-0.12 c 0.04,-0.03 0.1,-0.05 0.18,-0.05 l 0.03,-0.12 -0.16,-0.12 v -0.02 c 0,-0.03 0.17,-0.06 0.52,-0.09 0,0.02 0.04,0.05 0.11,0.07 l 0.16,-0.05 c 0.1,0 0.19,0.04 0.26,0.12 l -0.03,0.02 v 0.02 c 0.27,0.11 0.45,0.16 0.55,0.16 l 0.03,0.02 v 0.02 l -0.24,0.21 v 0.02 h 0.08 c 0.17,0 0.26,0.07 0.26,0.21 l 0.13,-0.02 h 0.08 l 0.08,-0.19 -0.05,-0.14 0.05,-0.21 v -0.02 c 0,-0.09 -0.07,-0.14 -0.21,-0.14 l -0.03,-0.02 v -0.02 c 0.09,-0.03 0.28,-0.05 0.55,-0.05 h 0.24 l 0.08,0.05 -0.03,0.28 v 1.03 c 0,0.73 -0.37,1.34 -1.1,1.83 -0.79,0.34 -1.45,0.52 -1.99,0.52 -0.44,0 -1.17,-0.12 -2.2,-0.38 -0.13,-0.06 -0.21,-0.12 -0.21,-0.19 -0.1,0 -0.37,-0.24 -0.81,-0.73 l 0.03,-0.09 -0.21,-0.61 v -0.05 l 0.05,-0.05 h 0.08 l 0.29,0.19 0.21,-0.14 c -0.14,0 -0.26,-0.04 -0.37,-0.12 l -0.03,0.02 h -0.21 l -0.03,-0.02 h -0.03 l 0.03,-0.4 v -0.82 c 0,-0.2 0.05,-0.46 0.16,-0.8 l -0.03,-0.02 v -0.47 c 0.09,0 0.13,-0.04 0.13,-0.12 0,-0.06 0.05,-0.09 0.16,-0.09 v -0.02 c -0.19,0 -0.29,-0.03 -0.29,-0.09 l -0.03,-0.42 v -0.26 c 0,-0.72 0.24,-1.47 0.73,-2.25 0.56,-0.38 1.01,-0.6 1.33,-0.66 0.17,-0.11 0.52,-0.17 1.06,-0.17 z m -3.14,5.44 0.16,0.16 v 0.12 h 0.21 v -0.02 c -0.11,0 -0.18,-0.09 -0.21,-0.28 z m 0.89,-0.47 v 0.16 c -0.09,0.05 -0.13,0.12 -0.13,0.21 -0.03,0.08 -0.08,0.12 -0.16,0.12 l 0.03,0.02 v 0.02 c 0,0.12 -0.07,0.19 -0.21,0.19 v 0.02 l 0.16,0.14 v 0.02 l -0.21,0.23 0.08,0.19 c 0.38,-0.09 0.58,-0.16 0.58,-0.21 -0.28,-0.19 -0.42,-0.3 -0.42,-0.33 0,-0.05 0.15,-0.19 0.45,-0.42 0,-0.05 0.02,-0.07 0.05,-0.07 0.09,0.11 0.18,0.16 0.26,0.16 h 0.03 L 141.37,111 v -0.05 l 0.16,-0.14 c -0.1,0 -0.16,-0.02 -0.16,-0.05 l 0.03,-0.07 c 0,-0.1 -0.1,-0.17 -0.31,-0.21 h -0.03 z m -0.5,-3.12 v 0.05 l 0.03,0.07 h 0.03 v -0.05 l 0.03,-0.02 -0.05,-0.05 z m 0.29,-2.23 c 0.07,0.02 0.11,0.08 0.11,0.16 v 0.05 l -0.03,0.02 v 0.02 c -0.1,-0.03 -0.16,-0.09 -0.16,-0.19 z m 0.57,2.72 -0.05,0.05 0.03,0.07 0.08,-0.02 v -0.05 z m 1.71,-0.23 0.03,1.01 h 0.79 v -0.98 c 0,-0.19 -0.06,-0.39 -0.18,-0.61 h -0.1 c -0.31,0.03 -0.47,0.11 -0.47,0.23 z m 1.02,-1.57 0.03,0.02 h 0.03 c 0.07,-0.02 0.1,-0.05 0.1,-0.07 l -0.05,-0.05 h -0.03 c -0.03,0.01 -0.06,0.04 -0.08,0.1 z m 0.39,0.07 v 0.02 l 0.05,0.05 0.03,-0.02 v -0.02 l -0.03,-0.02 h -0.05 z m 1.18,-1.85 0.13,0.16 v 0.02 c -0.09,0 -0.15,-0.03 -0.18,-0.09 v -0.05 z m 0,2.67 c 0.02,0.17 0.04,0.26 0.08,0.26 h 0.03 v -0.05 h 0.03 l -0.03,-0.02 v -0.21 h -0.05 l -0.03,0.02 z m 0.28,-1.92 c 0.19,0.02 0.29,0.06 0.29,0.12 v 0.05 h -0.05 c -0.16,-0.01 -0.24,-0.06 -0.24,-0.17 z m 0.16,4.22 v 0.02 c 0.01,0.03 0.05,0.06 0.13,0.09 v -0.02 l -0.08,-0.09 z m 0.6,-0.07 h 0.03 l 0.13,0.09 -0.03,0.02 h -0.13 l -0.05,-0.05 v -0.02 z m 0.32,-0.92 0.05,0.05 v 0.05 l -0.08,0.07 h -0.03 l -0.05,-0.05 c 0.04,-0.07 0.07,-0.11 0.11,-0.12 z"
   id="path13"
   style="fill:#f9b233" />
&#10;				<path
   class="st1"
   d="m 154.62,105.22 0.05,0.09 -0.1,2.11 v 0.54 l 0.03,0.23 -0.86,0.16 c -0.37,0.11 -0.55,0.22 -0.55,0.35 -0.23,0 -0.34,0.44 -0.34,1.31 v 0.21 c -0.07,0 -0.1,0.02 -0.1,0.05 0.09,0.02 0.13,0.08 0.13,0.16 v 0.33 l -0.03,0.02 v 0.02 l -0.03,-0.02 h -0.18 l -0.08,0.05 -0.1,-0.02 -0.05,0.05 h -0.26 l -0.1,-0.09 v -0.12 l 0.08,-0.07 h 0.18 l 0.05,-0.12 h -0.26 c -0.23,0 -0.34,0.02 -0.34,0.07 v 0.21 l -0.03,0.02 c -0.06,0.03 -0.11,0.11 -0.16,0.23 -0.1,0.08 -0.2,0.12 -0.31,0.12 h -0.08 c -0.26,0 -0.39,-0.04 -0.39,-0.12 h -0.03 c -0.03,0 -0.05,0.05 -0.05,0.16 -0.12,0.04 -0.2,0.13 -0.24,0.26 h 0.21 c 0.09,-0.06 0.17,-0.09 0.24,-0.09 h 0.03 c 0.14,0.02 0.21,0.07 0.21,0.14 l -0.08,0.14 h 0.24 c 0,0.05 0.02,0.07 0.05,0.07 0.05,-0.04 0.22,-0.07 0.52,-0.12 l -0.08,-0.33 c 0,-0.04 0.17,-0.14 0.5,-0.3 h 0.05 v 0.19 c 0.09,0.12 0.17,0.2 0.26,0.21 l 0.03,0.02 0.03,-0.02 v -0.02 c -0.12,-0.04 -0.18,-0.13 -0.18,-0.28 l 0.24,-0.09 c 0.12,0.03 0.18,0.06 0.18,0.09 v 0.14 c 0,0.05 -0.03,0.11 -0.08,0.16 0.07,0 0.1,0.07 0.1,0.21 v 0.02 c 0,0.64 0.04,1.43 0.11,2.37 -0.71,0.11 -1.35,0.16 -1.94,0.16 h -0.92 l -0.03,-0.02 h -0.03 c -0.05,-2.46 -0.11,-4.06 -0.18,-4.8 l 0.24,-1.52 -0.05,-0.33 0.05,-1.36 -0.03,-0.23 c 0,-0.07 0.04,-0.14 0.1,-0.23 l 2.8,-0.09 0.03,0.02 v 0.02 l -0.1,0.8 0.42,-0.59 c 0.08,-0.06 0.16,-0.09 0.24,-0.09 0,-0.1 0.09,-0.15 0.26,-0.16 0.09,-0.12 0.32,-0.21 0.71,-0.28 z m -4.34,3.4 0.03,0.07 0.1,-0.07 z m 0.18,1.64 v 0.02 l 0.05,0.05 h 0.03 v -0.02 l -0.05,-0.05 z m 0.16,-4.54 v 0.02 h 0.03 l 0.03,-0.09 c -0.05,0 -0.06,0.02 -0.06,0.07 z m 0.07,4.47 -0.05,0.09 0.08,0.05 h 0.03 l 0.03,-0.09 z m 0.27,1.62 v 0.05 l 0.05,0.05 h 0.05 v -0.05 l -0.05,-0.05 z m 0.23,-5.62 0.05,0.05 h 0.08 v -0.02 l -0.08,-0.07 z m 0.24,2.48 v 0.02 l 0.16,-0.02 -0.05,-0.07 c -0.08,0.02 -0.11,0.05 -0.11,0.07 z m 0.05,1.36 v 0.02 h 0.03 c 0,-0.06 0.03,-0.09 0.08,-0.09 v -0.05 c -0.04,0.01 -0.07,0.05 -0.11,0.12 z m 0.24,-1.15 0.11,0.3 h 0.03 l 0.11,-0.07 -0.08,-0.14 0.03,-0.21 z m 0.62,-0.3 v 0.02 l 0.05,0.05 h 0.03 l 0.03,-0.02 h 0.03 l -0.08,-0.09 z m 1.65,-3.94 0.05,0.07 v 0.02 l -0.05,0.05 -0.05,-0.12 0.03,-0.02 z m 0.34,0.09 0.08,0.07 v 0.05 l -0.05,0.05 h -0.05 l -0.03,-0.02 h -0.03 c 0.03,-0.1 0.05,-0.15 0.08,-0.15 z m 0.29,0.07 c 0.1,0.03 0.17,0.07 0.21,0.12 l -0.08,0.05 c -0.14,-0.02 -0.21,-0.05 -0.21,-0.09 z"
   id="path14"
   style="fill:#f9b233" />
&#10;				<path
   class="st1"
   d="m 162.71,105.22 0.05,0.09 -0.1,2.11 v 0.54 l 0.03,0.23 -0.86,0.16 c -0.37,0.11 -0.55,0.22 -0.55,0.35 -0.23,0 -0.34,0.44 -0.34,1.31 v 0.21 c -0.07,0 -0.1,0.02 -0.1,0.05 0.09,0.02 0.13,0.08 0.13,0.16 v 0.33 l -0.03,0.02 v 0.02 l -0.03,-0.02 h -0.18 l -0.08,0.05 -0.1,-0.02 -0.05,0.05 h -0.26 l -0.1,-0.09 v -0.12 l 0.08,-0.07 h 0.18 l 0.05,-0.12 h -0.26 c -0.23,0 -0.34,0.02 -0.34,0.07 v 0.21 l -0.03,0.02 c -0.06,0.03 -0.11,0.11 -0.16,0.23 -0.1,0.08 -0.2,0.12 -0.31,0.12 h -0.08 c -0.26,0 -0.39,-0.04 -0.39,-0.12 h -0.03 c -0.03,0 -0.05,0.05 -0.05,0.16 -0.12,0.04 -0.2,0.13 -0.24,0.26 h 0.21 c 0.09,-0.06 0.17,-0.09 0.24,-0.09 h 0.03 c 0.14,0.02 0.21,0.07 0.21,0.14 l -0.08,0.14 h 0.24 c 0,0.05 0.02,0.07 0.05,0.07 0.05,-0.04 0.22,-0.07 0.52,-0.12 l -0.08,-0.33 c 0,-0.04 0.17,-0.14 0.5,-0.3 h 0.05 v 0.19 c 0.09,0.12 0.17,0.2 0.26,0.21 l 0.03,0.02 0.03,-0.02 v -0.02 c -0.12,-0.04 -0.18,-0.13 -0.18,-0.28 l 0.24,-0.09 c 0.12,0.03 0.18,0.06 0.18,0.09 v 0.14 c 0,0.05 -0.03,0.11 -0.08,0.16 0.07,0 0.1,0.07 0.1,0.21 v 0.02 c 0,0.64 0.04,1.43 0.11,2.37 -0.71,0.11 -1.35,0.16 -1.94,0.16 h -0.92 l -0.03,-0.02 h -0.03 c -0.05,-2.46 -0.11,-4.06 -0.18,-4.8 l 0.24,-1.52 -0.05,-0.33 0.05,-1.36 -0.03,-0.23 c 0,-0.07 0.04,-0.14 0.1,-0.23 l 2.8,-0.09 0.03,0.02 v 0.02 l -0.1,0.8 0.42,-0.59 c 0.08,-0.06 0.16,-0.09 0.24,-0.09 0,-0.1 0.09,-0.15 0.26,-0.16 0.09,-0.12 0.32,-0.21 0.71,-0.28 z m -4.34,3.4 0.03,0.07 0.1,-0.07 z m 0.18,1.64 v 0.02 l 0.05,0.05 h 0.03 v -0.02 l -0.05,-0.05 z m 0.16,-4.54 v 0.02 h 0.03 l 0.03,-0.09 c -0.04,0 -0.06,0.02 -0.06,0.07 z m 0.08,4.47 -0.05,0.09 0.08,0.05 h 0.03 l 0.03,-0.09 z m 0.26,1.62 v 0.05 l 0.05,0.05 h 0.05 v -0.05 l -0.05,-0.05 z m 0.23,-5.62 0.05,0.05 h 0.08 v -0.02 l -0.08,-0.07 z m 0.24,2.48 v 0.02 l 0.16,-0.02 -0.05,-0.07 c -0.07,0.02 -0.11,0.05 -0.11,0.07 z m 0.05,1.36 v 0.02 h 0.03 c 0,-0.06 0.03,-0.09 0.08,-0.09 v -0.05 c -0.04,0.01 -0.07,0.05 -0.11,0.12 z m 0.24,-1.15 0.11,0.3 h 0.03 l 0.11,-0.07 -0.08,-0.14 0.03,-0.21 z m 0.63,-0.3 v 0.02 l 0.05,0.05 h 0.03 l 0.03,-0.02 h 0.03 l -0.08,-0.09 z m 1.65,-3.94 0.05,0.07 v 0.02 l -0.05,0.05 -0.05,-0.12 0.03,-0.02 z m 0.34,0.09 0.08,0.07 v 0.05 l -0.05,0.05 h -0.05 l -0.03,-0.02 h -0.03 c 0.02,-0.1 0.05,-0.15 0.08,-0.15 z m 0.28,0.07 c 0.1,0.03 0.17,0.07 0.21,0.12 l -0.08,0.05 c -0.14,-0.02 -0.21,-0.05 -0.21,-0.09 z"
   id="path15"
   style="fill:#f9b233" />
&#10;				<path
   class="st1"
   d="m 169.46,105.6 h 0.24 c 1.13,0.05 1.77,0.18 1.91,0.4 0.23,0.07 0.34,0.11 0.34,0.14 0.08,0.15 0.25,0.34 0.52,0.56 0.28,0.68 0.42,1.09 0.42,1.24 l -0.08,0.4 0.13,0.16 v 0.07 l -0.18,0.16 0.03,0.42 -0.03,0.96 -0.03,0.02 h -0.03 l -0.6,0.02 -0.84,-0.05 v -0.02 l 0.05,-0.16 h -0.03 c -0.16,0.14 -0.38,0.21 -0.65,0.21 l -0.31,0.02 -0.05,-0.07 -0.99,0.09 c 0,0.07 -0.08,0.13 -0.24,0.19 0,0.04 -0.04,0.11 -0.13,0.19 v 0.05 c 0.11,0 0.21,0.05 0.29,0.14 v 0.05 c 0,0.13 -0.12,0.24 -0.37,0.33 -0.05,0.11 -0.13,0.16 -0.24,0.16 l -0.21,-0.09 -0.05,0.05 v 0.02 c 0,0.06 0.1,0.1 0.31,0.12 l 0.13,0.45 c 0.13,-0.06 0.26,-0.09 0.39,-0.09 v 0.02 c -0.03,0.07 -0.05,0.17 -0.05,0.3 v 0.09 c 0,0.44 0.15,0.66 0.45,0.66 0.33,-0.06 0.5,-0.2 0.5,-0.42 0.05,-0.12 0.08,-0.29 0.08,-0.49 v -0.19 l 0.05,-0.05 h 0.05 c 0,0.11 0.08,0.18 0.24,0.23 l 0.08,-0.09 -0.05,-0.07 v -0.02 c 0,-0.14 0.05,-0.21 0.16,-0.21 l 0.42,0.05 c 0,-0.04 0.04,-0.07 0.13,-0.07 v -0.05 c 0,-0.12 -0.06,-0.2 -0.18,-0.26 l -0.24,0.12 -0.39,-0.09 v 0.05 l 0.03,0.12 -0.13,0.02 0.03,0.16 v 0.05 h -0.03 c -0.08,-0.03 -0.14,-0.07 -0.18,-0.14 v -0.3 l -0.03,-0.12 c 0.04,-0.03 0.1,-0.05 0.18,-0.05 l 0.03,-0.12 -0.16,-0.12 v -0.02 c 0,-0.03 0.17,-0.06 0.52,-0.09 0,0.02 0.04,0.05 0.11,0.07 l 0.16,-0.05 c 0.1,0 0.19,0.04 0.26,0.12 l -0.03,0.02 v 0.02 c 0.27,0.11 0.45,0.16 0.55,0.16 l 0.03,0.02 v 0.02 l -0.24,0.21 v 0.02 h 0.08 c 0.17,0 0.26,0.07 0.26,0.21 l 0.13,-0.02 h 0.08 l 0.08,-0.19 -0.05,-0.14 0.05,-0.21 v -0.02 c 0,-0.09 -0.07,-0.14 -0.21,-0.14 l -0.03,-0.02 v -0.02 c 0.09,-0.03 0.28,-0.05 0.55,-0.05 h 0.24 l 0.08,0.05 -0.03,0.28 v 1.03 c 0,0.73 -0.37,1.34 -1.1,1.83 -0.79,0.34 -1.45,0.52 -1.99,0.52 -0.44,0 -1.17,-0.12 -2.2,-0.38 -0.13,-0.06 -0.21,-0.12 -0.21,-0.19 -0.1,0 -0.37,-0.24 -0.81,-0.73 l 0.03,-0.09 -0.21,-0.61 v -0.05 l 0.05,-0.05 h 0.08 l 0.29,0.19 0.21,-0.14 c -0.14,0 -0.26,-0.04 -0.37,-0.12 l -0.03,0.02 h -0.21 l -0.03,-0.02 h -0.03 l 0.03,-0.4 v -0.82 c 0,-0.2 0.05,-0.46 0.16,-0.8 l -0.03,-0.02 v -0.47 c 0.09,0 0.13,-0.04 0.13,-0.12 0,-0.06 0.05,-0.09 0.16,-0.09 v -0.02 c -0.19,0 -0.29,-0.03 -0.29,-0.09 l -0.03,-0.42 v -0.26 c 0,-0.72 0.24,-1.47 0.73,-2.25 0.56,-0.38 1.01,-0.6 1.33,-0.66 0.17,-0.11 0.52,-0.17 1.06,-0.17 z m -3.14,5.44 0.16,0.16 v 0.12 h 0.21 v -0.02 c -0.11,0 -0.18,-0.09 -0.21,-0.28 z m 0.89,-0.47 v 0.16 c -0.09,0.05 -0.13,0.12 -0.13,0.21 -0.03,0.08 -0.08,0.12 -0.16,0.12 l 0.03,0.02 v 0.02 c 0,0.12 -0.07,0.19 -0.21,0.19 v 0.02 l 0.16,0.14 v 0.02 l -0.21,0.23 0.08,0.19 c 0.38,-0.09 0.58,-0.16 0.58,-0.21 -0.28,-0.19 -0.42,-0.3 -0.42,-0.33 0,-0.05 0.15,-0.19 0.45,-0.42 0,-0.05 0.02,-0.07 0.05,-0.07 0.09,0.11 0.18,0.16 0.26,0.16 h 0.03 L 167.69,111 v -0.05 l 0.16,-0.14 c -0.1,0 -0.16,-0.02 -0.16,-0.05 l 0.03,-0.07 c 0,-0.1 -0.1,-0.17 -0.31,-0.21 h -0.03 z m -0.5,-3.12 v 0.05 l 0.03,0.07 h 0.03 v -0.05 l 0.03,-0.02 -0.05,-0.05 z m 0.29,-2.23 c 0.07,0.02 0.11,0.08 0.11,0.16 v 0.05 l -0.03,0.02 v 0.02 c -0.1,-0.03 -0.16,-0.09 -0.16,-0.19 z m 0.57,2.72 -0.05,0.05 0.03,0.07 0.08,-0.02 v -0.05 z m 1.71,-0.23 0.03,1.01 h 0.79 v -0.98 c 0,-0.19 -0.06,-0.39 -0.18,-0.61 h -0.1 c -0.31,0.03 -0.47,0.11 -0.47,0.23 z m 1.02,-1.57 0.03,0.02 h 0.03 c 0.07,-0.02 0.1,-0.05 0.1,-0.07 l -0.05,-0.05 h -0.03 c -0.03,0.01 -0.06,0.04 -0.08,0.1 z m 0.39,0.07 v 0.02 l 0.05,0.05 0.03,-0.02 v -0.02 l -0.03,-0.02 h -0.05 z m 1.18,-1.85 0.13,0.16 v 0.02 c -0.09,0 -0.15,-0.03 -0.18,-0.09 v -0.05 z m 0,2.67 c 0.02,0.17 0.04,0.26 0.08,0.26 h 0.03 v -0.05 H 172 l -0.03,-0.02 v -0.21 h -0.05 l -0.03,0.02 z m 0.28,-1.92 c 0.19,0.02 0.29,0.06 0.29,0.12 v 0.05 h -0.05 c -0.16,-0.01 -0.24,-0.06 -0.24,-0.17 z m 0.16,4.22 v 0.02 c 0.01,0.03 0.05,0.06 0.13,0.09 v -0.02 l -0.08,-0.09 z m 0.6,-0.07 h 0.03 l 0.13,0.09 -0.03,0.02 h -0.13 l -0.05,-0.05 v -0.02 z m 0.32,-0.92 0.05,0.05 v 0.05 l -0.08,0.07 h -0.03 l -0.05,-0.05 c 0.04,-0.07 0.07,-0.11 0.11,-0.12 z"
   id="path16"
   style="fill:#f9b233" />
&#10;				<path
   class="st1"
   d="m 176.21,106.68 0.03,0.07 c -0.03,0.07 -0.07,0.11 -0.1,0.12 l -0.03,-0.02 v -0.02 c 0.04,-0.11 0.07,-0.15 0.1,-0.15 z m 0,-0.26 0.05,0.07 c -0.02,0.08 -0.05,0.12 -0.08,0.12 h -0.03 v -0.14 z m 0.03,-0.8 0.03,0.02 v 0.07 h -0.03 l -0.05,-0.05 z m 3.09,-0.09 c 0.45,0 0.96,0.09 1.52,0.26 0.07,0.12 0.27,0.23 0.6,0.33 0,0.05 0.13,0.17 0.39,0.35 0.31,0.37 0.47,0.95 0.47,1.73 0,0.18 -0.02,0.31 -0.05,0.38 l -1.36,0.02 h -0.03 c -0.53,0 -0.92,-0.04 -1.15,-0.12 0.03,-0.07 0.05,-0.19 0.05,-0.38 v -0.26 c -0.04,-0.45 -0.09,-0.68 -0.16,-0.68 h -0.29 c -0.21,0 -0.33,0.18 -0.37,0.54 0,0.53 0.24,0.87 0.71,1.03 l 0.13,0.09 h 0.03 c 0.05,-0.02 0.08,-0.06 0.08,-0.14 h 0.03 c 0.02,0 0.07,0.12 0.13,0.38 0.52,0.28 0.87,0.43 1.05,0.47 0,0.07 0.17,0.14 0.5,0.21 0.01,0.08 0.17,0.2 0.5,0.35 0.1,0.06 0.26,0.43 0.47,1.1 0,0.25 0.03,0.53 0.08,0.82 v 0.09 c 0,0.13 -0.02,0.23 -0.05,0.3 l 0.03,0.07 c -0.25,0.67 -0.41,1.01 -0.47,1.01 -0.47,0.41 -0.74,0.61 -0.81,0.61 l -1.2,0.23 -0.42,0.02 h -0.21 c -1.09,0 -2.02,-0.36 -2.77,-1.08 l -0.18,-0.94 c -0.03,0 -0.06,-0.09 -0.08,-0.26 l 0.03,-0.68 -0.03,-0.26 0.68,-0.05 h 0.13 c 1.08,0.03 1.62,0.09 1.62,0.16 0.05,0.65 0.14,1.11 0.26,1.38 0.07,0.08 0.2,0.12 0.37,0.12 0.12,0 0.26,-0.1 0.42,-0.3 l -0.03,-0.02 v -0.14 c 0,-0.05 0.03,-0.11 0.08,-0.16 0,-0.53 -0.23,-0.84 -0.68,-0.94 -0.04,0 -0.66,-0.38 -1.83,-1.15 -0.8,-0.4 -1.2,-0.98 -1.2,-1.73 v -0.19 l 0.05,-0.45 -0.03,-0.02 h -0.03 c 0,-0.67 0.25,-1.24 0.76,-1.71 0.61,-0.25 1.37,-0.39 2.26,-0.39 z m -2.91,4.01 h 0.13 v 0.05 h -0.13 z m 0.18,1.78 v 0.09 h 0.03 v -0.09 z m 2.02,-4.48 v 0.02 l 0.13,0.02 h 0.05 v -0.05 h -0.18 z m 2.15,-1.47 h 0.05 l 0.03,0.21 h -0.05 l -0.05,-0.05 v -0.05 z"
   id="path17"
   style="fill:#f9b233" />
&#10;				<path
   class="st1"
   d="m 186.13,103.8 c 0.23,0.06 0.45,0.09 0.65,0.09 h 1.54 c 0.44,0 0.65,0.03 0.65,0.09 v 0.66 l 0.03,0.49 c -0.02,0.12 -0.09,0.19 -0.21,0.19 h -0.03 l -0.5,-0.07 -0.39,0.07 -1.2,-0.19 -0.45,0.05 c -0.1,-0.02 -0.16,-0.04 -0.16,-0.07 v -1.27 z m 0.05,1.89 h 0.97 l 0.13,0.02 0.16,-0.02 h 0.63 c 0.66,0 0.99,0.03 0.99,0.09 v 0.75 l -0.03,0.52 0.03,0.68 v 2.48 l 0.16,3.56 v 0.42 l -0.05,0.05 h -0.24 l -0.97,0.07 -0.71,-0.05 -0.03,-0.02 v -0.05 c 0.05,0 0.08,-0.02 0.08,-0.05 0,-0.05 -0.04,-0.14 -0.13,-0.28 -0.12,0.06 -0.22,0.09 -0.31,0.09 l -0.13,-0.09 c 0,0.11 -0.06,0.16 -0.18,0.16 h -0.05 c -0.17,-0.08 -0.26,-0.16 -0.26,-0.23 -0.05,0 -0.09,-0.12 -0.1,-0.35 l 0.03,-0.66 0.05,-0.05 c -0.04,0 -0.07,-0.03 -0.08,-0.09 l 0.03,-4.78 -0.05,-1.59 0.05,-0.45 -0.05,-0.05 v -0.02 z m 0.21,3.89 c 0,0.11 -0.04,0.16 -0.1,0.16 v 0.05 l 0.1,0.02 c 0,-0.04 0.04,-0.09 0.1,-0.16 z m -0.05,-1.94 h 0.13 v -0.09 h -0.03 z m 0.02,-3.63 v 0.02 l 0.42,0.07 0.08,-0.16 h -0.08 c -0.14,0.04 -0.28,0.07 -0.42,0.07 z m 0.11,8.57 -0.03,0.02 v 0.02 l 0.03,0.02 h 0.11 v -0.05 z m 0.42,1.55 0.18,0.07 v 0.05 c -0.14,-0.01 -0.21,-0.04 -0.21,-0.07 l 0.03,-0.02 z m 0.5,-5.11 c 0,0.06 -0.09,0.14 -0.26,0.23 v 0.05 l 0.08,-0.02 0.13,0.07 c 0.04,-0.06 0.09,-0.09 0.16,-0.09 v -0.16 z m -0.24,3.7 v 0.07 l 0.08,0.02 0.03,-0.02 v -0.02 l -0.05,-0.05 z m 0,0.36 0.08,0.07 0.08,-0.05 -0.03,-0.07 h -0.08 z m 0.08,-4.27 c 0.03,0.03 0.21,0.06 0.52,0.09 l 0.03,-0.07 c 0,-0.09 -0.05,-0.14 -0.16,-0.14 h -0.03 c -0.24,0 -0.36,0.04 -0.36,0.12 z m 0.65,5.65 0.03,0.02 v 0.02 l -0.03,0.02 h -0.03 l -0.03,-0.02 v -0.02 l 0.03,-0.02 z m 0.29,-1.24 -0.03,0.02 v 0.02 l 0.13,0.07 v -0.05 l 0.03,-0.02 -0.03,-0.02 z m 0.42,1.31 v 0.05 l -0.05,0.05 h -0.03 l -0.05,-0.05 z"
   id="path18"
   style="fill:#f9b233" />
&#10;			</g>
&#10;		</g>
  </g>
</svg>
