<?xml version="1.0" encoding="utf-8"?>
<!-- Generator: Adobe Illustrator 27.0.0, SVG Export Plug-In . SVG Version: 6.00 Build 0)  -->
<svg version="1.1" xmlns="http://www.w3.org/2000/svg" xmlns:xlink="http://www.w3.org/1999/xlink" x="0px" y="0px"
	 viewBox="0 0 243.78 153.07" style="enable-background:new 0 0 243.78 153.07;" xml:space="preserve">
<style type="text/css">
	.st0{fill-rule:evenodd;clip-rule:evenodd;}
	.st1{fill:#F9B233;}
</style>
<g id="sfondo">
	<rect x="-8.5" y="-8.5" width="260.79" height="170.08"/>
	<rect x="-8.5" y="212.54" class="st0" width="260.79" height="170.08"/>
</g>
<g id="Livello_1">
	<g>
		<g>
			<path class="st1" d="M145.39,57.73c-5.46,0.13-10.89,0.13-16.34,0.18c-0.51-2.09-1.03-4.22-1.57-6.41
				c-2.79,3.15-5.57,6.28-8.34,9.41c0.03,0.03,0.05,0.05,0.08,0.08c1.39,0,2.79,0,4.18,0c1.53,0,3.06,0.01,4.59,0.02
				c0.7,0,1.39,0.02,2.09,0.02c0.72,0,1.45-0.04,2.17-0.04c0.83,0,1.67,0.03,2.5,0.02c1.12-0.01,2.24-0.05,3.36-0.05
				c1.56,0,3.12,0.04,4.68,0.05c1.03,0,2.07-0.02,3.1-0.04c0.07,0,0.15-0.07,0.21-0.1c0.19,0.78,0.39,1.58,0.59,2.38
				c0.24,0.99,0.47,1.99,0.7,2.98c0.39,1.64,0.77,3.28,1.16,4.91c0.21,0.89,0.42,1.78,0.68,2.66c0.12,0.41-0.07,0.68-0.25,0.96
				c-0.4,0.63-0.82,1.26-1.24,1.88c-0.48,0.69-0.96,1.38-1.48,2.05c-1.08,1.38-2.17,2.75-3.29,4.1c-1.07,1.28-2.31,2.4-3.64,3.41
				c-1.02,0.77-2.05,1.53-3.11,2.24c-0.58,0.39-1.23,0.7-1.86,1c-1.2,0.57-2.39,1.17-3.63,1.63c-1.15,0.42-2.36,0.66-3.54,0.97
				c-1.81,0.48-3.66,0.57-5.52,0.6c-1.16,0.02-2.33-0.08-3.49-0.15c-0.31-0.02-0.62-0.12-0.94-0.17c-1.97-0.31-3.85-0.95-5.7-1.65
				c-0.66-0.25-1.28-0.58-1.93-0.85c-0.99-0.4-1.85-1.03-2.75-1.58c-0.7-0.42-1.34-0.95-1.97-1.47c-0.77-0.63-1.57-1.24-2.24-1.96
				c-0.71-0.76-1.33-1.62-1.93-2.47c-0.59-0.83-1.12-1.69-1.65-2.55c-0.7-1.14-1.27-2.35-1.8-3.57c-0.56-1.29-0.8-2.66-1.19-4
				c-0.33-1.11-0.47-2.27-0.75-3.39c-0.35-1.43-0.55-2.88-0.68-4.33c-0.15-1.69-0.15-3.39-0.05-5.08c0.05-0.89,0.1-1.8,0.26-2.67
				c0.2-1.08,0.53-2.14,0.8-3.21c0.33-1.29,0.98-2.44,1.63-3.59c0.43-0.76,0.83-1.55,1.37-2.23c1.09-1.36,2.26-2.64,3.39-3.97
				c0.81-0.95,1.79-1.7,2.8-2.4c1.05-0.73,2.13-1.39,3.21-2.08c1.21-0.77,2.55-1.25,3.9-1.7c1.08-0.36,2.17-0.7,3.27-0.99
				c1.31-0.35,2.65-0.54,4.01-0.58c1.1-0.04,2.2-0.17,3.29-0.11c1.4,0.08,2.8,0.27,4.17,0.52c1.06,0.19,2.11,0.5,3.12,0.87
				c1.15,0.42,2.26,0.95,3.36,1.47c1.05,0.5,2.08,1.04,3.1,1.59c0.65,0.35,1.29,0.74,1.92,1.14c1.06,0.68,1.99,1.5,2.77,2.49
				c0.34,0.43,0.68,0.85,1.05,1.26c0.58,0.63,0.71,1.43,0.89,2.21c0.24,1.07,0.49,2.13,0.74,3.19c0.1,0.41,0.19,0.83,0.29,1.24
				c0.24,0.98,0.48,1.96,0.72,2.94C144.88,55.73,145.12,56.66,145.39,57.73z M135.19,82.59c-0.11-0.51-0.2-0.95-0.31-1.4
				c-0.34-1.37-0.69-2.74-1.03-4.12c-0.34-1.38-0.65-2.78-1-4.16c-0.39-1.56-0.82-3.11-1.23-4.67c-0.13-0.51-0.12-0.53-0.65-0.54
				c-1.03-0.02-2.06-0.01-3.08-0.01c-1.26,0-2.53,0-3.79,0c-2.55,0-5.11,0.02-7.66-0.03c-1.05-0.02-2.09,0.05-3.14,0.05
				c-0.09,0-0.2,0.07-0.27,0.14c-0.59,0.66-1.17,1.32-1.74,2c-0.08,0.09-0.12,0.26-0.1,0.37c0.07,0.35,0.17,0.7,0.26,1.05
				c0.2,0.78,0.39,1.57,0.61,2.35c0.54,1.93,1.13,3.85,2.29,5.52c0.54,0.78,1.13,1.54,1.77,2.24c0.58,0.62,1.26,1.14,1.91,1.69
				c0.29,0.24,0.61,0.49,0.95,0.63c0.69,0.28,1.41,0.51,2.12,0.73c0.92,0.28,1.88,0.42,2.84,0.41c1.13-0.01,2.27-0.02,3.39-0.14
				c1.13-0.12,2.25-0.35,3.36-0.58c0.87-0.18,1.74-0.41,2.59-0.69C133.93,83.21,134.55,82.87,135.19,82.59z M109.26,62.55
				c0.61-0.7,1.2-1.37,1.79-2.05c0.36-0.42,0.74-0.82,1.1-1.24c0.47-0.55,0.91-1.11,1.38-1.66c0.92-1.06,1.86-2.1,2.78-3.16
				c0.93-1.07,1.84-2.15,2.76-3.22c0.94-1.09,1.88-2.17,2.82-3.26c0.67-0.78,1.31-1.57,1.98-2.35c0.5-0.59,1.03-1.16,1.53-1.75
				c0.08-0.09,0.12-0.28,0.09-0.4c-0.14-0.61-0.32-1.22-0.5-1.91c-0.36,0.04-0.74,0.08-1.13,0.13c-0.59,0.08-1.19,0.16-1.77,0.27
				c-0.51,0.1-1.01,0.22-1.51,0.36c-0.85,0.23-1.72,0.42-2.55,0.71c-0.89,0.31-1.74,0.71-2.61,1.08c-1.49,0.63-2.86,1.46-4.01,2.61
				c-1.23,1.23-2.17,2.64-2.63,4.33c-0.32,1.19-0.48,2.4-0.58,3.62c-0.11,1.44,0.01,2.86,0.27,4.26
				C108.68,60.14,108.98,61.34,109.26,62.55z"/>
		</g>
		<path class="st1" d="M217.73,109.31C217.73,109.31,217.73,109.3,217.73,109.31c-0.03-0.24-0.05-0.47-0.08-0.71
			c0-0.06-0.01-0.11-0.01-0.17c-0.01-0.08-0.01-0.16-0.02-0.24c-0.01-0.13-0.02-0.26-0.03-0.38c-0.02-0.12-0.03-0.23-0.05-0.34
			c0,0,0,0,0,0c-0.08-0.28-0.17-0.55-0.26-0.82c-0.05-0.2-0.1-0.4-0.2-0.57c-0.19-0.34-0.53-0.58-0.91-0.69
			c-0.34-0.09-0.7-0.08-1.04-0.01c-0.67-0.02-1.33,0.19-2,0.29c-0.83,0.12-1.68,0.03-2.48-0.23c-0.86-0.85-1.78-1.66-2.82-2.27
			c-1.11-0.65-2.36-1.06-3.64-1.2c-0.51-0.06-1.04-0.07-1.54,0.05c-0.58,0.14-1.1,0.45-1.56,0.82c-0.32,0.26-0.63,0.56-0.77,0.94
			c-0.03,0.09-0.05,0.18-0.06,0.27c-0.38-0.21-0.82-0.31-1.26-0.27c-3.85-0.22-6.65,10.97,1.4,12.95c0.89,0.22,1.21,0.35,2.02,0.46
			c0.82,0.11,3.03-0.03,3.36-0.11c0.92-0.11,1.86-0.35,2.72-0.84l0,0c0,0,0,0,0-0.01c0.22-0.13,0.44-0.27,0.65-0.44
			c0.11-0.08,0.21-0.17,0.3-0.27l1.43-0.46c0.02-0.01,0.03-0.01,0.05-0.02c0.11,0.07,0.23,0.12,0.36,0.13
			c0.19,0.02,0.38-0.03,0.56-0.07l0.1-0.02c0.63-0.14,1.29-0.15,1.93-0.15c0.04,0,0.08,0,0.12,0c0,0,0.01,0,0.01,0
			c0.28,0,0.58,0.01,0.91,0.01c0.23,0,0.47,0.01,0.72,0.01c0.13,0,0.26,0,0.39,0c0.07,0,0.15,0,0.23-0.01
			c0.01,0,0.02,0.01,0.04,0.01c0.4,0.09,0.81-0.15,1.04-0.49c0.23-0.34,0.3-0.75,0.35-1.16c0.14-1.14,0.11-2.28,0.03-3.43
			C217.74,109.68,217.74,109.5,217.73,109.31z M198.38,104.05c-0.11,0.08-0.23,0.17-0.33,0.26
			C198.15,104.21,198.27,104.12,198.38,104.05z M216.03,109.52c-0.01,0.76-0.02,1.49-0.08,2.29c0.04,0.61,0.04,1.35-0.23,1.88
			c-0.01,0.13-0.06,0.25-0.14,0.34c-0.2,0.14-0.45,0.22-0.69,0.24c-0.45,0.04-0.9-0.06-1.35,0c-0.54,0.07-1.18,0.36-1.58-0.03
			c-0.1-0.1-0.16-0.22-0.2-0.36c0.03-0.58,0.05-1.15,0.1-1.73c0.02-0.94,0.02-1.88-0.01-2.82c0.02-0.39,0.06-0.79,0.21-1.13
			c0.11-0.09,0.25-0.1,0.41-0.11c0.99-0.03,2,0.01,2.99,0.13c0.21,0.02,0.44,0.07,0.54,0.3c0.03,0.07,0.04,0.15,0.04,0.24
			C216.04,109.01,216.03,109.26,216.03,109.52z M217.23,110.8c0,0.35-0.02,0.69-0.04,1.03c0.01,0.15,0.01,0.3,0.01,0.45
			c0,0.1,0,0.21,0,0.32c-0.03,0.38-0.08,0.75-0.19,1.11c-0.07,0.23-0.19,0.47-0.41,0.55c-0.18,0.06-0.38-0.04-0.49-0.19
			c0.01-0.12,0.02-0.24,0.03-0.35c0,0.01,0,0.01,0,0.02c0-0.02,0-0.04,0.01-0.06c0.1-1.28,0.24-2.53,0.21-3.78
			c-0.01,0.12-0.01,0.25-0.02,0.38c0,0.03,0,0.05,0,0.08c0.01-0.25,0.01-0.51,0.01-0.77c-0.02-0.51-0.07-1.02-0.17-1.54
			c-0.02-0.03-0.05-0.07-0.07-0.09c0,0-0.01-0.01-0.01-0.01c-0.14-0.04-0.27-0.09-0.4-0.14c-0.02,0-0.04,0-0.06,0l-3.35-0.18
			c-0.33-0.1-0.74,0.13-0.9,0.46c0,0,0,0,0,0c-0.01-0.07-0.02-0.11-0.02-0.11s0,0.04,0.01,0.12c-0.18,0.38-0.14,0.83-0.1,1.25
			c0.08,0.87,0.11,1.74,0.1,2.61c0,0.09-0.01,0.19-0.02,0.31c0,0.08-0.01,0.16-0.02,0.24c-0.2-2.03-0.21-4.08-0.86-6
			c0.13,1.85,0.23,3.69,0.28,5.54c-0.02,0.62-0.06,1.24-0.09,1.85c-0.01,0.21-0.03,0.43-0.12,0.59c0.03-0.95,0.02-1.73,0-2.29
			c-0.02-0.67-0.05-1.03-0.05-1.03s0,0.1,0,0.29c-0.04-0.94-0.17-1.87-0.49-2.75c0.07,0.5,0.14,1,0.18,1.5
			c-0.01-0.02-0.01-0.04-0.01-0.07c0.1,1.15,0.06,2.32-0.31,3.41c-0.32,0.93-0.91,1.78-1.72,2.32c-0.2,0.1-0.41,0.17-0.63,0.22
			c-0.18,0.06-0.37,0.12-0.56,0.17c-1.95,0.68-4.11,0.34-6.08,0.01c-4.89-0.82-5.12-5.36-5.12-5.36c-0.05-1.8,0.41-3.66,0.91-4.67
			c0.01-0.02,0.57-1.06,0.96-1.46c0.47-0.47,1.41-0.53,2-0.17c0.04,0.02,0.08,0.05,0.11,0.08c0.02,0.01,0.03,0.02,0.05,0.03
			c0,0,0,0-0.01,0.01c0.03,0.03,0.07,0.06,0.1,0.09c0.01-0.01,0.02-0.01,0.03-0.02c0.02,0.02,0.05,0.04,0.07,0.06
			c-0.02,0-0.03,0.01-0.04,0.02c0.03,0.04,0.07,0.07,0.1,0.11l0,0l0,0c0.1,0.12,0.19,0.25,0.29,0.36c0.27,0.34,0.57,0.6,0.9,0.84
			c0.16,0.09,0.33,0.17,0.5,0.24c0.35,0.18,0.72,0.3,1.1,0.36c0.24,0.04,0.48,0.05,0.73,0.05c1.04,0.19,2.16,0.01,3.08-0.53
			c-0.57,0.13-1.17,0.13-1.74,0c-0.59-0.35-1.1-0.86-1.44-1.46c0.13,0.33,0.3,0.65,0.49,0.96c0.06,0.12,0.12,0.23,0.18,0.35
			c-0.63,0.27-1.36,0.29-2,0.03c-0.52-0.21-0.97-0.59-1.26-1.07c0-0.01,0-0.02,0.01-0.03c-0.21-0.41-0.23-0.89,0.1-1.37
			c0.78-1.16,2.74-1.27,3.97-1.03c1.35,0.27,2.73,0.81,3.84,1.66c0,0,0.01,0.01,0.01,0.01c0.34,0.41,0.62,0.98,0.41,1.47
			c-0.1,0.24-0.3,0.45-0.3,0.7c-0.02,0.03-0.04,0.07-0.06,0.09c0.01-0.01,0.02-0.02,0.03-0.03l-0.02,0.05
			c0.09-0.1,0.18-0.19,0.29-0.28c0.1-0.07,0.2-0.14,0.31-0.19l0,0c0,0,0.01,0,0.01-0.01c0.02-0.01,0.03-0.02,0.05-0.02c0,0,0,0,0,0
			c0.03-0.02,0.07-0.03,0.1-0.05c0,0,0,0,0,0c0.01-0.01,0.03-0.01,0.04-0.02c0,0,0,0,0,0c0.03-0.01,0.07-0.03,0.1-0.04c0,0,0,0,0,0
			c0.02-0.01,0.04-0.02,0.07-0.02c0,0,0,0,0,0c0.06-0.02,0.12-0.03,0.19-0.05c0,0,0-0.01,0-0.01c0.02-0.01,0.04-0.01,0.06-0.02
			c0,0,0,0.01,0,0.01c0.11-0.02,0.23-0.04,0.35-0.05c0,0,0,0,0-0.01c0,0,0.01,0,0.01,0c0,0,0,0,0.01,0.01
			c0.09-0.01,0.19-0.01,0.29-0.01c0,0,0,0,0-0.01c0,0,0,0,0,0c0,0,0.01,0,0.01,0c0,0,0,0,0,0.01c0.18,0,0.37,0.02,0.56,0.05
			c0.27,0.04,0.55,0.08,0.83,0.12c0.6,0.13,1.21,0.16,1.82,0.1c0.61-0.07,1.23-0.23,1.83-0.12c0.05,0.01,0.09,0.02,0.14,0.03
			c0.16,0.09,0.32,0.2,0.45,0.33c0.55,0.54,0.7,1.34,0.76,2.12c0,0.01,0,0.01,0,0.02c0.01,0.05,0.01,0.11,0.01,0.16
			c0,0.02,0,0.04,0,0.05C217.2,109.43,217.22,110.11,217.23,110.8C217.23,110.8,217.23,110.8,217.23,110.8z"/>
		<path class="st1" d="M22.83,109.87c-0.08,1.14-0.11,2.29,0.03,3.43c0.05,0.4,0.13,0.82,0.35,1.16c0.23,0.34,0.64,0.58,1.04,0.49
			c0.01,0,0.03-0.01,0.04-0.01c0.08,0.01,0.15,0.01,0.23,0.01c0.13,0,0.26,0,0.39,0c0.25,0,0.49-0.01,0.72-0.01
			c0.33,0,0.63-0.01,0.91-0.01c0,0,0.01,0,0.01,0c0.04,0,0.08,0,0.12,0c0.64,0,1.3,0,1.93,0.15l0.1,0.02
			c0.18,0.04,0.37,0.09,0.56,0.07c0.13-0.01,0.25-0.06,0.36-0.13c0.02,0.01,0.03,0.01,0.05,0.02l1.43,0.46
			c0.1,0.1,0.2,0.19,0.3,0.27c0.21,0.17,0.43,0.31,0.65,0.44c0,0,0,0,0,0.01l0,0c0.86,0.49,1.81,0.72,2.72,0.84
			c0.33,0.08,2.54,0.21,3.36,0.11c0.82-0.11,1.13-0.24,2.02-0.46c8.06-1.98,5.25-13.17,1.4-12.95c-0.43-0.03-0.88,0.06-1.26,0.27
			c-0.01-0.09-0.03-0.18-0.06-0.27c-0.14-0.39-0.44-0.69-0.77-0.94c-0.46-0.37-0.99-0.68-1.56-0.82c-0.5-0.12-1.03-0.11-1.54-0.05
			c-1.28,0.14-2.53,0.55-3.64,1.2c-1.05,0.61-1.96,1.42-2.82,2.27c-0.79,0.26-1.65,0.34-2.48,0.23c-0.67-0.09-1.33-0.31-2-0.29
			c-0.34-0.08-0.7-0.09-1.04,0.01c-0.38,0.1-0.72,0.35-0.91,0.69c-0.1,0.18-0.15,0.38-0.2,0.57c-0.09,0.27-0.18,0.54-0.26,0.82
			c0,0,0,0,0,0c-0.02,0.11-0.03,0.23-0.05,0.34c-0.01,0.13-0.02,0.26-0.03,0.38c-0.01,0.08-0.01,0.16-0.02,0.24
			c0,0.06-0.01,0.11-0.01,0.17c-0.02,0.24-0.05,0.47-0.09,0.71c0,0,0,0,0.01,0C22.84,109.5,22.83,109.68,22.83,109.87z
			 M42.53,104.31c-0.11-0.09-0.22-0.18-0.33-0.26C42.31,104.12,42.42,104.21,42.53,104.31z M24.54,108.75
			c0-0.09,0.01-0.17,0.04-0.24c0.1-0.23,0.33-0.27,0.54-0.3c0.99-0.12,2-0.16,2.99-0.13c0.16,0.01,0.3,0.02,0.41,0.11
			c0.15,0.34,0.19,0.74,0.21,1.13c-0.03,0.93-0.03,1.88-0.01,2.82c0.04,0.58,0.06,1.15,0.1,1.73c-0.04,0.14-0.09,0.26-0.2,0.36
			c-0.4,0.38-1.04,0.1-1.58,0.03c-0.45-0.06-0.9,0.04-1.35,0c-0.24-0.02-0.5-0.1-0.69-0.24c-0.08-0.1-0.13-0.21-0.14-0.34
			c-0.27-0.52-0.27-1.27-0.23-1.88c-0.05-0.79-0.07-1.53-0.08-2.29C24.55,109.26,24.54,109.01,24.54,108.75z M23.35,110.79
			c0.01-0.68,0.03-1.36,0.08-2.04c0-0.02,0-0.04,0-0.05c0-0.05,0.01-0.11,0.01-0.16c0-0.01,0-0.01,0-0.02
			c0.07-0.78,0.21-1.58,0.76-2.12c0.14-0.13,0.29-0.24,0.45-0.33c0.04-0.01,0.09-0.02,0.14-0.03c0.6-0.11,1.22,0.05,1.83,0.12
			c0.61,0.07,1.22,0.03,1.82-0.1c0.28-0.04,0.56-0.08,0.83-0.12c0.19-0.03,0.38-0.05,0.56-0.05c0,0,0,0,0-0.01c0,0,0.01,0,0.01,0
			c0,0,0,0,0,0c0,0,0,0,0,0.01c0.1,0,0.19,0,0.29,0.01c0,0,0,0,0.01-0.01c0,0,0.01,0,0.01,0c0,0,0,0,0,0.01
			c0.12,0.01,0.24,0.02,0.35,0.05c0,0,0-0.01,0-0.01c0.02,0,0.04,0.01,0.06,0.02c0,0,0,0.01,0,0.01c0.06,0.01,0.13,0.03,0.19,0.05
			c0,0,0,0,0,0c0.02,0.01,0.04,0.02,0.07,0.02c0,0,0,0,0,0c0.04,0.01,0.07,0.03,0.1,0.04c0,0,0,0,0,0c0.02,0.01,0.03,0.01,0.04,0.02
			c0,0,0,0,0,0c0.03,0.01,0.07,0.03,0.1,0.05c0,0,0,0,0,0c0.02,0.01,0.03,0.01,0.05,0.02c0,0,0.01,0,0.01,0.01l0,0
			c0.11,0.05,0.21,0.12,0.31,0.19c0.1,0.09,0.2,0.18,0.29,0.28l-0.02-0.05c0.01,0.01,0.02,0.02,0.03,0.03
			c-0.01-0.03-0.03-0.06-0.06-0.09c0.01-0.26-0.2-0.46-0.3-0.7c-0.21-0.49,0.07-1.06,0.41-1.47c0,0,0.01-0.01,0.01-0.01
			c1.11-0.85,2.49-1.39,3.84-1.66c1.23-0.24,3.19-0.13,3.97,1.03c0.32,0.48,0.31,0.97,0.1,1.37c0,0.01,0,0.02,0.01,0.03
			c-0.29,0.48-0.74,0.86-1.26,1.07c-0.64,0.25-1.37,0.24-2-0.03c0.06-0.12,0.12-0.23,0.18-0.35c0.2-0.3,0.36-0.62,0.49-0.96
			c-0.34,0.6-0.85,1.1-1.44,1.46c-0.57,0.13-1.17,0.13-1.74,0c0.92,0.54,2.03,0.72,3.08,0.53c0.24,0,0.49-0.02,0.73-0.05
			c0.38-0.06,0.76-0.18,1.1-0.36c0.17-0.07,0.34-0.15,0.5-0.24c0.33-0.23,0.63-0.5,0.9-0.84c0.1-0.12,0.19-0.25,0.29-0.36l0,0l0,0
			c0.03-0.04,0.06-0.07,0.1-0.11c-0.01-0.01-0.03-0.01-0.04-0.02c0.02-0.02,0.05-0.04,0.07-0.06c0.01,0.01,0.02,0.01,0.03,0.02
			c0.03-0.03,0.06-0.06,0.1-0.09c0,0,0,0-0.01-0.01c0.02-0.01,0.03-0.02,0.05-0.03c0.04-0.03,0.07-0.06,0.11-0.08
			c0.59-0.36,1.53-0.3,2,0.17c0.39,0.39,0.95,1.43,0.96,1.46c0.49,1.01,0.95,2.86,0.91,4.67c0,0-0.23,4.54-5.12,5.36
			c-1.97,0.33-4.13,0.67-6.08-0.01c-0.19-0.05-0.37-0.11-0.56-0.17c-0.22-0.05-0.43-0.12-0.63-0.22c-0.81-0.53-1.4-1.39-1.72-2.32
			c-0.37-1.09-0.41-2.26-0.31-3.41c-0.01,0.02-0.01,0.04-0.01,0.07c0.04-0.5,0.11-1.01,0.18-1.5c-0.32,0.88-0.45,1.81-0.49,2.75
			c0-0.19,0-0.29,0-0.29s-0.03,0.36-0.05,1.03c-0.02,0.56-0.03,1.34,0,2.29c-0.08-0.16-0.11-0.38-0.12-0.59
			c-0.03-0.61-0.07-1.23-0.09-1.85c0.05-1.85,0.15-3.7,0.28-5.54c-0.65,1.92-0.66,3.98-0.86,6c-0.01-0.09-0.01-0.17-0.02-0.24
			c-0.01-0.11-0.01-0.21-0.02-0.31c-0.01-0.87,0.02-1.74,0.1-2.61c0.04-0.42,0.08-0.87-0.1-1.25c0.01-0.08,0.01-0.12,0.01-0.12
			s-0.01,0.04-0.02,0.11c0,0,0,0,0,0c-0.16-0.33-0.57-0.56-0.9-0.46l-3.35,0.18c-0.02,0-0.04,0-0.06,0c-0.13,0.05-0.26,0.1-0.4,0.14
			c0,0-0.01,0.01-0.01,0.01c-0.03,0.03-0.05,0.06-0.07,0.09c-0.09,0.52-0.15,1.03-0.17,1.54c0,0.27,0.01,0.53,0.01,0.77
			c0-0.03,0-0.05,0-0.08c-0.01-0.14-0.01-0.26-0.02-0.38c-0.02,1.25,0.11,2.5,0.21,3.78c0,0.02,0.01,0.04,0.01,0.06
			c0-0.01,0-0.01,0-0.02c0.01,0.12,0.02,0.23,0.03,0.35c-0.11,0.16-0.31,0.25-0.49,0.19c-0.23-0.08-0.34-0.32-0.41-0.55
			c-0.11-0.36-0.16-0.73-0.19-1.11c0-0.11,0-0.22,0-0.32c0-0.15,0.01-0.3,0.01-0.45C23.37,111.5,23.36,111.15,23.35,110.79
			C23.35,110.8,23.35,110.8,23.35,110.79z"/>
		<g>
			<g>
				<path class="st1" d="M56.16,104.46l2.28,0.05l0.03,0.02v0.05l-0.03,0.26l0.08,0.19l-0.08,0.07c0.14,0.34,0.23,0.81,0.26,1.41
					v0.07l-0.08,0.19v0.05l0.08,0.02l-0.03,0.12c0.05,0.17,0.09,0.41,0.1,0.73l0.08,0.07c-0.05,0.14-0.08,0.28-0.08,0.4v0.12
					c0.04,0.92,0.13,1.38,0.29,1.38c0,0.04,0.12,0.08,0.37,0.14v0.09H59.4c-0.09-0.05-0.17-0.07-0.26-0.07h-0.03
					c0,0.44,0.06,0.73,0.18,0.87l-0.05,0.14l0.18,0.84l0.16,0.21v0.14c0,0.26,0.07,0.77,0.21,1.55l0.16,0.07l-0.05,0.33v0.02
					l0.05,0.28l-0.03,0.02h-0.16c-0.4,0-0.77-0.02-1.13-0.07l-0.79,0.07l-0.81-0.14l-0.16,0.02c-0.07-0.05-0.11-0.61-0.13-1.69
					c-0.03-0.08-0.14-0.12-0.34-0.12l-0.58,0.02l-0.08-0.02c-0.05,0.05-0.1,0.16-0.13,0.33l0.08,0.26c-0.15,0.73-0.25,1.1-0.29,1.1
					l-0.76-0.02l-2.15,0.09l-0.03-0.02v-0.02c0.16-0.77,0.38-2.12,0.65-4.05c-0.09-0.04-0.41-0.11-0.94-0.19
					c-0.07-0.04-0.26-0.07-0.58-0.09l-0.08,0.02v-0.02l0.08-0.07h0.1c0.69,0.12,1.1,0.19,1.26,0.19h0.05
					c0.08-0.17,0.18-0.62,0.29-1.34l0.03-0.02h0.03l-0.03-0.02v-0.02c0.24-1.04,0.41-1.82,0.5-2.37c0.09,0,0.19-0.45,0.29-1.36
					c0.04,0,0.05-0.08,0.05-0.23l0.03-0.02H56.16z M52.65,110.79h0.11v0.05h-0.11V110.79z M53.99,108.61c0,0.06-0.13,0.16-0.39,0.3
					l-0.05,0.14c0.14,0.11,0.28,0.16,0.42,0.16v-0.19c0-0.12,0.05-0.19,0.16-0.19l0.26-0.05v-0.02c-0.1,0-0.22-0.05-0.37-0.16H53.99
					z M54.9,105.4l-0.03,0.02v0.05l0.05,0.05h0.05C54.96,105.44,54.93,105.4,54.9,105.4z M54.93,108.63v0.02l0.13,0.12h0.05
					l0.05-0.19l-0.03-0.02h-0.13L54.93,108.63z M55.03,104.88c0.1,0.06,0.18,0.09,0.24,0.09v-0.21h-0.05
					C55.12,104.77,55.06,104.81,55.03,104.88z M56.19,107.21c-0.09,1.14-0.17,1.71-0.26,1.71l-0.26,1.64l-0.03,0.26l0.03,0.02h0.13
					l0.63,0.05c0.11,0,0.16-0.05,0.16-0.14v-0.07c-0.12-1.68-0.24-2.83-0.37-3.47H56.19z M56.08,104.88
					c-0.11,0.07-0.2,0.17-0.26,0.3c0.03,0,0.06,0.04,0.08,0.12l0.18-0.05l-0.03-0.16v-0.05c0-0.09,0.04-0.14,0.13-0.14v-0.02H56.08z
					 M55.9,105.35c0.03,0.14,0.07,0.21,0.11,0.21v-0.02c-0.02-0.12-0.04-0.19-0.08-0.19H55.9z M56.4,111.61v0.05h-0.03l0.03,0.07
					l0.05-0.05l-0.03-0.07H56.4z M56.53,104.98l0.31,0.02c0.12-0.03,0.24-0.11,0.37-0.23h-0.16c-0.06,0.05-0.16,0.09-0.31,0.12
					l-0.21,0.07V104.98z M57.52,109.24v0.02l0.34,0.05v-0.02c-0.01-0.04-0.07-0.08-0.18-0.12
					C57.57,109.19,57.52,109.21,57.52,109.24z M59.64,107.49h0.03l0.05,0.05h-0.08V107.49z M60.14,113.74h0.13l0.05,0.05l-0.05,0.05
					h-0.13l-0.05-0.05L60.14,113.74z"/>
				<path class="st1" d="M68.09,105.44c0.69,0,1.25,0.23,1.67,0.68c0.12,0.12,0.24,0.44,0.34,0.96c0.05,0.48,0.12,0.88,0.21,1.2
					l0.11,2.41l-0.05,0.7l0.05,2.55v0.12l-0.05,0.05h-0.47l-2.43-0.05l-0.03-0.02v-1.8l0.05-0.05h0.03c0.04,0,0.05,0.05,0.05,0.16
					h0.03c0-0.05,0.04-0.12,0.13-0.19l-0.03-0.07l-0.24,0.05c-0.05-0.18-0.08-0.32-0.08-0.45v-1.45l-0.03-0.82l0.21-0.09
					c0.1,0.02,0.19,0.06,0.26,0.12h0.39v-0.07l-0.08-0.12l0.03-0.12c-0.07,0-0.1-0.02-0.1-0.05l0.05-0.19h-0.11
					c-0.03,0-0.07,0.05-0.1,0.14h-0.08l-0.24-0.02c-0.03,0-0.1,0.05-0.21,0.16l-0.05-0.05V109c0-0.24-0.05-0.73-0.16-1.45
					c-0.03-0.28-0.13-0.42-0.29-0.42H66.6c-0.07,0-0.14,0.11-0.21,0.33c0.11,1.62,0.17,3.2,0.21,4.73c-0.04,0-0.1,0.04-0.18,0.12
					l-0.1,0.02h-0.03c-0.07-0.03-0.1-0.08-0.1-0.16v-0.05c0-0.05,0.03-0.11,0.08-0.16h-0.21c-0.14,0-0.22-0.04-0.26-0.12l0.05-0.12
					h-0.05l-0.6-0.09l-0.13,0.02v-0.02l0.08-0.19h-0.16l-0.31-0.02c0,0.09-0.21,0.16-0.63,0.21l-0.05,0.07v0.19l0.21,0.09
					c0.21-0.2,0.4-0.3,0.55-0.3c0.24,0,0.37,0.09,0.37,0.26h0.13c0.16,0,0.29,0.05,0.39,0.16c-0.09,0.14-0.18,0.21-0.29,0.21
					c0,0.04,0.13,0.06,0.39,0.07l0.13,0.07l-0.05,0.16c0.16,0.02,0.24,0.09,0.24,0.21c-0.01,0.12-0.07,0.19-0.18,0.19v0.05h0.05
					l0.24-0.19h0.18l0.05,0.05v0.16l-0.05,0.07c0.03,0,0.05,0.02,0.05,0.07l0.03,0.02h0.03l0.1-0.07l0.05,0.05v0.84l-0.05,0.05H65.6
					l-0.1-0.12c-0.06,0-0.12-0.02-0.18-0.07v0.02l0.05,0.14l-0.03,0.02h-1.05l-0.05-0.05l0.45-0.38v-0.02c-0.07,0-0.1-0.03-0.1-0.09
					h-0.03l-0.1,0.05l-0.16-0.05c-0.26,0.14-0.42,0.21-0.5,0.21v0.02c0.1,0,0.16,0.09,0.16,0.26h0.16v0.05h-0.39l-0.05-0.05
					l-0.24-4.95l0.08-0.07v-0.02c-0.05,0-0.08-0.02-0.08-0.05v-0.82l0.08-0.09l-0.08-0.07v-0.61l0.05-1.59l0.03-0.02h0.05l2.51-0.07
					c0.19,0.01,0.29,0.04,0.29,0.07v0.02l-0.05,0.45l0.03,0.07c0.62-0.58,1.15-0.87,1.6-0.87H68.09z M64.32,108.53
					c0,0.05-0.02,0.07-0.05,0.07l-0.13-0.02l-0.08,0.16l0.03,0.14v0.05c0,0.06-0.08,0.09-0.24,0.09l-0.03,0.02v0.02
					c0.08,0.03,0.12,0.06,0.13,0.09c0.26-0.1,0.39-0.19,0.39-0.28c0-0.11,0.1-0.21,0.29-0.3v-0.02L64.32,108.53z M63.93,112.89
					l-0.08,0.38c0.41-0.16,0.66-0.23,0.76-0.23v0.02c0.01,0.11,0.04,0.16,0.08,0.16h0.03l0.13-0.05v-0.02
					c-0.14,0-0.21-0.05-0.21-0.16l-0.13,0.02c-0.25-0.08-0.43-0.12-0.55-0.12H63.93z M64.06,106.63l-0.03,0.02v0.02l0.03,0.07h0.08
					v-0.05L64.06,106.63z M64.45,107.59v0.07l0.05-0.05v-0.02H64.45z M64.84,108.51v0.05l0.24,0.05c-0.04-0.07-0.07-0.11-0.1-0.12
					L64.84,108.51z M64.92,107.55v0.05l0.05,0.05H65v-0.02L64.92,107.55z M65.08,113.64h0.03c0.17,0,0.26-0.06,0.26-0.19
					L65.08,113.64z M66.28,111.93v0.02l0.21,0.02v-0.07L66.28,111.93z M66.57,112.28h0.03v0.33h-0.05c-0.13,0-0.2-0.02-0.21-0.07
					L66.57,112.28z M67.12,106.26l0.03,0.07h0.08l0.03-0.07l-0.03-0.02h-0.05l-0.03,0.02H67.12z M67.43,105.9v0.02l0.08,0.07
					l0.05-0.05l-0.05-0.05H67.43z M67.46,111.74c0,0.17,0.07,0.26,0.21,0.26h0.03c0-0.05,0.08-0.09,0.24-0.09
					c0.1-0.07,0.16-0.14,0.16-0.19l-0.13-0.05l-0.18,0.05l-0.03-0.07h-0.05C67.63,111.65,67.55,111.68,67.46,111.74z M67.9,105.76
					v0.05h0.05l0.03-0.02h0.03l-0.03-0.09L67.9,105.76z M67.93,107.83v0.02h0.1v-0.02l-0.05-0.05L67.93,107.83z M68.24,106.02
					c0,0.05-0.06,0.09-0.18,0.12v0.02l0.16,0.21l-0.08,0.07l0.18,0.28h0.03l0.81-0.45v-0.02c-0.07,0-0.13-0.07-0.16-0.21h-0.08
					c0,0.08-0.14,0.19-0.42,0.33l-0.03-0.02v-0.21L68.24,106.02z M68.14,107.55v0.02h0.08l-0.03-0.07L68.14,107.55z M68.27,111.6
					c0,0.03,0.04,0.05,0.13,0.05l0.03,0.07l0.16-0.14l-0.1-0.05L68.27,111.6z M68.43,108.81c0.05,0,0.08,0.02,0.08,0.05v0.12
					L68.48,109v0.02h0.26c0.1,0,0.16-0.03,0.18-0.09l-0.03-0.02h-0.03l0.05-0.14c-0.03-0.06-0.05-0.09-0.08-0.09
					C68.57,108.71,68.43,108.76,68.43,108.81z M68.66,111.58v0.19l0.08,0.07l0.18-0.02l0.03,0.02v-0.02
					c-0.02-0.07-0.06-0.11-0.13-0.12c0-0.05-0.03-0.07-0.1-0.07L68.66,111.58z M68.74,112.09v0.02l0.05,0.05l0.03-0.07H68.74z
					 M70.76,111.44h0.05v0.05l-0.11,0.02v-0.02L70.76,111.44z"/>
				<path class="st1" d="M80.67,103.64h0.03l-0.01,0.05l-0.12,0.54c0.01,0.57,0.04,0.92,0.09,1.05l-0.06,0.16l0.07,0.3
					c-0.04,0.02-0.14,0.12-0.28,0.3c-0.05,0-0.08,0.01-0.08,0.04l0.03,0.01l0.29-0.16l0.05,0.05l-0.08,0.87l0.12,1.65l-0.03,0.66
					c-0.02,0.42,0,1.39,0.07,2.93l-0.06,0.16l0.01,0.45l-0.07,1.17l-0.48,0.12v0.02l0.07,0.08l0.16,0.01l0.22-0.13l0.03,0.02
					l-0.01,0.25l-0.06,0.05l-2.79-0.09l-0.05-0.05l0.07-0.51l-0.03-0.02c-0.06,0-0.23,0.12-0.51,0.38l-0.96,0.29l-0.24,0.02h-0.08
					c-0.45-0.02-0.95-0.22-1.5-0.61c0-0.04-0.06-0.13-0.2-0.29c-0.03-0.52-0.09-0.92-0.19-1.22l0.05-0.54l-0.1-0.73l0.07-0.59
					l-0.08-3.31c0.03-0.76,0.5-1.28,1.42-1.55c0.17-0.02,0.41-0.03,0.71-0.02c0.34,0.01,0.6,0.09,0.8,0.24
					c-0.05,0-0.08,0.01-0.08,0.04v0.05l0.04,0.05l0.09-0.06l-0.05-0.07h0.05l0.59,0.32h0.03c0.02-0.12,0.05-0.19,0.09-0.18
					l0.34,0.08l-0.05-0.16c0-0.08,0.04-0.12,0.11-0.11l0.03-0.07l0.18,0.1l0.13-0.06v-0.02c-0.14-0.01-0.21-0.07-0.2-0.18l0.08-0.18
					v-0.02l-0.14-0.38c0-0.07,0.08-0.22,0.25-0.44l0.05,0.01c0,0.06,0.06,0.1,0.18,0.1v-0.02l-0.28-0.25c0,0.05-0.02,0.07-0.05,0.07
					l-0.1-0.01c-0.26-0.02-0.39-0.07-0.41-0.13l-0.14,0.04l-0.03-0.02l0.01-0.23c0-0.11,0.02-0.19,0.06-0.25l0.03,0.02l0.52,0.01
					l0.13,0.03v-0.05l1.28-0.01l0.5,0.04L80.67,103.64z M74.79,107.86v0.02l0.05,0.05l0.03,0.01l-0.03-0.12L74.79,107.86z
					 M75.86,110.08v0.07l0.05,0.05l0.03-0.02l0.01-0.13l-0.03-0.01L75.86,110.08z M76.43,113.61l-0.03,0.02v0.05l0.05,0.05h0.03
					l0.01-0.07L76.43,113.61z M77.13,107.09l-0.08-0.01c-0.08,0.16-0.12,0.4-0.13,0.7c0.07,1.41,0.09,2.65,0.08,3.73l-0.09,0.38
					c0.02,0.56,0.15,0.85,0.39,0.86h0.03c0.24,0.01,0.39-0.11,0.43-0.34l0.01-0.38l0.08-0.63l-0.03-0.59l0.01-0.28l0.06-0.05h0.03
					l0.24,0.03l0.26-0.01h0.13c0-0.03-0.08-0.06-0.24-0.1c-0.06-0.14-0.15-0.21-0.25-0.22l-0.21,0.04l0.01-0.21
					c-0.04-0.43-0.04-0.92-0.02-1.46l0.01-0.33c0.02-0.6-0.11-0.99-0.4-1.18l-0.1-0.02L77.13,107.09z M77.13,106.41
					c0.04,0.1,0.09,0.15,0.15,0.15l0.42-0.03l-0.03-0.03l-0.39-0.13l-0.03-0.02L77.13,106.41z M77.25,112.02l0.15,0.01l0.08,0.07
					l-0.03,0.02h-0.03c-0.12-0.02-0.18-0.04-0.18-0.08L77.25,112.02z M77.58,110.93v0.02c-0.03,0.05-0.1,0.1-0.22,0.13l-0.03-0.02
					v-0.02C77.45,110.96,77.53,110.93,77.58,110.93z M77.42,106.23l0.03,0.07h0.03v-0.09l-0.03,0.02H77.42z M77.78,104.58l0.21,0.05
					l0.16,0.01c0,0.07-0.08,0.19-0.23,0.37l-0.03,0.11c0.08,0.07,0.12,0.17,0.12,0.29l-0.27,0.21v-0.05l-0.01-0.97l0.03-0.02H77.78z
					 M78.46,113.25v0.05l0.05-0.04l0.01-0.05L78.46,113.25z M78.46,106.43c0.02,0.06,0.05,0.09,0.07,0.09h0.03l0.03-0.07l-0.08-0.05
					l-0.03,0.02H78.46z M79.28,110.32l-0.03,0.09h-0.1l-0.39,0.08c0,0.03,0.05,0.05,0.15,0.07l0.61-0.19l0.01-0.02l-0.05-0.01
					l-0.1,0.02l-0.05-0.05H79.28z M78.88,111.11l0.05,0.05l0.05-0.05L78.88,111.11z M78.94,106.26l0.02,0.12
					c0.14-0.02,0.22-0.05,0.22-0.09l-0.03-0.02L78.94,106.26z M79.09,105.09v0.02l0.05,0.05h0.03v-0.05h0.03l-0.03-0.07h-0.03
					L79.09,105.09z M80.26,104.63c0.02,0.06,0.05,0.09,0.07,0.09l0.03-0.02v-0.02c-0.03,0-0.05-0.03-0.05-0.08l-0.03,0.02H80.26z
					 M80.35,104.45l-0.03,0.02v0.02l0.02,0.02l0.03,0.01l0.03-0.02v-0.02l-0.03-0.02L80.35,104.45z M80.39,104.69v0.05h0.03
					l0.13-0.02l-0.07-0.08h-0.03L80.39,104.69z M80.43,109.02v0.02h0.03l0.08-0.02V109h-0.03L80.43,109.02z"/>
				<path class="st1" d="M88.71,105.22l0.05,0.09l-0.1,2.11v0.54l0.03,0.23l-0.86,0.16c-0.37,0.11-0.55,0.22-0.55,0.35
					c-0.23,0-0.34,0.44-0.34,1.31v0.21c-0.07,0-0.1,0.02-0.1,0.05c0.09,0.02,0.13,0.08,0.13,0.16v0.33l-0.03,0.02v0.02l-0.03-0.02
					h-0.18l-0.08,0.05l-0.1-0.02l-0.05,0.05h-0.26l-0.1-0.09v-0.12l0.08-0.07h0.18l0.05-0.12h-0.26c-0.23,0-0.34,0.02-0.34,0.07
					v0.21l-0.03,0.02c-0.06,0.03-0.11,0.11-0.16,0.23c-0.1,0.08-0.2,0.12-0.31,0.12h-0.08c-0.26,0-0.39-0.04-0.39-0.12h-0.03
					c-0.03,0-0.05,0.05-0.05,0.16c-0.12,0.04-0.2,0.13-0.24,0.26h0.21c0.09-0.06,0.17-0.09,0.24-0.09h0.03
					c0.14,0.02,0.21,0.07,0.21,0.14l-0.08,0.14h0.24c0,0.05,0.02,0.07,0.05,0.07c0.05-0.04,0.22-0.07,0.52-0.12l-0.08-0.33
					c0-0.04,0.17-0.14,0.5-0.3h0.05v0.19c0.09,0.12,0.17,0.2,0.26,0.21l0.03,0.02l0.03-0.02v-0.02c-0.12-0.04-0.18-0.13-0.18-0.28
					l0.24-0.09c0.12,0.03,0.18,0.06,0.18,0.09v0.14c0,0.05-0.03,0.11-0.08,0.16c0.07,0,0.1,0.07,0.1,0.21v0.02
					c0,0.64,0.04,1.43,0.11,2.37c-0.71,0.11-1.35,0.16-1.94,0.16h-0.92l-0.03-0.02h-0.03c-0.05-2.46-0.11-4.06-0.18-4.8l0.24-1.52
					l-0.05-0.33l0.05-1.36l-0.03-0.23c0-0.07,0.04-0.14,0.1-0.23l2.8-0.09l0.03,0.02v0.02l-0.1,0.8l0.42-0.59
					c0.08-0.06,0.16-0.09,0.24-0.09c0-0.1,0.09-0.15,0.26-0.16c0.09-0.12,0.32-0.21,0.71-0.28H88.71z M84.36,108.62l0.03,0.07
					l0.1-0.07H84.36z M84.55,110.26v0.02l0.05,0.05h0.03v-0.02l-0.05-0.05H84.55z M84.7,105.72v0.02h0.03l0.03-0.09
					C84.72,105.65,84.7,105.67,84.7,105.72z M84.78,110.19l-0.05,0.09l0.08,0.05h0.03l0.03-0.09L84.78,110.19z M85.05,111.81v0.05
					l0.05,0.05h0.05v-0.05l-0.05-0.05H85.05z M85.28,106.19l0.05,0.05h0.08v-0.02l-0.08-0.07L85.28,106.19z M85.52,108.67v0.02
					l0.16-0.02l-0.05-0.07C85.55,108.62,85.52,108.65,85.52,108.67z M85.57,110.03v0.02h0.03c0-0.06,0.03-0.09,0.08-0.09v-0.05
					C85.64,109.92,85.6,109.96,85.57,110.03z M85.8,108.88l0.11,0.3h0.03l0.11-0.07l-0.08-0.14l0.03-0.21L85.8,108.88z
					 M86.43,108.58v0.02l0.05,0.05h0.03l0.03-0.02h0.03l-0.08-0.09L86.43,108.58z M88.08,104.64l0.05,0.07v0.02l-0.05,0.05
					l-0.05-0.12l0.03-0.02H88.08z M88.42,104.73l0.08,0.07v0.05l-0.05,0.05H88.4l-0.03-0.02h-0.03
					C88.37,104.78,88.39,104.73,88.42,104.73z M88.71,104.8c0.1,0.03,0.17,0.07,0.21,0.12l-0.08,0.05
					c-0.14-0.02-0.21-0.05-0.21-0.09L88.71,104.8z"/>
				<path class="st1" d="M95.45,105.6h0.24c1.13,0.05,1.77,0.18,1.91,0.4c0.23,0.07,0.34,0.11,0.34,0.14
					c0.08,0.15,0.25,0.34,0.52,0.56c0.28,0.68,0.42,1.09,0.42,1.24l-0.08,0.4l0.13,0.16v0.07l-0.18,0.16l0.03,0.42l-0.03,0.96
					l-0.03,0.02H98.7l-0.6,0.02l-0.84-0.05v-0.02l0.05-0.16h-0.03c-0.16,0.14-0.38,0.21-0.65,0.21l-0.31,0.02l-0.05-0.07l-0.99,0.09
					c0,0.07-0.08,0.13-0.24,0.19c0,0.04-0.04,0.11-0.13,0.19v0.05c0.11,0,0.21,0.05,0.29,0.14v0.05c0,0.13-0.12,0.24-0.37,0.33
					c-0.05,0.11-0.13,0.16-0.24,0.16l-0.21-0.09l-0.05,0.05v0.02c0,0.06,0.1,0.1,0.31,0.12l0.13,0.45c0.13-0.06,0.26-0.09,0.39-0.09
					v0.02c-0.03,0.07-0.05,0.17-0.05,0.3v0.09c0,0.44,0.15,0.66,0.45,0.66c0.33-0.06,0.5-0.2,0.5-0.42
					c0.05-0.12,0.08-0.29,0.08-0.49v-0.19l0.05-0.05h0.05c0,0.11,0.08,0.18,0.24,0.23l0.08-0.09l-0.05-0.07v-0.02
					c0-0.14,0.05-0.21,0.16-0.21l0.42,0.05c0-0.04,0.04-0.07,0.13-0.07v-0.05c0-0.12-0.06-0.2-0.18-0.26l-0.24,0.12l-0.39-0.09v0.05
					l0.03,0.12l-0.13,0.02l0.03,0.16v0.05h-0.03c-0.08-0.03-0.14-0.07-0.18-0.14v-0.3l-0.03-0.12c0.04-0.03,0.1-0.05,0.18-0.05
					l0.03-0.12l-0.16-0.12v-0.02c0-0.03,0.17-0.06,0.52-0.09c0,0.02,0.04,0.05,0.11,0.07l0.16-0.05c0.1,0,0.19,0.04,0.26,0.12
					l-0.03,0.02v0.02c0.27,0.11,0.45,0.16,0.55,0.16l0.03,0.02v0.02l-0.24,0.21v0.02h0.08c0.17,0,0.26,0.07,0.26,0.21l0.13-0.02
					h0.08l0.08-0.19l-0.05-0.14l0.05-0.21v-0.02c0-0.09-0.07-0.14-0.21-0.14l-0.03-0.02v-0.02c0.09-0.03,0.28-0.05,0.55-0.05h0.24
					l0.08,0.05l-0.03,0.28v1.03c0,0.73-0.37,1.34-1.1,1.83c-0.79,0.34-1.45,0.52-1.99,0.52c-0.44,0-1.17-0.12-2.2-0.38
					c-0.13-0.06-0.21-0.12-0.21-0.19c-0.1,0-0.37-0.24-0.81-0.73l0.03-0.09l-0.21-0.61v-0.05l0.05-0.05h0.08l0.29,0.19l0.21-0.14
					c-0.14,0-0.26-0.04-0.37-0.12l-0.03,0.02h-0.21l-0.03-0.02h-0.03l0.03-0.4v-0.82c0-0.2,0.05-0.46,0.16-0.8l-0.03-0.02v-0.47
					c0.09,0,0.13-0.04,0.13-0.12c0-0.06,0.05-0.09,0.16-0.09v-0.02c-0.19,0-0.29-0.03-0.29-0.09l-0.03-0.42v-0.26
					c0-0.72,0.24-1.47,0.73-2.25c0.56-0.38,1.01-0.6,1.33-0.66C94.57,105.66,94.92,105.6,95.45,105.6z M92.31,111.04l0.16,0.16v0.12
					h0.21v-0.02c-0.11,0-0.18-0.09-0.21-0.28L92.31,111.04z M93.2,110.57v0.16c-0.09,0.05-0.13,0.12-0.13,0.21
					c-0.03,0.08-0.08,0.12-0.16,0.12l0.03,0.02v0.02c0,0.12-0.07,0.19-0.21,0.19v0.02l0.16,0.14v0.02l-0.21,0.23l0.08,0.19
					c0.38-0.09,0.58-0.16,0.58-0.21c-0.28-0.19-0.42-0.3-0.42-0.33c0-0.05,0.15-0.19,0.45-0.42c0-0.05,0.02-0.07,0.05-0.07
					c0.09,0.11,0.18,0.16,0.26,0.16h0.03l-0.03-0.02v-0.05l0.16-0.14c-0.1,0-0.16-0.02-0.16-0.05l0.03-0.07
					c0-0.1-0.1-0.17-0.31-0.21h-0.03L93.2,110.57z M92.71,107.45v0.05l0.03,0.07h0.03v-0.05l0.03-0.02l-0.05-0.05H92.71z
					 M92.99,105.22c0.07,0.02,0.11,0.08,0.11,0.16v0.05l-0.03,0.02v0.02c-0.1-0.03-0.16-0.09-0.16-0.19L92.99,105.22z M93.57,107.94
					l-0.05,0.05l0.03,0.07l0.08-0.02v-0.05L93.57,107.94z M95.27,107.71l0.03,1.01h0.79v-0.98c0-0.19-0.06-0.39-0.18-0.61h-0.1
					c-0.31,0.03-0.47,0.11-0.47,0.23L95.27,107.71z M96.29,106.14l0.03,0.02h0.03c0.07-0.02,0.1-0.05,0.1-0.07l-0.05-0.05h-0.03
					C96.35,106.05,96.32,106.08,96.29,106.14z M96.69,106.21v0.02l0.05,0.05l0.03-0.02v-0.02l-0.03-0.02H96.69z M97.86,104.36
					l0.13,0.16v0.02c-0.09,0-0.15-0.03-0.18-0.09v-0.05L97.86,104.36z M97.86,107.03c0.02,0.17,0.04,0.26,0.08,0.26h0.03v-0.05h0.03
					l-0.03-0.02v-0.21h-0.05l-0.03,0.02H97.86z M98.15,105.11c0.19,0.02,0.29,0.06,0.29,0.12v0.05h-0.05
					C98.23,105.27,98.15,105.22,98.15,105.11z M98.31,109.33v0.02c0.01,0.03,0.05,0.06,0.13,0.09v-0.02l-0.08-0.09H98.31z
					 M98.91,109.26h0.03l0.13,0.09l-0.03,0.02h-0.13l-0.05-0.05v-0.02L98.91,109.26z M99.22,108.34l0.05,0.05v0.05l-0.08,0.07h-0.03
					l-0.05-0.05C99.15,108.39,99.19,108.35,99.22,108.34z"/>
				<path class="st1" d="M105.15,105.39c0.25,0.06,0.86,0.11,1.83,0.14c0.36,0.05,0.66,0.17,0.89,0.35c0.04,0.05,0.13,0.1,0.29,0.14
					l0.52,0.68l0.1,0.35l-0.05,0.63h0.05v0.05l-0.03,0.02l0.1,0.21l-0.08,0.38v0.16c0,0.29,0.04,0.56,0.13,0.8l-0.1,0.66l0.03,2.88
					c-0.02,0.81-0.07,1.22-0.16,1.22h-0.76c-0.04,0-0.08-0.05-0.1-0.16c-0.25,0-0.4,0.05-0.45,0.14l-0.05,0.05h-0.52l-0.84-0.02
					l-0.03-0.02v-0.02c0.24-0.22,0.51-0.33,0.81-0.33c0.25-0.13,0.38-0.21,0.39-0.26h-0.26c-0.21,0.12-0.41,0.19-0.6,0.19
					c-0.17,0-0.29-0.11-0.34-0.33l-0.08-0.05h-0.1v0.02c0.14,0.05,0.21,0.13,0.21,0.23h-0.03l-0.08-0.02
					c-0.07,0.11-0.17,0.2-0.29,0.28l0.03,0.07c-0.14,0-0.25,0.08-0.34,0.23c-0.23,0.04-0.34,0.12-0.34,0.26l-0.29-0.07l-0.65,0.07
					c-0.27,0-0.69-0.19-1.28-0.56c-0.24-0.35-0.37-0.79-0.37-1.31v-0.56c0.05-0.22,0.09-0.63,0.1-1.24c0.07-0.27,0.16-0.4,0.29-0.4
					c0-0.2,0.46-0.45,1.39-0.75c0.42-0.2,0.93-0.38,1.52-0.56l0.03-0.02v-0.02l-0.03-0.07c0.19,0,0.29-0.09,0.29-0.26
					c0.03-0.19,0.05-0.42,0.05-0.7c0-0.4-0.11-0.66-0.34-0.8l-0.16-0.05c-0.2,0-0.31,0.19-0.34,0.56v0.07l0.05,0.45l-0.05,0.12
					l0.11,0.35l-0.05,0.05l0.05,0.26c0,0.07-0.4,0.11-1.2,0.12h-1.18c-0.37,0-0.55-0.02-0.55-0.07v-0.14l0.05-0.14
					c0.21,0.12,0.45,0.19,0.73,0.19c0,0.03,0.06,0.05,0.18,0.05l0.05-0.05h0.13l0.05,0.05c0.04,0,0.12-0.05,0.24-0.14h0.1
					c0-0.03-0.06-0.07-0.18-0.14h-0.08c0,0.06-0.05,0.09-0.16,0.09h-0.08c-0.14,0-0.21-0.06-0.21-0.19v-0.02
					c0-0.06,0.05-0.14,0.16-0.23c-0.09-0.02-0.13-0.04-0.13-0.07l0.03-0.09l-0.6-0.02v0.02c-0.07,0.12-0.16,0.19-0.26,0.19v-0.68
					c0.09-0.11,0.17-0.16,0.26-0.16c0.28,0,0.52,0.03,0.73,0.09l0.08-0.09c-0.04,0-0.09-0.06-0.13-0.19h-0.16
					c-0.05,0-0.07-0.04-0.08-0.12h-0.26l-0.31-0.05v-0.02c0-0.25,0.27-0.59,0.81-1.03C103.97,105.6,104.6,105.39,105.15,105.39z
					 M103.06,110.22v0.02l0.03,0.07h0.03v-0.07l-0.03-0.02H103.06z M103.11,109.96v0.05l0.11-0.09h-0.05L103.11,109.96z
					 M104.13,112.03l-0.05,0.07l0.05,0.05h0.03l0.03-0.09l-0.03-0.02H104.13z M104.37,112.61c0,0.05-0.04,0.09-0.13,0.14l-0.03-0.02
					h-0.03l-0.05,0.14l0.26,0.14l0.42-0.16l-0.03-0.02v-0.14l-0.08-0.02l-0.16,0.05c-0.1-0.01-0.16-0.04-0.16-0.09H104.37z
					 M104.21,113.18v0.14l0.05-0.05l-0.03-0.09H104.21z M104.23,114.14l0.1,0.07v-0.07l-0.05-0.05L104.23,114.14z M104.39,107.43
					v0.02l0.05,0.05h0.03L104.39,107.43z M105.26,112.99l-0.05,0.12h-0.05l-0.13-0.09v0.02c0.04,0.09,0.12,0.19,0.26,0.28
					c0-0.03,0.11-0.08,0.31-0.16l-0.08-0.16l-0.21,0.05L105.26,112.99z M105.07,111.86c0.04,0.61,0.21,0.91,0.5,0.91
					c0.23,0,0.36-0.28,0.39-0.84v-0.38l-0.1-0.73l0.03-0.54C105.34,110.55,105.07,111.08,105.07,111.86z M105.36,105.56v0.07h0.05
					v-0.02L105.36,105.56z M105.99,109.68l-0.03,0.12v0.02h0.03l0.29,0.02v-0.09l-0.21,0.05l-0.05-0.12H105.99z M106.02,110.71v0.07
					h0.05l0.05-0.05l-0.03-0.07h-0.03L106.02,110.71z M106.04,111.77v0.07l0.05-0.05v-0.02H106.04z M107.3,109.57l-0.08,0.33
					l0.03,0.02h0.16c0.12-0.01,0.23-0.07,0.34-0.16l-0.03-0.09l0.03-0.02l-0.03-0.07l-0.1-0.02L107.3,109.57z M107.59,113.97h0.18
					l0.08,0.07l-0.05,0.05h-0.29v-0.05L107.59,113.97z"/>
				<path class="st1" d="M118.21,111.93h0.42v0.02l-0.08,0.07l-0.34-0.05V111.93z M118.39,114.06h0.29v0.05h-0.29V114.06z
					 M122.71,104.31c0.61,0,1.2,0.19,1.78,0.56c0,0.06,0.1,0.11,0.29,0.14c0.65,0.45,0.97,1.01,0.97,1.69
					c0.04,0.25,0.05,0.59,0.05,1.03v0.42l-0.03,0.02v0.02l-0.26-0.05l-1,0.12l-0.29-0.07l-0.94,0.07h-0.42l-0.05-0.05v-0.23
					l0.1-0.02l-0.08-0.49l0.05-0.8v-0.05c0-0.29-0.1-0.47-0.29-0.54c-0.2,0-0.37,0.09-0.52,0.28c0,0.17,0.04,0.31,0.13,0.42
					l-0.21,0.49l-0.26,0.07v0.02c0.04,0,0.11,0.05,0.21,0.16l0.08-0.02v0.16l0.05,0.05l-0.13,1.66l0.08,1.88l-0.05,0.96
					c0,0.34,0.15,0.52,0.45,0.52h0.03c0.3,0,0.44-0.22,0.44-0.66l-0.08-0.61l0.13-0.75c-0.02-0.06-0.05-0.09-0.1-0.09l-0.37,0.05
					h-0.03l-0.05-0.05v-0.19l-0.05-1.29c0.31-0.08,0.83-0.13,1.54-0.16l0.68-0.02l1.26,0.05l0.03,0.02v0.02
					c-0.09,1.04-0.13,1.84-0.13,2.39v1.73c-0.05,0.15-0.1,0.23-0.13,0.23c-0.06,0-0.17-0.1-0.31-0.3l-0.24,0.05v0.02
					c0.17,0.04,0.26,0.14,0.26,0.28c-0.11,0.05-0.22,0.12-0.34,0.23l0.5,0.14c0.07-0.01,0.14-0.06,0.24-0.16h0.03l0.03,0.35
					l-0.03,0.02h-0.84c-0.27,0-0.55,0.03-0.84,0.09c-0.08-0.02-0.19-0.19-0.34-0.52l-0.03-0.02h-0.03
					c-0.62,0.52-1.13,0.77-1.54,0.77l-0.31-0.12h-0.31c-0.73-0.17-1.36-0.47-1.88-0.91c-0.08-0.09-0.24-0.38-0.47-0.87l0.05-0.38
					v-0.26l-0.03-0.28l0.08-1.43v-1.29l0.03-0.02l-0.03-0.02v-0.16l-0.05-0.8c0.01-0.2,0.05-0.3,0.1-0.3l0.37,0.09
					c0-0.16,0.11-0.26,0.34-0.28c0.06,0,0.12,0.02,0.18,0.07c0-0.2,0.1-0.3,0.31-0.3c0.15-0.12,0.3-0.19,0.45-0.19l-0.13-0.26
					c-0.1,0-0.17-0.08-0.21-0.23h-0.16l-0.08,0.05h-0.16c-0.04,0-0.07-0.03-0.08-0.09l-0.21,0.05l-0.21-0.14h-0.03
					c-0.07,0.05-0.13,0.07-0.18,0.07l-0.03-0.02h-0.03c0.04-0.28,0.1-0.42,0.18-0.42l0.05-0.07l0.1,0.05v-0.02
					c0-0.05-0.05-0.07-0.16-0.07v-0.02c0.12-0.28,0.23-0.42,0.31-0.42c0.29-0.23,0.47-0.35,0.52-0.35
					C121.05,104.55,121.8,104.31,122.71,104.31z M119.39,106.91l0.08,0.02v0.05c-0.06,0.08-0.13,0.14-0.21,0.16v-0.02L119.39,106.91
					z M119.41,106.47h0.08v0.07l-0.05,0.05h-0.03V106.47z M119.62,114.53c0.17,0.02,0.26,0.05,0.26,0.09l-0.08,0.02l-0.24-0.07
					L119.62,114.53z M119.67,107.76l-0.03,0.02v0.05h0.03l0.05-0.05l-0.03-0.02H119.67z M119.86,105.97l-0.05,0.05v0.14l0.16-0.14
					v-0.05H119.86z M120.3,106.65l0.03,0.02v0.09c-0.02,0.19-0.11,0.28-0.29,0.28l-0.18-0.02v-0.02
					C119.86,106.81,120.01,106.69,120.3,106.65z M119.86,108.37v0.02l0.05,0.05l0.05-0.07v-0.02h-0.03L119.86,108.37z
					 M120.07,108.01c0.03,0.06,0.05,0.09,0.08,0.09l0.05-0.05v-0.02L120.07,108.01z M120.09,107.66h0.24l0.18-0.02l-0.05-0.05h-0.03
					l-0.24,0.05l-0.03-0.07C120.15,107.57,120.12,107.6,120.09,107.66z M120.22,114.65v0.02l-0.05,0.05h-0.08v-0.05L120.22,114.65z
					 M120.12,108.65v0.02c0.07,0.1,0.1,0.2,0.1,0.28h0.08v-0.02c-0.05-0.08-0.08-0.16-0.08-0.23v-0.05H120.12z M120.85,110.83v0.07
					h0.03l0.11-0.09l-0.03-0.02v-0.02L120.85,110.83z M121.04,106.96c0.08,0.07,0.14,0.17,0.18,0.28l0.24,0.05
					c-0.04-0.19-0.11-0.3-0.24-0.35L121.04,106.96z M121.14,106.14l0.03,0.02h0.03l0.08-0.07l-0.05-0.09
					C121.17,106.01,121.14,106.06,121.14,106.14z M121.27,105.41v0.02l0.03,0.07h0.08l0.05-0.05v-0.02l-0.13-0.02H121.27z
					 M121.27,108.65v0.05l0.08,0.02l0.05-0.07l-0.03-0.09L121.27,108.65z M121.45,106.09v0.02l0.03,0.02v0.02l0.1-0.07l-0.08-0.05
					L121.45,106.09z M121.53,106.7v0.05l0.05,0.05l0.05-0.05l-0.05-0.05H121.53z M122.14,114.48l0.05,0.14v0.28l0.03,0.02v0.02
					l-0.03,0.02h-0.05l-0.05-0.05v-0.23c0-0.03-0.06-0.05-0.18-0.07v-0.02C121.9,114.56,121.98,114.52,122.14,114.48z
					 M121.95,105.76l-0.03,0.09l0.03,0.02h0.08v-0.07l-0.05-0.05H121.95z M122.27,106.37l0.05,0.05l-0.03,0.02h-0.03l-0.05-0.05
					l0.03-0.02H122.27z M122.45,106.05h0.16v-0.12L122.45,106.05z M123.47,109.49l-0.05,0.05l0.03,0.07h0.05l0.05-0.05
					L123.47,109.49z M123.6,105.65l-0.03,0.02v0.02l0.05,0.05h0.03v-0.05L123.6,105.65z M123.81,106.14c0,0.08-0.07,0.16-0.21,0.26
					l0.03,0.02h0.05c0.13,0,0.2-0.02,0.21-0.07v-0.21H123.81z M123.81,107.08l0.03,0.12l0.86-0.14l-0.05-0.05l-0.37,0.07
					c-0.16-0.05-0.24-0.09-0.24-0.12l0.03-0.07l-0.03-0.02h-0.03L123.81,107.08z M123.92,113.85v0.05l0.05,0.05l0.03-0.02v-0.02
					L123.92,113.85z M124.02,107.62v0.09h0.05v-0.05L124.02,107.62z M124.28,109.58l-0.1,0.05v0.02c0.31,0.12,0.47,0.27,0.47,0.47
					l0.13-0.02l0.11,0.07l0.08-0.07c-0.09-0.04-0.13-0.1-0.13-0.19c0-0.08,0.05-0.18,0.16-0.3l-0.42,0.09l-0.03-0.02l0.03-0.02
					v-0.09l-0.03,0.02H124.28z M124.31,112.7l-0.05,0.07h0.05l0.05-0.05l-0.03-0.02H124.31z M124.39,105.76v0.05
					c0,0.02,0.04,0.05,0.11,0.07c0-0.06,0.04-0.09,0.13-0.09v-0.12c0.07-0.09,0.14-0.14,0.21-0.14v-0.02h-0.08L124.39,105.76z
					 M124.81,107.22v0.02l0.24,0.16v-0.07C124.98,107.33,124.9,107.3,124.81,107.22z M124.88,110.4l0.21,0.07
					c0-0.09,0.04-0.14,0.13-0.14v-0.02l-0.05-0.07c-0.17,0-0.26,0.02-0.26,0.07L124.88,110.4z M124.99,112.42
					c0,0.05,0.04,0.12,0.1,0.19l-0.1,0.05v0.02l0.45-0.07v-0.02c-0.16,0-0.24-0.09-0.24-0.26h-0.1L124.99,112.42z M125.07,111.76
					l-0.03,0.09l0.03,0.02h0.05v-0.07L125.07,111.76z M126.87,103.47h0.05l0.05,0.05l-0.03,0.02h-0.03l-0.05-0.05V103.47z"/>
				<path class="st1" d="M132.33,105.76c0.09,0,0.13,0.66,0.13,1.97l-0.03,0.02h-0.03l0.03,0.19l-0.03,1.78
					c0,0.71,0.08,1.54,0.24,2.48l-0.05,0.33c0.06,0.2,0.21,0.3,0.45,0.3c0.26,0,0.39-0.13,0.39-0.4v-0.12l-0.13-0.56l0.08-1.73
					l-0.08-1.27v-2.02c0-0.38-0.02-0.69-0.05-0.91l0.03-0.02h0.03l2.91-0.07l0.03,0.02l0.05,2.34l-0.05,2.34l0.05,0.21l-0.05,0.77
					c0.09,0.23,0.13,0.39,0.13,0.47l-0.05,0.3v0.02l0.1,0.63c-0.04,0-0.09,0.09-0.16,0.26l-1.12,0.26c0,0.04,0.04,0.06,0.13,0.07
					l0.08-0.07h0.05c0.16,0.03,0.24,0.08,0.24,0.16h0.05c0.27,0,0.51-0.02,0.73-0.07c0.05,0.07,0.08,0.18,0.08,0.3v0.16
					c0,0.17-0.06,0.26-0.18,0.26c0,0.03-0.52,0.05-1.57,0.07l-1.23-0.02l-0.08-0.12c0-0.13,0.02-0.24,0.05-0.33
					c-0.02-0.08-0.05-0.12-0.08-0.12h-0.03c-0.03,0-0.09,0.09-0.18,0.26c-0.45,0.34-0.84,0.52-1.15,0.52h-0.5
					c-0.73-0.05-1.1-0.16-1.1-0.33c-0.23-0.07-0.45-0.3-0.65-0.68c-0.16-0.28-0.24-0.77-0.24-1.48v-0.63h0.03l0.03,0.02h0.03
					l0.05-0.09c-0.09-0.01-0.13-0.04-0.13-0.07l-0.1-2.06l0.03-0.02h0.03c0.03,0.03,0.17,0.06,0.42,0.09l0.08-0.09
					c-0.16-0.05-0.24-0.16-0.24-0.35v-0.07h-0.03c0,0.17-0.1,0.26-0.29,0.26l-0.03-0.02l-0.03-1.17v-1.27l-0.05-0.66l0.03-0.02h0.03
					l0.5-0.02l0.6,0.02v0.02l-0.03,0.09h0.08v-0.05h0.03l-0.03-0.02v-0.05h0.73L132.33,105.76z M129.58,109.34l-0.05,0.07v0.05h0.1
					v-0.07L129.58,109.34z M129.69,106.2l-0.03,0.02v0.02l0.1,0.07l0.05-0.07L129.69,106.2z M129.97,111.34v0.07h0.05l0.03-0.07
					H129.97z M130,108.29c0.1,0.09,0.16,0.17,0.16,0.23v0.09l-0.08,0.07l0.05,0.12c0.07-0.06,0.2-0.09,0.37-0.09l-0.05-0.07v-0.09
					l0.03-0.02v-0.02h-0.08l-0.13,0.02c-0.07-0.15-0.12-0.23-0.16-0.23H130z M130.16,110.33v0.02l0.05,0.05l0.03-0.02v-0.05H130.16z
					 M130.63,112.88l-0.03,0.02v0.02l0.03,0.02h0.08L130.63,112.88z M130.97,109.72l-0.21-0.07l-0.13,0.05l0.18,0.3l0.29,0.07
					c0.1-0.08,0.16-0.15,0.16-0.21l0.05-0.23L130.97,109.72z M130.63,110.96c0,0.04,0.1,0.06,0.31,0.07c0.07,0.07,0.1,0.13,0.1,0.19
					v0.05l-0.05,0.07l0.03,0.02v0.02c0,0.07-0.12,0.18-0.37,0.33c0.12,0,0.18,0.09,0.18,0.26l0.21,0.05l-0.1-0.12v-0.02h0.16
					l0.13,0.02c0.1-0.16,0.16-0.26,0.16-0.3v-0.02l-0.16-0.19v-0.12l0.13-0.12c-0.08-0.22-0.21-0.33-0.39-0.33
					c0-0.03-0.03-0.05-0.1-0.05C130.78,110.77,130.7,110.84,130.63,110.96z M130.89,109.25l-0.03,0.09h0.08v-0.02l-0.03-0.07H130.89
					z M131.65,108.85c-0.16-0.05-0.31-0.07-0.44-0.07h-0.08c0.09,0.09,0.13,0.16,0.13,0.21c-0.1,0.04-0.21,0.1-0.31,0.19v0.02h0.03
					l0.34-0.14l-0.03-0.02v-0.09l0.13-0.12c0.38,0.12,0.58,0.23,0.58,0.3l0.13-0.02h0.08l0.03,0.02h0.03l0.03-0.02v-0.02
					c-0.05-0.06-0.08-0.11-0.08-0.16v-0.05l0.03-0.12C132.02,108.76,131.83,108.79,131.65,108.85z M131.33,113.61v0.05h0.03
					l0.05-0.05H131.33z M131.94,109.88v0.02h0.03l0.05-0.05v-0.02h-0.03L131.94,109.88z M133.69,108.85v0.07h0.08L133.69,108.85z
					 M133.87,108.03v0.02c0.07,0.07,0.1,0.13,0.1,0.19v0.05c0,0.03-0.04,0.05-0.1,0.05l-0.03,0.12v0.02l0.24-0.05l0.24,0.07
					l0.08-0.16h0.03c0.1,0.12,0.18,0.19,0.24,0.19c0.25,0,0.42-0.06,0.52-0.19c0.12-0.06,0.24-0.09,0.37-0.09l0.29,0.09v-0.02
					l-0.08-0.21c-0.4,0-0.6,0.07-0.6,0.21l-0.08,0.05h-0.47l-0.16-0.09l-0.24,0.02v-0.02l0.11-0.16l-0.05-0.14v-0.02l0.03-0.02
					v-0.02h-0.03l-0.26,0.12L133.87,108.03z M133.87,108.97v0.05h0.08v-0.05H133.87z M133.98,109.18c0,0.03-0.03,0.05-0.08,0.05
					v0.07h0.1l0.03-0.09l-0.03-0.02H133.98z M134.53,109.51v0.02c0,0.11,0.06,0.16,0.18,0.16h0.03c0.16-0.15,0.38-0.27,0.65-0.35
					c0-0.03,0.03-0.05,0.08-0.05v-0.02l-0.13-0.02h-0.08c-0.42,0-0.63,0.03-0.63,0.09L134.53,109.51z M135.02,110.02l0.03,0.02h0.03
					l0.03-0.02v-0.05h-0.03L135.02,110.02z M135.84,108.36l-0.03,0.07h0.05v-0.07H135.84z"/>
				<path class="st1" d="M143.14,105.6h0.24c1.13,0.05,1.77,0.18,1.91,0.4c0.23,0.07,0.34,0.11,0.34,0.14
					c0.08,0.15,0.25,0.34,0.52,0.56c0.28,0.68,0.42,1.09,0.42,1.24l-0.08,0.4l0.13,0.16v0.07l-0.18,0.16l0.03,0.42l-0.03,0.96
					l-0.03,0.02h-0.03l-0.6,0.02l-0.84-0.05v-0.02l0.05-0.16h-0.03c-0.16,0.14-0.38,0.21-0.65,0.21l-0.31,0.02l-0.05-0.07
					l-0.99,0.09c0,0.07-0.08,0.13-0.24,0.19c0,0.04-0.04,0.11-0.13,0.19v0.05c0.11,0,0.21,0.05,0.29,0.14v0.05
					c0,0.13-0.12,0.24-0.37,0.33c-0.05,0.11-0.13,0.16-0.24,0.16l-0.21-0.09l-0.05,0.05v0.02c0,0.06,0.1,0.1,0.31,0.12l0.13,0.45
					c0.13-0.06,0.26-0.09,0.39-0.09v0.02c-0.03,0.07-0.05,0.17-0.05,0.3v0.09c0,0.44,0.15,0.66,0.45,0.66
					c0.33-0.06,0.5-0.2,0.5-0.42c0.05-0.12,0.08-0.29,0.08-0.49v-0.19l0.05-0.05h0.05c0,0.11,0.08,0.18,0.24,0.23l0.08-0.09
					l-0.05-0.07v-0.02c0-0.14,0.05-0.21,0.16-0.21l0.42,0.05c0-0.04,0.04-0.07,0.13-0.07v-0.05c0-0.12-0.06-0.2-0.18-0.26
					l-0.24,0.12l-0.39-0.09v0.05l0.03,0.12l-0.13,0.02l0.03,0.16v0.05h-0.03c-0.08-0.03-0.14-0.07-0.18-0.14v-0.3l-0.03-0.12
					c0.04-0.03,0.1-0.05,0.18-0.05l0.03-0.12l-0.16-0.12v-0.02c0-0.03,0.17-0.06,0.52-0.09c0,0.02,0.04,0.05,0.11,0.07l0.16-0.05
					c0.1,0,0.19,0.04,0.26,0.12l-0.03,0.02v0.02c0.27,0.11,0.45,0.16,0.55,0.16l0.03,0.02v0.02l-0.24,0.21v0.02h0.08
					c0.17,0,0.26,0.07,0.26,0.21l0.13-0.02h0.08l0.08-0.19l-0.05-0.14l0.05-0.21v-0.02c0-0.09-0.07-0.14-0.21-0.14l-0.03-0.02v-0.02
					c0.09-0.03,0.28-0.05,0.55-0.05h0.24l0.08,0.05l-0.03,0.28v1.03c0,0.73-0.37,1.34-1.1,1.83c-0.79,0.34-1.45,0.52-1.99,0.52
					c-0.44,0-1.17-0.12-2.2-0.38c-0.13-0.06-0.21-0.12-0.21-0.19c-0.1,0-0.37-0.24-0.81-0.73l0.03-0.09l-0.21-0.61v-0.05l0.05-0.05
					h0.08l0.29,0.19l0.21-0.14c-0.14,0-0.26-0.04-0.37-0.12l-0.03,0.02h-0.21l-0.03-0.02h-0.03l0.03-0.4v-0.82
					c0-0.2,0.05-0.46,0.16-0.8l-0.03-0.02v-0.47c0.09,0,0.13-0.04,0.13-0.12c0-0.06,0.05-0.09,0.16-0.09v-0.02
					c-0.19,0-0.29-0.03-0.29-0.09l-0.03-0.42v-0.26c0-0.72,0.24-1.47,0.73-2.25c0.56-0.38,1.01-0.6,1.33-0.66
					C142.25,105.66,142.6,105.6,143.14,105.6z M140,111.04l0.16,0.16v0.12h0.21v-0.02c-0.11,0-0.18-0.09-0.21-0.28L140,111.04z
					 M140.89,110.57v0.16c-0.09,0.05-0.13,0.12-0.13,0.21c-0.03,0.08-0.08,0.12-0.16,0.12l0.03,0.02v0.02
					c0,0.12-0.07,0.19-0.21,0.19v0.02l0.16,0.14v0.02l-0.21,0.23l0.08,0.19c0.38-0.09,0.58-0.16,0.58-0.21
					c-0.28-0.19-0.42-0.3-0.42-0.33c0-0.05,0.15-0.19,0.45-0.42c0-0.05,0.02-0.07,0.05-0.07c0.09,0.11,0.18,0.16,0.26,0.16h0.03
					l-0.03-0.02v-0.05l0.16-0.14c-0.1,0-0.16-0.02-0.16-0.05l0.03-0.07c0-0.1-0.1-0.17-0.31-0.21h-0.03L140.89,110.57z
					 M140.39,107.45v0.05l0.03,0.07h0.03v-0.05l0.03-0.02l-0.05-0.05H140.39z M140.68,105.22c0.07,0.02,0.11,0.08,0.11,0.16v0.05
					l-0.03,0.02v0.02c-0.1-0.03-0.16-0.09-0.16-0.19L140.68,105.22z M141.25,107.94l-0.05,0.05l0.03,0.07l0.08-0.02v-0.05
					L141.25,107.94z M142.96,107.71l0.03,1.01h0.79v-0.98c0-0.19-0.06-0.39-0.18-0.61h-0.1c-0.31,0.03-0.47,0.11-0.47,0.23
					L142.96,107.71z M143.98,106.14l0.03,0.02h0.03c0.07-0.02,0.1-0.05,0.1-0.07l-0.05-0.05h-0.03
					C144.03,106.05,144,106.08,143.98,106.14z M144.37,106.21v0.02l0.05,0.05l0.03-0.02v-0.02l-0.03-0.02H144.37z M145.55,104.36
					l0.13,0.16v0.02c-0.09,0-0.15-0.03-0.18-0.09v-0.05L145.55,104.36z M145.55,107.03c0.02,0.17,0.04,0.26,0.08,0.26h0.03v-0.05
					h0.03l-0.03-0.02v-0.21h-0.05l-0.03,0.02H145.55z M145.83,105.11c0.19,0.02,0.29,0.06,0.29,0.12v0.05h-0.05
					C145.91,105.27,145.83,105.22,145.83,105.11z M145.99,109.33v0.02c0.01,0.03,0.05,0.06,0.13,0.09v-0.02l-0.08-0.09H145.99z
					 M146.59,109.26h0.03l0.13,0.09l-0.03,0.02h-0.13l-0.05-0.05v-0.02L146.59,109.26z M146.91,108.34l0.05,0.05v0.05l-0.08,0.07
					h-0.03l-0.05-0.05C146.84,108.39,146.87,108.35,146.91,108.34z"/>
				<path class="st1" d="M154.62,105.22l0.05,0.09l-0.1,2.11v0.54l0.03,0.23l-0.86,0.16c-0.37,0.11-0.55,0.22-0.55,0.35
					c-0.23,0-0.34,0.44-0.34,1.31v0.21c-0.07,0-0.1,0.02-0.1,0.05c0.09,0.02,0.13,0.08,0.13,0.16v0.33l-0.03,0.02v0.02l-0.03-0.02
					h-0.18l-0.08,0.05l-0.1-0.02l-0.05,0.05h-0.26l-0.1-0.09v-0.12l0.08-0.07h0.18l0.05-0.12h-0.26c-0.23,0-0.34,0.02-0.34,0.07
					v0.21l-0.03,0.02c-0.06,0.03-0.11,0.11-0.16,0.23c-0.1,0.08-0.2,0.12-0.31,0.12h-0.08c-0.26,0-0.39-0.04-0.39-0.12h-0.03
					c-0.03,0-0.05,0.05-0.05,0.16c-0.12,0.04-0.2,0.13-0.24,0.26h0.21c0.09-0.06,0.17-0.09,0.24-0.09h0.03
					c0.14,0.02,0.21,0.07,0.21,0.14l-0.08,0.14h0.24c0,0.05,0.02,0.07,0.05,0.07c0.05-0.04,0.22-0.07,0.52-0.12l-0.08-0.33
					c0-0.04,0.17-0.14,0.5-0.3h0.05v0.19c0.09,0.12,0.17,0.2,0.26,0.21l0.03,0.02l0.03-0.02v-0.02c-0.12-0.04-0.18-0.13-0.18-0.28
					l0.24-0.09c0.12,0.03,0.18,0.06,0.18,0.09v0.14c0,0.05-0.03,0.11-0.08,0.16c0.07,0,0.1,0.07,0.1,0.21v0.02
					c0,0.64,0.04,1.43,0.11,2.37c-0.71,0.11-1.35,0.16-1.94,0.16h-0.92l-0.03-0.02h-0.03c-0.05-2.46-0.11-4.06-0.18-4.8l0.24-1.52
					l-0.05-0.33l0.05-1.36l-0.03-0.23c0-0.07,0.04-0.14,0.1-0.23l2.8-0.09l0.03,0.02v0.02l-0.1,0.8l0.42-0.59
					c0.08-0.06,0.16-0.09,0.24-0.09c0-0.1,0.09-0.15,0.26-0.16c0.09-0.12,0.32-0.21,0.71-0.28H154.62z M150.28,108.62l0.03,0.07
					l0.1-0.07H150.28z M150.46,110.26v0.02l0.05,0.05h0.03v-0.02l-0.05-0.05H150.46z M150.62,105.72v0.02h0.03l0.03-0.09
					C150.63,105.65,150.62,105.67,150.62,105.72z M150.69,110.19l-0.05,0.09l0.08,0.05h0.03l0.03-0.09L150.69,110.19z
					 M150.96,111.81v0.05l0.05,0.05h0.05v-0.05l-0.05-0.05H150.96z M151.19,106.19l0.05,0.05h0.08v-0.02l-0.08-0.07L151.19,106.19z
					 M151.43,108.67v0.02l0.16-0.02l-0.05-0.07C151.46,108.62,151.43,108.65,151.43,108.67z M151.48,110.03v0.02h0.03
					c0-0.06,0.03-0.09,0.08-0.09v-0.05C151.55,109.92,151.52,109.96,151.48,110.03z M151.72,108.88l0.11,0.3h0.03l0.11-0.07
					l-0.08-0.14l0.03-0.21L151.72,108.88z M152.34,108.58v0.02l0.05,0.05h0.03l0.03-0.02h0.03l-0.08-0.09L152.34,108.58z
					 M153.99,104.64l0.05,0.07v0.02l-0.05,0.05l-0.05-0.12l0.03-0.02H153.99z M154.33,104.73l0.08,0.07v0.05l-0.05,0.05h-0.05
					l-0.03-0.02h-0.03C154.28,104.78,154.3,104.73,154.33,104.73z M154.62,104.8c0.1,0.03,0.17,0.07,0.21,0.12l-0.08,0.05
					c-0.14-0.02-0.21-0.05-0.21-0.09L154.62,104.8z"/>
				<path class="st1" d="M162.71,105.22l0.05,0.09l-0.1,2.11v0.54l0.03,0.23l-0.86,0.16c-0.37,0.11-0.55,0.22-0.55,0.35
					c-0.23,0-0.34,0.44-0.34,1.31v0.21c-0.07,0-0.1,0.02-0.1,0.05c0.09,0.02,0.13,0.08,0.13,0.16v0.33l-0.03,0.02v0.02l-0.03-0.02
					h-0.18l-0.08,0.05l-0.1-0.02l-0.05,0.05h-0.26l-0.1-0.09v-0.12l0.08-0.07h0.18l0.05-0.12h-0.26c-0.23,0-0.34,0.02-0.34,0.07
					v0.21l-0.03,0.02c-0.06,0.03-0.11,0.11-0.16,0.23c-0.1,0.08-0.2,0.12-0.31,0.12h-0.08c-0.26,0-0.39-0.04-0.39-0.12h-0.03
					c-0.03,0-0.05,0.05-0.05,0.16c-0.12,0.04-0.2,0.13-0.24,0.26h0.21c0.09-0.06,0.17-0.09,0.24-0.09h0.03
					c0.14,0.02,0.21,0.07,0.21,0.14l-0.08,0.14h0.24c0,0.05,0.02,0.07,0.05,0.07c0.05-0.04,0.22-0.07,0.52-0.12l-0.08-0.33
					c0-0.04,0.17-0.14,0.5-0.3h0.05v0.19c0.09,0.12,0.17,0.2,0.26,0.21l0.03,0.02l0.03-0.02v-0.02c-0.12-0.04-0.18-0.13-0.18-0.28
					l0.24-0.09c0.12,0.03,0.18,0.06,0.18,0.09v0.14c0,0.05-0.03,0.11-0.08,0.16c0.07,0,0.1,0.07,0.1,0.21v0.02
					c0,0.64,0.04,1.43,0.11,2.37c-0.71,0.11-1.35,0.16-1.94,0.16h-0.92l-0.03-0.02h-0.03c-0.05-2.46-0.11-4.06-0.18-4.8l0.24-1.52
					l-0.05-0.33l0.05-1.36l-0.03-0.23c0-0.07,0.04-0.14,0.1-0.23l2.8-0.09l0.03,0.02v0.02l-0.1,0.8l0.42-0.59
					c0.08-0.06,0.16-0.09,0.24-0.09c0-0.1,0.09-0.15,0.26-0.16c0.09-0.12,0.32-0.21,0.71-0.28H162.71z M158.37,108.62l0.03,0.07
					l0.1-0.07H158.37z M158.55,110.26v0.02l0.05,0.05h0.03v-0.02l-0.05-0.05H158.55z M158.71,105.72v0.02h0.03l0.03-0.09
					C158.73,105.65,158.71,105.67,158.71,105.72z M158.79,110.19l-0.05,0.09l0.08,0.05h0.03l0.03-0.09L158.79,110.19z
					 M159.05,111.81v0.05l0.05,0.05h0.05v-0.05l-0.05-0.05H159.05z M159.28,106.19l0.05,0.05h0.08v-0.02l-0.08-0.07L159.28,106.19z
					 M159.52,108.67v0.02l0.16-0.02l-0.05-0.07C159.56,108.62,159.52,108.65,159.52,108.67z M159.57,110.03v0.02h0.03
					c0-0.06,0.03-0.09,0.08-0.09v-0.05C159.64,109.92,159.61,109.96,159.57,110.03z M159.81,108.88l0.11,0.3h0.03l0.11-0.07
					l-0.08-0.14l0.03-0.21L159.81,108.88z M160.44,108.58v0.02l0.05,0.05h0.03l0.03-0.02h0.03l-0.08-0.09L160.44,108.58z
					 M162.09,104.64l0.05,0.07v0.02l-0.05,0.05l-0.05-0.12l0.03-0.02H162.09z M162.43,104.73l0.08,0.07v0.05l-0.05,0.05h-0.05
					l-0.03-0.02h-0.03C162.37,104.78,162.4,104.73,162.43,104.73z M162.71,104.8c0.1,0.03,0.17,0.07,0.21,0.12l-0.08,0.05
					c-0.14-0.02-0.21-0.05-0.21-0.09L162.71,104.8z"/>
				<path class="st1" d="M169.46,105.6h0.24c1.13,0.05,1.77,0.18,1.91,0.4c0.23,0.07,0.34,0.11,0.34,0.14
					c0.08,0.15,0.25,0.34,0.52,0.56c0.28,0.68,0.42,1.09,0.42,1.24l-0.08,0.4l0.13,0.16v0.07l-0.18,0.16l0.03,0.42l-0.03,0.96
					l-0.03,0.02h-0.03l-0.6,0.02l-0.84-0.05v-0.02l0.05-0.16h-0.03c-0.16,0.14-0.38,0.21-0.65,0.21l-0.31,0.02l-0.05-0.07
					l-0.99,0.09c0,0.07-0.08,0.13-0.24,0.19c0,0.04-0.04,0.11-0.13,0.19v0.05c0.11,0,0.21,0.05,0.29,0.14v0.05
					c0,0.13-0.12,0.24-0.37,0.33c-0.05,0.11-0.13,0.16-0.24,0.16l-0.21-0.09l-0.05,0.05v0.02c0,0.06,0.1,0.1,0.31,0.12l0.13,0.45
					c0.13-0.06,0.26-0.09,0.39-0.09v0.02c-0.03,0.07-0.05,0.17-0.05,0.3v0.09c0,0.44,0.15,0.66,0.45,0.66
					c0.33-0.06,0.5-0.2,0.5-0.42c0.05-0.12,0.08-0.29,0.08-0.49v-0.19l0.05-0.05h0.05c0,0.11,0.08,0.18,0.24,0.23l0.08-0.09
					l-0.05-0.07v-0.02c0-0.14,0.05-0.21,0.16-0.21l0.42,0.05c0-0.04,0.04-0.07,0.13-0.07v-0.05c0-0.12-0.06-0.2-0.18-0.26
					l-0.24,0.12l-0.39-0.09v0.05l0.03,0.12l-0.13,0.02l0.03,0.16v0.05h-0.03c-0.08-0.03-0.14-0.07-0.18-0.14v-0.3l-0.03-0.12
					c0.04-0.03,0.1-0.05,0.18-0.05l0.03-0.12l-0.16-0.12v-0.02c0-0.03,0.17-0.06,0.52-0.09c0,0.02,0.04,0.05,0.11,0.07l0.16-0.05
					c0.1,0,0.19,0.04,0.26,0.12l-0.03,0.02v0.02c0.27,0.11,0.45,0.16,0.55,0.16l0.03,0.02v0.02l-0.24,0.21v0.02h0.08
					c0.17,0,0.26,0.07,0.26,0.21l0.13-0.02h0.08l0.08-0.19l-0.05-0.14l0.05-0.21v-0.02c0-0.09-0.07-0.14-0.21-0.14l-0.03-0.02v-0.02
					c0.09-0.03,0.28-0.05,0.55-0.05h0.24l0.08,0.05l-0.03,0.28v1.03c0,0.73-0.37,1.34-1.1,1.83c-0.79,0.34-1.45,0.52-1.99,0.52
					c-0.44,0-1.17-0.12-2.2-0.38c-0.13-0.06-0.21-0.12-0.21-0.19c-0.1,0-0.37-0.24-0.81-0.73l0.03-0.09l-0.21-0.61v-0.05l0.05-0.05
					h0.08l0.29,0.19l0.21-0.14c-0.14,0-0.26-0.04-0.37-0.12l-0.03,0.02h-0.21l-0.03-0.02h-0.03l0.03-0.4v-0.82
					c0-0.2,0.05-0.46,0.16-0.8l-0.03-0.02v-0.47c0.09,0,0.13-0.04,0.13-0.12c0-0.06,0.05-0.09,0.16-0.09v-0.02
					c-0.19,0-0.29-0.03-0.29-0.09l-0.03-0.42v-0.26c0-0.72,0.24-1.47,0.73-2.25c0.56-0.38,1.01-0.6,1.33-0.66
					C168.57,105.66,168.92,105.6,169.46,105.6z M166.32,111.04l0.16,0.16v0.12h0.21v-0.02c-0.11,0-0.18-0.09-0.21-0.28
					L166.32,111.04z M167.21,110.57v0.16c-0.09,0.05-0.13,0.12-0.13,0.21c-0.03,0.08-0.08,0.12-0.16,0.12l0.03,0.02v0.02
					c0,0.12-0.07,0.19-0.21,0.19v0.02l0.16,0.14v0.02l-0.21,0.23l0.08,0.19c0.38-0.09,0.58-0.16,0.58-0.21
					c-0.28-0.19-0.42-0.3-0.42-0.33c0-0.05,0.15-0.19,0.45-0.42c0-0.05,0.02-0.07,0.05-0.07c0.09,0.11,0.18,0.16,0.26,0.16h0.03
					l-0.03-0.02v-0.05l0.16-0.14c-0.1,0-0.16-0.02-0.16-0.05l0.03-0.07c0-0.1-0.1-0.17-0.31-0.21h-0.03L167.21,110.57z
					 M166.71,107.45v0.05l0.03,0.07h0.03v-0.05l0.03-0.02l-0.05-0.05H166.71z M167,105.22c0.07,0.02,0.11,0.08,0.11,0.16v0.05
					l-0.03,0.02v0.02c-0.1-0.03-0.16-0.09-0.16-0.19L167,105.22z M167.57,107.94l-0.05,0.05l0.03,0.07l0.08-0.02v-0.05
					L167.57,107.94z M169.28,107.71l0.03,1.01h0.79v-0.98c0-0.19-0.06-0.39-0.18-0.61h-0.1c-0.31,0.03-0.47,0.11-0.47,0.23
					L169.28,107.71z M170.3,106.14l0.03,0.02h0.03c0.07-0.02,0.1-0.05,0.1-0.07l-0.05-0.05h-0.03
					C170.35,106.05,170.32,106.08,170.3,106.14z M170.69,106.21v0.02l0.05,0.05l0.03-0.02v-0.02l-0.03-0.02H170.69z M171.87,104.36
					l0.13,0.16v0.02c-0.09,0-0.15-0.03-0.18-0.09v-0.05L171.87,104.36z M171.87,107.03c0.02,0.17,0.04,0.26,0.08,0.26h0.03v-0.05
					H172l-0.03-0.02v-0.21h-0.05l-0.03,0.02H171.87z M172.15,105.11c0.19,0.02,0.29,0.06,0.29,0.12v0.05h-0.05
					C172.23,105.27,172.15,105.22,172.15,105.11z M172.31,109.33v0.02c0.01,0.03,0.05,0.06,0.13,0.09v-0.02l-0.08-0.09H172.31z
					 M172.91,109.26h0.03l0.13,0.09l-0.03,0.02h-0.13l-0.05-0.05v-0.02L172.91,109.26z M173.23,108.34l0.05,0.05v0.05l-0.08,0.07
					h-0.03l-0.05-0.05C173.16,108.39,173.19,108.35,173.23,108.34z"/>
				<path class="st1" d="M176.21,106.68l0.03,0.07c-0.03,0.07-0.07,0.11-0.1,0.12l-0.03-0.02v-0.02
					C176.15,106.72,176.18,106.68,176.21,106.68z M176.21,106.42l0.05,0.07c-0.02,0.08-0.05,0.12-0.08,0.12h-0.03v-0.14
					L176.21,106.42z M176.24,105.62l0.03,0.02v0.07h-0.03l-0.05-0.05L176.24,105.62z M179.33,105.53c0.45,0,0.96,0.09,1.52,0.26
					c0.07,0.12,0.27,0.23,0.6,0.33c0,0.05,0.13,0.17,0.39,0.35c0.31,0.37,0.47,0.95,0.47,1.73c0,0.18-0.02,0.31-0.05,0.38
					l-1.36,0.02h-0.03c-0.53,0-0.92-0.04-1.15-0.12c0.03-0.07,0.05-0.19,0.05-0.38v-0.26c-0.04-0.45-0.09-0.68-0.16-0.68h-0.29
					c-0.21,0-0.33,0.18-0.37,0.54c0,0.53,0.24,0.87,0.71,1.03l0.13,0.09h0.03c0.05-0.02,0.08-0.06,0.08-0.14h0.03
					c0.02,0,0.07,0.12,0.13,0.38c0.52,0.28,0.87,0.43,1.05,0.47c0,0.07,0.17,0.14,0.5,0.21c0.01,0.08,0.17,0.2,0.5,0.35
					c0.1,0.06,0.26,0.43,0.47,1.1c0,0.25,0.03,0.53,0.08,0.82v0.09c0,0.13-0.02,0.23-0.05,0.3l0.03,0.07
					c-0.25,0.67-0.41,1.01-0.47,1.01c-0.47,0.41-0.74,0.61-0.81,0.61l-1.2,0.23l-0.42,0.02h-0.21c-1.09,0-2.02-0.36-2.77-1.08
					l-0.18-0.94c-0.03,0-0.06-0.09-0.08-0.26l0.03-0.68l-0.03-0.26l0.68-0.05h0.13c1.08,0.03,1.62,0.09,1.62,0.16
					c0.05,0.65,0.14,1.11,0.26,1.38c0.07,0.08,0.2,0.12,0.37,0.12c0.12,0,0.26-0.1,0.42-0.3l-0.03-0.02v-0.14
					c0-0.05,0.03-0.11,0.08-0.16c0-0.53-0.23-0.84-0.68-0.94c-0.04,0-0.66-0.38-1.83-1.15c-0.8-0.4-1.2-0.98-1.2-1.73v-0.19
					l0.05-0.45l-0.03-0.02h-0.03c0-0.67,0.25-1.24,0.76-1.71C177.68,105.67,178.44,105.53,179.33,105.53z M176.42,109.54h0.13v0.05
					h-0.13V109.54z M176.6,111.32v0.09h0.03v-0.09H176.6z M178.62,106.84v0.02l0.13,0.02h0.05v-0.05H178.62z M180.77,105.37h0.05
					l0.03,0.21h-0.05l-0.05-0.05v-0.05L180.77,105.37z"/>
				<path class="st1" d="M186.13,103.8c0.23,0.06,0.45,0.09,0.65,0.09h1.54c0.44,0,0.65,0.03,0.65,0.09v0.66l0.03,0.49
					c-0.02,0.12-0.09,0.19-0.21,0.19h-0.03l-0.5-0.07l-0.39,0.07l-1.2-0.19l-0.45,0.05c-0.1-0.02-0.16-0.04-0.16-0.07v-1.27
					L186.13,103.8z M186.18,105.69h0.97l0.13,0.02l0.16-0.02h0.63c0.66,0,0.99,0.03,0.99,0.09v0.75l-0.03,0.52l0.03,0.68v2.48
					l0.16,3.56v0.42l-0.05,0.05h-0.24l-0.97,0.07l-0.71-0.05l-0.03-0.02v-0.05c0.05,0,0.08-0.02,0.08-0.05
					c0-0.05-0.04-0.14-0.13-0.28c-0.12,0.06-0.22,0.09-0.31,0.09l-0.13-0.09c0,0.11-0.06,0.16-0.18,0.16h-0.05
					c-0.17-0.08-0.26-0.16-0.26-0.23c-0.05,0-0.09-0.12-0.1-0.35l0.03-0.66l0.05-0.05c-0.04,0-0.07-0.03-0.08-0.09l0.03-4.78
					l-0.05-1.59l0.05-0.45l-0.05-0.05v-0.02L186.18,105.69z M186.39,109.58c0,0.11-0.04,0.16-0.1,0.16v0.05l0.1,0.02
					c0-0.04,0.04-0.09,0.1-0.16L186.39,109.58z M186.34,107.64h0.13v-0.09h-0.03L186.34,107.64z M186.36,104.01v0.02l0.42,0.07
					l0.08-0.16h-0.08C186.64,103.98,186.5,104.01,186.36,104.01z M186.47,112.58l-0.03,0.02v0.02l0.03,0.02h0.11v-0.05
					L186.47,112.58z M186.89,114.13l0.18,0.07v0.05c-0.14-0.01-0.21-0.04-0.21-0.07l0.03-0.02V114.13z M187.39,109.02
					c0,0.06-0.09,0.14-0.26,0.23v0.05l0.08-0.02l0.13,0.07c0.04-0.06,0.09-0.09,0.16-0.09v-0.16L187.39,109.02z M187.15,112.72v0.07
					l0.08,0.02l0.03-0.02v-0.02l-0.05-0.05H187.15z M187.15,113.08l0.08,0.07l0.08-0.05l-0.03-0.07h-0.08L187.15,113.08z
					 M187.23,108.81c0.03,0.03,0.21,0.06,0.52,0.09l0.03-0.07c0-0.09-0.05-0.14-0.16-0.14h-0.03
					C187.35,108.69,187.23,108.73,187.23,108.81z M187.88,114.46l0.03,0.02v0.02l-0.03,0.02h-0.03l-0.03-0.02v-0.02l0.03-0.02
					H187.88z M188.17,113.22l-0.03,0.02v0.02l0.13,0.07v-0.05l0.03-0.02l-0.03-0.02L188.17,113.22z M188.59,114.53v0.05l-0.05,0.05
					h-0.03l-0.05-0.05L188.59,114.53z"/>
			</g>
		</g>
	</g>
</g>
<g id="guide">
</g>
</svg>
