<?xml version="1.0" encoding="utf-8"?>
<!-- Generator: Adobe Illustrator 27.0.0, SVG Export Plug-In . SVG Version: 6.00 Build 0)  -->
<svg version="1.1" xmlns="http://www.w3.org/2000/svg" xmlns:xlink="http://www.w3.org/1999/xlink" x="0px" y="0px"
	 viewBox="0 0 841.89 595.28" style="enable-background:new 0 0 841.89 595.28;" xml:space="preserve">
<style type="text/css">
	.st0{fill:#F9B233;}
</style>
<g id="sfondo">
</g>
<g id="Livello_1">
	<g>
		<path d="M254.66,444h13.55l-0.52,3h-5.12l-3.16,17.61H256l3.19-17.61h-5.05L254.66,444z"/>
		<path d="M274.96,464.62c-3.42,0-5.38-1.46-5.38-3.95c0-0.49,0.06-1,0.16-1.6l1.79-9.92c0.36-2,1.3-3.37,2.96-4.29
			c1.27-0.69,2.25-0.86,4.79-0.86h8.6l-0.55,3h-8.5h-1.4c-1.21,0-2.28,0.94-2.51,2.23l-0.62,3.52h11.96l-0.52,3h-12.02l-0.49,2.75
			l-0.23,1.29v0.2c0,0.37,0.16,0.77,0.49,1.09c0.29,0.29,0.69,0.49,1.11,0.54h1.79h8.21l-0.52,3H274.96z"/>
		<path d="M294.96,464.62c-2.54,0-4.33-1.74-4.33-4.12c0-0.29,0-0.54,0.06-0.83l1.89-10.58c0.52-3.03,3.09-5.09,6.32-5.09h9.94
			l-0.59,3h-9.42c-1.63,0-2.61,0.74-2.87,2.14l-1.82,10.27c-0.03,0.14-0.03,0.23-0.03,0.31c0,1.14,0.81,1.89,2.08,1.89h9.35l-0.52,3
			H294.96z"/>
		<path d="M313.66,446.86c0.39-2.06,1.4-2.97,3.36-2.97c1.73,0,2.38,0.46,2.8,2l4.4,15.13l3.1-17.01h3.36l-3.26,18.16
			c-0.29,1.57-1.76,2.75-3.45,2.75c-1.43,0-2.22-0.6-2.67-2.12l-4.4-14.84l-3,16.67h-3.42L313.66,446.86z"/>
		<path d="M336.79,444h3.42l-3.71,20.62h-3.42L336.79,444z"/>
		<path d="M347.73,464.62c-2.54,0-4.33-1.74-4.33-4.12c0-0.29,0-0.54,0.06-0.83l1.89-10.58c0.52-3.03,3.09-5.09,6.32-5.09h9.94
			l-0.59,3h-9.42c-1.63,0-2.61,0.74-2.87,2.14l-1.82,10.27c-0.03,0.14-0.03,0.23-0.03,0.31c0,1.14,0.81,1.89,2.08,1.89h9.35l-0.52,3
			H347.73z"/>
		<path d="M365.06,463.1c-0.72-0.77-0.94-1.46-0.94-2.6c0-0.52,0.06-1.09,0.16-1.66l1.63-9.06c0.39-2,1.01-3.17,2.31-4.26
			c1.53-1.23,2.57-1.52,5.9-1.52h2.57c3.26,0,4.17,0.29,5.31,1.52c0.72,0.8,0.91,1.46,0.91,2.6c0,0.51-0.03,1.09-0.13,1.66
			l-1.63,9.06c-0.39,2-1.01,3.17-2.31,4.26c-1.56,1.23-2.57,1.52-5.9,1.52h-2.57C367.11,464.62,366.2,464.36,365.06,463.1z
			 M370.4,461.61h3.65c2.44,0,3.29-0.57,3.65-2.6l1.69-9.38c0.07-0.37,0.1-0.69,0.1-1c0-1.17-0.78-1.63-2.8-1.63h-3.65
			c-2.48,0-3.32,0.6-3.68,2.63l-1.69,9.35c-0.07,0.37-0.1,0.69-0.1,0.97C367.57,461.18,368.35,461.61,370.4,461.61z"/>
		<path d="M401.29,444h11.99c2.54,0,4.11,1.52,4.11,3.89c0,0.32,0,0.6-0.06,0.89l-1.89,10.58c-0.52,2.97-3.39,5.26-6.52,5.26h-11.34
			L401.29,444z M401.51,461.61h7.75c1.6,0,2.47-0.77,2.77-2.46l1.79-9.81c0.03-0.29,0.06-0.6,0.06-0.86c0-1.09-0.55-1.49-2.05-1.49
			h-7.69L401.51,461.61z"/>
		<path d="M424.25,444h3.42l-3.71,20.62h-3.42L424.25,444z"/>
		<path d="M445.13,444h10.2c2.51,0,3.65,0.31,4.76,1.26c0.68,0.63,1.04,1.46,1.04,2.6c0,0.37-0.03,0.71-0.1,1.09l-0.52,2.95
			c-0.62,3.23-3.26,5.15-7.17,5.15h-7.13l-1.37,7.58h-3.42L445.13,444z M446.73,454.06h7.1c2.05,0,3-0.63,3.29-2.32l0.49-2.66
			c0.03-0.14,0.03-0.34,0.03-0.49c0-1.14-0.69-1.6-2.48-1.6H448L446.73,454.06z"/>
		<path d="M480.74,459.55c-0.52,2.89-3.22,5.06-6.35,5.06h-5.83c-2.67,0-4.59-1.69-4.59-4.03c0-0.31,0-0.66,0.06-1.03l2.8-15.56
			h3.42l-2.74,15.18c-0.06,0.37-0.1,0.69-0.1,0.92c0,1.06,0.68,1.51,2.21,1.51h4.79c1.86,0,2.67-0.57,2.96-2.26l2.77-15.36h3.42
			L480.74,459.55z"/>
		<path d="M503.7,459.21c-0.29,1.66-0.75,2.57-1.92,3.63c-1.4,1.34-2.64,1.77-4.95,1.77h-4.72c-1.86,0-2.8-0.29-3.84-1.09
			c-1.07-0.83-1.5-1.6-1.5-2.72c0-0.51,0.03-1.03,0.13-1.54l1.76-9.87c0.39-2.03,1.17-3.32,2.64-4.26c1.27-0.8,2.57-1.14,4.59-1.14
			h8.99l-0.52,3h-9.29c-1.82,0-2.67,0.63-2.96,2.23l-1.86,10.21c0,0.17-0.03,0.34-0.03,0.51c0,1,0.59,1.66,1.5,1.66h0.91h4.72
			c1.6,0,2.64-0.77,2.9-2.09l1.21-6.66h3.39L503.7,459.21z"/>
		<path d="M512.53,444h3.42l-3.71,20.62h-3.42L512.53,444z"/>
		<path d="M524.52,464.62c-3.49,0-5.38-1.43-5.38-4.03c0-0.37,0.03-0.77,0.1-1.17l2.77-15.41h3.42l-2.77,15.38
			c-0.07,0.29-0.07,0.54-0.07,0.74c0,1.06,0.69,1.49,2.38,1.49h8.89l-0.55,3H524.52z"/>
		<path d="M544.62,445.94c0.98-1.6,1.73-2.14,3.09-2.14c1.43,0,2.02,0.51,2.41,2.14l4.4,18.67h-3.65l-0.98-4.29h-10.2l-2.57,4.29
			h-3.65L544.62,445.94z M541.46,457.35h7.75l-2.25-9.41L541.46,457.35z"/>
		<path d="M556.97,444h13.55l-0.52,3h-5.12l-3.16,17.61h-3.42l3.19-17.61h-5.05L556.97,444z"/>
		<path d="M572.11,463.1c-0.72-0.77-0.94-1.46-0.94-2.6c0-0.52,0.06-1.09,0.16-1.66l1.63-9.06c0.39-2,1.01-3.17,2.31-4.26
			c1.53-1.23,2.57-1.52,5.9-1.52h2.57c3.26,0,4.17,0.29,5.31,1.52c0.72,0.8,0.91,1.46,0.91,2.6c0,0.51-0.03,1.09-0.13,1.66
			l-1.63,9.06c-0.39,2-1.01,3.17-2.31,4.26c-1.56,1.23-2.57,1.52-5.9,1.52h-2.57C574.16,464.62,573.25,464.36,572.11,463.1z
			 M577.46,461.61h3.65c2.44,0,3.29-0.57,3.65-2.6l1.69-9.38c0.07-0.37,0.1-0.69,0.1-1c0-1.17-0.78-1.63-2.8-1.63h-3.65
			c-2.48,0-3.32,0.6-3.68,2.63l-1.69,9.35c-0.07,0.37-0.1,0.69-0.1,0.97C574.62,461.18,575.4,461.61,577.46,461.61z"/>
	</g>
	<g>
		<path d="M155.77,490.17h7.77c1.91,0,2.78,0.27,3.62,1.09c0.52,0.55,0.79,1.27,0.79,2.26c0,0.32-0.03,0.62-0.07,0.94l-0.4,2.56
			c-0.47,2.8-2.48,4.47-5.46,4.47h-5.43l-1.04,6.58h-2.61L155.77,490.17z M156.99,498.9h5.41c1.56,0,2.28-0.55,2.51-2.01l0.37-2.31
			c0.02-0.12,0.02-0.3,0.02-0.42c0-0.99-0.52-1.39-1.89-1.39h-5.46L156.99,498.9z"/>
		<path d="M170.81,490.17h9.06c1.76,0,3.27,1.29,3.27,2.85c0,0.22-0.02,0.52-0.12,0.87l-0.47,3.1c-0.27,1.81-2.18,3.47-3.94,3.47
			l-3.05-0.03l5.38,7.62h-3.42l-5.31-7.52c-0.15-0.2-0.2-0.37-0.2-0.57c0-1.19,0.99-2.11,2.23-2.11h3.92c0.94,0,1.76-0.65,1.88-1.44
			l0.32-1.98c0-0.12,0.02-0.25,0.02-0.35c0-0.84-0.5-1.31-1.36-1.31h-6.03l-2.41,15.28h-2.61L170.81,490.17z"/>
		<path d="M184.81,506.74c-0.55-0.67-0.72-1.26-0.72-2.26c0-0.45,0.05-0.94,0.12-1.44l1.24-7.87c0.3-1.74,0.77-2.75,1.76-3.7
			c1.17-1.07,1.96-1.32,4.49-1.32h1.96c2.48,0,3.18,0.25,4.04,1.32c0.55,0.69,0.69,1.26,0.69,2.26c0,0.45-0.02,0.94-0.1,1.44
			l-1.24,7.87c-0.3,1.74-0.77,2.75-1.76,3.7c-1.19,1.07-1.96,1.32-4.49,1.32h-1.96C186.37,508.06,185.68,507.84,184.81,506.74z
			 M188.88,505.45h2.78c1.86,0,2.51-0.5,2.78-2.26l1.29-8.14c0.05-0.32,0.07-0.6,0.07-0.87c0-1.02-0.6-1.41-2.13-1.41h-2.78
			c-1.89,0-2.53,0.52-2.8,2.28l-1.29,8.11c-0.05,0.32-0.07,0.6-0.07,0.84C186.72,505.08,187.31,505.45,188.88,505.45z"/>
		<path d="M212.95,503.37c-0.22,1.44-0.57,2.23-1.46,3.15c-1.07,1.17-2.01,1.54-3.77,1.54h-3.6c-1.41,0-2.13-0.25-2.93-0.94
			c-0.82-0.72-1.14-1.39-1.14-2.36c0-0.45,0.02-0.89,0.1-1.34l1.34-8.56c0.3-1.76,0.89-2.88,2.01-3.7c0.97-0.69,1.96-0.99,3.5-0.99
			h6.85l-0.4,2.61h-7.07c-1.39,0-2.03,0.55-2.26,1.93l-1.41,8.86c0,0.15-0.02,0.3-0.02,0.45c0,0.87,0.45,1.44,1.14,1.44h0.7h3.6
			c1.22,0,2.01-0.67,2.21-1.81l0.92-5.78h2.58L212.95,503.37z"/>
		<path d="M218.19,490.17h9.06c1.76,0,3.27,1.29,3.27,2.85c0,0.22-0.02,0.52-0.12,0.87l-0.47,3.1c-0.27,1.81-2.18,3.47-3.94,3.47
			l-3.05-0.03l5.38,7.62h-3.42l-5.31-7.52c-0.15-0.2-0.2-0.37-0.2-0.57c0-1.19,0.99-2.11,2.23-2.11h3.92c0.94,0,1.76-0.65,1.88-1.44
			l0.32-1.98c0-0.12,0.02-0.25,0.02-0.35c0-0.84-0.5-1.31-1.36-1.31h-6.03l-2.41,15.28h-2.61L218.19,490.17z"/>
		<path d="M237.52,491.86c0.74-1.39,1.32-1.86,2.36-1.86c1.09,0,1.54,0.45,1.84,1.86l3.35,16.2h-2.78l-0.74-3.72h-7.77l-1.96,3.72
			h-2.78L237.52,491.86z M235.11,501.76h5.91l-1.71-8.16L235.11,501.76z"/>
		<path d="M248.52,492.8c0.3-1.94,1.24-2.9,2.83-2.9c1.71,0,2.13,0.4,2.38,2.18l1.71,13.12l6-13.12c0.77-1.69,1.37-2.21,2.71-2.21
			c1.59,0,2.33,0.67,2.33,2.06c0,0.3-0.02,0.57-0.07,0.87L264,508.06h-2.6l2.43-15.31l-6.1,13.35c-0.72,1.61-1.39,2.18-2.63,2.18
			c-1.39,0-1.88-0.52-2.11-2.18l-1.89-13.35l-2.41,15.31h-2.61L248.52,492.8z"/>
		<path d="M269.54,492.8c0.3-1.94,1.24-2.9,2.83-2.9c1.71,0,2.13,0.4,2.38,2.18l1.71,13.12l6-13.12c0.77-1.69,1.37-2.21,2.71-2.21
			c1.59,0,2.33,0.67,2.33,2.06c0,0.3-0.02,0.57-0.07,0.87l-2.41,15.26h-2.6l2.43-15.31l-6.1,13.35c-0.72,1.61-1.39,2.18-2.63,2.18
			c-1.39,0-1.88-0.52-2.11-2.18l-1.89-13.35l-2.41,15.31h-2.61L269.54,492.8z"/>
		<path d="M291,490.17h2.61l-2.83,17.89h-2.61L291,490.17z"/>
		<path d="M303.93,490.17h9.13c1.94,0,3.13,1.32,3.13,3.37c0,0.27,0,0.52-0.05,0.77l-1.44,9.18c-0.4,2.58-2.58,4.57-4.96,4.57h-8.63
			L303.93,490.17z M304.11,505.45h5.91c1.22,0,1.89-0.67,2.11-2.13l1.37-8.51c0.02-0.25,0.05-0.52,0.05-0.74
			c0-0.94-0.42-1.29-1.56-1.29h-5.86L304.11,505.45z"/>
		<path d="M319.94,490.17h2.61l-2.83,17.89h-2.61L319.94,490.17z"/>
		<path d="M336.72,491.86c0.74-1.39,1.32-1.86,2.36-1.86c1.09,0,1.54,0.45,1.84,1.86l3.35,16.2h-2.78l-0.74-3.72h-7.77l-1.96,3.72
			h-2.78L336.72,491.86z M334.31,501.76h5.91l-1.71-8.16L334.31,501.76z"/>
		<path d="M350.37,508.06c-2.66,0-4.09-1.24-4.09-3.5c0-0.32,0.02-0.67,0.07-1.02l2.11-13.37h2.61l-2.11,13.35
			c-0.05,0.25-0.05,0.47-0.05,0.64c0,0.92,0.52,1.29,1.81,1.29h6.77l-0.42,2.61H350.37z"/>
		<path d="M363.52,508.06c-2.66,0-4.09-1.24-4.09-3.5c0-0.32,0.02-0.67,0.07-1.02l2.11-13.37h2.61l-2.11,13.35
			c-0.05,0.25-0.05,0.47-0.05,0.64c0,0.92,0.52,1.29,1.81,1.29h6.77l-0.42,2.61H363.52z"/>
		<path d="M376.67,508.06c-2.61,0-4.09-1.27-4.09-3.42c0-0.42,0.05-0.87,0.12-1.39l1.36-8.61c0.27-1.74,0.99-2.93,2.26-3.72
			c0.97-0.59,1.71-0.74,3.65-0.74h6.55l-0.42,2.61h-6.48h-1.07c-0.92,0-1.74,0.82-1.91,1.93l-0.47,3.05h9.11l-0.4,2.61h-9.16
			l-0.37,2.38l-0.17,1.12v0.17c0,0.32,0.12,0.67,0.37,0.94c0.22,0.25,0.52,0.42,0.84,0.47h1.36h6.25l-0.4,2.61H376.67z"/>
		<path d="M388.91,492.65c0.3-1.79,1.07-2.58,2.56-2.58c1.31,0,1.81,0.4,2.13,1.74l3.35,13.12l2.36-14.76h2.56l-2.48,15.75
			c-0.22,1.36-1.34,2.38-2.63,2.38c-1.09,0-1.69-0.52-2.03-1.84l-3.35-12.88l-2.28,14.46h-2.61L388.91,492.65z"/>
		<path d="M408.88,491.86c0.74-1.39,1.32-1.86,2.36-1.86c1.09,0,1.54,0.45,1.84,1.86l3.35,16.2h-2.78l-0.74-3.72h-7.77l-1.96,3.72
			h-2.78L408.88,491.86z M406.48,501.76h5.91l-1.71-8.16L406.48,501.76z"/>
		<path d="M419.88,492.8c0.3-1.94,1.24-2.9,2.83-2.9c1.71,0,2.13,0.4,2.38,2.18l1.71,13.12l6-13.12c0.77-1.69,1.37-2.21,2.71-2.21
			c1.59,0,2.33,0.67,2.33,2.06c0,0.3-0.02,0.57-0.07,0.87l-2.41,15.26h-2.6l2.43-15.31l-6.1,13.35c-0.72,1.61-1.39,2.18-2.63,2.18
			c-1.39,0-1.88-0.52-2.11-2.18l-1.89-13.35l-2.41,15.31h-2.61L419.88,492.8z"/>
		<path d="M443.26,508.06c-2.61,0-4.09-1.27-4.09-3.42c0-0.42,0.05-0.87,0.12-1.39l1.36-8.61c0.27-1.74,0.99-2.93,2.26-3.72
			c0.97-0.59,1.71-0.74,3.65-0.74h6.55l-0.42,2.61h-6.48h-1.07c-0.92,0-1.74,0.82-1.91,1.93l-0.47,3.05h9.11l-0.4,2.61h-9.16
			l-0.37,2.38l-0.17,1.12v0.17c0,0.32,0.12,0.67,0.37,0.94c0.22,0.25,0.52,0.42,0.84,0.47h1.36h6.25l-0.4,2.61H443.26z"/>
		<path d="M455.49,492.65c0.3-1.79,1.07-2.58,2.56-2.58c1.31,0,1.81,0.4,2.13,1.74l3.35,13.12l2.36-14.76h2.56l-2.48,15.75
			c-0.22,1.36-1.34,2.38-2.63,2.38c-1.09,0-1.69-0.52-2.03-1.84l-3.35-12.88l-2.28,14.46h-2.61L455.49,492.65z"/>
		<path d="M470.19,490.17h10.32l-0.4,2.61h-3.9l-2.41,15.28h-2.61l2.43-15.28h-3.85L470.19,490.17z"/>
		<path d="M480.24,506.74c-0.55-0.67-0.72-1.26-0.72-2.26c0-0.45,0.05-0.94,0.12-1.44l1.24-7.87c0.3-1.74,0.77-2.75,1.76-3.7
			c1.17-1.07,1.96-1.32,4.49-1.32h1.96c2.48,0,3.18,0.25,4.04,1.32c0.55,0.69,0.69,1.26,0.69,2.26c0,0.45-0.02,0.94-0.1,1.44
			l-1.24,7.87c-0.3,1.74-0.77,2.75-1.76,3.7c-1.19,1.07-1.96,1.32-4.49,1.32h-1.96C481.8,508.06,481.11,507.84,480.24,506.74z
			 M484.31,505.45h2.78c1.86,0,2.51-0.5,2.78-2.26l1.29-8.14c0.05-0.32,0.07-0.6,0.07-0.87c0-1.02-0.6-1.41-2.13-1.41h-2.78
			c-1.89,0-2.53,0.52-2.8,2.28l-1.29,8.11c-0.05,0.32-0.07,0.6-0.07,0.84C482.15,505.08,482.74,505.45,484.31,505.45z"/>
		<path d="M504.86,490.17h7.77c1.91,0,2.78,0.27,3.62,1.09c0.52,0.55,0.79,1.27,0.79,2.26c0,0.32-0.03,0.62-0.07,0.94l-0.4,2.56
			c-0.47,2.8-2.48,4.47-5.46,4.47h-5.43l-1.04,6.58h-2.61L504.86,490.17z M506.07,498.9h5.41c1.56,0,2.28-0.55,2.51-2.01l0.37-2.31
			c0.02-0.12,0.02-0.3,0.02-0.42c0-0.99-0.52-1.39-1.89-1.39h-5.46L506.07,498.9z"/>
		<path d="M521.81,508.06c-2.61,0-4.09-1.27-4.09-3.42c0-0.42,0.05-0.87,0.12-1.39l1.36-8.61c0.27-1.74,0.99-2.93,2.26-3.72
			c0.97-0.59,1.71-0.74,3.65-0.74h6.55l-0.42,2.61h-6.48h-1.07c-0.92,0-1.74,0.82-1.91,1.93l-0.47,3.05h9.11l-0.4,2.61h-9.16
			l-0.37,2.38l-0.17,1.12v0.17c0,0.32,0.12,0.67,0.37,0.94c0.22,0.25,0.52,0.42,0.84,0.47h1.36h6.25l-0.4,2.61H521.81z"/>
		<path d="M534.44,490.17h9.06c1.76,0,3.27,1.29,3.27,2.85c0,0.22-0.02,0.52-0.12,0.87l-0.47,3.1c-0.27,1.81-2.18,3.47-3.94,3.47
			l-3.05-0.03l5.38,7.62h-3.42l-5.31-7.52c-0.15-0.2-0.2-0.37-0.2-0.57c0-1.19,0.99-2.11,2.23-2.11h3.92c0.94,0,1.76-0.65,1.88-1.44
			l0.32-1.98c0-0.12,0.02-0.25,0.02-0.35c0-0.84-0.5-1.31-1.36-1.31h-6.03l-2.41,15.28h-2.61L534.44,490.17z"/>
		<path d="M546.95,505.45h7.17c0.97,0,1.84-0.64,1.96-1.46l0.35-2.26c0.02-0.07,0.02-0.15,0.02-0.22c0-0.79-0.62-1.29-1.69-1.29
			h-2.66c-2.21,0-3.75-1.29-3.75-3.1c0-0.2,0-0.35,0.02-0.52l0.37-2.23c0.27-1.79,0.87-2.75,2.16-3.52c0.84-0.52,1.51-0.67,2.8-0.67
			h7.25l-0.45,2.61h-7.34c-1.07,0-1.66,0.45-1.81,1.46l-0.27,1.79c-0.02,0.15-0.05,0.32-0.05,0.47c0,0.97,0.42,1.36,1.41,1.36h3.13
			c1.98,0,3.55,1.29,3.55,2.98c0,0.17-0.02,0.3-0.05,0.47l-0.42,2.8c-0.35,2.26-2.36,3.95-4.66,3.95h-7.44L546.95,505.45z"/>
		<path d="M562.11,506.74c-0.55-0.67-0.72-1.26-0.72-2.26c0-0.45,0.05-0.94,0.12-1.44l1.24-7.87c0.3-1.74,0.77-2.75,1.76-3.7
			c1.17-1.07,1.96-1.32,4.49-1.32h1.96c2.48,0,3.18,0.25,4.04,1.32c0.55,0.69,0.69,1.26,0.69,2.26c0,0.45-0.02,0.94-0.1,1.44
			l-1.24,7.87c-0.3,1.74-0.77,2.75-1.76,3.7c-1.19,1.07-1.96,1.32-4.49,1.32h-1.96C563.67,508.06,562.98,507.84,562.11,506.74z
			 M566.18,505.45h2.78c1.86,0,2.51-0.5,2.78-2.26l1.29-8.14c0.05-0.32,0.07-0.6,0.07-0.87c0-1.02-0.6-1.41-2.13-1.41h-2.78
			c-1.89,0-2.53,0.52-2.8,2.28l-1.29,8.11c-0.05,0.32-0.07,0.6-0.07,0.84C564.02,505.08,564.62,505.45,566.18,505.45z"/>
		<path d="M579.14,492.65c0.3-1.79,1.07-2.58,2.56-2.58c1.31,0,1.81,0.4,2.13,1.74l3.35,13.12l2.36-14.76h2.56l-2.48,15.75
			c-0.22,1.36-1.34,2.38-2.63,2.38c-1.09,0-1.69-0.52-2.03-1.84l-3.35-12.88l-2.28,14.46h-2.61L579.14,492.65z"/>
		<path d="M599.11,491.86c0.74-1.39,1.32-1.86,2.36-1.86c1.09,0,1.54,0.45,1.84,1.86l3.35,16.2h-2.78l-0.74-3.72h-7.77l-1.96,3.72
			h-2.78L599.11,491.86z M596.71,501.76h5.91l-1.71-8.16L596.71,501.76z"/>
		<path d="M612.76,508.06c-2.66,0-4.09-1.24-4.09-3.5c0-0.32,0.02-0.67,0.07-1.02l2.11-13.37h2.61l-2.11,13.35
			c-0.05,0.25-0.05,0.47-0.05,0.64c0,0.92,0.52,1.29,1.81,1.29h6.77l-0.42,2.61H612.76z"/>
		<path d="M624.01,490.17h2.61l-2.83,17.89h-2.61L624.01,490.17z"/>
		<path d="M628.45,508.06c-1.19,0-2.03-0.79-2.03-1.96c0-0.55,0.27-1.12,0.74-1.64l10.12-11.69h-8.54l0.42-2.61h9.4
			c1.12,0,1.76,0.67,1.76,1.74c0,0.62-0.22,1.26-0.67,1.79l-10.22,11.76h8.58l-0.42,2.61H628.45z"/>
		<path d="M641.7,508.06c-1.19,0-2.03-0.79-2.03-1.96c0-0.55,0.27-1.12,0.74-1.64l10.12-11.69H642l0.42-2.61h9.4
			c1.12,0,1.76,0.67,1.76,1.74c0,0.62-0.22,1.26-0.67,1.79l-10.22,11.76h8.58l-0.42,2.61H641.7z"/>
		<path d="M660.09,491.86c0.74-1.39,1.32-1.86,2.36-1.86c1.09,0,1.54,0.45,1.84,1.86l3.35,16.2h-2.78l-0.74-3.72h-7.77l-1.96,3.72
			h-2.78L660.09,491.86z M657.68,501.76h5.91l-1.71-8.16L657.68,501.76z"/>
		<path d="M668.01,490.17h10.32l-0.4,2.61h-3.9l-2.41,15.28h-2.61l2.43-15.28h-3.85L668.01,490.17z"/>
		<path d="M680.07,490.17h2.61l-2.83,17.89h-2.61L680.07,490.17z"/>
	</g>
	<g>
		<g>
			<path class="st0" d="M497.31,241.62c-16.27,0.39-32.42,0.4-48.67,0.54c-1.53-6.23-3.08-12.55-4.68-19.09
				c-8.32,9.38-16.57,18.7-24.83,28.01c0.08,0.08,0.16,0.15,0.23,0.23c4.15,0,8.3-0.01,12.45,0c4.56,0.01,9.11,0.03,13.67,0.05
				c2.07,0.01,4.14,0.06,6.21,0.05c2.16-0.01,4.31-0.11,6.47-0.11c2.48-0.01,4.97,0.08,7.45,0.06c3.34-0.02,6.67-0.16,10.01-0.15
				c4.64,0.01,9.29,0.12,13.93,0.14c3.08,0.01,6.16-0.06,9.24-0.12c0.22,0,0.43-0.2,0.64-0.29c0.57,2.32,1.17,4.7,1.75,7.09
				c0.71,2.96,1.4,5.92,2.1,8.88c1.15,4.88,2.29,9.76,3.45,14.63c0.63,2.65,1.24,5.31,2.02,7.92c0.36,1.21-0.22,2.01-0.76,2.86
				c-1.2,1.89-2.43,3.76-3.71,5.6c-1.43,2.06-2.86,4.12-4.41,6.09c-3.22,4.1-6.46,8.2-9.8,12.2c-3.2,3.82-6.88,7.16-10.85,10.15
				c-3.04,2.29-6.09,4.56-9.25,6.69c-1.73,1.17-3.65,2.08-5.55,2.98c-3.57,1.69-7.11,3.49-10.81,4.84
				c-3.41,1.24-7.01,1.96-10.54,2.9c-5.38,1.43-10.91,1.71-16.43,1.78c-3.46,0.05-6.93-0.25-10.4-0.46
				c-0.94-0.06-1.85-0.37-2.79-0.51c-5.87-0.92-11.46-2.82-16.98-4.91c-1.95-0.74-3.81-1.73-5.75-2.53c-2.94-1.21-5.5-3.07-8.2-4.7
				c-2.08-1.25-3.98-2.83-5.87-4.37c-2.29-1.87-4.66-3.69-6.68-5.84c-2.12-2.26-3.95-4.82-5.75-7.36c-1.74-2.46-3.34-5.03-4.91-7.6
				c-2.08-3.4-3.78-6.99-5.36-10.64c-1.66-3.83-2.38-7.93-3.55-11.9c-0.97-3.3-1.4-6.76-2.23-10.11c-1.05-4.25-1.64-8.56-2.03-12.91
				c-0.44-5.04-0.46-10.09-0.16-15.14c0.16-2.66,0.28-5.35,0.78-7.96c0.61-3.22,1.57-6.37,2.39-9.55c0.99-3.84,2.91-7.27,4.85-10.68
				c1.29-2.26,2.47-4.62,4.08-6.63c3.23-4.05,6.74-7.87,10.11-11.81c2.41-2.82,5.33-5.05,8.35-7.14c3.11-2.16,6.35-4.15,9.55-6.18
				c3.61-2.29,7.61-3.72,11.63-5.07c3.22-1.08,6.47-2.08,9.75-2.95c3.9-1.04,7.89-1.59,11.93-1.73c3.26-0.11,6.54-0.51,9.79-0.32
				c4.16,0.25,8.32,0.79,12.42,1.54c3.15,0.58,6.27,1.48,9.28,2.58c3.41,1.25,6.72,2.82,10.01,4.39c3.12,1.49,6.19,3.11,9.24,4.75
				c1.95,1.05,3.84,2.2,5.7,3.39c3.16,2.01,5.93,4.46,8.26,7.41c1.01,1.28,2.03,2.55,3.13,3.75c1.72,1.88,2.12,4.25,2.64,6.6
				c0.7,3.18,1.46,6.34,2.2,9.51c0.29,1.23,0.57,2.46,0.87,3.68c0.71,2.92,1.42,5.84,2.15,8.75
				C495.8,235.68,496.51,238.45,497.31,241.62z M466.93,315.66c-0.33-1.51-0.6-2.84-0.92-4.16c-1.01-4.09-2.07-8.16-3.07-12.25
				c-1.01-4.12-1.94-8.27-2.98-12.38c-1.18-4.65-2.45-9.27-3.65-13.91c-0.4-1.53-0.36-1.59-1.95-1.61
				c-3.06-0.04-6.12-0.03-9.18-0.04c-3.77-0.01-7.53,0-11.3-0.01c-7.61-0.01-15.21,0.06-22.82-0.09c-3.13-0.06-6.23,0.15-9.35,0.14
				c-0.27,0-0.6,0.2-0.79,0.4c-1.75,1.97-3.49,3.94-5.2,5.95c-0.23,0.27-0.35,0.76-0.29,1.11c0.19,1.05,0.5,2.09,0.77,3.13
				c0.6,2.33,1.17,4.68,1.82,7c1.62,5.75,3.36,11.48,6.82,16.45c1.62,2.32,3.35,4.59,5.28,6.66c1.72,1.84,3.75,3.41,5.7,5.03
				c0.87,0.72,1.81,1.46,2.84,1.88c2.06,0.84,4.19,1.51,6.32,2.16c2.75,0.84,5.6,1.25,8.46,1.23c3.36-0.02,6.75-0.05,10.08-0.41
				c3.36-0.36,6.7-1.04,10.01-1.73c2.6-0.54,5.18-1.21,7.7-2.04C463.19,317.51,465.02,316.51,466.93,315.66z M389.72,255.99
				c1.81-2.07,3.57-4.09,5.34-6.1c1.09-1.24,2.2-2.45,3.27-3.71c1.39-1.63,2.71-3.31,4.11-4.93c2.74-3.15,5.53-6.25,8.27-9.4
				c2.76-3.18,5.48-6.39,8.23-9.58c2.79-3.24,5.61-6.46,8.39-9.71c1.98-2.32,3.91-4.69,5.89-7.01c1.5-1.76,3.06-3.45,4.54-5.22
				c0.24-0.28,0.35-0.83,0.27-1.19c-0.43-1.83-0.95-3.63-1.49-5.68c-1.07,0.12-2.21,0.23-3.35,0.38c-1.76,0.24-3.53,0.47-5.28,0.8
				c-1.51,0.28-3.01,0.66-4.49,1.06c-2.55,0.67-5.13,1.26-7.61,2.13c-2.64,0.92-5.19,2.12-7.77,3.21
				c-4.45,1.88-8.51,4.35-11.94,7.78c-3.66,3.66-6.47,7.85-7.84,12.89c-0.96,3.53-1.44,7.14-1.73,10.79
				c-0.34,4.29,0.02,8.5,0.8,12.69C387.98,248.8,388.9,252.37,389.72,255.99z"/>
		</g>
		<path class="st0" d="M761.99,395.23c0.01,0,0.01-0.01,0.02-0.01c-0.1-0.7-0.18-1.4-0.25-2.1c-0.01-0.17-0.03-0.33-0.04-0.5
			c-0.02-0.24-0.04-0.48-0.06-0.71c-0.03-0.38-0.07-0.76-0.1-1.14c-0.05-0.34-0.1-0.69-0.15-1.03c0,0,0,0,0-0.01
			c-0.24-0.82-0.49-1.63-0.77-2.43c-0.14-0.59-0.29-1.18-0.58-1.71c-0.56-1.02-1.58-1.74-2.7-2.05c-1.01-0.28-2.08-0.25-3.1-0.02
			c-1.98-0.07-3.96,0.57-5.95,0.85c-2.47,0.35-5.01,0.1-7.38-0.68c-2.57-2.54-5.29-4.95-8.41-6.77c-3.31-1.93-7.03-3.15-10.84-3.57
			c-1.53-0.17-3.09-0.2-4.58,0.16c-1.72,0.41-3.27,1.33-4.65,2.43c-0.96,0.76-1.87,1.66-2.28,2.81c-0.09,0.26-0.14,0.53-0.17,0.8
			c-1.14-0.62-2.45-0.91-3.74-0.81c-11.46-0.66-19.82,32.67,4.18,38.56c2.64,0.65,3.59,1.03,6.02,1.36
			c2.43,0.32,9.02-0.09,9.99-0.32c2.73-0.34,5.54-1.03,8.11-2.5l0.01,0.01c0-0.01,0-0.01,0-0.01c0.67-0.38,1.32-0.81,1.95-1.3
			c0.32-0.25,0.62-0.52,0.91-0.8l4.25-1.38c0.05-0.02,0.1-0.03,0.15-0.05c0.32,0.22,0.68,0.35,1.07,0.39
			c0.57,0.05,1.13-0.08,1.68-0.22l0.31-0.07c1.89-0.43,3.85-0.43,5.75-0.44c0.12,0,0.24,0,0.35,0c0.01,0,0.03-0.01,0.04-0.01
			c0.83,0.01,1.73,0.03,2.71,0.04c0.69,0.01,1.41,0.02,2.16,0.02c0.38,0,0.76,0.01,1.15,0.01c0.22,0,0.44-0.01,0.67-0.02
			c0.04,0.01,0.07,0.03,0.11,0.03c1.18,0.27,2.42-0.45,3.1-1.46c0.68-1.01,0.9-2.25,1.05-3.45c0.41-3.38,0.33-6.8,0.1-10.2
			C762.04,396.35,762.02,395.79,761.99,395.23z M704.38,379.57c-0.33,0.23-0.67,0.5-0.99,0.77
			C703.71,380.04,704.04,379.77,704.38,379.57z M756.93,395.85c-0.03,2.26-0.07,4.45-0.23,6.82c0.11,1.82,0.12,4.03-0.68,5.59
			c-0.04,0.39-0.19,0.73-0.42,1.02c-0.59,0.41-1.35,0.65-2.07,0.71c-1.33,0.11-2.68-0.19-4.01-0.01c-1.62,0.22-3.53,1.06-4.71-0.07
			c-0.3-0.29-0.48-0.67-0.59-1.07c0.1-1.72,0.16-3.44,0.29-5.15c0.06-2.8,0.06-5.61-0.02-8.39c0.06-1.16,0.19-2.36,0.63-3.38
			c0.33-0.27,0.74-0.3,1.21-0.32c2.96-0.1,5.95,0.03,8.9,0.38c0.62,0.07,1.3,0.21,1.6,0.89c0.09,0.2,0.13,0.44,0.12,0.71
			C756.96,394.35,756.95,395.1,756.93,395.85z M760.5,399.68c-0.01,1.04-0.06,2.06-0.13,3.07c0.02,0.44,0.04,0.89,0.04,1.33
			c0,0.29,0.01,0.61,0.01,0.95c-0.08,1.12-0.24,2.23-0.56,3.3c-0.21,0.68-0.56,1.41-1.23,1.64c-0.54,0.19-1.14-0.11-1.45-0.57
			c0.03-0.35,0.05-0.7,0.08-1.05c0,0.02-0.01,0.03-0.01,0.05c0-0.06,0.01-0.12,0.02-0.18c0.3-3.81,0.71-7.53,0.64-11.26
			c-0.02,0.35-0.04,0.73-0.06,1.14c0,0.07-0.01,0.16-0.01,0.24c0.02-0.74,0.04-1.51,0.04-2.31c-0.06-1.52-0.22-3.05-0.5-4.59
			c-0.07-0.1-0.14-0.2-0.22-0.28c-0.01-0.01-0.03-0.02-0.04-0.03c-0.4-0.12-0.8-0.26-1.18-0.42c-0.07,0-0.13-0.01-0.19-0.01
			l-9.98-0.54c-0.99-0.3-2.21,0.39-2.69,1.37c0,0,0,0.01,0,0.01c-0.03-0.22-0.05-0.33-0.05-0.33s0.01,0.12,0.04,0.36
			c-0.54,1.14-0.41,2.47-0.29,3.73c0.24,2.58,0.33,5.17,0.29,7.76c-0.01,0.28-0.03,0.58-0.05,0.91c-0.01,0.23-0.03,0.47-0.04,0.73
			c-0.59-6.03-0.62-12.16-2.56-17.88c0.4,5.49,0.68,11,0.84,16.51c-0.07,1.84-0.17,3.68-0.27,5.49c-0.03,0.61-0.1,1.28-0.35,1.75
			c0.1-2.84,0.06-5.16,0-6.83c-0.07-1.98-0.16-3.06-0.16-3.06s0.01,0.31,0.01,0.88c-0.11-2.81-0.49-5.57-1.45-8.2
			c0.22,1.48,0.41,2.98,0.55,4.47c-0.02-0.07-0.03-0.13-0.04-0.2c0.29,3.41,0.19,6.91-0.92,10.15c-0.95,2.76-2.71,5.31-5.12,6.9
			c-0.59,0.29-1.22,0.51-1.89,0.65c-0.54,0.19-1.09,0.36-1.65,0.52c-5.81,2.03-12.25,1.02-18.11,0.04
			c-14.58-2.45-15.26-15.96-15.26-15.96c-0.14-5.37,1.23-10.89,2.7-13.9c0.03-0.07,1.69-3.17,2.85-4.34
			c1.39-1.39,4.21-1.59,5.96-0.5c0.12,0.07,0.23,0.16,0.34,0.24c0.05,0.03,0.1,0.06,0.15,0.09c-0.01,0.01-0.01,0.01-0.02,0.02
			c0.1,0.08,0.2,0.17,0.29,0.27c0.03-0.02,0.05-0.04,0.08-0.05c0.07,0.05,0.14,0.11,0.21,0.17c-0.05,0.01-0.09,0.03-0.13,0.05
			c0.1,0.11,0.2,0.22,0.29,0.33l0,0l0,0c0.3,0.36,0.58,0.73,0.86,1.09c0.81,1,1.69,1.79,2.67,2.49c0.48,0.26,0.97,0.49,1.48,0.7
			c1.03,0.53,2.15,0.89,3.29,1.07c0.72,0.11,1.44,0.16,2.17,0.16c3.11,0.56,6.43,0.02,9.16-1.57c-1.7,0.4-3.49,0.39-5.19,0.01
			c-1.77-1.05-3.26-2.55-4.29-4.33c0.39,1,0.88,1.95,1.46,2.85c0.18,0.34,0.35,0.69,0.53,1.03c-1.87,0.82-4.06,0.85-5.95,0.1
			c-1.55-0.62-2.87-1.77-3.74-3.19c0-0.03,0.01-0.07,0.02-0.1c-0.63-1.21-0.68-2.65,0.29-4.09c2.32-3.45,8.16-3.79,11.82-3.07
			c4.02,0.8,8.13,2.4,11.43,4.95c0.01,0.01,0.03,0.03,0.04,0.04c1.02,1.23,1.85,2.9,1.24,4.38c-0.29,0.71-0.91,1.33-0.88,2.09
			c-0.07,0.1-0.12,0.19-0.17,0.27c0.03-0.03,0.06-0.05,0.08-0.08l-0.06,0.14c0.26-0.3,0.55-0.58,0.85-0.84
			c0.3-0.22,0.61-0.41,0.93-0.58l0,0c0.01-0.01,0.02-0.01,0.03-0.02c0.05-0.02,0.1-0.05,0.15-0.07c0,0,0,0,0,0
			c0.1-0.05,0.2-0.09,0.3-0.14c0,0,0,0,0,0c0.04-0.02,0.08-0.04,0.13-0.06c0,0,0,0.01,0,0.01c0.1-0.04,0.21-0.08,0.31-0.12
			c0,0,0,0,0-0.01c0.07-0.02,0.13-0.05,0.2-0.07c0,0.01,0,0.01,0,0.01c0.18-0.05,0.37-0.1,0.56-0.14c0-0.01,0-0.02,0-0.02
			c0.06-0.02,0.13-0.04,0.19-0.05c0,0.01,0,0.02,0,0.03c0.34-0.07,0.69-0.11,1.04-0.14c0-0.01,0-0.01,0-0.02
			c0.01,0,0.02,0,0.04-0.01c0.01,0.01,0.01,0.01,0.02,0.02c0.28-0.02,0.57-0.03,0.86-0.02c0-0.01,0-0.01,0-0.02c0,0,0,0,0,0
			c0.01,0,0.02,0,0.03,0c0,0.01,0,0.01,0,0.02c0.55,0.01,1.11,0.06,1.68,0.15c0.82,0.12,1.64,0.25,2.48,0.36
			c1.78,0.38,3.62,0.48,5.43,0.28c1.82-0.2,3.65-0.7,5.45-0.36c0.14,0.03,0.27,0.06,0.4,0.1c0.49,0.28,0.94,0.6,1.35,1
			c1.63,1.6,2.07,4,2.27,6.31c0,0.02,0,0.04,0,0.06c0.02,0.16,0.03,0.32,0.04,0.47c0,0.05,0.01,0.11,0.01,0.16
			c0.14,2.03,0.21,4.06,0.24,6.09C760.51,399.67,760.51,399.67,760.5,399.68z"/>
		<path class="st0" d="M83.08,396.91c-0.23,3.41-0.32,6.82,0.1,10.2c0.15,1.21,0.37,2.44,1.05,3.45c0.68,1.01,1.92,1.73,3.1,1.46
			c0.04-0.01,0.08-0.02,0.11-0.03C87.68,412,87.9,412,88.12,412c0.39,0,0.77-0.01,1.15-0.01c0.75-0.01,1.47-0.02,2.16-0.02
			c0.97-0.01,1.87-0.03,2.71-0.04c0.01,0,0.03,0.01,0.04,0.01c0.12,0,0.24,0,0.35,0c1.9,0,3.86,0.01,5.75,0.44l0.31,0.07
			c0.55,0.13,1.11,0.27,1.68,0.22c0.39-0.03,0.75-0.17,1.07-0.39c0.05,0.02,0.1,0.04,0.15,0.05l4.25,1.38
			c0.28,0.28,0.59,0.56,0.91,0.8c0.63,0.49,1.28,0.92,1.95,1.3c0,0.01,0,0.01,0,0.01l0.01-0.01c2.57,1.47,5.38,2.16,8.11,2.5
			c0.97,0.23,7.56,0.64,9.99,0.32c2.43-0.32,3.38-0.71,6.02-1.36c23.99-5.88,15.63-39.22,4.18-38.56c-1.29-0.1-2.61,0.19-3.74,0.81
			c-0.03-0.27-0.08-0.54-0.17-0.8c-0.41-1.15-1.32-2.05-2.28-2.81c-1.38-1.1-2.94-2.02-4.65-2.43c-1.49-0.36-3.05-0.32-4.58-0.16
			c-3.81,0.42-7.53,1.64-10.84,3.57c-3.12,1.82-5.84,4.23-8.41,6.77c-2.36,0.78-4.91,1.03-7.38,0.68c-1.99-0.28-3.97-0.92-5.95-0.85
			c-1.02-0.23-2.1-0.26-3.1,0.02c-1.12,0.31-2.15,1.03-2.7,2.05c-0.29,0.53-0.44,1.12-0.58,1.71c-0.28,0.8-0.53,1.61-0.77,2.43
			c0,0,0,0,0,0.01c-0.05,0.34-0.1,0.68-0.15,1.03c-0.03,0.38-0.06,0.76-0.1,1.14c-0.02,0.24-0.04,0.48-0.06,0.71
			c-0.01,0.17-0.03,0.33-0.04,0.5c-0.07,0.7-0.16,1.4-0.25,2.1c0.01,0,0.01,0.01,0.02,0.01C83.12,395.79,83.1,396.35,83.08,396.91z
			 M141.75,380.34c-0.32-0.27-0.66-0.53-0.99-0.77C141.1,379.77,141.43,380.04,141.75,380.34z M88.17,393.57
			c0-0.27,0.04-0.52,0.12-0.71c0.3-0.68,0.98-0.81,1.6-0.89c2.95-0.35,5.94-0.48,8.9-0.38c0.47,0.02,0.88,0.05,1.21,0.32
			c0.44,1.02,0.58,2.22,0.63,3.38c-0.08,2.78-0.08,5.58-0.02,8.39c0.13,1.71,0.19,3.43,0.29,5.15c-0.1,0.41-0.28,0.78-0.59,1.07
			c-1.18,1.14-3.08,0.29-4.71,0.07c-1.33-0.18-2.68,0.12-4.01,0.01c-0.72-0.06-1.48-0.3-2.07-0.71c-0.23-0.29-0.38-0.62-0.42-1.02
			c-0.79-1.56-0.79-3.77-0.68-5.59c-0.16-2.37-0.19-4.56-0.23-6.82C88.19,395.1,88.18,394.35,88.17,393.57z M84.63,399.66
			c0.02-2.03,0.1-4.06,0.24-6.09c0-0.05,0.01-0.11,0.01-0.16c0.01-0.16,0.02-0.32,0.04-0.47c0-0.02,0-0.04,0-0.06
			c0.19-2.31,0.64-4.71,2.27-6.31c0.4-0.39,0.86-0.72,1.35-1c0.13-0.04,0.27-0.07,0.4-0.1c1.8-0.34,3.63,0.15,5.45,0.36
			c1.81,0.2,3.65,0.1,5.43-0.28c0.83-0.11,1.66-0.24,2.48-0.36c0.57-0.09,1.13-0.14,1.68-0.15c0-0.01,0-0.01,0-0.02
			c0.01,0,0.02,0,0.03,0c0,0,0,0,0,0c0,0.01,0,0.01,0,0.02c0.29-0.01,0.58,0,0.86,0.02c0.01-0.01,0.01-0.01,0.02-0.02
			c0.01,0,0.02,0,0.04,0.01c0,0.01,0,0.01,0,0.02c0.35,0.03,0.7,0.07,1.04,0.14c0-0.01,0-0.02,0-0.03c0.07,0.01,0.13,0.03,0.19,0.05
			c0,0.01,0,0.02,0,0.02c0.19,0.04,0.37,0.09,0.56,0.14c0-0.01,0-0.01,0-0.01c0.07,0.02,0.13,0.05,0.2,0.07c0,0,0,0,0,0.01
			c0.1,0.04,0.21,0.08,0.31,0.12c0,0,0-0.01,0-0.01c0.04,0.02,0.08,0.04,0.13,0.06c0,0,0,0,0,0c0.1,0.04,0.2,0.09,0.3,0.14
			c0,0,0,0,0,0c0.05,0.02,0.1,0.04,0.15,0.07c0.01,0.01,0.02,0.01,0.03,0.02l0,0c0.32,0.16,0.63,0.35,0.93,0.58
			c0.3,0.26,0.59,0.54,0.85,0.84l-0.06-0.14c0.03,0.03,0.06,0.05,0.08,0.08c-0.04-0.08-0.1-0.17-0.17-0.27
			c0.03-0.76-0.58-1.38-0.88-2.09c-0.61-1.47,0.21-3.15,1.24-4.38c0.01-0.01,0.03-0.03,0.04-0.04c3.3-2.54,7.41-4.15,11.43-4.95
			c3.66-0.72,9.5-0.38,11.82,3.07c0.97,1.44,0.92,2.88,0.29,4.09c0.01,0.03,0.01,0.07,0.02,0.1c-0.87,1.43-2.19,2.57-3.74,3.19
			c-1.89,0.75-4.09,0.72-5.95-0.1c0.18-0.34,0.35-0.69,0.53-1.03c0.58-0.9,1.08-1.85,1.46-2.85c-1.02,1.78-2.52,3.29-4.29,4.33
			c-1.7,0.38-3.49,0.39-5.19-0.01c2.73,1.59,6.05,2.13,9.16,1.57c0.72,0,1.45-0.05,2.17-0.16c1.14-0.18,2.26-0.54,3.29-1.07
			c0.5-0.21,1-0.44,1.48-0.7c0.99-0.7,1.87-1.49,2.67-2.49c0.28-0.35,0.56-0.73,0.86-1.09l0,0l0,0c0.09-0.11,0.19-0.22,0.29-0.33
			c-0.04-0.02-0.09-0.04-0.13-0.05c0.07-0.06,0.14-0.11,0.21-0.17c0.03,0.02,0.05,0.04,0.08,0.05c0.09-0.09,0.19-0.18,0.29-0.27
			c-0.01-0.01-0.01-0.01-0.02-0.02c0.05-0.03,0.1-0.06,0.15-0.09c0.11-0.09,0.22-0.17,0.34-0.24c1.75-1.08,4.57-0.89,5.96,0.5
			c1.17,1.17,2.82,4.27,2.85,4.34c1.47,3,2.84,8.53,2.7,13.9c0,0-0.68,13.51-15.26,15.96c-5.86,0.99-12.3,1.99-18.11-0.04
			c-0.56-0.15-1.11-0.33-1.65-0.52c-0.66-0.14-1.29-0.37-1.89-0.65c-2.42-1.59-4.18-4.14-5.12-6.9c-1.11-3.24-1.21-6.74-0.92-10.15
			c-0.02,0.07-0.03,0.13-0.04,0.2c0.13-1.5,0.33-2.99,0.55-4.47c-0.96,2.63-1.34,5.4-1.45,8.2c0-0.57,0.01-0.88,0.01-0.88
			s-0.09,1.08-0.16,3.06c-0.06,1.67-0.1,3.99,0,6.83c-0.25-0.47-0.32-1.13-0.35-1.75c-0.1-1.82-0.2-3.65-0.27-5.49
			c0.16-5.51,0.43-11.01,0.84-16.51c-1.95,5.72-1.98,11.85-2.56,17.88c-0.02-0.25-0.03-0.5-0.04-0.73
			c-0.02-0.34-0.03-0.64-0.05-0.91c-0.04-2.59,0.05-5.18,0.29-7.76c0.12-1.26,0.25-2.59-0.29-3.73c0.02-0.23,0.04-0.36,0.04-0.36
			s-0.02,0.11-0.05,0.33c0,0,0-0.01,0-0.01c-0.48-0.98-1.7-1.67-2.69-1.37l-9.98,0.54c-0.06,0-0.12,0.01-0.19,0.01
			c-0.38,0.16-0.78,0.3-1.18,0.42c-0.01,0.01-0.03,0.02-0.04,0.03c-0.08,0.08-0.15,0.18-0.22,0.28c-0.28,1.54-0.43,3.07-0.5,4.59
			c0,0.8,0.02,1.57,0.04,2.31c0-0.08-0.01-0.16-0.01-0.24c-0.02-0.41-0.04-0.78-0.06-1.14c-0.07,3.73,0.33,7.45,0.64,11.26
			c0.01,0.06,0.02,0.12,0.02,0.18c0-0.02-0.01-0.03-0.01-0.05c0.03,0.35,0.05,0.7,0.08,1.05c-0.32,0.46-0.92,0.75-1.45,0.57
			c-0.67-0.23-1.02-0.96-1.23-1.64c-0.33-1.07-0.48-2.18-0.56-3.3c0-0.33,0.01-0.65,0.01-0.95c0-0.44,0.02-0.89,0.04-1.33
			c-0.06-1.01-0.11-2.03-0.13-3.07C84.63,399.67,84.63,399.67,84.63,399.66z"/>
		<g>
			<g>
				<path class="st0" d="M180.63,380.8l6.78,0.14l0.08,0.07v0.14l-0.08,0.77l0.23,0.56l-0.23,0.21c0.42,1.01,0.67,2.41,0.78,4.19
					v0.21l-0.23,0.56v0.14l0.23,0.07l-0.08,0.35c0.16,0.5,0.26,1.22,0.31,2.16l0.23,0.21c-0.16,0.43-0.23,0.83-0.23,1.19v0.35
					c0.12,2.75,0.4,4.12,0.86,4.12c0,0.1,0.36,0.24,1.09,0.42v0.28h-0.08c-0.26-0.14-0.52-0.21-0.78-0.21h-0.08
					c0,1.31,0.18,2.18,0.55,2.58l-0.16,0.42l0.55,2.51l0.47,0.63v0.42c0,0.77,0.21,2.3,0.62,4.61l0.47,0.21l-0.16,0.98v0.07
					l0.16,0.84l-0.08,0.07h-0.47c-1.18,0-2.3-0.07-3.35-0.21l-2.34,0.21l-2.42-0.42l-0.47,0.07c-0.21-0.14-0.34-1.81-0.39-5.02
					c-0.08-0.23-0.42-0.35-1.01-0.35l-1.71,0.07l-0.23-0.07c-0.16,0.14-0.29,0.47-0.39,0.98l0.23,0.77
					c-0.46,2.19-0.74,3.28-0.86,3.28l-2.26-0.07l-6.39,0.28l-0.08-0.07v-0.07c0.47-2.29,1.12-6.32,1.95-12.07
					c-0.27-0.13-1.21-0.31-2.81-0.56c-0.21-0.13-0.78-0.22-1.71-0.28l-0.23,0.07v-0.07l0.23-0.21h0.31
					c2.04,0.37,3.29,0.56,3.74,0.56h0.16c0.25-0.51,0.53-1.84,0.86-3.98l0.08-0.07h0.08l-0.08-0.07v-0.07
					c0.73-3.08,1.22-5.43,1.48-7.05c0.27,0,0.56-1.35,0.86-4.05c0.1,0,0.16-0.23,0.16-0.7l0.08-0.07H180.63z M170.19,399.65h0.31
					v0.14h-0.31V399.65z M174.16,393.16c0,0.19-0.39,0.49-1.17,0.91l-0.16,0.42c0.42,0.33,0.83,0.49,1.25,0.49v-0.56
					c0-0.37,0.16-0.56,0.47-0.56l0.78-0.14v-0.07c-0.3,0-0.66-0.16-1.09-0.49H174.16z M176.89,383.59l-0.08,0.07v0.14l0.16,0.14
					h0.16C177.06,383.71,176.98,383.59,176.89,383.59z M176.97,393.23v0.07l0.39,0.35h0.16l0.16-0.56l-0.08-0.07h-0.39
					L176.97,393.23z M177.28,382.06c0.31,0.19,0.55,0.28,0.7,0.28v-0.63h-0.16C177.54,381.71,177.36,381.83,177.28,382.06z
					 M180.71,388.97c-0.26,3.4-0.52,5.1-0.78,5.1l-0.78,4.89l-0.08,0.77l0.08,0.07h0.39l1.87,0.14c0.31,0,0.47-0.14,0.47-0.42v-0.21
					c-0.36-4.99-0.73-8.43-1.09-10.33H180.71z M180.4,382.06c-0.32,0.2-0.58,0.5-0.78,0.91c0.09,0,0.17,0.12,0.23,0.35l0.54-0.14
					l-0.08-0.49v-0.14c0-0.28,0.13-0.42,0.39-0.42v-0.07H180.4z M179.85,383.45c0.09,0.42,0.19,0.63,0.31,0.63v-0.07
					c-0.05-0.37-0.13-0.56-0.23-0.56H179.85z M181.33,402.09v0.14h-0.08l0.08,0.21l0.16-0.14l-0.08-0.21H181.33z M181.72,382.34
					l0.94,0.07c0.35-0.08,0.71-0.31,1.09-0.7h-0.47c-0.17,0.15-0.48,0.27-0.94,0.35l-0.62,0.21V382.34z M184.69,395.04v0.07
					l1.01,0.14v-0.07c-0.03-0.12-0.21-0.23-0.55-0.35C184.84,394.88,184.69,394.95,184.69,395.04z M191,389.81h0.08l0.16,0.14H191
					V389.81z M192.48,408.44h0.39l0.16,0.14l-0.16,0.14h-0.39l-0.16-0.14L192.48,408.44z"/>
				<path class="st0" d="M216.15,383.7c2.07,0,3.73,0.67,4.99,2.02c0.36,0.36,0.7,1.31,1.01,2.86c0.14,1.43,0.35,2.62,0.62,3.56
					l0.31,7.19l-0.16,2.09l0.16,7.61v0.35l-0.16,0.14h-1.4l-7.25-0.14l-0.08-0.07v-5.37l0.16-0.14h0.08c0.1,0,0.16,0.16,0.16,0.49
					h0.08c0-0.16,0.13-0.35,0.39-0.56l-0.08-0.21l-0.7,0.14c-0.16-0.52-0.23-0.97-0.23-1.33v-4.33l-0.08-2.44l0.62-0.28
					c0.3,0.06,0.56,0.17,0.78,0.35h1.17v-0.21l-0.23-0.35l0.08-0.35c-0.21,0-0.31-0.05-0.31-0.14l0.16-0.56h-0.31
					c-0.09,0-0.2,0.14-0.31,0.42h-0.23l-0.7-0.07c-0.1,0-0.31,0.16-0.62,0.49l-0.16-0.14v-0.42c0-0.72-0.16-2.16-0.47-4.33
					c-0.09-0.84-0.38-1.26-0.86-1.26h-0.86c-0.22,0-0.43,0.33-0.62,0.98c0.31,4.82,0.52,9.52,0.62,14.1c-0.13,0-0.31,0.12-0.55,0.35
					l-0.31,0.07h-0.08c-0.21-0.08-0.31-0.24-0.31-0.49v-0.14c0-0.15,0.08-0.31,0.23-0.49h-0.62c-0.4,0-0.66-0.12-0.78-0.35
					l0.16-0.35h-0.16l-1.79-0.28l-0.39,0.07v-0.07l0.23-0.56h-0.47l-0.94-0.07c0,0.26-0.62,0.47-1.87,0.63l-0.16,0.21v0.56
					l0.62,0.28c0.64-0.6,1.18-0.91,1.64-0.91c0.73,0,1.09,0.26,1.09,0.77h0.39c0.48,0,0.87,0.16,1.17,0.49
					c-0.26,0.42-0.54,0.63-0.86,0.63c0,0.1,0.39,0.17,1.17,0.21l0.39,0.21l-0.16,0.49c0.47,0.06,0.7,0.27,0.7,0.63
					c-0.04,0.37-0.22,0.56-0.55,0.56v0.14h0.16l0.7-0.56h0.55l0.16,0.14v0.49l-0.16,0.21c0.1,0,0.16,0.07,0.16,0.21l0.08,0.07h0.08
					l0.31-0.21l0.16,0.14v2.51l-0.16,0.14h-2.81l-0.31-0.35c-0.17,0-0.35-0.07-0.55-0.21v0.07l0.16,0.42l-0.08,0.07h-3.12
					l-0.16-0.14l1.33-1.12v-0.07c-0.21,0-0.31-0.09-0.31-0.28h-0.08l-0.31,0.14l-0.47-0.14c-0.77,0.42-1.26,0.63-1.48,0.63v0.07
					c0.31,0,0.47,0.26,0.47,0.77h0.47v0.14h-1.17l-0.16-0.14l-0.7-14.73l0.23-0.21v-0.07c-0.16,0-0.23-0.05-0.23-0.14v-2.44
					l0.23-0.28l-0.23-0.21v-1.81l0.16-4.75l0.08-0.07h0.16l7.48-0.21c0.57,0.03,0.86,0.1,0.86,0.21v0.07l-0.16,1.33l0.08,0.21
					c1.83-1.72,3.42-2.58,4.75-2.58H216.15z M204.93,392.91c0,0.14-0.05,0.21-0.16,0.21l-0.39-0.07l-0.23,0.49l0.08,0.42v0.14
					c0,0.19-0.23,0.28-0.7,0.28l-0.08,0.07v0.07c0.23,0.09,0.36,0.19,0.39,0.28c0.78-0.29,1.17-0.57,1.17-0.84
					c0-0.34,0.29-0.64,0.86-0.91v-0.07L204.93,392.91z M203.76,405.89l-0.23,1.12c1.22-0.46,1.97-0.7,2.26-0.7v0.07
					c0.04,0.33,0.12,0.49,0.23,0.49h0.08l0.39-0.14v-0.07c-0.42,0-0.62-0.16-0.62-0.49l-0.39,0.07c-0.74-0.23-1.29-0.35-1.64-0.35
					H203.76z M204.15,387.26l-0.08,0.07v0.07l0.08,0.21h0.23v-0.14L204.15,387.26z M205.32,390.12v0.21l0.16-0.14v-0.07H205.32z
					 M206.49,392.84v0.14l0.7,0.14c-0.1-0.21-0.21-0.33-0.31-0.35L206.49,392.84z M206.72,389.98v0.14l0.16,0.14h0.08v-0.07
					L206.72,389.98z M207.19,408.13h0.08c0.52,0,0.78-0.19,0.78-0.56L207.19,408.13z M210.77,403.03v0.07l0.62,0.07v-0.21
					L210.77,403.03z M211.63,404.08h0.08v0.98h-0.16c-0.38,0-0.58-0.07-0.62-0.21L211.63,404.08z M213.27,386.14l0.08,0.21h0.23
					l0.08-0.21l-0.08-0.07h-0.16l-0.08,0.07H213.27z M214.2,385.1v0.07l0.23,0.21l0.16-0.14l-0.16-0.14H214.2z M214.28,402.47
					c0,0.51,0.21,0.77,0.62,0.77h0.08c0-0.16,0.23-0.26,0.7-0.28c0.31-0.22,0.47-0.41,0.47-0.56l-0.39-0.14l-0.55,0.14l-0.08-0.21
					h-0.16C214.79,402.19,214.56,402.29,214.28,402.47z M215.61,384.68v0.14h0.16l0.08-0.07h0.08l-0.08-0.28L215.61,384.68z
					 M215.69,390.82v0.07H216v-0.07l-0.16-0.14L215.69,390.82z M216.62,385.44c0,0.16-0.18,0.28-0.55,0.35v0.07l0.47,0.63
					l-0.23,0.21l0.54,0.84h0.08l2.42-1.33v-0.07c-0.22,0-0.38-0.21-0.47-0.63h-0.23c0,0.24-0.42,0.57-1.25,0.98l-0.08-0.07v-0.63
					L216.62,385.44z M216.31,389.98v0.07h0.23l-0.08-0.21L216.31,389.98z M216.7,402.05c0,0.09,0.13,0.14,0.39,0.14l0.08,0.21
					l0.47-0.42l-0.31-0.14L216.7,402.05z M217.17,393.75c0.16,0,0.23,0.05,0.23,0.14v0.35l-0.08,0.07v0.07h0.78
					c0.29,0,0.47-0.09,0.54-0.28l-0.08-0.07h-0.08l0.16-0.42c-0.08-0.19-0.16-0.28-0.23-0.28
					C217.58,393.46,217.17,393.6,217.17,393.75z M217.87,401.99v0.56l0.23,0.21l0.54-0.07l0.08,0.07v-0.07
					c-0.05-0.2-0.18-0.31-0.39-0.35c0-0.14-0.1-0.21-0.31-0.21L217.87,401.99z M218.1,403.52v0.07l0.16,0.14l0.08-0.21H218.1z
					 M224.1,401.57h0.16v0.14l-0.31,0.07v-0.07L224.1,401.57z"/>
				<path class="st0" d="M253.62,378.34h0.08l-0.02,0.14l-0.37,1.6c0.04,1.7,0.13,2.75,0.27,3.14l-0.18,0.49l0.2,0.91
					c-0.13,0.06-0.4,0.35-0.82,0.89c-0.16-0.01-0.23,0.03-0.23,0.12l0.08,0.02l0.88-0.47l0.16,0.14l-0.25,2.58l0.35,4.9l-0.08,1.95
					c-0.05,1.25,0.01,4.15,0.19,8.72l-0.17,0.49l0.04,1.33l-0.21,3.49l-1.42,0.37v0.07l0.21,0.23l0.47,0.02l0.64-0.4l0.08,0.07
					l-0.02,0.75l-0.17,0.14l-8.32-0.26l-0.16-0.14l0.21-1.52l-0.08-0.07c-0.17-0.01-0.68,0.37-1.52,1.13l-2.85,0.87l-0.7,0.05h-0.23
					c-1.34-0.05-2.83-0.65-4.46-1.81c0.01-0.1-0.18-0.39-0.58-0.85c-0.09-1.54-0.28-2.75-0.57-3.65l0.14-1.6l-0.29-2.16l0.21-1.74
					l-0.23-9.86c0.09-2.27,1.5-3.81,4.23-4.62c0.51-0.07,1.21-0.09,2.12-0.07c1,0.03,1.79,0.27,2.38,0.72
					c-0.16-0.01-0.23,0.03-0.23,0.12v0.14l0.14,0.14l0.25-0.19l-0.16-0.21h0.16l1.75,0.96h0.08c0.06-0.37,0.15-0.55,0.25-0.54
					l1.01,0.23l-0.14-0.49c0.01-0.23,0.12-0.34,0.33-0.33l0.08-0.21l0.54,0.3l0.39-0.19v-0.07c-0.42-0.02-0.62-0.2-0.6-0.52
					l0.25-0.54v-0.07l-0.41-1.13c0-0.21,0.25-0.65,0.74-1.31l0.16,0.02c0,0.19,0.18,0.29,0.55,0.3v-0.07l-0.84-0.73
					c0,0.14-0.05,0.21-0.16,0.21l-0.31-0.02c-0.77-0.07-1.18-0.2-1.23-0.38l-0.41,0.12l-0.08-0.07l0.04-0.7
					c0.01-0.33,0.07-0.58,0.17-0.75l0.08,0.07l1.56,0.04l0.39,0.09v-0.14l3.82-0.02l1.48,0.12L253.62,378.34z M236.12,390.92v0.07
					l0.16,0.14l0.08,0.02l-0.08-0.37L236.12,390.92z M239.3,397.52v0.21l0.14,0.14l0.08-0.07l0.02-0.4l-0.08-0.02L239.3,397.52z
					 M240.99,408.04l-0.08,0.07v0.14l0.14,0.16h0.08l0.02-0.21L240.99,408.04z M243.08,388.64l-0.23-0.02
					c-0.23,0.49-0.36,1.18-0.39,2.08c0.19,4.19,0.28,7.89,0.25,11.11l-0.27,1.12c0.06,1.68,0.45,2.52,1.15,2.55h0.08
					c0.73,0.02,1.16-0.31,1.29-1.01l0.04-1.12l0.23-1.87l-0.08-1.74l0.02-0.84l0.17-0.14h0.08l0.7,0.09l0.78-0.03h0.39
					c0-0.09-0.23-0.19-0.7-0.3c-0.18-0.42-0.44-0.63-0.76-0.65l-0.62,0.12l0.02-0.63c-0.1-1.29-0.12-2.74-0.06-4.34l0.04-0.98
					c0.06-1.78-0.33-2.95-1.19-3.52l-0.31-0.07L243.08,388.64z M243.08,386.6c0.12,0.29,0.27,0.44,0.45,0.44l1.25-0.09l-0.08-0.09
					l-1.15-0.38l-0.08-0.07L243.08,386.6z M243.45,403.31l0.45,0.02l0.23,0.21l-0.08,0.07h-0.08c-0.36-0.06-0.54-0.13-0.54-0.23
					L243.45,403.31z M244.42,400.05v0.07c-0.08,0.15-0.29,0.29-0.64,0.4l-0.08-0.07v-0.07
					C244.03,400.16,244.27,400.05,244.42,400.05z M243.96,386.07l0.08,0.21h0.08V386l-0.08,0.07H243.96z M245.01,381.15l0.62,0.16
					l0.47,0.02c-0.01,0.21-0.24,0.58-0.68,1.1l-0.08,0.33c0.25,0.21,0.36,0.49,0.35,0.85l-0.8,0.61v-0.14l-0.04-2.88l0.08-0.05
					H245.01z M247.04,406.98v0.14l0.16-0.12l0.02-0.14L247.04,406.98z M247.06,386.67c0.06,0.19,0.14,0.28,0.21,0.28h0.08l0.1-0.21
					l-0.23-0.14l-0.08,0.07H247.06z M249.49,398.25l-0.1,0.28h-0.31l-1.17,0.24c-0.01,0.09,0.14,0.16,0.45,0.21l1.81-0.56l0.02-0.07
					l-0.16-0.02l-0.31,0.07l-0.16-0.16H249.49z M248.3,400.59l0.16,0.16l0.16-0.14L248.3,400.59z M248.48,386.14l0.06,0.35
					c0.43-0.07,0.64-0.16,0.64-0.26l-0.08-0.07L248.48,386.14z M248.93,382.67v0.07l0.16,0.14h0.08v-0.14h0.08l-0.08-0.21h-0.08
					L248.93,382.67z M252.42,381.31c0.06,0.19,0.14,0.28,0.21,0.28l0.08-0.05v-0.07c-0.09-0.01-0.14-0.09-0.14-0.23l-0.08,0.07
					H252.42z M252.67,380.75l-0.08,0.07v0.07l0.06,0.07l0.08,0.02l0.1-0.07v-0.07l-0.08-0.07L252.67,380.75z M252.79,381.47v0.14
					h0.08l0.39-0.05l-0.21-0.23h-0.08L252.79,381.47z M252.92,394.38v0.07H253l0.23-0.05v-0.07h-0.08L252.92,394.38z"/>
				<path class="st0" d="M277.57,383.07l0.16,0.28l-0.31,6.28v1.61l0.08,0.7l-2.57,0.49c-1.09,0.31-1.64,0.66-1.64,1.05
					c-0.68,0-1.01,1.3-1.01,3.91v0.63c-0.21,0-0.31,0.05-0.31,0.14c0.26,0.07,0.39,0.23,0.39,0.49v0.98l-0.08,0.07v0.07l-0.08-0.07
					h-0.55l-0.23,0.14l-0.31-0.07l-0.16,0.14h-0.78l-0.31-0.28v-0.35l0.23-0.21h0.55l0.16-0.35h-0.78c-0.68,0-1.01,0.07-1.01,0.21
					v0.63l-0.08,0.07c-0.17,0.08-0.33,0.31-0.47,0.7c-0.29,0.23-0.6,0.35-0.94,0.35h-0.23c-0.78,0-1.17-0.12-1.17-0.35h-0.08
					c-0.1,0-0.16,0.16-0.16,0.49c-0.36,0.13-0.6,0.38-0.7,0.77h0.62c0.27-0.19,0.51-0.28,0.7-0.28h0.08
					c0.42,0.06,0.62,0.2,0.62,0.42l-0.23,0.42h0.7c0,0.14,0.05,0.21,0.16,0.21c0.14-0.1,0.66-0.22,1.56-0.35l-0.23-0.98
					c0.01-0.1,0.51-0.41,1.48-0.91h0.16v0.56c0.26,0.37,0.52,0.58,0.78,0.63l0.08,0.07l0.08-0.07v-0.07
					c-0.36-0.12-0.55-0.4-0.55-0.84l0.7-0.28c0.36,0.08,0.55,0.17,0.55,0.28v0.42c0,0.15-0.08,0.31-0.23,0.49
					c0.21,0,0.31,0.21,0.31,0.63v0.07c0,1.9,0.1,4.25,0.31,7.05c-2.1,0.33-4.03,0.49-5.77,0.49h-2.73l-0.08-0.07h-0.08
					c-0.16-7.33-0.34-12.1-0.55-14.31l0.7-4.54l-0.16-0.98l0.16-4.05l-0.08-0.7c0-0.2,0.1-0.43,0.31-0.7l8.34-0.28l0.08,0.07v0.07
					l-0.31,2.37l1.25-1.75c0.23-0.19,0.47-0.28,0.7-0.28c0-0.29,0.26-0.45,0.78-0.49c0.26-0.35,0.96-0.63,2.1-0.84H277.57z
					 M264.63,393.19l0.08,0.21l0.31-0.21H264.63z M265.17,398.08v0.07l0.16,0.14h0.08v-0.07l-0.16-0.14H265.17z M265.64,384.54v0.07
					h0.08l0.08-0.28C265.69,384.33,265.64,384.4,265.64,384.54z M265.87,397.87l-0.16,0.28l0.23,0.14h0.08l0.08-0.28L265.87,397.87z
					 M266.65,402.68v0.14l0.16,0.14h0.16v-0.14l-0.16-0.14H266.65z M267.35,385.93l0.16,0.14h0.23V386l-0.23-0.21L267.35,385.93z
					 M268.06,393.33v0.07l0.47-0.07l-0.16-0.21C268.16,393.19,268.06,393.26,268.06,393.33z M268.21,397.38v0.07h0.08
					c0-0.19,0.08-0.28,0.23-0.28v-0.14C268.42,397.05,268.32,397.17,268.21,397.38z M268.91,393.96l0.31,0.91h0.08l0.31-0.21
					l-0.23-0.42l0.08-0.63L268.91,393.96z M270.79,393.05v0.07l0.16,0.14h0.08l0.08-0.07h0.08l-0.23-0.28L270.79,393.05z
					 M275.7,381.33l0.16,0.21v0.07l-0.16,0.14l-0.16-0.35l0.08-0.07H275.7z M276.71,381.61l0.23,0.21v0.14l-0.16,0.14h-0.16
					l-0.08-0.07h-0.08C276.54,381.74,276.62,381.61,276.71,381.61z M277.57,381.81c0.29,0.08,0.49,0.2,0.62,0.35l-0.23,0.14
					c-0.42-0.06-0.62-0.15-0.62-0.28L277.57,381.81z"/>
				<path class="st0" d="M297.65,384.19h0.7c3.38,0.14,5.28,0.54,5.69,1.19c0.68,0.2,1.01,0.34,1.01,0.42
					c0.23,0.45,0.75,1.01,1.56,1.68c0.83,2.02,1.25,3.26,1.25,3.7l-0.23,1.19l0.39,0.49v0.21l-0.55,0.49l0.08,1.26l-0.08,2.86
					l-0.08,0.07h-0.08l-1.79,0.07l-2.49-0.14v-0.07l0.16-0.49h-0.08c-0.48,0.42-1.13,0.63-1.95,0.63l-0.94,0.07l-0.16-0.21
					l-2.96,0.28c0,0.21-0.23,0.4-0.7,0.56c0,0.13-0.13,0.31-0.39,0.56v0.14c0.34,0,0.62,0.14,0.86,0.42v0.14
					c0,0.4-0.36,0.72-1.09,0.98c-0.16,0.33-0.39,0.49-0.7,0.49l-0.62-0.28l-0.16,0.14v0.07c0,0.17,0.31,0.29,0.94,0.35l0.39,1.33
					c0.39-0.19,0.78-0.28,1.17-0.28v0.07c-0.1,0.21-0.16,0.51-0.16,0.91v0.28c0,1.3,0.44,1.95,1.33,1.95
					c0.99-0.17,1.48-0.59,1.48-1.26c0.16-0.37,0.23-0.86,0.23-1.47v-0.56l0.16-0.14h0.16c0,0.31,0.23,0.55,0.7,0.7l0.23-0.28
					l-0.16-0.21v-0.07c0-0.42,0.16-0.63,0.47-0.63l1.25,0.14c0-0.13,0.13-0.2,0.39-0.21v-0.14c0-0.35-0.18-0.6-0.55-0.77l-0.7,0.35
					l-1.17-0.28v0.14l0.08,0.35l-0.39,0.07l0.08,0.49v0.14h-0.08c-0.23-0.08-0.42-0.22-0.55-0.42v-0.91l-0.08-0.35
					c0.12-0.09,0.3-0.14,0.54-0.14l0.08-0.35l-0.47-0.35v-0.07c0-0.09,0.52-0.19,1.56-0.28c0,0.07,0.1,0.14,0.31,0.21l0.47-0.14
					c0.3,0,0.56,0.12,0.78,0.35l-0.08,0.07v0.07c0.79,0.33,1.34,0.49,1.64,0.49l0.08,0.07v0.07l-0.7,0.63v0.07h0.23
					c0.52,0,0.78,0.21,0.78,0.63l0.39-0.07h0.23l0.23-0.56l-0.16-0.42l0.16-0.63v-0.07c0-0.28-0.21-0.42-0.62-0.42l-0.08-0.07v-0.07
					c0.27-0.09,0.82-0.14,1.64-0.14h0.7l0.23,0.14l-0.08,0.84v3.07c0,2.19-1.09,4-3.27,5.44c-2.34,1.02-4.31,1.54-5.92,1.54
					c-1.31,0-3.5-0.37-6.55-1.12c-0.4-0.19-0.61-0.37-0.62-0.56c-0.29,0-1.09-0.72-2.42-2.16l0.08-0.28l-0.62-1.81v-0.14l0.16-0.14
					h0.23l0.86,0.56l0.62-0.42c-0.42,0-0.78-0.12-1.09-0.35l-0.08,0.07h-0.62l-0.08-0.07h-0.08l0.08-1.19v-2.44
					c0-0.58,0.16-1.37,0.47-2.37l-0.08-0.07v-1.4c0.26,0,0.39-0.12,0.39-0.35c0-0.19,0.16-0.28,0.47-0.28v-0.07
					c-0.57,0-0.86-0.09-0.86-0.28l-0.08-1.26v-0.77c0-2.15,0.73-4.39,2.18-6.7c1.68-1.14,3-1.79,3.98-1.95
					C295.02,384.37,296.05,384.19,297.65,384.19z M288.3,400.38l0.47,0.49v0.35h0.62v-0.07c-0.33,0-0.53-0.28-0.62-0.84
					L288.3,400.38z M290.95,398.98v0.49c-0.26,0.16-0.39,0.37-0.39,0.63c-0.09,0.23-0.25,0.35-0.47,0.35l0.08,0.07v0.07
					c0,0.37-0.21,0.56-0.62,0.56v0.07l0.47,0.42v0.07l-0.62,0.7l0.23,0.56c1.14-0.28,1.71-0.49,1.71-0.63
					c-0.83-0.57-1.25-0.9-1.25-0.98c0-0.15,0.44-0.57,1.33-1.26c0-0.14,0.05-0.21,0.16-0.21c0.27,0.33,0.53,0.49,0.78,0.49h0.08
					l-0.08-0.07v-0.14l0.47-0.42c-0.31,0-0.47-0.05-0.47-0.14l0.08-0.21c0-0.29-0.31-0.5-0.94-0.63h-0.08L290.95,398.98z
					 M289.47,389.7v0.14l0.08,0.21h0.08v-0.14l0.08-0.07l-0.16-0.14H289.47z M290.32,383.07c0.21,0.07,0.31,0.23,0.31,0.49v0.14
					l-0.08,0.07v0.07c-0.31-0.09-0.47-0.28-0.47-0.56L290.32,383.07z M292.04,391.17l-0.16,0.14l0.08,0.21l0.23-0.07v-0.14
					L292.04,391.17z M297.11,390.47l0.08,3h2.34v-2.93c0-0.57-0.18-1.17-0.55-1.81h-0.31c-0.93,0.08-1.4,0.31-1.4,0.7L297.11,390.47
					z M300.15,385.79l0.08,0.07h0.08c0.21-0.07,0.31-0.14,0.31-0.21l-0.16-0.14h-0.08C300.3,385.51,300.23,385.61,300.15,385.79z
					 M301.32,386v0.07l0.16,0.14l0.08-0.07v-0.07l-0.08-0.07H301.32z M304.82,380.49l0.39,0.49v0.07c-0.27,0-0.46-0.09-0.55-0.28
					v-0.14L304.82,380.49z M304.82,388.45c0.05,0.51,0.13,0.77,0.23,0.77h0.08v-0.14h0.08l-0.08-0.07v-0.63h-0.16l-0.08,0.07H304.82
					z M305.68,382.72c0.57,0.07,0.86,0.19,0.86,0.35v0.14h-0.16C305.92,383.21,305.68,383.05,305.68,382.72z M306.15,395.28v0.07
					c0.03,0.09,0.16,0.19,0.39,0.28v-0.07l-0.23-0.28H306.15z M307.94,395.08h0.08l0.39,0.28l-0.08,0.07h-0.39l-0.16-0.14v-0.07
					L307.94,395.08z M308.88,392.35l0.16,0.14v0.14l-0.23,0.21h-0.08l-0.16-0.14C308.67,392.49,308.77,392.38,308.88,392.35z"/>
				<path class="st0" d="M326.53,383.58c0.74,0.17,2.56,0.31,5.46,0.42c1.08,0.16,1.96,0.51,2.65,1.05c0.1,0.16,0.39,0.3,0.86,0.42
					l1.56,2.02l0.31,1.05l-0.16,1.88h0.16v0.14l-0.08,0.07l0.31,0.63l-0.23,1.12v0.49c0,0.87,0.13,1.66,0.39,2.37l-0.31,1.95
					l0.08,8.58c-0.05,2.42-0.21,3.63-0.47,3.63h-2.26c-0.13,0-0.23-0.16-0.31-0.49c-0.75,0-1.2,0.14-1.33,0.42l-0.16,0.14h-1.56
					l-2.5-0.07l-0.08-0.07v-0.07c0.71-0.65,1.52-0.98,2.42-0.98c0.74-0.38,1.13-0.64,1.17-0.77h-0.78
					c-0.64,0.37-1.23,0.56-1.79,0.56c-0.52,0-0.86-0.33-1.01-0.98l-0.23-0.14h-0.31v0.07c0.42,0.15,0.62,0.38,0.62,0.7h-0.08
					l-0.23-0.07c-0.21,0.33-0.49,0.6-0.86,0.84l0.08,0.21c-0.42,0-0.75,0.23-1.01,0.7c-0.68,0.12-1.01,0.37-1.01,0.77l-0.86-0.21
					l-1.95,0.21c-0.79,0-2.07-0.56-3.82-1.67c-0.73-1.05-1.09-2.35-1.09-3.91v-1.68c0.16-0.65,0.26-1.88,0.31-3.7
					c0.19-0.79,0.48-1.19,0.86-1.19c0-0.59,1.38-1.34,4.13-2.23c1.26-0.58,2.77-1.14,4.52-1.68l0.08-0.07v-0.07l-0.08-0.21
					c0.57,0,0.86-0.26,0.86-0.77c0.1-0.56,0.16-1.26,0.16-2.09c0-1.19-0.34-1.98-1.01-2.37l-0.47-0.14c-0.6,0-0.94,0.56-1.01,1.68
					v0.21l0.16,1.33l-0.16,0.35l0.31,1.05l-0.16,0.14l0.16,0.77c0,0.2-1.2,0.31-3.59,0.35h-3.51c-1.09,0-1.64-0.07-1.64-0.21v-0.42
					l0.16-0.42c0.61,0.37,1.34,0.56,2.18,0.56c0,0.09,0.18,0.14,0.55,0.14l0.16-0.14h0.39l0.16,0.14c0.12,0,0.35-0.14,0.7-0.42h0.31
					c0-0.08-0.18-0.22-0.55-0.42h-0.23c0,0.19-0.16,0.28-0.47,0.28h-0.23c-0.42,0-0.62-0.19-0.62-0.56v-0.07
					c0-0.19,0.16-0.42,0.47-0.7c-0.26-0.06-0.39-0.13-0.39-0.21l0.08-0.28l-1.79-0.07v0.07c-0.22,0.37-0.48,0.56-0.78,0.56v-2.02
					c0.26-0.33,0.52-0.49,0.78-0.49c0.82,0,1.55,0.09,2.18,0.28l0.23-0.28c-0.13,0-0.26-0.19-0.39-0.56h-0.47
					c-0.14,0-0.22-0.12-0.23-0.35h-0.78l-0.94-0.14v-0.07c0-0.73,0.81-1.76,2.42-3.07C323.01,384.18,324.88,383.58,326.53,383.58z
					 M320.29,397.95v0.07l0.08,0.21h0.08v-0.21l-0.08-0.07H320.29z M320.45,397.19v0.14l0.31-0.28h-0.16L320.45,397.19z
					 M323.49,403.33l-0.16,0.21l0.16,0.14h0.08l0.08-0.28l-0.08-0.07H323.49z M324.19,405.07c0,0.14-0.13,0.28-0.39,0.42l-0.08-0.07
					h-0.08l-0.16,0.42l0.78,0.42l1.25-0.49l-0.08-0.07v-0.42l-0.23-0.07l-0.47,0.14c-0.31-0.03-0.47-0.13-0.47-0.28H324.19z
					 M323.72,406.75v0.42l0.16-0.14l-0.08-0.28H323.72z M323.8,409.61l0.31,0.21v-0.21l-0.16-0.14L323.8,409.61z M324.27,389.65
					v0.07l0.16,0.14h0.08L324.27,389.65z M326.84,406.19l-0.16,0.35h-0.16l-0.39-0.28v0.07c0.1,0.28,0.36,0.56,0.78,0.84
					c0-0.08,0.31-0.24,0.94-0.49l-0.23-0.49l-0.62,0.14L326.84,406.19z M326.29,402.84c0.13,1.81,0.62,2.72,1.48,2.72
					c0.69,0,1.08-0.84,1.17-2.51v-1.12l-0.31-2.16l0.08-1.6C327.1,398.94,326.29,400.5,326.29,402.84z M327.15,384.07v0.21h0.16
					v-0.07L327.15,384.07z M329.02,396.35l-0.08,0.35v0.07h0.08l0.86,0.07v-0.28l-0.62,0.14l-0.16-0.35H329.02z M329.1,399.42v0.21
					h0.16l0.16-0.14l-0.08-0.21h-0.08L329.1,399.42z M329.18,402.56v0.21l0.16-0.14v-0.07H329.18z M332.92,396l-0.23,0.98l0.08,0.07
					h0.47c0.35-0.04,0.69-0.2,1.01-0.49l-0.08-0.28l0.08-0.07l-0.08-0.21l-0.31-0.07L332.92,396z M333.78,409.12h0.55l0.23,0.21
					l-0.16,0.14h-0.86v-0.14L333.78,409.12z"/>
				<path class="st0" d="M346.34,403.03h1.25v0.07l-0.23,0.21l-1.01-0.14V403.03z M346.89,409.38h0.86v0.14h-0.86V409.38z
					 M359.75,380.35c1.82,0,3.59,0.56,5.3,1.68c0,0.17,0.29,0.31,0.86,0.42c1.92,1.33,2.88,3,2.88,5.03
					c0.1,0.74,0.16,1.77,0.16,3.07v1.26l-0.08,0.07v0.07l-0.78-0.14l-2.96,0.35l-0.86-0.21l-2.81,0.21h-1.25l-0.16-0.14v-0.7
					l0.31-0.07l-0.23-1.47l0.16-2.37v-0.14c0-0.86-0.29-1.4-0.86-1.6c-0.58,0-1.1,0.28-1.56,0.84c0,0.51,0.13,0.93,0.39,1.26
					l-0.62,1.47l-0.78,0.21v0.07c0.13,0,0.34,0.16,0.62,0.49l0.23-0.07v0.49l0.16,0.14l-0.39,4.96l0.23,5.58l-0.16,2.86
					c0,1.02,0.44,1.54,1.33,1.54h0.08c0.88,0,1.33-0.65,1.33-1.95l-0.23-1.81l0.39-2.23c-0.05-0.19-0.16-0.28-0.31-0.28l-1.09,0.14
					h-0.08l-0.16-0.14v-0.56l-0.16-3.84c0.92-0.23,2.46-0.4,4.6-0.49l2.03-0.07l3.74,0.14l0.08,0.07v0.07
					c-0.26,3.11-0.39,5.48-0.39,7.12v5.16c-0.16,0.45-0.29,0.69-0.39,0.7c-0.18,0-0.49-0.3-0.94-0.91l-0.7,0.14v0.07
					c0.52,0.13,0.78,0.41,0.78,0.84c-0.33,0.14-0.66,0.37-1.01,0.7l1.48,0.42c0.19-0.02,0.43-0.19,0.7-0.49h0.08l0.08,1.05
					l-0.08,0.07h-2.5c-0.79,0-1.62,0.09-2.49,0.28c-0.23-0.05-0.57-0.56-1.01-1.54l-0.08-0.07h-0.08c-1.83,1.54-3.37,2.3-4.6,2.3
					l-0.94-0.35h-0.94c-2.17-0.5-4.04-1.41-5.61-2.72c-0.23-0.27-0.7-1.13-1.4-2.58l0.16-1.12v-0.77l-0.08-0.84l0.23-4.26v-3.84
					l0.08-0.07l-0.08-0.07v-0.49l-0.16-2.37c0.04-0.6,0.14-0.91,0.31-0.91l1.09,0.28c0-0.49,0.34-0.77,1.01-0.84
					c0.17,0,0.35,0.07,0.55,0.21c0-0.6,0.31-0.91,0.94-0.91c0.44-0.37,0.88-0.56,1.33-0.56l-0.39-0.77c-0.31,0-0.52-0.23-0.62-0.7
					h-0.47l-0.23,0.14h-0.47c-0.13,0-0.21-0.09-0.23-0.28l-0.62,0.14l-0.62-0.42h-0.08c-0.2,0.14-0.38,0.21-0.55,0.21l-0.08-0.07
					H350c0.13-0.84,0.31-1.26,0.55-1.26l0.16-0.21l0.31,0.14v-0.07c0-0.14-0.16-0.21-0.47-0.21v-0.07c0.36-0.84,0.68-1.26,0.94-1.26
					c0.87-0.7,1.39-1.05,1.56-1.05C354.81,381.05,357.05,380.35,359.75,380.35z M349.85,388.1l0.23,0.07v0.14
					c-0.18,0.24-0.39,0.41-0.62,0.49v-0.07L349.85,388.1z M349.93,386.77h0.23v0.21l-0.16,0.14h-0.08V386.77z M350.55,410.78
					c0.52,0.05,0.78,0.14,0.78,0.28l-0.23,0.07l-0.7-0.21L350.55,410.78z M350.71,390.61l-0.08,0.07v0.14h0.08l0.16-0.14l-0.08-0.07
					H350.71z M351.25,385.3l-0.16,0.14v0.42l0.47-0.42v-0.14H351.25z M352.58,387.33l0.08,0.07v0.28c-0.05,0.56-0.34,0.84-0.86,0.84
					l-0.54-0.07v-0.07C351.25,387.79,351.69,387.45,352.58,387.33z M351.25,392.42v0.07l0.16,0.14l0.16-0.21v-0.07h-0.08
					L351.25,392.42z M351.87,391.38c0.08,0.19,0.16,0.28,0.23,0.28l0.16-0.14v-0.07L351.87,391.38z M351.95,390.33h0.7l0.54-0.07
					l-0.16-0.14h-0.08l-0.7,0.14l-0.08-0.21C352.11,390.05,352.03,390.14,351.95,390.33z M352.34,411.13v0.07l-0.16,0.14h-0.23
					v-0.14L352.34,411.13z M352.03,393.26v0.07c0.21,0.3,0.31,0.58,0.31,0.84h0.23v-0.07c-0.16-0.24-0.23-0.48-0.23-0.7v-0.14
					H352.03z M354.21,399.75v0.21h0.08l0.31-0.28l-0.08-0.07v-0.07L354.21,399.75z M354.76,388.24c0.25,0.22,0.43,0.5,0.55,0.84
					l0.7,0.14c-0.1-0.56-0.34-0.91-0.7-1.05L354.76,388.24z M355.07,385.79l0.08,0.07h0.08l0.23-0.21l-0.16-0.28
					C355.15,385.42,355.07,385.56,355.07,385.79z M355.46,383.63v0.07l0.08,0.21h0.23l0.16-0.14v-0.07l-0.39-0.07H355.46z
					 M355.46,393.26v0.14l0.23,0.07l0.16-0.21l-0.08-0.28L355.46,393.26z M356.01,385.65v0.07l0.08,0.07v0.07l0.31-0.21l-0.23-0.14
					L356.01,385.65z M356.24,387.47v0.14l0.16,0.14l0.16-0.14l-0.16-0.14H356.24z M358.03,410.64l0.16,0.42v0.84l0.08,0.07v0.07
					l-0.08,0.07h-0.16l-0.16-0.14v-0.7c0-0.08-0.18-0.15-0.55-0.21v-0.07C357.33,410.86,357.57,410.74,358.03,410.64z
					 M357.49,384.68l-0.08,0.28l0.08,0.07h0.23v-0.21l-0.16-0.14H357.49z M358.42,386.49l0.16,0.14l-0.08,0.07h-0.08l-0.16-0.14
					l0.08-0.07H358.42z M358.97,385.51h0.47v-0.35L358.97,385.51z M362.01,395.77l-0.16,0.14l0.08,0.21h0.16l0.16-0.14
					L362.01,395.77z M362.4,384.33l-0.08,0.07v0.07l0.16,0.14h0.08v-0.14L362.4,384.33z M363.02,385.79c0,0.23-0.21,0.49-0.62,0.77
					l0.08,0.07h0.16c0.39,0,0.6-0.07,0.62-0.21v-0.63H363.02z M363.02,388.58l0.08,0.35l2.57-0.42l-0.16-0.14l-1.09,0.21
					c-0.47-0.15-0.7-0.27-0.7-0.35l0.08-0.21l-0.08-0.07h-0.08L363.02,388.58z M363.33,408.76v0.14l0.16,0.14l0.08-0.07v-0.07
					L363.33,408.76z M363.65,390.19v0.28h0.16v-0.14L363.65,390.19z M364.43,396.05l-0.31,0.14v0.07c0.94,0.35,1.4,0.81,1.4,1.4
					l0.39-0.07l0.31,0.21l0.23-0.21c-0.26-0.12-0.39-0.3-0.39-0.56c0-0.23,0.16-0.54,0.47-0.91l-1.25,0.28l-0.08-0.07l0.08-0.07
					v-0.28l-0.08,0.07H364.43z M364.5,405.34l-0.16,0.21h0.16l0.16-0.14l-0.08-0.07H364.5z M364.74,384.68v0.14
					c0,0.07,0.1,0.14,0.31,0.21c0-0.19,0.13-0.28,0.39-0.28v-0.35c0.21-0.28,0.42-0.42,0.62-0.42v-0.07h-0.23L364.74,384.68z
					 M365.98,389v0.07l0.7,0.49v-0.21C366.49,389.35,366.26,389.24,365.98,389z M366.22,398.5l0.62,0.21c0-0.28,0.13-0.42,0.39-0.42
					v-0.07l-0.16-0.21c-0.52,0-0.78,0.07-0.78,0.21L366.22,398.5z M366.53,404.5c0,0.16,0.1,0.35,0.31,0.56l-0.31,0.14v0.07
					l1.33-0.21v-0.07c-0.47,0-0.7-0.26-0.7-0.77h-0.31L366.53,404.5z M366.76,402.54l-0.08,0.28l0.08,0.07h0.16v-0.21L366.76,402.54
					z M372.14,377.84h0.16l0.16,0.14l-0.08,0.07h-0.08l-0.16-0.14V377.84z"/>
				<path class="st0" d="M388.39,384.66c0.26,0,0.39,1.95,0.39,5.86l-0.08,0.07h-0.08l0.08,0.56l-0.08,5.3c0,2.12,0.23,4.58,0.7,7.4
					l-0.16,0.98c0.18,0.6,0.62,0.91,1.33,0.91c0.78,0,1.17-0.4,1.17-1.19v-0.35l-0.39-1.68l0.23-5.16l-0.23-3.77v-6
					c0-1.14-0.05-2.05-0.16-2.72l0.08-0.07h0.08l8.65-0.21l0.08,0.07l0.16,6.98l-0.16,6.98l0.16,0.63l-0.16,2.3
					c0.26,0.69,0.39,1.15,0.39,1.4l-0.16,0.91v0.07l0.31,1.88c-0.12,0-0.27,0.26-0.47,0.77l-3.35,0.77c0,0.1,0.13,0.17,0.39,0.21
					l0.23-0.21h0.16c0.47,0.08,0.7,0.24,0.7,0.49h0.16c0.79,0,1.52-0.07,2.18-0.21c0.16,0.22,0.23,0.52,0.23,0.91v0.49
					c0,0.51-0.18,0.77-0.54,0.77c0,0.09-1.56,0.16-4.68,0.21l-3.66-0.07l-0.23-0.35c0-0.4,0.05-0.72,0.16-0.98
					c-0.06-0.23-0.14-0.35-0.23-0.35h-0.08c-0.08,0-0.26,0.26-0.55,0.77c-1.35,1.02-2.49,1.54-3.43,1.54h-1.48
					c-2.18-0.16-3.27-0.49-3.27-0.98c-0.69-0.22-1.34-0.9-1.95-2.02c-0.47-0.84-0.7-2.3-0.7-4.4v-1.88h0.08l0.08,0.07h0.08
					l0.16-0.28c-0.26-0.04-0.39-0.1-0.39-0.21l-0.31-6.14l0.08-0.07h0.08c0.09,0.09,0.51,0.19,1.25,0.28l0.23-0.28
					c-0.47-0.14-0.7-0.49-0.7-1.05v-0.21h-0.08c0,0.51-0.29,0.77-0.86,0.77l-0.08-0.07l-0.08-3.49v-3.77l-0.16-1.95l0.08-0.07h0.08
					l1.48-0.07l1.79,0.07v0.07l-0.08,0.28h0.23v-0.14h0.08l-0.08-0.07v-0.14h2.18L388.39,384.66z M380.2,395.34l-0.16,0.21v0.14
					h0.31v-0.21L380.2,395.34z M380.52,385.99l-0.08,0.07v0.07l0.31,0.21l0.16-0.21L380.52,385.99z M381.37,401.27v0.21h0.16
					l0.08-0.21H381.37z M381.45,392.2c0.31,0.28,0.47,0.51,0.47,0.7v0.28l-0.23,0.21l0.16,0.35c0.22-0.19,0.58-0.28,1.09-0.28
					l-0.16-0.21v-0.28l0.08-0.07v-0.07h-0.23l-0.39,0.07c-0.2-0.45-0.35-0.69-0.47-0.7H381.45z M381.92,398.27v0.07l0.16,0.14
					l0.08-0.07v-0.14H381.92z M383.32,405.88l-0.08,0.07v0.07l0.08,0.07h0.23L383.32,405.88z M384.34,396.45l-0.62-0.21l-0.39,0.14
					l0.55,0.91l0.86,0.21c0.31-0.23,0.47-0.44,0.47-0.63l0.16-0.7L384.34,396.45z M383.32,400.15c0,0.1,0.31,0.17,0.94,0.21
					c0.21,0.2,0.31,0.38,0.31,0.56v0.14l-0.16,0.21l0.08,0.07v0.07c0,0.22-0.36,0.55-1.09,0.98c0.36,0,0.55,0.26,0.55,0.77
					l0.62,0.14l-0.31-0.35v-0.07h0.47l0.39,0.07c0.31-0.47,0.47-0.77,0.47-0.91v-0.07l-0.47-0.56v-0.35l0.39-0.35
					c-0.25-0.65-0.64-0.98-1.17-0.98c0-0.09-0.1-0.14-0.31-0.14C383.76,399.6,383.53,399.78,383.32,400.15z M384.1,395.06
					l-0.08,0.28h0.23v-0.07l-0.08-0.21H384.1z M386.36,393.87c-0.48-0.14-0.92-0.21-1.33-0.21h-0.23c0.26,0.28,0.39,0.49,0.39,0.63
					c-0.31,0.1-0.62,0.29-0.94,0.56v0.07h0.08l1.01-0.42l-0.08-0.07v-0.28l0.39-0.35c1.14,0.37,1.71,0.67,1.71,0.91l0.39-0.07H388
					l0.08,0.07h0.08l0.08-0.07v-0.07c-0.16-0.17-0.23-0.34-0.23-0.49v-0.14l0.08-0.35C387.48,393.59,386.91,393.69,386.36,393.87z
					 M385.43,408.04v0.14h0.08l0.16-0.14H385.43z M387.22,396.94v0.07h0.08l0.16-0.14v-0.07h-0.08L387.22,396.94z M392.44,393.87
					v0.21h0.23L392.44,393.87z M392.99,391.43v0.07c0.21,0.2,0.31,0.38,0.31,0.56v0.14c0,0.09-0.1,0.14-0.31,0.14l-0.08,0.35v0.07
					l0.7-0.14l0.7,0.21l0.23-0.49h0.08c0.3,0.37,0.53,0.56,0.7,0.56c0.74,0,1.26-0.19,1.56-0.56c0.36-0.19,0.73-0.28,1.09-0.28
					l0.86,0.28v-0.07l-0.23-0.63c-1.2,0-1.79,0.21-1.79,0.63l-0.23,0.14h-1.4l-0.47-0.28l-0.7,0.07v-0.07l0.31-0.49l-0.16-0.42
					v-0.07l0.08-0.07v-0.07h-0.08l-0.78,0.35L392.99,391.43z M392.99,394.22v0.14h0.23v-0.14H392.99z M393.3,394.85
					c0,0.09-0.08,0.14-0.23,0.14v0.21h0.31l0.08-0.28l-0.08-0.07H393.3z M394.94,395.83v0.07c0,0.33,0.18,0.49,0.55,0.49h0.08
					c0.48-0.45,1.13-0.8,1.95-1.05c0-0.09,0.08-0.14,0.23-0.14v-0.07l-0.39-0.07h-0.23c-1.25,0-1.87,0.09-1.87,0.28L394.94,395.83z
					 M396.42,397.36l0.08,0.07h0.08l0.08-0.07v-0.14h-0.08L396.42,397.36z M398.84,392.41l-0.08,0.21h0.16v-0.21H398.84z"/>
				<path class="st0" d="M420.58,384.19h0.7c3.38,0.14,5.28,0.54,5.69,1.19c0.68,0.2,1.01,0.34,1.01,0.42
					c0.23,0.45,0.75,1.01,1.56,1.68c0.83,2.02,1.25,3.26,1.25,3.7l-0.23,1.19l0.39,0.49v0.21l-0.55,0.49l0.08,1.26l-0.08,2.86
					l-0.08,0.07h-0.08l-1.79,0.07l-2.49-0.14v-0.07l0.16-0.49h-0.08c-0.48,0.42-1.13,0.63-1.95,0.63l-0.94,0.07l-0.16-0.21
					l-2.96,0.28c0,0.21-0.23,0.4-0.7,0.56c0,0.13-0.13,0.31-0.39,0.56v0.14c0.34,0,0.62,0.14,0.86,0.42v0.14
					c0,0.4-0.36,0.72-1.09,0.98c-0.16,0.33-0.39,0.49-0.7,0.49l-0.62-0.28l-0.16,0.14v0.07c0,0.17,0.31,0.29,0.94,0.35l0.39,1.33
					c0.39-0.19,0.78-0.28,1.17-0.28v0.07c-0.1,0.21-0.16,0.51-0.16,0.91v0.28c0,1.3,0.44,1.95,1.33,1.95
					c0.99-0.17,1.48-0.59,1.48-1.26c0.16-0.37,0.23-0.86,0.23-1.47v-0.56l0.16-0.14h0.16c0,0.31,0.23,0.55,0.7,0.7l0.23-0.28
					l-0.16-0.21v-0.07c0-0.42,0.16-0.63,0.47-0.63l1.25,0.14c0-0.13,0.13-0.2,0.39-0.21v-0.14c0-0.35-0.18-0.6-0.55-0.77l-0.7,0.35
					l-1.17-0.28v0.14l0.08,0.35l-0.39,0.07l0.08,0.49v0.14h-0.08c-0.23-0.08-0.42-0.22-0.55-0.42v-0.91l-0.08-0.35
					c0.12-0.09,0.3-0.14,0.54-0.14l0.08-0.35l-0.47-0.35v-0.07c0-0.09,0.52-0.19,1.56-0.28c0,0.07,0.1,0.14,0.31,0.21l0.47-0.14
					c0.3,0,0.56,0.12,0.78,0.35l-0.08,0.07v0.07c0.79,0.33,1.34,0.49,1.64,0.49l0.08,0.07v0.07l-0.7,0.63v0.07h0.23
					c0.52,0,0.78,0.21,0.78,0.63l0.39-0.07h0.23l0.23-0.56l-0.16-0.42l0.16-0.63v-0.07c0-0.28-0.21-0.42-0.62-0.42l-0.08-0.07v-0.07
					c0.27-0.09,0.82-0.14,1.64-0.14h0.7l0.23,0.14l-0.08,0.84v3.07c0,2.19-1.09,4-3.27,5.44c-2.34,1.02-4.31,1.54-5.92,1.54
					c-1.31,0-3.5-0.37-6.55-1.12c-0.4-0.19-0.61-0.37-0.62-0.56c-0.29,0-1.09-0.72-2.42-2.16l0.08-0.28l-0.62-1.81v-0.14l0.16-0.14
					h0.23l0.86,0.56l0.62-0.42c-0.42,0-0.78-0.12-1.09-0.35l-0.08,0.07h-0.62l-0.08-0.07h-0.08l0.08-1.19v-2.44
					c0-0.58,0.16-1.37,0.47-2.37l-0.08-0.07v-1.4c0.26,0,0.39-0.12,0.39-0.35c0-0.19,0.16-0.28,0.47-0.28v-0.07
					c-0.57,0-0.86-0.09-0.86-0.28l-0.08-1.26v-0.77c0-2.15,0.73-4.39,2.18-6.7c1.68-1.14,3-1.79,3.98-1.95
					C417.94,384.37,418.98,384.19,420.58,384.19z M411.22,400.38l0.47,0.49v0.35h0.62v-0.07c-0.33,0-0.53-0.28-0.62-0.84
					L411.22,400.38z M413.87,398.98v0.49c-0.26,0.16-0.39,0.37-0.39,0.63c-0.09,0.23-0.25,0.35-0.47,0.35l0.08,0.07v0.07
					c0,0.37-0.21,0.56-0.62,0.56v0.07l0.47,0.42v0.07l-0.62,0.7l0.23,0.56c1.14-0.28,1.71-0.49,1.71-0.63
					c-0.83-0.57-1.25-0.9-1.25-0.98c0-0.15,0.44-0.57,1.33-1.26c0-0.14,0.05-0.21,0.16-0.21c0.27,0.33,0.53,0.49,0.78,0.49h0.08
					l-0.08-0.07v-0.14l0.47-0.42c-0.31,0-0.47-0.05-0.47-0.14l0.08-0.21c0-0.29-0.31-0.5-0.94-0.63h-0.08L413.87,398.98z
					 M412.39,389.7v0.14l0.08,0.21h0.08v-0.14l0.08-0.07l-0.16-0.14H412.39z M413.25,383.07c0.21,0.07,0.31,0.23,0.31,0.49v0.14
					l-0.08,0.07v0.07c-0.31-0.09-0.47-0.28-0.47-0.56L413.25,383.07z M414.96,391.17l-0.16,0.14l0.08,0.21l0.23-0.07v-0.14
					L414.96,391.17z M420.03,390.47l0.08,3h2.34v-2.93c0-0.57-0.18-1.17-0.55-1.81h-0.31c-0.93,0.08-1.4,0.31-1.4,0.7L420.03,390.47
					z M423.07,385.79l0.08,0.07h0.08c0.21-0.07,0.31-0.14,0.31-0.21l-0.16-0.14h-0.08C423.23,385.51,423.15,385.61,423.07,385.79z
					 M424.24,386v0.07l0.16,0.14l0.08-0.07v-0.07L424.4,386H424.24z M427.75,380.49l0.39,0.49v0.07c-0.27,0-0.46-0.09-0.55-0.28
					v-0.14L427.75,380.49z M427.75,388.45c0.05,0.51,0.13,0.77,0.23,0.77h0.08v-0.14h0.08l-0.08-0.07v-0.63h-0.16l-0.08,0.07H427.75
					z M428.61,382.72c0.57,0.07,0.86,0.19,0.86,0.35v0.14h-0.16C428.84,383.21,428.61,383.05,428.61,382.72z M429.07,395.28v0.07
					c0.03,0.09,0.16,0.19,0.39,0.28v-0.07l-0.23-0.28H429.07z M430.87,395.08h0.08l0.39,0.28l-0.08,0.07h-0.39l-0.16-0.14v-0.07
					L430.87,395.08z M431.8,392.35l0.16,0.14v0.14l-0.23,0.21h-0.08l-0.16-0.14C431.6,392.49,431.7,392.38,431.8,392.35z"/>
				<path class="st0" d="M454.77,383.07l0.16,0.28l-0.31,6.28v1.61l0.08,0.7l-2.57,0.49c-1.09,0.31-1.64,0.66-1.64,1.05
					c-0.68,0-1.01,1.3-1.01,3.91v0.63c-0.21,0-0.31,0.05-0.31,0.14c0.26,0.07,0.39,0.23,0.39,0.49v0.98l-0.08,0.07v0.07l-0.08-0.07
					h-0.55l-0.23,0.14l-0.31-0.07l-0.16,0.14h-0.78l-0.31-0.28v-0.35l0.23-0.21h0.55l0.16-0.35h-0.78c-0.68,0-1.01,0.07-1.01,0.21
					v0.63l-0.08,0.07c-0.17,0.08-0.33,0.31-0.47,0.7c-0.29,0.23-0.6,0.35-0.94,0.35h-0.23c-0.78,0-1.17-0.12-1.17-0.35h-0.08
					c-0.1,0-0.16,0.16-0.16,0.49c-0.36,0.13-0.6,0.38-0.7,0.77H443c0.27-0.19,0.51-0.28,0.7-0.28h0.08c0.42,0.06,0.62,0.2,0.62,0.42
					l-0.23,0.42h0.7c0,0.14,0.05,0.21,0.16,0.21c0.14-0.1,0.66-0.22,1.56-0.35l-0.23-0.98c0.01-0.1,0.51-0.41,1.48-0.91h0.16v0.56
					c0.26,0.37,0.52,0.58,0.78,0.63l0.08,0.07l0.08-0.07v-0.07c-0.36-0.12-0.55-0.4-0.55-0.84l0.7-0.28
					c0.36,0.08,0.55,0.17,0.55,0.28v0.42c0,0.15-0.08,0.31-0.23,0.49c0.21,0,0.31,0.21,0.31,0.63v0.07c0,1.9,0.1,4.25,0.31,7.05
					c-2.1,0.33-4.03,0.49-5.77,0.49h-2.73l-0.08-0.07h-0.08c-0.16-7.33-0.34-12.1-0.55-14.31l0.7-4.54l-0.16-0.98l0.16-4.05
					l-0.08-0.7c0-0.2,0.1-0.43,0.31-0.7l8.34-0.28l0.08,0.07v0.07l-0.31,2.37l1.25-1.75c0.23-0.19,0.47-0.28,0.7-0.28
					c0-0.29,0.26-0.45,0.78-0.49c0.26-0.35,0.96-0.63,2.1-0.84H454.77z M441.83,393.19l0.08,0.21l0.31-0.21H441.83z M442.38,398.08
					v0.07l0.16,0.14h0.08v-0.07l-0.16-0.14H442.38z M442.85,384.54v0.07h0.08l0.08-0.28C442.9,384.33,442.85,384.4,442.85,384.54z
					 M443.08,397.87l-0.16,0.28l0.23,0.14h0.08l0.08-0.28L443.08,397.87z M443.86,402.68v0.14l0.16,0.14h0.16v-0.14l-0.16-0.14
					H443.86z M444.56,385.93l0.16,0.14h0.23V386l-0.23-0.21L444.56,385.93z M445.26,393.33v0.07l0.47-0.07l-0.16-0.21
					C445.37,393.19,445.26,393.26,445.26,393.33z M445.42,397.38v0.07h0.08c0-0.19,0.08-0.28,0.23-0.28v-0.14
					C445.63,397.05,445.52,397.17,445.42,397.38z M446.12,393.96l0.31,0.91h0.08l0.31-0.21l-0.23-0.42l0.08-0.63L446.12,393.96z
					 M447.99,393.05v0.07l0.16,0.14h0.08l0.08-0.07h0.08l-0.23-0.28L447.99,393.05z M452.9,381.33l0.16,0.21v0.07l-0.16,0.14
					l-0.16-0.35l0.08-0.07H452.9z M453.92,381.61l0.23,0.21v0.14l-0.16,0.14h-0.16l-0.08-0.07h-0.08
					C453.75,381.74,453.82,381.61,453.92,381.61z M454.77,381.81c0.29,0.08,0.49,0.2,0.62,0.35l-0.23,0.14
					c-0.42-0.06-0.62-0.15-0.62-0.28L454.77,381.81z"/>
				<path class="st0" d="M478.87,383.07l0.16,0.28l-0.31,6.28v1.61l0.08,0.7l-2.57,0.49c-1.09,0.31-1.64,0.66-1.64,1.05
					c-0.68,0-1.01,1.3-1.01,3.91v0.63c-0.21,0-0.31,0.05-0.31,0.14c0.26,0.07,0.39,0.23,0.39,0.49v0.98l-0.08,0.07v0.07l-0.08-0.07
					h-0.55l-0.23,0.14l-0.31-0.07l-0.16,0.14h-0.78l-0.31-0.28v-0.35l0.23-0.21h0.55l0.16-0.35h-0.78c-0.68,0-1.01,0.07-1.01,0.21
					v0.63l-0.08,0.07c-0.17,0.08-0.33,0.31-0.47,0.7c-0.29,0.23-0.6,0.35-0.94,0.35h-0.23c-0.78,0-1.17-0.12-1.17-0.35h-0.08
					c-0.1,0-0.16,0.16-0.16,0.49c-0.36,0.13-0.6,0.38-0.7,0.77h0.62c0.27-0.19,0.51-0.28,0.7-0.28h0.08
					c0.42,0.06,0.62,0.2,0.62,0.42l-0.23,0.42h0.7c0,0.14,0.05,0.21,0.16,0.21c0.14-0.1,0.66-0.22,1.56-0.35l-0.23-0.98
					c0.01-0.1,0.51-0.41,1.48-0.91h0.16v0.56c0.26,0.37,0.52,0.58,0.78,0.63l0.08,0.07l0.08-0.07v-0.07
					c-0.36-0.12-0.55-0.4-0.55-0.84l0.7-0.28c0.36,0.08,0.55,0.17,0.55,0.28v0.42c0,0.15-0.08,0.31-0.23,0.49
					c0.21,0,0.31,0.21,0.31,0.63v0.07c0,1.9,0.1,4.25,0.31,7.05c-2.1,0.33-4.03,0.49-5.77,0.49h-2.73l-0.08-0.07h-0.08
					c-0.16-7.33-0.34-12.1-0.55-14.31l0.7-4.54l-0.16-0.98l0.16-4.05l-0.08-0.7c0-0.2,0.1-0.43,0.31-0.7l8.34-0.28l0.08,0.07v0.07
					l-0.31,2.37l1.25-1.75c0.23-0.19,0.47-0.28,0.7-0.28c0-0.29,0.26-0.45,0.78-0.49c0.26-0.35,0.96-0.63,2.1-0.84H478.87z
					 M465.93,393.19l0.08,0.21l0.31-0.21H465.93z M466.48,398.08v0.07l0.16,0.14h0.08v-0.07l-0.16-0.14H466.48z M466.95,384.54v0.07
					h0.08l0.08-0.28C467,384.33,466.95,384.4,466.95,384.54z M467.18,397.87l-0.16,0.28l0.23,0.14h0.08l0.08-0.28L467.18,397.87z
					 M467.96,402.68v0.14l0.16,0.14h0.16v-0.14l-0.16-0.14H467.96z M468.66,385.93l0.16,0.14h0.23V386l-0.23-0.21L468.66,385.93z
					 M469.36,393.33v0.07l0.47-0.07l-0.16-0.21C469.47,393.19,469.36,393.26,469.36,393.33z M469.52,397.38v0.07h0.08
					c0-0.19,0.08-0.28,0.23-0.28v-0.14C469.73,397.05,469.62,397.17,469.52,397.38z M470.22,393.96l0.31,0.91h0.08l0.31-0.21
					l-0.23-0.42l0.08-0.63L470.22,393.96z M472.09,393.05v0.07l0.16,0.14h0.08l0.08-0.07h0.08l-0.23-0.28L472.09,393.05z
					 M477,381.33l0.16,0.21v0.07l-0.16,0.14l-0.16-0.35l0.08-0.07H477z M478.02,381.61l0.23,0.21v0.14l-0.16,0.14h-0.16l-0.08-0.07
					h-0.08C477.85,381.74,477.92,381.61,478.02,381.61z M478.87,381.81c0.29,0.08,0.49,0.2,0.62,0.35l-0.23,0.14
					c-0.42-0.06-0.62-0.15-0.62-0.28L478.87,381.81z"/>
				<path class="st0" d="M498.96,384.19h0.7c3.38,0.14,5.28,0.54,5.69,1.19c0.68,0.2,1.01,0.34,1.01,0.42
					c0.23,0.45,0.75,1.01,1.56,1.68c0.83,2.02,1.25,3.26,1.25,3.7l-0.23,1.19l0.39,0.49v0.21l-0.55,0.49l0.08,1.26l-0.08,2.86
					l-0.08,0.07h-0.08l-1.79,0.07l-2.49-0.14v-0.07l0.16-0.49h-0.08c-0.48,0.42-1.13,0.63-1.95,0.63l-0.94,0.07l-0.16-0.21
					l-2.96,0.28c0,0.21-0.23,0.4-0.7,0.56c0,0.13-0.13,0.31-0.39,0.56v0.14c0.34,0,0.62,0.14,0.86,0.42v0.14
					c0,0.4-0.36,0.72-1.09,0.98c-0.16,0.33-0.39,0.49-0.7,0.49l-0.62-0.28l-0.16,0.14v0.07c0,0.17,0.31,0.29,0.94,0.35l0.39,1.33
					c0.39-0.19,0.78-0.28,1.17-0.28v0.07c-0.1,0.21-0.16,0.51-0.16,0.91v0.28c0,1.3,0.44,1.95,1.33,1.95
					c0.99-0.17,1.48-0.59,1.48-1.26c0.16-0.37,0.23-0.86,0.23-1.47v-0.56l0.16-0.14h0.16c0,0.31,0.23,0.55,0.7,0.7l0.23-0.28
					l-0.16-0.21v-0.07c0-0.42,0.16-0.63,0.47-0.63l1.25,0.14c0-0.13,0.13-0.2,0.39-0.21v-0.14c0-0.35-0.18-0.6-0.55-0.77l-0.7,0.35
					l-1.17-0.28v0.14l0.08,0.35l-0.39,0.07l0.08,0.49v0.14h-0.08c-0.23-0.08-0.42-0.22-0.55-0.42v-0.91l-0.08-0.35
					c0.12-0.09,0.3-0.14,0.54-0.14l0.08-0.35l-0.47-0.35v-0.07c0-0.09,0.52-0.19,1.56-0.28c0,0.07,0.1,0.14,0.31,0.21l0.47-0.14
					c0.3,0,0.56,0.12,0.78,0.35l-0.08,0.07v0.07c0.79,0.33,1.34,0.49,1.64,0.49l0.08,0.07v0.07l-0.7,0.63v0.07h0.23
					c0.52,0,0.78,0.21,0.78,0.63l0.39-0.07h0.23l0.23-0.56l-0.16-0.42l0.16-0.63v-0.07c0-0.28-0.21-0.42-0.62-0.42l-0.08-0.07v-0.07
					c0.27-0.09,0.82-0.14,1.64-0.14h0.7l0.23,0.14l-0.08,0.84v3.07c0,2.19-1.09,4-3.27,5.44c-2.34,1.02-4.31,1.54-5.92,1.54
					c-1.31,0-3.5-0.37-6.55-1.12c-0.4-0.19-0.61-0.37-0.62-0.56c-0.29,0-1.09-0.72-2.42-2.16l0.08-0.28l-0.62-1.81v-0.14l0.16-0.14
					h0.23l0.86,0.56l0.62-0.42c-0.42,0-0.78-0.12-1.09-0.35l-0.08,0.07h-0.62l-0.08-0.07h-0.08l0.08-1.19v-2.44
					c0-0.58,0.16-1.37,0.47-2.37l-0.08-0.07v-1.4c0.26,0,0.39-0.12,0.39-0.35c0-0.19,0.16-0.28,0.47-0.28v-0.07
					c-0.57,0-0.86-0.09-0.86-0.28l-0.08-1.26v-0.77c0-2.15,0.73-4.39,2.18-6.7c1.68-1.14,3-1.79,3.98-1.95
					C496.32,384.37,497.36,384.19,498.96,384.19z M489.6,400.38l0.47,0.49v0.35h0.62v-0.07c-0.33,0-0.53-0.28-0.62-0.84
					L489.6,400.38z M492.25,398.98v0.49c-0.26,0.16-0.39,0.37-0.39,0.63c-0.09,0.23-0.25,0.35-0.47,0.35l0.08,0.07v0.07
					c0,0.37-0.21,0.56-0.62,0.56v0.07l0.47,0.42v0.07l-0.62,0.7l0.23,0.56c1.14-0.28,1.71-0.49,1.71-0.63
					c-0.83-0.57-1.25-0.9-1.25-0.98c0-0.15,0.44-0.57,1.33-1.26c0-0.14,0.05-0.21,0.16-0.21c0.27,0.33,0.53,0.49,0.78,0.49h0.08
					l-0.08-0.07v-0.14l0.47-0.42c-0.31,0-0.47-0.05-0.47-0.14l0.08-0.21c0-0.29-0.31-0.5-0.94-0.63h-0.08L492.25,398.98z
					 M490.77,389.7v0.14l0.08,0.21h0.08v-0.14l0.08-0.07l-0.16-0.14H490.77z M491.63,383.07c0.21,0.07,0.31,0.23,0.31,0.49v0.14
					l-0.08,0.07v0.07c-0.31-0.09-0.47-0.28-0.47-0.56L491.63,383.07z M493.35,391.17l-0.16,0.14l0.08,0.21l0.23-0.07v-0.14
					L493.35,391.17z M498.41,390.47l0.08,3h2.34v-2.93c0-0.57-0.18-1.17-0.55-1.81h-0.31c-0.93,0.08-1.4,0.31-1.4,0.7L498.41,390.47
					z M501.45,385.79l0.08,0.07h0.08c0.21-0.07,0.31-0.14,0.31-0.21l-0.16-0.14h-0.08C501.61,385.51,501.53,385.61,501.45,385.79z
					 M502.62,386v0.07l0.16,0.14l0.08-0.07v-0.07l-0.08-0.07H502.62z M506.13,380.49l0.39,0.49v0.07c-0.27,0-0.46-0.09-0.55-0.28
					v-0.14L506.13,380.49z M506.13,388.45c0.05,0.51,0.13,0.77,0.23,0.77h0.08v-0.14h0.08l-0.08-0.07v-0.63h-0.16l-0.08,0.07H506.13
					z M506.99,382.72c0.57,0.07,0.86,0.19,0.86,0.35v0.14h-0.16C507.22,383.21,506.99,383.05,506.99,382.72z M507.46,395.28v0.07
					c0.03,0.09,0.16,0.19,0.39,0.28v-0.07l-0.23-0.28H507.46z M509.25,395.08h0.08l0.39,0.28l-0.08,0.07h-0.39l-0.16-0.14v-0.07
					L509.25,395.08z M510.18,392.35l0.16,0.14v0.14l-0.23,0.21h-0.08l-0.16-0.14C509.98,392.49,510.08,392.38,510.18,392.35z"/>
				<path class="st0" d="M519.06,387.4l0.08,0.21c-0.1,0.21-0.21,0.33-0.31,0.35l-0.08-0.07v-0.07
					C518.87,387.54,518.97,387.4,519.06,387.4z M519.06,386.63l0.16,0.21c-0.07,0.23-0.14,0.35-0.23,0.35h-0.08v-0.42L519.06,386.63
					z M519.14,384.26l0.08,0.07v0.21h-0.08l-0.16-0.14L519.14,384.26z M528.34,383.98c1.35,0,2.86,0.26,4.52,0.77
					c0.2,0.36,0.79,0.69,1.79,0.98c0,0.15,0.39,0.5,1.17,1.05c0.94,1.1,1.4,2.83,1.4,5.16c0,0.55-0.05,0.92-0.16,1.12l-4.05,0.07
					h-0.08c-1.58,0-2.73-0.12-3.43-0.35c0.1-0.2,0.16-0.57,0.16-1.12v-0.77c-0.12-1.35-0.27-2.02-0.47-2.02h-0.86
					c-0.62,0-0.99,0.54-1.09,1.6c0,1.57,0.7,2.59,2.1,3.07l0.39,0.28h0.08c0.16-0.05,0.23-0.19,0.23-0.42h0.08
					c0.07,0,0.2,0.37,0.39,1.12c1.55,0.83,2.58,1.29,3.12,1.4c0,0.2,0.49,0.41,1.48,0.63c0.03,0.23,0.52,0.58,1.48,1.05
					c0.31,0.19,0.78,1.28,1.4,3.28c0,0.76,0.08,1.57,0.23,2.44v0.28c0,0.4-0.05,0.7-0.16,0.91l0.08,0.21c-0.74,2-1.21,3-1.4,3
					c-1.39,1.21-2.2,1.81-2.42,1.81l-3.59,0.7l-1.25,0.07h-0.62c-3.26,0-6.02-1.07-8.26-3.21l-0.55-2.79
					c-0.09,0-0.17-0.26-0.23-0.77l0.08-2.02l-0.08-0.77l2.03-0.14h0.39c3.22,0.09,4.83,0.26,4.83,0.49c0.16,1.93,0.42,3.3,0.78,4.12
					c0.22,0.23,0.58,0.35,1.09,0.35c0.36,0,0.78-0.3,1.25-0.91l-0.08-0.07v-0.42c0-0.15,0.08-0.31,0.23-0.49
					c0-1.57-0.68-2.5-2.03-2.79c-0.13,0-1.95-1.14-5.46-3.42c-2.39-1.2-3.59-2.92-3.59-5.16v-0.56l0.16-1.33l-0.08-0.07h-0.08
					c0-1.99,0.75-3.69,2.26-5.1C523.43,384.4,525.69,383.98,528.34,383.98z M519.69,395.91h0.39v0.14h-0.39V395.91z M520.23,401.22
					v0.28h0.08v-0.28H520.23z M526.23,387.89v0.07l0.39,0.07h0.16v-0.14H526.23z M532.63,383.49h0.16l0.08,0.63h-0.16l-0.16-0.14
					v-0.14L532.63,383.49z"/>
				<path class="st0" d="M548.6,378.81c0.67,0.19,1.33,0.28,1.95,0.28h4.6c1.3,0,1.95,0.09,1.95,0.28v1.95l0.08,1.47
					c-0.05,0.37-0.26,0.56-0.62,0.56h-0.08l-1.48-0.21l-1.17,0.21l-3.59-0.56l-1.33,0.14c-0.31-0.05-0.47-0.12-0.47-0.21v-3.77
					L548.6,378.81z M548.76,384.47h2.88l0.39,0.07l0.47-0.07h1.87c1.97,0,2.96,0.09,2.96,0.28v2.23l-0.08,1.54l0.08,2.02v7.4
					l0.47,10.61v1.26l-0.16,0.14h-0.7l-2.88,0.21l-2.11-0.14l-0.08-0.07v-0.14c0.16,0,0.23-0.05,0.23-0.14
					c0-0.15-0.13-0.43-0.39-0.84c-0.35,0.19-0.66,0.28-0.94,0.28l-0.39-0.28c0,0.33-0.18,0.49-0.55,0.49h-0.16
					c-0.52-0.24-0.78-0.48-0.78-0.7c-0.16,0-0.26-0.35-0.31-1.05l0.08-1.95l0.16-0.14c-0.13,0-0.21-0.09-0.23-0.28l0.08-14.24
					l-0.16-4.75l0.16-1.33l-0.16-0.14v-0.07L548.76,384.47z M549.38,396.05c0,0.33-0.1,0.49-0.31,0.49v0.14l0.31,0.07
					c0-0.12,0.1-0.28,0.31-0.49L549.38,396.05z M549.22,390.26h0.39v-0.28h-0.08L549.22,390.26z M549.3,379.44v0.07l1.25,0.21
					l0.23-0.49h-0.23C550.11,379.37,549.69,379.44,549.3,379.44z M549.61,404.99l-0.08,0.07v0.07l0.08,0.07h0.31v-0.14
					L549.61,404.99z M550.86,409.59l0.55,0.21v0.14c-0.42-0.04-0.62-0.1-0.62-0.21l0.08-0.07V409.59z M552.34,394.38
					c0,0.19-0.26,0.42-0.78,0.7v0.14l0.23-0.07l0.39,0.21c0.1-0.19,0.26-0.28,0.47-0.28v-0.49L552.34,394.38z M551.64,405.41v0.21
					l0.23,0.07l0.08-0.07v-0.07l-0.16-0.14H551.64z M551.64,406.45l0.23,0.21l0.23-0.14l-0.08-0.21h-0.23L551.64,406.45z
					 M551.88,393.75c0.09,0.09,0.61,0.19,1.56,0.28l0.08-0.21c0-0.28-0.16-0.42-0.47-0.42h-0.08
					C552.24,393.4,551.88,393.52,551.88,393.75z M553.82,410.57l0.08,0.07v0.07l-0.08,0.07h-0.08l-0.08-0.07v-0.07l0.08-0.07H553.82
					z M554.68,406.87l-0.08,0.07v0.07l0.39,0.21v-0.14l0.08-0.07l-0.08-0.07L554.68,406.87z M555.93,410.78v0.14l-0.16,0.14h-0.08
					l-0.16-0.14L555.93,410.78z"/>
				<path class="st0" d="M568.22,406.59v0.14l-0.47,0.07l-0.08-0.07v-0.07l0.08-0.07H568.22z M572.27,402.89h2.34
					c0.17,0,0.3,0.49,0.39,1.47h-0.08l0.55,4.12v0.91l-0.08,0.07v0.07c-0.73,0-2-0.14-3.82-0.42l-1.95,0.07
					c-0.68-0.08-1.01-0.17-1.01-0.28v-1.75c0-0.15-0.08-0.31-0.23-0.49v-0.07h0.23v-0.77l-0.16-2.58
					C568.45,403.11,569.73,403,572.27,402.89z"/>
				<path class="st0" d="M597.48,384.82c2.74,0,4.95,0.77,6.63,2.3c0.17,0,0.38,0.28,0.62,0.84c0.52,0.69,0.78,1.36,0.78,2.02v0.07
					h-0.08c-0.62-0.4-0.94-0.65-0.94-0.77h-0.55l-0.86,0.28l-0.39-0.35h-0.16c-0.88,0-1.33,0.28-1.33,0.84l0.08,0.21l0.39-0.07h0.23
					c0.75,0,1.58,0.14,2.5,0.42l0.08-0.07h0.47c0.1,0,0.16,0.07,0.16,0.21l0.39-0.07c0.26,0,0.39,0.86,0.39,2.58l0.16,1.26
					l-0.08,0.07l-1.71-0.07h-1.4c-0.1,0-0.16-0.12-0.16-0.35c-0.44,0-0.88-0.16-1.33-0.49v-0.07l0.08-0.35
					c-1.1-0.28-1.81-0.42-2.1-0.42l-0.7,0.07l0.08,0.7l-0.39,0.35c0.49,0,0.88,0.19,1.17,0.56l-1.87,0.21l-0.16-0.21l0.47-3.14
					c-0.19-1.3-0.61-1.95-1.25-1.95h-0.47c-0.47,0.17-0.7,0.59-0.7,1.26v1.47c0,0.74-0.1,1.12-0.31,1.12h-0.16v0.07
					c0.21,0,0.31,0.05,0.31,0.14v1.12l0.08,0.7l-0.31,0.14c0-0.6-0.26-0.91-0.78-0.91l-0.7-0.14l-0.08,0.21
					c0,0.74,0.29,1.12,0.86,1.12l0.62,0.07h0.31l0.16,0.14v2.44h-0.16c0-0.14-0.05-0.21-0.16-0.21h-0.94c-0.3,0-0.61-0.12-0.94-0.35
					l0.31-0.63c0-0.27-0.29-0.45-0.86-0.56c-0.52,0-0.78,0.28-0.78,0.84c0,0.15,0.26,0.29,0.78,0.42c0,0.19,0.08,0.28,0.23,0.28
					l0.39,0.35c-0.17,0.42-0.51,0.63-1.01,0.63h-0.62l-0.39-0.07c0,0.15,0.36,0.24,1.09,0.28c0.53,0.33,1.21,0.49,2.03,0.49
					c0.42,0.24,0.62,0.55,0.62,0.91v0.21c0,0.12-0.29,0.23-0.86,0.35l-0.78-0.07h-1.17c-0.26,0-0.75,0.23-1.48,0.7h-0.55
					c-0.48-0.42-0.95-0.63-1.4-0.63h-0.08v0.07c0.18,0,0.6,0.26,1.25,0.77v0.28l-0.08,0.07v0.07l0.39-0.07h0.78
					c0.27,0,0.69,0.14,1.25,0.42l0.47-0.35h0.08l0.62,0.07l-0.16-0.21v-0.07h0.08l1.95-0.42h0.31c0.17,0.05,0.35,0.28,0.55,0.7
					c0.21,0,0.31,0.14,0.31,0.42l1.09,0.14h0.47c0.14,0,0.25-0.33,0.31-0.98l-0.08-1.33h0.16c0.21,0.09,0.31,0.21,0.31,0.35h0.16
					l1.09-0.77v-0.42h-0.08l-1.56,0.07v-0.42l0.23-0.21l2.5,0.07l2.42-0.07l0.47-0.28c0.27,0.13,1.03,0.27,2.26,0.42
					c0.1,0.21,0.16,0.51,0.16,0.91v0.7c-0.22,2.56-0.48,3.84-0.78,3.84c-0.36,0.42-0.62,0.93-0.78,1.54
					c-0.47,0.16-0.7,0.44-0.7,0.84c-1.57,1.63-2.82,2.44-3.74,2.44l-3.59,0.42l-1.4-0.28l-0.39,0.14l-2.18-0.49v-0.07l0.62-0.56
					v-0.07c-1,0.33-1.75,0.49-2.26,0.49h-0.08v-0.14l0.31-0.07l-1.25-0.98v-0.07h0.55c0.97,0,1.65-0.19,2.03-0.56l0.39,0.14
					c0.67-0.31,1.04-0.55,1.09-0.7c-0.1,0-0.23-0.19-0.39-0.56c-0.25,0.14-0.58,0.21-1.01,0.21h-0.62l-0.78-0.07
					c-0.31,0.37-0.81,0.56-1.48,0.56c-0.53,0-0.95-0.19-1.25-0.56l0.08-0.56c-0.51-0.16-0.84-1.09-1.01-2.79
					c0.1-0.09,0.31-0.14,0.62-0.14l0.08-0.07c0.36-0.04,0.55-0.1,0.55-0.21c-0.88,0-1.33-0.14-1.33-0.42l-0.78-3.21l0.08-0.07h0.08
					c0.65,0,1.2,0.19,1.64,0.56h1.09c0.29,0,0.49-0.23,0.62-0.7l0.47-0.07v-0.07h-0.08l-1.25,0.07l-1.48-0.14
					c-0.14,0.09-0.53,0.19-1.17,0.28c-0.1-0.21-0.18-0.93-0.23-2.16l0.08-3.21l-0.16-1.33c0.26-0.45,0.49-1.69,0.7-3.7
					c2.58-2.56,5.29-3.84,8.11-3.84L597.48,384.82z M589.53,389.63v0.14h0.08l0.7-0.21v-0.07h-0.23L589.53,389.63z M589.69,407.71
					h0.08c0.21,0.07,0.31,0.14,0.31,0.21v0.14H590l-0.31-0.28V407.71z M593.2,394.31l0.08,0.21h0.08l0.16-0.14v-0.07h-0.16
					l-0.08-0.07L593.2,394.31z M596.24,403.38v0.07c0.13,1.35,0.6,2.02,1.4,2.02h0.16c0.47,0,0.8-0.6,1.01-1.81l-0.47-0.14h-0.94
					L596.24,403.38z M601.23,386.63v0.07l0.16,0.14h0.08v-0.21H601.23z M601.77,391.52v0.07H602l0.55-0.07v-0.07h-0.39
					L601.77,391.52z M603.1,400.59v0.07l0.31,0.28v-0.14h0.08c-0.07-0.23-0.14-0.35-0.23-0.35L603.1,400.59z M603.41,406.1h0.08
					l0.16-0.14h-0.08L603.41,406.1z M604.03,405.54l0.16,0.35h0.16v-0.14h0.08c-0.08-0.19-0.16-0.28-0.23-0.28l-0.08,0.07H604.03z
					 M605.59,401.57c0.08,0.19,0.16,0.28,0.23,0.28l0.08-0.07v-0.07l-0.16-0.14H605.59z M605.82,402.33v0.07l0.23-0.21v-0.07
					L605.82,402.33z"/>
				<path class="st0" d="M624.41,383.77c0.43,0.14,0.79,0.21,1.09,0.21l0.7-0.14h0.23c2.07,0.07,4.04,0.47,5.92,1.19
					c1.53,0.95,2.55,1.86,3.04,2.72c0.34,0,0.57,0.86,0.7,2.58l0.31,2.09l-0.08,0.07l-0.31-0.14c-1.09,0.14-1.64,0.26-1.64,0.35
					c0,0.09-0.18,0.3-0.55,0.63v0.14l0.55,0.07h0.39v0.35c0.31,0.28,0.47,0.56,0.47,0.84l0.47-0.14h0.08c0.57,0,0.86,0.26,0.86,0.77
					v0.7c0,0.07-0.21,0.16-0.62,0.28v0.21h0.47l0.16,0.14v1.12l-0.55-0.07l-0.62,0.07c0,0.51,0.31,0.77,0.94,0.77l0.16,0.14
					l-0.08,0.84l0.55,3.14v0.63c-0.12,1.55-1.13,3.29-3.04,5.23c-2.04,1.16-4.38,1.74-7.02,1.74h-0.39v-0.07l0.08-0.21h-0.08
					l-0.08-0.07l-0.31,0.14l0.08,0.07v0.14h-0.31c-2.18,0-4.21-0.6-6.08-1.81c-0.78-0.56-1.17-0.95-1.17-1.19
					c0-0.3-0.18-0.58-0.55-0.84l-1.09-3.49v-0.07l0.16-0.42v-0.14c-0.36-0.7-0.55-1.79-0.55-3.28l0.23-4.96l-0.08-2.58l0.23-0.35
					l-0.23-0.49c0.52-2.13,1.12-3.5,1.79-4.12c0.09,0,0.43-0.35,1.01-1.05c0.57-0.17,0.93-0.41,1.09-0.7
					c0.18-0.21,0.94-0.42,2.26-0.63C623.19,384.05,623.65,383.91,624.41,383.77z M619.89,402.61l-1.4,0.77
					c0.26,0.35,0.39,0.6,0.39,0.77v0.35l-0.54,0.63v0.21h0.23c0.35-0.7,0.79-1.05,1.33-1.05h0.39c0.94,0,1.4,0.21,1.4,0.63
					c0.55,0.13,0.94,0.36,1.17,0.7l-0.08,0.56c0.4,0.33,0.71,0.49,0.94,0.49l0.54-0.14v-0.21c-0.16,0-0.23-0.07-0.23-0.21
					c-0.52-0.04-0.78-0.24-0.78-0.63v-0.35l0.23-0.7l-0.62-0.07v-0.07c0.23-0.28,0.44-0.42,0.62-0.42l-0.16-0.14h-0.23l-0.23,0.14
					h-0.39c0,0.31-0.13,0.52-0.39,0.63h-0.16c-0.42,0-0.62-0.19-0.62-0.56l0.08-0.35c-0.52-0.27-0.78-0.57-0.78-0.91h-0.16
					L619.89,402.61z M618.64,388.51v0.07h0.16c0.42-0.08,0.62-0.17,0.62-0.28v-0.14h-0.08L618.64,388.51z M622.15,402.75v0.07
					l0.39,0.28h0.08C622.52,402.93,622.37,402.81,622.15,402.75z M622.93,401.36c0,0.28-0.13,0.42-0.39,0.42v0.42l0.7,0.35
					c0-0.19,0.18-0.44,0.54-0.77v-0.07l-0.08-0.35H622.93z M623.32,396.54h0.31l-0.16-0.14L623.32,396.54z M625.27,391.38v1.12
					l0.31,0.91l-0.16,1.05l0.39,7.75c0.19,0,0.32,0.95,0.39,2.86l0.31,0.35h0.62c0.73,0,1.14-0.42,1.25-1.26v-0.7l-0.23-3.07v-1.12
					l-0.47-3.35l0.08-0.49v-0.07h0.16v-0.14h-0.16v-0.07l0.16-0.14l0.23,0.21l0.08-0.07h0.16c0.47,0,0.7,0.19,0.7,0.56v0.14h0.08
					c0-0.51,0.57-0.77,1.72-0.77c0.26,0,0.47-0.12,0.62-0.35c-0.1-0.21-0.16-0.51-0.16-0.91v-0.14h-0.31
					c-0.23,0.28-0.54,0.42-0.94,0.42l-0.08-0.07c0,0.15-0.16,0.29-0.47,0.42c-0.22,0.37-0.46,0.56-0.7,0.56
					c-0.19,0-0.46-0.14-0.78-0.42l-0.31,0.07v-1.26l0.31-0.21l0.23,0.07c0-0.1,0.21-0.22,0.62-0.35v-0.07l-1.17-0.21l0.08-0.07
					v-2.23c0-1.12-0.42-1.68-1.25-1.68c-0.73,0-1.09,0.3-1.09,0.91C625.37,389.56,625.29,390.17,625.27,391.38z M628.46,396.05v0.35
					h0.08c0.16,0,0.31-0.14,0.47-0.42L628.46,396.05z M628.54,399.68l0.23,0.21h0.16v-0.14h0.08l-0.08-0.21h-0.23L628.54,399.68z
					 M628.54,400.52v0.07l0.94,0.14c-0.08-0.19-0.26-0.28-0.55-0.28L628.54,400.52z M631.81,397.73v0.07h0.08
					c0.68-0.19,1.51-0.3,2.5-0.35c-0.26-0.6-0.44-0.91-0.55-0.91h-0.16c-0.88,0-1.33,0.19-1.33,0.56
					C632.23,397.52,632.05,397.73,631.81,397.73z M633.84,398.7l0.08,0.07h0.23l-0.08-0.21H634L633.84,398.7z M636.41,393.33
					l0.16,0.84h-0.16c-0.13,0-0.23-0.21-0.31-0.63L636.41,393.33z"/>
				<path class="st0" d="M671.35,383.77l0.55,0.02c2.09,0.03,3.84,1.06,5.24,3.09c0.2,0.59,0.38,1.73,0.57,3.42
					c0.12,0,0.19,0.35,0.21,1.05l-0.02,0.14c0,0.09-0.08,0.14-0.23,0.14c0.16,0.16,0.23,0.44,0.21,0.84l-0.04,2.44l0.35,2.46
					l-0.21,6.47l0.21,0.65l-0.16,0.12v0.07l0.43,1.9v0.14h-0.08l-0.31-0.21l-0.31-0.02l-0.39,0.28h-0.23l-0.31-0.09l-0.31,0.07
					h-0.23c-0.46-0.29-0.89-0.44-1.31-0.44l-0.18,0.21c0.87,0.38,1.47,0.58,1.79,0.58v0.28l0.62-0.12c0.78,0.1,1.16,0.23,1.15,0.37
					l-0.08,0.42l0.21,1.4c-0.01,0.22-1.14,0.31-3.37,0.28h-0.86c-0.34-0.37-0.59-0.56-0.76-0.58l-0.25,0.35l0.31,0.07v0.14h-0.23
					c-2.34-0.03-3.5-0.19-3.49-0.47l0.12-1.95l-0.29-1.19l0.08-0.07v-0.07c-0.31-0.24-0.45-1.34-0.41-3.28l0.02-0.84l0.1-1.4h0.47
					c0.27,0.2,0.56,0.3,0.86,0.3l0.55-0.07v-0.07c-0.16,0-0.28-0.14-0.37-0.42h-0.39c-0.55-0.01-0.91-0.09-1.09-0.23l0.14-2.65
					l-0.12-2.58l0.18-0.49c-0.34-1.38-0.49-2.93-0.47-4.62c0.01-0.71-0.47-1.13-1.44-1.27h-0.08c-0.62-0.01-0.95,0.35-0.97,1.1
					l-0.02,1.05l0.29,1.81l-0.02,0.07l-0.16,0.77l0.17,2.58l-0.08,0.07v0.07c0.13,0.47,0.23,2.1,0.29,4.9l-0.47,0.05l0.16,0.14
					l0.08,0.02l0.08-0.07h0.08l0.08,0.07l0.16,8.03l0.06,0.7c-1.4,0.3-3.2,0.44-5.38,0.4l-3.27-0.12l-0.14-1.05l0.08-0.07
					c-0.1-0.28-0.16-1.67-0.16-4.19l0.14-3.28l-0.35-1.54l0.16-0.42l-0.12-1.4l0.04-2.3c-0.35-0.92-0.49-2.76-0.43-5.53l-0.08-0.35
					l0.16-0.14c-0.14,0-0.24-0.19-0.29-0.56c-0.25-0.37-0.58-0.56-1.01-0.58c-0.51,0-0.84,0.13-1.01,0.4l-0.08-0.07h-0.16v0.14
					l0.08-0.07h0.08l-0.18,0.7l0.08,0.07l-0.02,0.56l0.06,1.12l-0.23,0.77l0.35,1.54l-0.06,2.86l-0.08,0.28l0.08,0.28l-0.02,0.49
					c0.34,1.65,0.49,3.29,0.45,4.9v0.21l-0.2,5.65h-0.08l0.16,0.56l-0.02,0.68c0,0.19-1.25,0.26-3.74,0.23
					c-3.33-0.06-4.99-0.2-4.99-0.42l0.02-0.91c0-0.09,0.08-0.14,0.23-0.14l0.08-0.07l0.02-0.14c-0.26,0-0.39-0.07-0.39-0.21
					c0.05-11.04-0.06-18.47-0.35-22.28c-0.1,0-0.15-0.47-0.14-1.4c0.29-0.08,0.84-0.12,1.66-0.1l5.28,0.07l1.19-0.05
					c0.25,0.2,0.36,0.58,0.35,1.13v0.7l0.31,0.07c0.13,0,0.42-0.32,0.88-0.96c1.38-0.86,2.94-1.28,4.7-1.26h0.23
					c1.53,0.02,3.18,0.89,4.93,2.6C667.84,384.65,669.54,383.75,671.35,383.77z M647.42,395.76v0.35h0.08l0.39-0.07v-0.07
					L647.42,395.76z M647.61,386.12l0.21,0.21l0.18-0.14v-0.07l-0.16-0.14h-0.08L647.61,386.12z M648.37,386.21l0.08,0.21h0.08
					l0.02-0.42C648.44,386,648.39,386.07,648.37,386.21z M648.88,388.58l0.08,0.07h0.16l0.16-0.12l-0.08-0.23L648.88,388.58z
					 M648.96,392.7l0.08,0.07h0.08l0.08-0.05v-0.14l-0.08-0.02L648.96,392.7z M648.98,407.36v0.14c0,0.22,0.28,0.67,0.84,1.34
					l0.64-0.75c0.51,0,0.86,0.22,1.07,0.65l0.55-0.07h0.16l1.17,0.09v-0.14l-1.31-0.79l-0.78-0.14l-0.62,0.19h-0.31l-1.33-0.51
					L648.98,407.36z M651.1,394.9l0.08,0.07h0.08l0.23-0.19l-0.08-0.07l-0.08-0.02L651.1,394.9z M653.03,396.05l0.16,0.14h0.08
					l-0.16-0.14H653.03z M653.13,394.66v0.14h0.16l0.16-0.14v-0.14h-0.16L653.13,394.66z M653.5,408.14l-0.02,0.28h0.08l0.1-0.28
					H653.5z M653.71,388.95v0.07c0.09,0.21,0.19,0.33,0.29,0.35l0.1-0.21L653.71,388.95z M653.79,396.42l0.31,0.28v-0.07l-0.08-0.21
					H653.79z M655.14,403.76v0.14l0.23,0.21h0.08l-0.16-0.35H655.14z M655.29,407.39l0.39,0.28l0.08-0.05v-0.07l-0.31-0.3
					L655.29,407.39z M656.21,412.49l0.7,0.02v0.14l-0.78,0.12l-0.08-0.07v-0.07L656.21,412.49z M659.17,384.83l-0.08,0.07v0.21
					l0.31,0.09v-0.28L659.17,384.83z M659.46,397.97l0.16,0.14l0.23-0.07v-0.07l-0.16-0.14h-0.08L659.46,397.97z M659.58,403.7v0.07
					c0.08,0.19,0.16,0.28,0.23,0.28l0.08-0.07v-0.07L659.58,403.7z M660.44,404.06v0.14h0.08l0.16-0.14H660.44z M660.63,385.85v0.07
					h0.23v-0.14L660.63,385.85z M661.41,394.22c0.06,0.2,0.14,0.3,0.21,0.3l0.18-0.21l-0.16-0.14h-0.08l-0.08,0.07L661.41,394.22z
					 M663.67,397.69c0.35,0.58,0.6,0.91,0.76,0.98c0.73-0.17,1.1-0.33,1.11-0.47v-0.21C664.75,397.93,664.13,397.83,663.67,397.69z
					 M664.84,405.88l-0.17,0.49l0.92,1.26l0.49-0.33c-0.47-0.4-0.7-0.75-0.68-1.06l0.23-0.28l-0.39-0.07H664.84z M665.78,401.34
					v0.07l0.16,0.16l0.23-0.07v-0.14l-0.14-0.14h-0.08L665.78,401.34z M666.85,386.56v0.21l0.16,0.14l0.16,0.02v-0.07L666.85,386.56
					z M670.3,406.17l0.06,0.21h0.08l0.02-0.28l-0.08,0.07H670.3z M670.53,397.45c0.06,0.23,0.14,0.35,0.23,0.35l0.16-0.21
					l-0.14-0.21L670.53,397.45z M670.69,390.33h0.08l0.23-0.21v-0.07L670.69,390.33z M670.88,407.64l0.16,0.28l0.23-0.07v-0.07
					l-0.23-0.21l-0.08,0.07H670.88z M671.7,385.74l0.16,0.14h0.16v-0.21h-0.08L671.7,385.74z M673.14,407.67v0.42l0.06,0.35
					l-0.23,0.14c0.08,0.19,0.16,0.28,0.23,0.28l0.88-0.82L673.14,407.67z M673.82,397.15v0.07l0.47,0.07v-0.21h-0.08L673.82,397.15z
					 M674.66,386.05l-0.16,0.21l0.21,0.21l0.47,0.02v-0.07C675.16,386.28,674.99,386.16,674.66,386.05z M675.29,398.01l-0.02,0.42
					l1.33,0.85h0.08V399l-0.68-0.91L675.29,398.01z M676.46,386.3l-0.17,0.21l0.31,0.07v-0.14L676.46,386.3z M677.43,396.23
					l-0.56,0.4l0.86,0.16C677.7,396.41,677.6,396.23,677.43,396.23z M677.43,400.07l-0.08,0.28h0.08l0.23-0.21l-0.08-0.07H677.43z"
					/>
			</g>
		</g>
	</g>
</g>
</svg>
