<?xml version="1.0" encoding="utf-8"?>
<!-- Generator: Adobe Illustrator 27.0.0, SVG Export Plug-In . SVG Version: 6.00 Build 0)  -->
<svg version="1.1" xmlns="http://www.w3.org/2000/svg" xmlns:xlink="http://www.w3.org/1999/xlink" x="0px" y="0px"
	 viewBox="0 0 841.89 595.28" style="enable-background:new 0 0 841.89 595.28;" xml:space="preserve">
<style type="text/css">
	.st0{fill:#F9B233;}
</style>
<g id="sfondo">
</g>
<g id="Livello_1">
	<g>
		<g>
			<g>
				<path class="st0" d="M495.69,181.53c-16.27,0.39-32.42,0.4-48.67,0.54c-1.53-6.23-3.08-12.55-4.68-19.09
					c-8.32,9.38-16.57,18.7-24.83,28.01c0.08,0.08,0.16,0.15,0.23,0.23c4.15,0,8.3-0.01,12.45,0c4.56,0.01,9.11,0.03,13.67,0.05
					c2.07,0.01,4.14,0.06,6.21,0.05c2.16-0.01,4.31-0.11,6.47-0.11c2.48-0.01,4.97,0.08,7.45,0.06c3.34-0.02,6.67-0.16,10.01-0.15
					c4.64,0.01,9.29,0.12,13.93,0.14c3.08,0.01,6.16-0.06,9.24-0.12c0.22,0,0.43-0.2,0.64-0.29c0.57,2.32,1.17,4.7,1.75,7.09
					c0.71,2.96,1.4,5.92,2.1,8.88c1.15,4.88,2.29,9.76,3.45,14.63c0.63,2.65,1.24,5.31,2.02,7.92c0.36,1.21-0.22,2.01-0.76,2.86
					c-1.2,1.89-2.43,3.76-3.71,5.6c-1.43,2.06-2.86,4.12-4.41,6.09c-3.22,4.1-6.46,8.2-9.8,12.2c-3.2,3.82-6.88,7.16-10.85,10.15
					c-3.04,2.29-6.09,4.56-9.25,6.69c-1.73,1.17-3.65,2.08-5.55,2.98c-3.57,1.69-7.11,3.49-10.81,4.84
					c-3.41,1.24-7.01,1.96-10.54,2.9c-5.38,1.43-10.91,1.71-16.43,1.78c-3.46,0.05-6.93-0.25-10.4-0.46
					c-0.94-0.06-1.85-0.37-2.79-0.51c-5.87-0.92-11.46-2.82-16.98-4.91c-1.95-0.74-3.81-1.73-5.75-2.53c-2.94-1.21-5.5-3.07-8.2-4.7
					c-2.08-1.25-3.98-2.83-5.87-4.37c-2.29-1.87-4.66-3.69-6.68-5.84c-2.12-2.26-3.95-4.82-5.75-7.36c-1.74-2.46-3.34-5.03-4.91-7.6
					c-2.08-3.4-3.78-6.99-5.36-10.64c-1.66-3.83-2.38-7.93-3.55-11.9c-0.97-3.3-1.4-6.76-2.23-10.11
					c-1.05-4.25-1.64-8.56-2.03-12.91c-0.44-5.04-0.46-10.09-0.16-15.14c0.16-2.66,0.28-5.35,0.78-7.96
					c0.61-3.22,1.57-6.37,2.39-9.55c0.99-3.84,2.91-7.27,4.85-10.68c1.29-2.26,2.47-4.62,4.08-6.63c3.23-4.05,6.74-7.87,10.11-11.81
					c2.41-2.82,5.33-5.05,8.35-7.14c3.11-2.16,6.35-4.15,9.55-6.18c3.61-2.29,7.61-3.72,11.63-5.07c3.22-1.08,6.47-2.08,9.75-2.95
					c3.9-1.04,7.89-1.59,11.93-1.73c3.26-0.11,6.54-0.51,9.79-0.32c4.16,0.25,8.32,0.79,12.42,1.54c3.15,0.58,6.27,1.48,9.28,2.58
					c3.41,1.25,6.72,2.82,10.01,4.39c3.12,1.49,6.19,3.11,9.24,4.75c1.95,1.05,3.84,2.2,5.7,3.39c3.16,2.01,5.93,4.46,8.26,7.41
					c1.01,1.28,2.03,2.55,3.13,3.75c1.72,1.88,2.12,4.25,2.64,6.6c0.7,3.18,1.46,6.34,2.2,9.51c0.29,1.23,0.57,2.46,0.87,3.68
					c0.71,2.92,1.42,5.84,2.15,8.75C494.17,175.59,494.88,178.36,495.69,181.53z M465.31,255.57c-0.33-1.51-0.6-2.84-0.92-4.16
					c-1.01-4.09-2.07-8.16-3.07-12.25c-1.01-4.12-1.94-8.27-2.98-12.38c-1.18-4.65-2.45-9.27-3.65-13.91
					c-0.4-1.53-0.36-1.59-1.95-1.61c-3.06-0.04-6.12-0.03-9.18-0.04c-3.77-0.01-7.53,0-11.3-0.01c-7.61-0.01-15.21,0.06-22.82-0.09
					c-3.13-0.06-6.23,0.15-9.35,0.14c-0.27,0-0.6,0.2-0.79,0.4c-1.75,1.97-3.49,3.94-5.2,5.95c-0.23,0.27-0.35,0.76-0.29,1.11
					c0.19,1.05,0.5,2.09,0.77,3.13c0.6,2.33,1.17,4.68,1.82,7c1.62,5.75,3.36,11.48,6.82,16.45c1.62,2.32,3.35,4.59,5.28,6.66
					c1.72,1.84,3.75,3.41,5.7,5.03c0.87,0.72,1.81,1.46,2.84,1.88c2.06,0.84,4.19,1.51,6.32,2.16c2.75,0.84,5.6,1.25,8.46,1.23
					c3.36-0.02,6.75-0.05,10.08-0.41c3.36-0.36,6.7-1.04,10.01-1.73c2.6-0.54,5.18-1.21,7.7-2.04
					C461.56,257.42,463.4,256.42,465.31,255.57z M388.09,195.9c1.81-2.07,3.57-4.09,5.34-6.1c1.09-1.24,2.2-2.45,3.27-3.71
					c1.39-1.63,2.71-3.31,4.11-4.93c2.74-3.15,5.53-6.25,8.27-9.4c2.76-3.18,5.48-6.39,8.23-9.58c2.79-3.24,5.61-6.46,8.39-9.71
					c1.98-2.32,3.91-4.69,5.89-7.01c1.5-1.76,3.06-3.45,4.54-5.22c0.24-0.28,0.35-0.83,0.27-1.19c-0.43-1.83-0.95-3.63-1.49-5.68
					c-1.07,0.12-2.21,0.23-3.35,0.38c-1.76,0.24-3.53,0.47-5.28,0.8c-1.51,0.28-3.01,0.66-4.49,1.06c-2.55,0.67-5.13,1.26-7.61,2.13
					c-2.64,0.92-5.19,2.12-7.77,3.21c-4.45,1.88-8.51,4.35-11.94,7.78c-3.66,3.66-6.47,7.85-7.84,12.89
					c-0.96,3.53-1.44,7.14-1.73,10.79c-0.34,4.29,0.02,8.5,0.8,12.69C386.36,188.71,387.28,192.28,388.09,195.9z"/>
			</g>
			<path class="st0" d="M760.37,335.14c0.01,0,0.01-0.01,0.02-0.01c-0.1-0.7-0.18-1.4-0.25-2.1c-0.01-0.17-0.03-0.33-0.04-0.5
				c-0.02-0.24-0.04-0.48-0.06-0.71c-0.03-0.38-0.07-0.76-0.1-1.14c-0.05-0.34-0.1-0.69-0.15-1.03c0,0,0,0,0-0.01
				c-0.24-0.82-0.49-1.63-0.77-2.43c-0.14-0.59-0.29-1.18-0.58-1.71c-0.56-1.02-1.58-1.74-2.7-2.05c-1.01-0.28-2.08-0.25-3.1-0.02
				c-1.98-0.07-3.96,0.57-5.95,0.85c-2.47,0.35-5.01,0.1-7.38-0.68c-2.57-2.54-5.29-4.95-8.41-6.77c-3.31-1.93-7.03-3.15-10.84-3.57
				c-1.53-0.17-3.09-0.2-4.58,0.16c-1.72,0.41-3.27,1.33-4.65,2.43c-0.96,0.76-1.87,1.66-2.28,2.81c-0.09,0.26-0.14,0.53-0.17,0.8
				c-1.14-0.62-2.45-0.91-3.74-0.81c-11.46-0.66-19.82,32.67,4.18,38.56c2.64,0.65,3.59,1.03,6.02,1.36
				c2.43,0.32,9.02-0.09,9.99-0.32c2.73-0.34,5.54-1.03,8.11-2.5l0.01,0.01c0-0.01,0-0.01,0-0.01c0.67-0.38,1.32-0.81,1.95-1.3
				c0.32-0.25,0.62-0.52,0.91-0.8l4.25-1.38c0.05-0.02,0.1-0.03,0.15-0.05c0.32,0.22,0.68,0.35,1.07,0.39
				c0.57,0.05,1.13-0.08,1.68-0.22l0.31-0.07c1.89-0.43,3.85-0.43,5.75-0.44c0.12,0,0.24,0,0.35,0c0.01,0,0.03-0.01,0.04-0.01
				c0.83,0.01,1.73,0.03,2.71,0.04c0.69,0.01,1.41,0.02,2.16,0.02c0.38,0,0.76,0.01,1.15,0.01c0.22,0,0.44-0.01,0.67-0.02
				c0.04,0.01,0.07,0.03,0.11,0.03c1.18,0.27,2.42-0.45,3.1-1.46c0.68-1.01,0.9-2.25,1.05-3.45c0.41-3.38,0.33-6.8,0.1-10.2
				C760.42,336.26,760.4,335.7,760.37,335.14z M702.76,319.48c-0.33,0.23-0.67,0.5-0.99,0.77
				C702.08,319.95,702.41,319.68,702.76,319.48z M755.31,335.76c-0.03,2.26-0.07,4.45-0.23,6.82c0.11,1.82,0.12,4.03-0.68,5.59
				c-0.04,0.39-0.19,0.73-0.42,1.02c-0.59,0.41-1.35,0.65-2.07,0.71c-1.33,0.11-2.68-0.19-4.01-0.01c-1.62,0.22-3.53,1.06-4.71-0.07
				c-0.3-0.29-0.48-0.67-0.59-1.07c0.1-1.72,0.16-3.44,0.29-5.15c0.06-2.8,0.06-5.61-0.02-8.39c0.06-1.16,0.19-2.36,0.63-3.38
				c0.33-0.27,0.74-0.3,1.21-0.32c2.96-0.1,5.95,0.03,8.9,0.38c0.62,0.07,1.3,0.21,1.6,0.89c0.09,0.2,0.13,0.44,0.12,0.71
				C755.33,334.26,755.32,335.01,755.31,335.76z M758.88,339.59c-0.01,1.04-0.06,2.06-0.13,3.07c0.02,0.44,0.04,0.89,0.04,1.33
				c0,0.29,0.01,0.61,0.01,0.95c-0.08,1.12-0.24,2.23-0.56,3.3c-0.21,0.68-0.56,1.41-1.23,1.64c-0.54,0.19-1.14-0.11-1.45-0.57
				c0.03-0.35,0.05-0.7,0.08-1.05c0,0.02-0.01,0.03-0.01,0.05c0-0.06,0.01-0.12,0.02-0.18c0.3-3.81,0.71-7.53,0.64-11.26
				c-0.02,0.35-0.04,0.73-0.06,1.14c0,0.07-0.01,0.16-0.01,0.24c0.02-0.74,0.04-1.51,0.04-2.31c-0.06-1.52-0.22-3.05-0.5-4.59
				c-0.07-0.1-0.14-0.2-0.22-0.28c-0.01-0.01-0.03-0.02-0.04-0.03c-0.4-0.12-0.8-0.26-1.18-0.42c-0.07,0-0.13-0.01-0.19-0.01
				l-9.98-0.54c-0.99-0.3-2.21,0.39-2.69,1.37c0,0,0,0.01-0.01,0.01c-0.03-0.22-0.05-0.33-0.05-0.33s0.01,0.12,0.04,0.36
				c-0.54,1.14-0.41,2.47-0.29,3.73c0.24,2.58,0.33,5.17,0.29,7.76c-0.01,0.28-0.03,0.58-0.05,0.91c-0.01,0.23-0.03,0.47-0.04,0.73
				c-0.59-6.03-0.62-12.16-2.56-17.88c0.4,5.49,0.68,11,0.84,16.51c-0.07,1.84-0.17,3.68-0.27,5.49c-0.03,0.61-0.1,1.28-0.35,1.75
				c0.1-2.84,0.06-5.16,0-6.83c-0.07-1.98-0.16-3.06-0.16-3.06s0.01,0.31,0.01,0.88c-0.11-2.81-0.49-5.57-1.45-8.2
				c0.22,1.48,0.41,2.98,0.55,4.47c-0.02-0.07-0.03-0.13-0.04-0.2c0.29,3.41,0.19,6.91-0.92,10.15c-0.95,2.76-2.71,5.31-5.12,6.9
				c-0.59,0.29-1.22,0.51-1.89,0.65c-0.54,0.19-1.09,0.36-1.65,0.52c-5.81,2.03-12.25,1.02-18.11,0.04
				c-14.58-2.45-15.26-15.96-15.26-15.96c-0.14-5.37,1.23-10.89,2.7-13.9c0.03-0.07,1.69-3.17,2.85-4.34
				c1.39-1.39,4.21-1.59,5.96-0.5c0.12,0.07,0.23,0.16,0.34,0.24c0.05,0.03,0.1,0.06,0.15,0.09c-0.01,0.01-0.01,0.01-0.02,0.02
				c0.1,0.08,0.2,0.17,0.29,0.27c0.03-0.02,0.05-0.04,0.08-0.05c0.07,0.05,0.14,0.11,0.21,0.17c-0.05,0.01-0.09,0.03-0.13,0.05
				c0.1,0.11,0.2,0.22,0.29,0.33l0,0l0,0c0.3,0.36,0.58,0.73,0.86,1.09c0.81,1,1.69,1.79,2.67,2.49c0.48,0.26,0.97,0.49,1.48,0.7
				c1.03,0.53,2.15,0.89,3.29,1.07c0.72,0.11,1.44,0.16,2.17,0.16c3.11,0.56,6.43,0.02,9.16-1.57c-1.7,0.4-3.49,0.39-5.19,0.01
				c-1.77-1.05-3.26-2.55-4.29-4.33c0.39,1,0.88,1.95,1.46,2.85c0.18,0.34,0.35,0.69,0.53,1.03c-1.87,0.82-4.06,0.85-5.95,0.1
				c-1.55-0.62-2.87-1.77-3.74-3.19c0-0.03,0.01-0.07,0.02-0.1c-0.63-1.21-0.68-2.65,0.29-4.09c2.32-3.45,8.16-3.79,11.82-3.07
				c4.02,0.8,8.13,2.4,11.43,4.95c0.01,0.01,0.03,0.03,0.04,0.04c1.02,1.23,1.85,2.9,1.24,4.38c-0.29,0.71-0.91,1.33-0.88,2.09
				c-0.07,0.1-0.12,0.19-0.17,0.27c0.03-0.03,0.06-0.05,0.08-0.08l-0.06,0.14c0.26-0.3,0.55-0.58,0.85-0.84
				c0.3-0.22,0.61-0.41,0.93-0.58l0,0c0.01-0.01,0.02-0.01,0.03-0.02c0.05-0.02,0.1-0.05,0.15-0.07c0,0,0,0,0,0
				c0.1-0.05,0.2-0.09,0.3-0.14c0,0,0,0,0,0c0.04-0.02,0.08-0.04,0.13-0.06c0,0,0,0.01,0,0.01c0.1-0.04,0.21-0.08,0.31-0.12
				c0,0,0,0,0-0.01c0.07-0.02,0.13-0.05,0.2-0.07c0,0.01,0,0.01,0,0.01c0.18-0.05,0.37-0.1,0.56-0.14c0-0.01,0-0.02,0-0.02
				c0.06-0.02,0.13-0.04,0.19-0.05c0,0.01,0,0.02,0,0.03c0.34-0.07,0.69-0.11,1.04-0.14c0-0.01,0-0.01,0-0.02
				c0.01,0,0.02,0,0.04-0.01c0.01,0.01,0.01,0.01,0.02,0.02c0.28-0.02,0.57-0.03,0.86-0.02c0-0.01,0-0.01,0-0.02c0,0,0,0,0,0
				c0.01,0,0.02,0,0.03,0c0,0.01,0,0.01,0,0.02c0.55,0.01,1.11,0.06,1.68,0.15c0.82,0.12,1.64,0.25,2.48,0.36
				c1.78,0.38,3.62,0.48,5.43,0.28c1.82-0.2,3.65-0.7,5.45-0.36c0.14,0.03,0.27,0.06,0.4,0.1c0.49,0.28,0.94,0.6,1.35,1
				c1.63,1.6,2.07,4,2.27,6.31c0,0.02,0,0.04,0,0.06c0.01,0.16,0.03,0.32,0.04,0.47c0,0.05,0.01,0.11,0.01,0.16
				c0.14,2.03,0.21,4.06,0.24,6.09C758.89,339.58,758.88,339.58,758.88,339.59z"/>
			<path class="st0" d="M81.46,336.82c-0.23,3.41-0.32,6.82,0.1,10.2c0.15,1.21,0.37,2.44,1.05,3.45c0.68,1.01,1.92,1.73,3.1,1.46
				c0.04-0.01,0.08-0.02,0.11-0.03c0.23,0.02,0.46,0.02,0.67,0.02c0.39,0,0.77-0.01,1.15-0.01c0.75-0.01,1.47-0.02,2.16-0.02
				c0.97-0.01,1.87-0.03,2.71-0.04c0.01,0,0.03,0.01,0.04,0.01c0.12,0,0.24,0,0.35,0c1.9,0,3.86,0.01,5.75,0.44l0.31,0.07
				c0.55,0.13,1.11,0.27,1.68,0.22c0.39-0.03,0.75-0.17,1.07-0.39c0.05,0.02,0.1,0.04,0.15,0.05l4.25,1.38
				c0.28,0.28,0.59,0.56,0.91,0.8c0.63,0.49,1.28,0.92,1.95,1.3c0,0.01,0,0.01,0,0.01l0.01-0.01c2.57,1.47,5.38,2.16,8.11,2.5
				c0.97,0.23,7.56,0.64,9.99,0.32c2.43-0.32,3.38-0.71,6.02-1.36c23.99-5.88,15.63-39.22,4.18-38.56c-1.29-0.1-2.61,0.19-3.74,0.81
				c-0.03-0.27-0.08-0.54-0.17-0.8c-0.41-1.15-1.32-2.05-2.28-2.81c-1.38-1.1-2.94-2.02-4.65-2.43c-1.49-0.36-3.05-0.32-4.58-0.16
				c-3.81,0.42-7.53,1.64-10.84,3.57c-3.12,1.82-5.84,4.23-8.41,6.77c-2.36,0.78-4.91,1.03-7.38,0.68
				c-1.99-0.28-3.97-0.92-5.95-0.85c-1.02-0.23-2.1-0.26-3.1,0.02c-1.12,0.31-2.15,1.03-2.7,2.05c-0.29,0.53-0.44,1.12-0.58,1.71
				c-0.28,0.8-0.53,1.61-0.77,2.43c0,0,0,0,0,0.01c-0.05,0.34-0.1,0.68-0.15,1.03c-0.03,0.38-0.06,0.76-0.1,1.14
				c-0.02,0.24-0.04,0.48-0.06,0.71c-0.01,0.17-0.03,0.33-0.04,0.5c-0.07,0.7-0.16,1.4-0.25,2.1c0.01,0,0.01,0.01,0.02,0.01
				C81.49,335.7,81.47,336.26,81.46,336.82z M140.13,320.25c-0.32-0.27-0.66-0.53-0.99-0.77
				C139.48,319.68,139.81,319.95,140.13,320.25z M86.54,333.48c0-0.27,0.04-0.52,0.12-0.71c0.3-0.68,0.98-0.81,1.6-0.89
				c2.95-0.35,5.94-0.48,8.9-0.38c0.47,0.02,0.88,0.05,1.21,0.32c0.44,1.02,0.58,2.22,0.63,3.38c-0.08,2.78-0.08,5.58-0.02,8.39
				c0.13,1.71,0.19,3.43,0.29,5.15c-0.1,0.41-0.28,0.78-0.59,1.07c-1.18,1.14-3.08,0.29-4.71,0.07c-1.33-0.18-2.68,0.12-4.01,0.01
				c-0.72-0.06-1.48-0.3-2.07-0.71c-0.23-0.29-0.38-0.62-0.42-1.02c-0.79-1.56-0.79-3.77-0.68-5.59c-0.16-2.37-0.19-4.56-0.23-6.82
				C86.57,335.01,86.56,334.26,86.54,333.48z M83,339.57c0.02-2.03,0.1-4.06,0.24-6.09c0-0.05,0.01-0.11,0.01-0.16
				c0.01-0.16,0.02-0.32,0.04-0.47c0-0.02,0-0.04,0-0.06c0.19-2.31,0.64-4.71,2.27-6.31c0.4-0.39,0.86-0.72,1.35-1
				c0.13-0.04,0.27-0.07,0.4-0.1c1.8-0.34,3.63,0.15,5.45,0.36c1.81,0.2,3.65,0.1,5.43-0.28c0.83-0.11,1.66-0.24,2.48-0.36
				c0.57-0.09,1.13-0.14,1.68-0.15c0-0.01,0-0.01,0-0.02c0.01,0,0.02,0,0.03,0c0,0,0,0,0,0c0,0.01,0,0.01,0,0.02
				c0.29-0.01,0.58,0,0.86,0.02c0.01-0.01,0.01-0.01,0.02-0.02c0.01,0,0.02,0,0.04,0.01c0,0.01,0,0.01,0,0.02
				c0.35,0.03,0.7,0.07,1.04,0.14c0-0.01,0-0.02,0-0.03c0.07,0.01,0.13,0.03,0.19,0.05c0,0.01,0,0.02,0,0.02
				c0.19,0.04,0.37,0.09,0.56,0.14c0-0.01,0-0.01,0-0.01c0.07,0.02,0.13,0.05,0.2,0.07c0,0,0,0,0,0.01c0.1,0.04,0.21,0.08,0.31,0.12
				c0,0,0-0.01,0-0.01c0.04,0.02,0.08,0.04,0.13,0.06c0,0,0,0,0,0c0.1,0.04,0.2,0.09,0.3,0.14c0,0,0,0,0,0
				c0.05,0.02,0.1,0.04,0.15,0.07c0.01,0.01,0.02,0.01,0.03,0.02l0,0c0.32,0.16,0.63,0.35,0.93,0.58c0.3,0.26,0.59,0.54,0.85,0.84
				l-0.06-0.14c0.03,0.03,0.06,0.05,0.08,0.08c-0.04-0.08-0.1-0.17-0.17-0.27c0.03-0.76-0.58-1.38-0.88-2.09
				c-0.61-1.47,0.21-3.15,1.24-4.38c0.01-0.01,0.03-0.03,0.04-0.04c3.3-2.54,7.41-4.15,11.43-4.95c3.66-0.72,9.5-0.38,11.82,3.07
				c0.97,1.44,0.92,2.88,0.29,4.09c0.01,0.03,0.01,0.07,0.02,0.1c-0.87,1.43-2.19,2.57-3.74,3.19c-1.89,0.75-4.09,0.72-5.95-0.1
				c0.18-0.34,0.35-0.69,0.53-1.03c0.58-0.9,1.08-1.85,1.46-2.85c-1.02,1.78-2.52,3.29-4.29,4.33c-1.7,0.38-3.49,0.39-5.19-0.01
				c2.73,1.59,6.05,2.13,9.16,1.57c0.72,0,1.45-0.05,2.17-0.16c1.14-0.18,2.26-0.54,3.29-1.07c0.5-0.21,1-0.44,1.48-0.7
				c0.99-0.7,1.87-1.49,2.67-2.49c0.28-0.35,0.56-0.73,0.86-1.09l0,0l0,0c0.09-0.11,0.19-0.22,0.29-0.33
				c-0.04-0.02-0.09-0.04-0.13-0.05c0.07-0.06,0.14-0.11,0.21-0.17c0.03,0.02,0.05,0.04,0.08,0.05c0.09-0.09,0.19-0.18,0.29-0.27
				c-0.01-0.01-0.01-0.01-0.02-0.02c0.05-0.03,0.1-0.06,0.15-0.09c0.11-0.09,0.22-0.17,0.34-0.24c1.75-1.08,4.57-0.89,5.96,0.5
				c1.17,1.17,2.82,4.27,2.85,4.34c1.47,3,2.84,8.53,2.7,13.9c0,0-0.68,13.51-15.26,15.96c-5.86,0.99-12.3,1.99-18.11-0.04
				c-0.56-0.15-1.11-0.33-1.65-0.52c-0.66-0.14-1.29-0.37-1.89-0.65c-2.42-1.59-4.18-4.14-5.12-6.9c-1.11-3.24-1.21-6.74-0.92-10.15
				c-0.02,0.07-0.03,0.13-0.04,0.2c0.13-1.5,0.33-2.99,0.55-4.47c-0.96,2.63-1.34,5.4-1.45,8.2c0-0.57,0.01-0.88,0.01-0.88
				s-0.09,1.08-0.16,3.06c-0.06,1.67-0.1,3.99,0,6.83c-0.25-0.47-0.32-1.13-0.35-1.75c-0.1-1.82-0.2-3.65-0.27-5.49
				c0.16-5.51,0.43-11.01,0.84-16.51c-1.95,5.72-1.98,11.85-2.56,17.88c-0.02-0.25-0.03-0.5-0.04-0.73
				c-0.02-0.34-0.03-0.64-0.05-0.91c-0.04-2.59,0.05-5.18,0.29-7.76c0.12-1.26,0.25-2.59-0.29-3.73c0.02-0.23,0.04-0.36,0.04-0.36
				s-0.02,0.11-0.05,0.33c0,0,0-0.01,0-0.01c-0.48-0.98-1.7-1.67-2.69-1.37l-9.98,0.54c-0.06,0-0.12,0.01-0.19,0.01
				c-0.38,0.16-0.78,0.3-1.18,0.42c-0.01,0.01-0.03,0.02-0.04,0.03c-0.08,0.08-0.15,0.18-0.22,0.28c-0.28,1.54-0.43,3.07-0.5,4.59
				c0,0.8,0.02,1.57,0.04,2.31c0-0.08-0.01-0.16-0.01-0.24c-0.02-0.41-0.04-0.78-0.06-1.14c-0.07,3.73,0.33,7.45,0.64,11.26
				c0.01,0.06,0.02,0.12,0.02,0.18c0-0.02-0.01-0.03-0.01-0.05c0.03,0.35,0.05,0.7,0.08,1.05c-0.32,0.46-0.92,0.75-1.45,0.57
				c-0.67-0.23-1.02-0.96-1.23-1.64c-0.33-1.07-0.48-2.18-0.56-3.3c0-0.33,0.01-0.65,0.01-0.95c0-0.44,0.02-0.89,0.04-1.33
				c-0.06-1.01-0.11-2.03-0.13-3.07C83.01,339.58,83,339.58,83,339.57z"/>
			<g>
				<g>
					<path class="st0" d="M179.01,320.71l6.78,0.14l0.08,0.07v0.14l-0.08,0.77l0.23,0.56l-0.23,0.21c0.42,1.01,0.67,2.41,0.78,4.19
						v0.21l-0.23,0.56v0.14l0.23,0.07l-0.08,0.35c0.16,0.5,0.26,1.22,0.31,2.16l0.23,0.21c-0.16,0.43-0.23,0.83-0.23,1.19v0.35
						c0.12,2.75,0.4,4.12,0.86,4.12c0,0.1,0.36,0.24,1.09,0.42v0.28h-0.08c-0.26-0.14-0.52-0.21-0.78-0.21h-0.08
						c0,1.31,0.18,2.18,0.55,2.58l-0.16,0.42l0.55,2.51l0.47,0.63v0.42c0,0.77,0.21,2.3,0.62,4.61l0.47,0.21l-0.16,0.98v0.07
						l0.16,0.84l-0.08,0.07h-0.47c-1.18,0-2.3-0.07-3.35-0.21l-2.34,0.21l-2.42-0.42l-0.47,0.07c-0.21-0.14-0.34-1.81-0.39-5.02
						c-0.08-0.23-0.42-0.35-1.01-0.35l-1.71,0.07l-0.23-0.07c-0.16,0.14-0.29,0.47-0.39,0.98l0.23,0.77
						c-0.46,2.19-0.74,3.28-0.86,3.28l-2.26-0.07l-6.39,0.28l-0.08-0.07v-0.07c0.47-2.29,1.12-6.32,1.95-12.07
						c-0.27-0.13-1.21-0.31-2.81-0.56c-0.21-0.13-0.78-0.22-1.71-0.28l-0.23,0.07v-0.07l0.23-0.21h0.31
						c2.04,0.37,3.29,0.56,3.74,0.56h0.16c0.25-0.51,0.53-1.84,0.86-3.98l0.08-0.07h0.08l-0.08-0.07v-0.07
						c0.73-3.08,1.22-5.43,1.48-7.05c0.27,0,0.56-1.35,0.86-4.05c0.1,0,0.16-0.23,0.16-0.7l0.08-0.07H179.01z M168.56,339.56h0.31
						v0.14h-0.31V339.56z M172.54,333.07c0,0.19-0.39,0.49-1.17,0.91l-0.16,0.42c0.42,0.33,0.83,0.49,1.25,0.49v-0.56
						c0-0.37,0.16-0.56,0.47-0.56l0.78-0.14v-0.07c-0.3,0-0.66-0.16-1.09-0.49H172.54z M175.27,323.5l-0.08,0.07v0.14l0.16,0.14
						h0.16C175.43,323.62,175.36,323.5,175.27,323.5z M175.34,333.14v0.07l0.39,0.35h0.16l0.16-0.56l-0.08-0.07h-0.39L175.34,333.14
						z M175.65,321.97c0.31,0.19,0.55,0.28,0.7,0.28v-0.63h-0.16C175.91,321.62,175.73,321.74,175.65,321.97z M179.09,328.88
						c-0.26,3.4-0.52,5.1-0.78,5.1l-0.78,4.89l-0.08,0.77l0.08,0.07h0.39l1.87,0.14c0.31,0,0.47-0.14,0.47-0.42v-0.21
						c-0.36-4.99-0.73-8.43-1.09-10.33H179.09z M178.77,321.97c-0.32,0.2-0.58,0.5-0.78,0.91c0.09,0,0.17,0.12,0.23,0.35l0.54-0.14
						l-0.08-0.49v-0.14c0-0.28,0.13-0.42,0.39-0.42v-0.07H178.77z M178.23,323.36c0.09,0.42,0.19,0.63,0.31,0.63v-0.07
						c-0.05-0.37-0.13-0.56-0.23-0.56H178.23z M179.71,342v0.14h-0.08l0.08,0.21l0.16-0.14l-0.08-0.21H179.71z M180.1,322.25
						l0.94,0.07c0.35-0.08,0.71-0.31,1.09-0.7h-0.47c-0.17,0.15-0.48,0.27-0.94,0.35l-0.62,0.21V322.25z M183.06,334.95v0.07
						l1.01,0.14v-0.07c-0.03-0.12-0.21-0.23-0.55-0.35C183.22,334.79,183.06,334.86,183.06,334.95z M189.38,329.72h0.08l0.16,0.14
						h-0.23V329.72z M190.86,348.35h0.39l0.16,0.14l-0.16,0.14h-0.39l-0.16-0.14L190.86,348.35z"/>
					<path class="st0" d="M214.53,323.61c2.07,0,3.73,0.67,4.99,2.02c0.36,0.36,0.7,1.31,1.01,2.86c0.14,1.43,0.35,2.62,0.62,3.56
						l0.31,7.19l-0.16,2.09l0.16,7.61v0.35l-0.16,0.14h-1.4l-7.25-0.14l-0.08-0.07v-5.37l0.16-0.14h0.08c0.1,0,0.16,0.16,0.16,0.49
						h0.08c0-0.16,0.13-0.35,0.39-0.56l-0.08-0.21l-0.7,0.14c-0.16-0.52-0.23-0.97-0.23-1.33v-4.33l-0.08-2.44l0.62-0.28
						c0.3,0.06,0.56,0.17,0.78,0.35h1.17v-0.21l-0.23-0.35l0.08-0.35c-0.21,0-0.31-0.05-0.31-0.14l0.16-0.56h-0.31
						c-0.09,0-0.2,0.14-0.31,0.42h-0.23l-0.7-0.07c-0.1,0-0.31,0.16-0.62,0.49l-0.16-0.14v-0.42c0-0.72-0.16-2.16-0.47-4.33
						c-0.09-0.84-0.38-1.26-0.86-1.26h-0.86c-0.22,0-0.43,0.33-0.62,0.98c0.31,4.82,0.52,9.52,0.62,14.1
						c-0.13,0-0.31,0.12-0.55,0.35l-0.31,0.07h-0.08c-0.21-0.08-0.31-0.24-0.31-0.49v-0.14c0-0.15,0.08-0.31,0.23-0.49h-0.62
						c-0.4,0-0.66-0.12-0.78-0.35l0.16-0.35h-0.16l-1.79-0.28l-0.39,0.07v-0.07l0.23-0.56h-0.47l-0.94-0.07
						c0,0.26-0.62,0.47-1.87,0.63l-0.16,0.21v0.56l0.62,0.28c0.64-0.6,1.18-0.91,1.64-0.91c0.73,0,1.09,0.26,1.09,0.77h0.39
						c0.48,0,0.87,0.16,1.17,0.49c-0.26,0.42-0.54,0.63-0.86,0.63c0,0.1,0.39,0.17,1.17,0.21l0.39,0.21l-0.16,0.49
						c0.47,0.06,0.7,0.27,0.7,0.63c-0.04,0.37-0.22,0.56-0.55,0.56v0.14h0.16l0.7-0.56h0.55l0.16,0.14v0.49l-0.16,0.21
						c0.1,0,0.16,0.07,0.16,0.21l0.08,0.07h0.08l0.31-0.21l0.16,0.14v2.51l-0.16,0.14h-2.81l-0.31-0.35c-0.17,0-0.35-0.07-0.55-0.21
						v0.07l0.16,0.42l-0.08,0.07h-3.12l-0.16-0.14l1.33-1.12v-0.07c-0.21,0-0.31-0.09-0.31-0.28H204l-0.31,0.14l-0.47-0.14
						c-0.77,0.42-1.26,0.63-1.48,0.63v0.07c0.31,0,0.47,0.26,0.47,0.77h0.47v0.14h-1.17l-0.16-0.14l-0.7-14.73l0.23-0.21v-0.07
						c-0.16,0-0.23-0.05-0.23-0.14v-2.44l0.23-0.28l-0.23-0.21v-1.81l0.16-4.75l0.08-0.07h0.16l7.48-0.21
						c0.57,0.03,0.86,0.1,0.86,0.21v0.07l-0.16,1.33l0.08,0.21c1.83-1.72,3.42-2.58,4.75-2.58H214.53z M203.3,332.82
						c0,0.14-0.05,0.21-0.16,0.21l-0.39-0.07l-0.23,0.49l0.08,0.42v0.14c0,0.19-0.23,0.28-0.7,0.28l-0.08,0.07v0.07
						c0.23,0.09,0.36,0.19,0.39,0.28c0.78-0.29,1.17-0.57,1.17-0.84c0-0.34,0.29-0.64,0.86-0.91v-0.07L203.3,332.82z M202.13,345.8
						l-0.23,1.12c1.22-0.46,1.97-0.7,2.26-0.7v0.07c0.04,0.33,0.12,0.49,0.23,0.49h0.08l0.39-0.14v-0.07
						c-0.42,0-0.62-0.16-0.62-0.49l-0.39,0.07c-0.74-0.23-1.29-0.35-1.64-0.35H202.13z M202.52,327.17l-0.08,0.07v0.07l0.08,0.21
						h0.23v-0.14L202.52,327.17z M203.69,330.03v0.21l0.16-0.14v-0.07H203.69z M204.86,332.75v0.14l0.7,0.14
						c-0.1-0.21-0.21-0.33-0.31-0.35L204.86,332.75z M205.1,329.89v0.14l0.16,0.14h0.08v-0.07L205.1,329.89z M205.56,348.04h0.08
						c0.52,0,0.78-0.19,0.78-0.56L205.56,348.04z M209.15,342.94v0.07l0.62,0.07v-0.21L209.15,342.94z M210.01,343.99h0.08v0.98
						h-0.16c-0.38,0-0.58-0.07-0.62-0.21L210.01,343.99z M211.64,326.05l0.08,0.21h0.23l0.08-0.21l-0.08-0.07h-0.16l-0.08,0.07
						H211.64z M212.58,325v0.07l0.23,0.21l0.16-0.14l-0.16-0.14H212.58z M212.66,342.38c0,0.51,0.21,0.77,0.62,0.77h0.08
						c0-0.16,0.23-0.26,0.7-0.28c0.31-0.22,0.47-0.41,0.47-0.56l-0.39-0.14l-0.55,0.14l-0.08-0.21h-0.16
						C213.16,342.1,212.93,342.2,212.66,342.38z M213.98,324.59v0.14h0.16l0.08-0.07h0.08l-0.08-0.28L213.98,324.59z M214.06,330.73
						v0.07h0.31v-0.07l-0.16-0.14L214.06,330.73z M215,325.35c0,0.16-0.18,0.28-0.55,0.35v0.07l0.47,0.63l-0.23,0.21l0.54,0.84h0.08
						l2.42-1.33v-0.07c-0.22,0-0.38-0.21-0.47-0.63h-0.23c0,0.24-0.42,0.57-1.25,0.98l-0.08-0.07v-0.63L215,325.35z M214.68,329.89
						v0.07h0.23l-0.08-0.21L214.68,329.89z M215.07,341.96c0,0.09,0.13,0.14,0.39,0.14l0.08,0.21l0.47-0.42l-0.31-0.14
						L215.07,341.96z M215.54,333.66c0.16,0,0.23,0.05,0.23,0.14v0.35l-0.08,0.07v0.07h0.78c0.29,0,0.47-0.09,0.54-0.28l-0.08-0.07
						h-0.08l0.16-0.42c-0.08-0.19-0.16-0.28-0.23-0.28C215.96,333.37,215.54,333.51,215.54,333.66z M216.24,341.89v0.56l0.23,0.21
						l0.54-0.07l0.08,0.07v-0.07c-0.05-0.2-0.18-0.31-0.39-0.35c0-0.14-0.1-0.21-0.31-0.21L216.24,341.89z M216.48,343.43v0.07
						l0.16,0.14l0.08-0.21H216.48z M222.48,341.48h0.16v0.14l-0.31,0.07v-0.07L222.48,341.48z"/>
					<path class="st0" d="M252,318.25h0.08l-0.02,0.14l-0.37,1.6c0.04,1.7,0.13,2.75,0.27,3.14l-0.18,0.49l0.2,0.91
						c-0.13,0.06-0.4,0.35-0.82,0.89c-0.16-0.01-0.23,0.03-0.23,0.12l0.08,0.02l0.88-0.47l0.16,0.14l-0.25,2.58l0.35,4.9l-0.08,1.95
						c-0.05,1.25,0.01,4.15,0.19,8.72l-0.17,0.49l0.04,1.33l-0.21,3.49l-1.42,0.37v0.07l0.21,0.23l0.47,0.02l0.64-0.4l0.08,0.07
						l-0.02,0.75l-0.17,0.14l-8.32-0.26l-0.16-0.14l0.21-1.52l-0.08-0.07c-0.17-0.01-0.68,0.37-1.52,1.13l-2.85,0.87l-0.7,0.05
						h-0.23c-1.34-0.05-2.83-0.65-4.46-1.81c0.01-0.1-0.18-0.39-0.58-0.85c-0.09-1.54-0.28-2.75-0.57-3.65l0.14-1.6l-0.29-2.16
						l0.21-1.74l-0.23-9.86c0.09-2.27,1.5-3.81,4.23-4.62c0.51-0.07,1.21-0.09,2.12-0.07c1,0.03,1.79,0.27,2.38,0.72
						c-0.16-0.01-0.23,0.03-0.23,0.12v0.14l0.14,0.14l0.25-0.19l-0.16-0.21h0.16l1.75,0.96h0.08c0.06-0.37,0.15-0.55,0.25-0.54
						l1.01,0.23l-0.14-0.49c0.01-0.23,0.12-0.34,0.33-0.33l0.08-0.21l0.54,0.3l0.39-0.19v-0.07c-0.42-0.02-0.62-0.2-0.6-0.52
						l0.25-0.54v-0.07l-0.41-1.13c0-0.21,0.25-0.65,0.74-1.31l0.16,0.02c0,0.19,0.18,0.29,0.55,0.3v-0.07l-0.84-0.73
						c0,0.14-0.05,0.21-0.16,0.21l-0.31-0.02c-0.77-0.07-1.18-0.2-1.23-0.38l-0.41,0.12l-0.08-0.07l0.04-0.7
						c0.01-0.33,0.07-0.58,0.17-0.75l0.08,0.07l1.56,0.04l0.39,0.09v-0.14l3.82-0.02l1.48,0.12L252,318.25z M234.5,330.83v0.07
						l0.16,0.14l0.08,0.02l-0.08-0.37L234.5,330.83z M237.67,337.43v0.21l0.14,0.14l0.08-0.07l0.02-0.4l-0.08-0.02L237.67,337.43z
						 M239.37,347.95l-0.08,0.07v0.14l0.14,0.16h0.08l0.02-0.21L239.37,347.95z M241.45,328.55l-0.23-0.02
						c-0.23,0.49-0.36,1.18-0.39,2.08c0.19,4.19,0.28,7.89,0.25,11.11l-0.27,1.12c0.06,1.68,0.45,2.52,1.15,2.55h0.08
						c0.73,0.02,1.16-0.31,1.29-1.01l0.04-1.12l0.23-1.87l-0.08-1.74l0.02-0.84l0.17-0.14h0.08l0.7,0.09l0.78-0.03h0.39
						c0-0.09-0.23-0.19-0.7-0.3c-0.18-0.42-0.44-0.63-0.76-0.65l-0.62,0.12l0.02-0.63c-0.1-1.29-0.12-2.74-0.06-4.34l0.04-0.98
						c0.06-1.78-0.33-2.95-1.19-3.52l-0.31-0.07L241.45,328.55z M241.45,326.51c0.12,0.29,0.27,0.44,0.45,0.44l1.25-0.09l-0.08-0.09
						l-1.15-0.38l-0.08-0.07L241.45,326.51z M241.82,343.22l0.45,0.02l0.23,0.21l-0.08,0.07h-0.08c-0.36-0.06-0.54-0.13-0.54-0.23
						L241.82,343.22z M242.8,339.96v0.07c-0.08,0.15-0.29,0.29-0.64,0.4l-0.08-0.07v-0.07C242.4,340.07,242.64,339.96,242.8,339.96z
						 M242.33,325.98l0.08,0.21h0.08v-0.28l-0.08,0.07H242.33z M243.38,321.06l0.62,0.16l0.47,0.02c-0.01,0.21-0.24,0.58-0.68,1.1
						l-0.08,0.33c0.25,0.21,0.36,0.49,0.35,0.85l-0.8,0.61v-0.14l-0.04-2.88l0.08-0.05H243.38z M245.41,346.89v0.14l0.16-0.12
						l0.02-0.14L245.41,346.89z M245.43,326.58c0.06,0.19,0.14,0.28,0.21,0.28h0.08l0.1-0.21l-0.23-0.14l-0.08,0.07H245.43z
						 M247.87,338.16l-0.1,0.28h-0.31l-1.17,0.24c-0.01,0.09,0.14,0.16,0.45,0.21l1.81-0.56l0.02-0.07l-0.16-0.02l-0.31,0.07
						l-0.16-0.16H247.87z M246.68,340.5l0.16,0.16l0.16-0.14L246.68,340.5z M246.85,326.05l0.06,0.35c0.43-0.07,0.64-0.16,0.64-0.26
						l-0.08-0.07L246.85,326.05z M247.3,322.58v0.07l0.16,0.14h0.08v-0.14h0.08l-0.08-0.21h-0.08L247.3,322.58z M250.79,321.22
						c0.06,0.19,0.14,0.28,0.21,0.28l0.08-0.05v-0.07c-0.09-0.01-0.14-0.09-0.14-0.23l-0.08,0.07H250.79z M251.04,320.66l-0.08,0.07
						v0.07l0.06,0.07l0.08,0.02l0.1-0.07v-0.07l-0.08-0.07L251.04,320.66z M251.16,321.38v0.14h0.08l0.39-0.05l-0.21-0.23h-0.08
						L251.16,321.38z M251.3,334.29v0.07h0.08l0.23-0.05v-0.07h-0.08L251.3,334.29z"/>
					<path class="st0" d="M275.94,322.98l0.16,0.28l-0.31,6.28v1.61l0.08,0.7l-2.57,0.49c-1.09,0.31-1.64,0.66-1.64,1.05
						c-0.68,0-1.01,1.3-1.01,3.91v0.63c-0.21,0-0.31,0.05-0.31,0.14c0.26,0.07,0.39,0.23,0.39,0.49v0.98l-0.08,0.07v0.07l-0.08-0.07
						h-0.55l-0.23,0.14l-0.31-0.07l-0.16,0.14h-0.78l-0.31-0.28v-0.35l0.23-0.21H269l0.16-0.35h-0.78c-0.68,0-1.01,0.07-1.01,0.21
						v0.63l-0.08,0.07c-0.17,0.08-0.33,0.31-0.47,0.7c-0.29,0.23-0.6,0.35-0.94,0.35h-0.23c-0.78,0-1.17-0.12-1.17-0.35h-0.08
						c-0.1,0-0.16,0.16-0.16,0.49c-0.36,0.13-0.6,0.38-0.7,0.77h0.62c0.27-0.19,0.51-0.28,0.7-0.28h0.08
						c0.42,0.06,0.62,0.2,0.62,0.42l-0.23,0.42h0.7c0,0.14,0.05,0.21,0.16,0.21c0.14-0.1,0.66-0.22,1.56-0.35l-0.23-0.98
						c0.01-0.1,0.51-0.41,1.48-0.91h0.16v0.56c0.26,0.37,0.52,0.58,0.78,0.63l0.08,0.07l0.08-0.07v-0.07
						c-0.36-0.12-0.55-0.4-0.55-0.84l0.7-0.28c0.36,0.08,0.55,0.17,0.55,0.28v0.42c0,0.15-0.08,0.31-0.23,0.49
						c0.21,0,0.31,0.21,0.31,0.63v0.07c0,1.9,0.1,4.25,0.31,7.05c-2.1,0.33-4.03,0.49-5.77,0.49h-2.73l-0.08-0.07h-0.08
						c-0.16-7.33-0.34-12.1-0.55-14.31l0.7-4.54l-0.16-0.98l0.16-4.05l-0.08-0.7c0-0.2,0.1-0.43,0.31-0.7l8.34-0.28l0.08,0.07v0.07
						l-0.31,2.37l1.25-1.75c0.23-0.19,0.47-0.28,0.7-0.28c0-0.29,0.26-0.45,0.78-0.49c0.26-0.35,0.96-0.63,2.1-0.84H275.94z
						 M263,333.1l0.08,0.21l0.31-0.21H263z M263.55,337.99v0.07l0.16,0.14h0.08v-0.07l-0.16-0.14H263.55z M264.01,324.45v0.07h0.08
						l0.08-0.28C264.07,324.24,264.01,324.31,264.01,324.45z M264.25,337.78l-0.16,0.28l0.23,0.14h0.08l0.08-0.28L264.25,337.78z
						 M265.03,342.59v0.14l0.16,0.14h0.16v-0.14l-0.16-0.14H265.03z M265.73,325.84l0.16,0.14h0.23v-0.07l-0.23-0.21L265.73,325.84z
						 M266.43,333.24v0.07l0.47-0.07l-0.16-0.21C266.53,333.1,266.43,333.17,266.43,333.24z M266.59,337.29v0.07h0.08
						c0-0.19,0.08-0.28,0.23-0.28v-0.14C266.79,336.96,266.69,337.08,266.59,337.29z M267.29,333.87l0.31,0.91h0.08l0.31-0.21
						l-0.23-0.42l0.08-0.63L267.29,333.87z M269.16,332.96v0.07l0.16,0.14h0.08l0.08-0.07h0.08l-0.23-0.28L269.16,332.96z
						 M274.07,321.24l0.16,0.21v0.07l-0.16,0.14l-0.16-0.35l0.08-0.07H274.07z M275.08,321.52l0.23,0.21v0.14l-0.16,0.14h-0.16
						l-0.08-0.07h-0.08C274.92,321.65,274.99,321.52,275.08,321.52z M275.94,321.72c0.29,0.08,0.49,0.2,0.62,0.35l-0.23,0.14
						c-0.42-0.06-0.62-0.15-0.62-0.28L275.94,321.72z"/>
					<path class="st0" d="M296.03,324.1h0.7c3.38,0.14,5.28,0.54,5.69,1.19c0.68,0.2,1.01,0.34,1.01,0.42
						c0.23,0.45,0.75,1.01,1.56,1.68c0.83,2.02,1.25,3.26,1.25,3.7l-0.23,1.19l0.39,0.49v0.21l-0.55,0.49l0.08,1.26l-0.08,2.86
						l-0.08,0.07h-0.08l-1.79,0.07l-2.49-0.14v-0.07l0.16-0.49h-0.08c-0.48,0.42-1.13,0.63-1.95,0.63l-0.94,0.07l-0.16-0.21
						l-2.96,0.28c0,0.21-0.23,0.4-0.7,0.56c0,0.13-0.13,0.31-0.39,0.56v0.14c0.34,0,0.62,0.14,0.86,0.42v0.14
						c0,0.4-0.36,0.72-1.09,0.98c-0.16,0.33-0.39,0.49-0.7,0.49l-0.62-0.28l-0.16,0.14v0.07c0,0.17,0.31,0.29,0.94,0.35l0.39,1.33
						c0.39-0.19,0.78-0.28,1.17-0.28v0.07c-0.1,0.21-0.16,0.51-0.16,0.91v0.28c0,1.3,0.44,1.95,1.33,1.95
						c0.99-0.17,1.48-0.59,1.48-1.26c0.16-0.37,0.23-0.86,0.23-1.47v-0.56l0.16-0.14h0.16c0,0.31,0.23,0.55,0.7,0.7l0.23-0.28
						l-0.16-0.21v-0.07c0-0.42,0.16-0.63,0.47-0.63l1.25,0.14c0-0.13,0.13-0.2,0.39-0.21v-0.14c0-0.35-0.18-0.6-0.55-0.77l-0.7,0.35
						l-1.17-0.28v0.14l0.08,0.35l-0.39,0.07l0.08,0.49v0.14h-0.08c-0.23-0.08-0.42-0.22-0.55-0.42v-0.91l-0.08-0.35
						c0.12-0.09,0.3-0.14,0.54-0.14l0.08-0.35l-0.47-0.35v-0.07c0-0.09,0.52-0.19,1.56-0.28c0,0.07,0.1,0.14,0.31,0.21l0.47-0.14
						c0.3,0,0.56,0.12,0.78,0.35l-0.08,0.07v0.07c0.79,0.33,1.34,0.49,1.64,0.49l0.08,0.07v0.07l-0.7,0.63v0.07h0.23
						c0.52,0,0.78,0.21,0.78,0.63l0.39-0.07h0.23l0.23-0.56l-0.16-0.42l0.16-0.63v-0.07c0-0.28-0.21-0.42-0.62-0.42l-0.08-0.07
						v-0.07c0.27-0.09,0.82-0.14,1.64-0.14h0.7l0.23,0.14l-0.08,0.84v3.07c0,2.19-1.09,4-3.27,5.44c-2.34,1.02-4.31,1.54-5.92,1.54
						c-1.31,0-3.5-0.37-6.55-1.12c-0.4-0.19-0.61-0.37-0.62-0.56c-0.29,0-1.09-0.72-2.42-2.16l0.08-0.28l-0.62-1.81v-0.14l0.16-0.14
						h0.23l0.86,0.56l0.62-0.42c-0.42,0-0.78-0.12-1.09-0.35l-0.08,0.07h-0.62l-0.08-0.07h-0.08l0.08-1.19v-2.44
						c0-0.58,0.16-1.37,0.47-2.37l-0.08-0.07v-1.4c0.26,0,0.39-0.12,0.39-0.35c0-0.19,0.16-0.28,0.47-0.28v-0.07
						c-0.57,0-0.86-0.09-0.86-0.28l-0.08-1.26v-0.77c0-2.15,0.73-4.39,2.18-6.7c1.68-1.14,3-1.79,3.98-1.95
						C293.39,324.28,294.43,324.1,296.03,324.1z M286.67,340.29l0.47,0.49v0.35h0.62v-0.07c-0.33,0-0.53-0.28-0.62-0.84
						L286.67,340.29z M289.32,338.89v0.49c-0.26,0.16-0.39,0.37-0.39,0.63c-0.09,0.23-0.25,0.35-0.47,0.35l0.08,0.07v0.07
						c0,0.37-0.21,0.56-0.62,0.56v0.07l0.47,0.42v0.07l-0.62,0.7l0.23,0.56c1.14-0.28,1.71-0.49,1.71-0.63
						c-0.83-0.57-1.25-0.9-1.25-0.98c0-0.15,0.44-0.57,1.33-1.26c0-0.14,0.05-0.21,0.16-0.21c0.27,0.33,0.53,0.49,0.78,0.49h0.08
						l-0.08-0.07v-0.14l0.47-0.42c-0.31,0-0.47-0.05-0.47-0.14l0.08-0.21c0-0.29-0.31-0.5-0.94-0.63h-0.08L289.32,338.89z
						 M287.84,329.61v0.14l0.08,0.21H288v-0.14l0.08-0.07l-0.16-0.14H287.84z M288.7,322.98c0.21,0.07,0.31,0.23,0.31,0.49v0.14
						l-0.08,0.07v0.07c-0.31-0.09-0.47-0.28-0.47-0.56L288.7,322.98z M290.41,331.08l-0.16,0.14l0.08,0.21l0.23-0.07v-0.14
						L290.41,331.08z M295.48,330.38l0.08,3h2.34v-2.93c0-0.57-0.18-1.17-0.55-1.81h-0.31c-0.93,0.08-1.4,0.31-1.4,0.7
						L295.48,330.38z M298.52,325.7l0.08,0.07h0.08c0.21-0.07,0.31-0.14,0.31-0.21l-0.16-0.14h-0.08
						C298.68,325.42,298.6,325.52,298.52,325.7z M299.69,325.91v0.07l0.16,0.14l0.08-0.07v-0.07l-0.08-0.07H299.69z M303.2,320.4
						l0.39,0.49v0.07c-0.27,0-0.46-0.09-0.55-0.28v-0.14L303.2,320.4z M303.2,328.35c0.05,0.51,0.13,0.77,0.23,0.77h0.08v-0.14h0.08
						l-0.08-0.07v-0.63h-0.16l-0.08,0.07H303.2z M304.06,322.63c0.57,0.07,0.86,0.19,0.86,0.35v0.14h-0.16
						C304.29,323.12,304.06,322.96,304.06,322.63z M304.52,335.19v0.07c0.03,0.09,0.16,0.19,0.39,0.28v-0.07l-0.23-0.28H304.52z
						 M306.32,334.99h0.08l0.39,0.28l-0.08,0.07h-0.39l-0.16-0.14v-0.07L306.32,334.99z M307.25,332.26l0.16,0.14v0.14l-0.23,0.21
						h-0.08l-0.16-0.14C307.04,332.4,307.15,332.29,307.25,332.26z"/>
					<path class="st0" d="M324.9,323.49c0.74,0.17,2.56,0.31,5.46,0.42c1.08,0.16,1.96,0.51,2.65,1.05c0.1,0.16,0.39,0.3,0.86,0.42
						l1.56,2.02l0.31,1.05l-0.16,1.88h0.16v0.14l-0.08,0.07l0.31,0.63l-0.23,1.12v0.49c0,0.87,0.13,1.66,0.39,2.37l-0.31,1.95
						l0.08,8.58c-0.05,2.42-0.21,3.63-0.47,3.63h-2.26c-0.13,0-0.23-0.16-0.31-0.49c-0.75,0-1.2,0.14-1.33,0.42l-0.16,0.14h-1.56
						l-2.5-0.07l-0.08-0.07v-0.07c0.71-0.65,1.52-0.98,2.42-0.98c0.74-0.38,1.13-0.64,1.17-0.77h-0.78
						c-0.64,0.37-1.23,0.56-1.79,0.56c-0.52,0-0.86-0.33-1.01-0.98l-0.23-0.14h-0.31v0.07c0.42,0.15,0.62,0.38,0.62,0.7h-0.08
						l-0.23-0.07c-0.21,0.33-0.49,0.6-0.86,0.84l0.08,0.21c-0.42,0-0.75,0.23-1.01,0.7c-0.68,0.12-1.01,0.37-1.01,0.77l-0.86-0.21
						l-1.95,0.21c-0.79,0-2.07-0.56-3.82-1.67c-0.73-1.05-1.09-2.35-1.09-3.91v-1.68c0.16-0.65,0.26-1.88,0.31-3.7
						c0.19-0.79,0.48-1.19,0.86-1.19c0-0.59,1.38-1.34,4.13-2.23c1.26-0.58,2.77-1.14,4.52-1.68l0.08-0.07v-0.07l-0.08-0.21
						c0.57,0,0.86-0.26,0.86-0.77c0.1-0.56,0.16-1.26,0.16-2.09c0-1.19-0.34-1.98-1.01-2.37l-0.47-0.14c-0.6,0-0.94,0.56-1.01,1.68
						v0.21l0.16,1.33l-0.16,0.35l0.31,1.05l-0.16,0.14l0.16,0.77c0,0.2-1.2,0.31-3.59,0.35h-3.51c-1.09,0-1.64-0.07-1.64-0.21v-0.42
						l0.16-0.42c0.61,0.37,1.34,0.56,2.18,0.56c0,0.09,0.18,0.14,0.55,0.14l0.16-0.14h0.39l0.16,0.14c0.12,0,0.35-0.14,0.7-0.42H321
						c0-0.08-0.18-0.22-0.55-0.42h-0.23c0,0.19-0.16,0.28-0.47,0.28h-0.23c-0.42,0-0.62-0.19-0.62-0.56v-0.07
						c0-0.19,0.16-0.42,0.47-0.7c-0.26-0.06-0.39-0.13-0.39-0.21l0.08-0.28l-1.79-0.07v0.07c-0.22,0.37-0.48,0.56-0.78,0.56v-2.02
						c0.26-0.33,0.52-0.49,0.78-0.49c0.82,0,1.55,0.09,2.18,0.28l0.23-0.28c-0.13,0-0.26-0.19-0.39-0.56h-0.47
						c-0.14,0-0.22-0.12-0.23-0.35h-0.78l-0.94-0.14v-0.07c0-0.73,0.81-1.76,2.42-3.07C321.38,324.09,323.25,323.49,324.9,323.49z
						 M318.66,337.86v0.07l0.08,0.21h0.08v-0.21l-0.08-0.07H318.66z M318.82,337.1v0.14l0.31-0.28h-0.16L318.82,337.1z
						 M321.86,343.24l-0.16,0.21l0.16,0.14h0.08l0.08-0.28l-0.08-0.07H321.86z M322.56,344.98c0,0.14-0.13,0.28-0.39,0.42
						l-0.08-0.07h-0.08l-0.16,0.42l0.78,0.42l1.25-0.49l-0.08-0.07v-0.42l-0.23-0.07l-0.47,0.14c-0.31-0.03-0.47-0.13-0.47-0.28
						H322.56z M322.1,346.66v0.42l0.16-0.14l-0.08-0.28H322.1z M322.17,349.52l0.31,0.21v-0.21l-0.16-0.14L322.17,349.52z
						 M322.64,329.56v0.07l0.16,0.14h0.08L322.64,329.56z M325.21,346.1l-0.16,0.35h-0.16l-0.39-0.28v0.07
						c0.1,0.28,0.36,0.56,0.78,0.84c0-0.08,0.31-0.24,0.94-0.49l-0.23-0.49l-0.62,0.14L325.21,346.1z M324.67,342.75
						c0.13,1.81,0.62,2.72,1.48,2.72c0.69,0,1.08-0.84,1.17-2.51v-1.12l-0.31-2.16l0.08-1.6
						C325.47,338.85,324.67,340.41,324.67,342.75z M325.53,323.98v0.21h0.16v-0.07L325.53,323.98z M327.4,336.26l-0.08,0.35v0.07
						h0.08l0.86,0.07v-0.28l-0.62,0.14l-0.16-0.35H327.4z M327.47,339.33v0.21h0.16l0.16-0.14l-0.08-0.21h-0.08L327.47,339.33z
						 M327.55,342.47v0.21l0.16-0.14v-0.07H327.55z M331.29,335.91l-0.23,0.98l0.08,0.07h0.47c0.35-0.04,0.69-0.2,1.01-0.49
						l-0.08-0.28l0.08-0.07l-0.08-0.21l-0.31-0.07L331.29,335.91z M332.15,349.03h0.55l0.23,0.21l-0.16,0.14h-0.86v-0.14
						L332.15,349.03z"/>
					<path class="st0" d="M344.71,342.94h1.25v0.07l-0.23,0.21l-1.01-0.14V342.94z M345.26,349.29h0.86v0.14h-0.86V349.29z
						 M358.12,320.26c1.82,0,3.59,0.56,5.3,1.68c0,0.17,0.29,0.31,0.86,0.42c1.92,1.33,2.88,3,2.88,5.03
						c0.1,0.74,0.16,1.77,0.16,3.07v1.26l-0.08,0.07v0.07l-0.78-0.14l-2.96,0.35l-0.86-0.21l-2.81,0.21h-1.25l-0.16-0.14v-0.7
						l0.31-0.07l-0.23-1.47l0.16-2.37v-0.14c0-0.86-0.29-1.4-0.86-1.6c-0.58,0-1.1,0.28-1.56,0.84c0,0.51,0.13,0.93,0.39,1.26
						l-0.62,1.47l-0.78,0.21v0.07c0.13,0,0.34,0.16,0.62,0.49l0.23-0.07v0.49l0.16,0.14l-0.39,4.96l0.23,5.58l-0.16,2.86
						c0,1.02,0.44,1.54,1.33,1.54h0.08c0.88,0,1.33-0.65,1.33-1.95l-0.23-1.81l0.39-2.23c-0.05-0.19-0.16-0.28-0.31-0.28l-1.09,0.14
						h-0.08l-0.16-0.14v-0.56l-0.16-3.84c0.92-0.23,2.46-0.4,4.6-0.49l2.03-0.07l3.74,0.14l0.08,0.07v0.07
						c-0.26,3.11-0.39,5.48-0.39,7.12v5.16c-0.16,0.45-0.29,0.69-0.39,0.7c-0.18,0-0.49-0.3-0.94-0.91l-0.7,0.14v0.07
						c0.52,0.13,0.78,0.41,0.78,0.84c-0.33,0.14-0.66,0.37-1.01,0.7l1.48,0.42c0.19-0.02,0.43-0.19,0.7-0.49h0.08l0.08,1.05
						l-0.08,0.07h-2.5c-0.79,0-1.62,0.09-2.49,0.28c-0.23-0.05-0.57-0.56-1.01-1.54l-0.08-0.07h-0.08c-1.83,1.54-3.37,2.3-4.6,2.3
						l-0.94-0.35h-0.94c-2.17-0.5-4.04-1.41-5.61-2.72c-0.23-0.27-0.7-1.13-1.4-2.58l0.16-1.12v-0.77l-0.08-0.84l0.23-4.26v-3.84
						l0.08-0.07l-0.08-0.07v-0.49l-0.16-2.37c0.04-0.6,0.14-0.91,0.31-0.91l1.09,0.28c0-0.49,0.34-0.77,1.01-0.84
						c0.17,0,0.35,0.07,0.55,0.21c0-0.6,0.31-0.91,0.94-0.91c0.44-0.37,0.88-0.56,1.33-0.56l-0.39-0.77c-0.31,0-0.52-0.23-0.62-0.7
						h-0.47l-0.23,0.14h-0.47c-0.13,0-0.21-0.09-0.23-0.28l-0.62,0.14l-0.62-0.42h-0.08c-0.2,0.14-0.38,0.21-0.55,0.21l-0.08-0.07
						h-0.08c0.13-0.84,0.31-1.26,0.55-1.26l0.16-0.21l0.31,0.14v-0.07c0-0.14-0.16-0.21-0.47-0.21v-0.07
						c0.36-0.84,0.68-1.26,0.94-1.26c0.87-0.7,1.39-1.05,1.56-1.05C353.19,320.96,355.42,320.26,358.12,320.26z M348.22,328.01
						l0.23,0.07v0.14c-0.18,0.24-0.39,0.41-0.62,0.49v-0.07L348.22,328.01z M348.3,326.68h0.23v0.21l-0.16,0.14h-0.08V326.68z
						 M348.92,350.69c0.52,0.05,0.78,0.14,0.78,0.28l-0.23,0.07l-0.7-0.21L348.92,350.69z M349.08,330.52l-0.08,0.07v0.14h0.08
						l0.16-0.14l-0.08-0.07H349.08z M349.63,325.21l-0.16,0.14v0.42l0.47-0.42v-0.14H349.63z M350.95,327.24l0.08,0.07v0.28
						c-0.05,0.56-0.34,0.84-0.86,0.84l-0.54-0.07v-0.07C349.63,327.7,350.07,327.35,350.95,327.24z M349.63,332.33v0.07l0.16,0.14
						l0.16-0.21v-0.07h-0.08L349.63,332.33z M350.25,331.29c0.08,0.19,0.16,0.28,0.23,0.28l0.16-0.14v-0.07L350.25,331.29z
						 M350.33,330.24h0.7l0.54-0.07l-0.16-0.14h-0.08l-0.7,0.14l-0.08-0.21C350.48,329.96,350.4,330.05,350.33,330.24z
						 M350.72,351.04v0.07l-0.16,0.14h-0.23v-0.14L350.72,351.04z M350.4,333.17v0.07c0.21,0.3,0.31,0.58,0.31,0.84h0.23v-0.07
						c-0.16-0.24-0.23-0.48-0.23-0.7v-0.14H350.4z M352.59,339.66v0.21h0.08l0.31-0.28l-0.08-0.07v-0.07L352.59,339.66z
						 M353.13,328.15c0.25,0.22,0.43,0.5,0.55,0.84l0.7,0.14c-0.1-0.56-0.34-0.91-0.7-1.05L353.13,328.15z M353.44,325.7l0.08,0.07
						h0.08l0.23-0.21l-0.16-0.28C353.52,325.33,353.44,325.47,353.44,325.7z M353.83,323.54v0.07l0.08,0.21h0.23l0.16-0.14v-0.07
						l-0.39-0.07H353.83z M353.83,333.17v0.14l0.23,0.07l0.16-0.21l-0.08-0.28L353.83,333.17z M354.38,325.56v0.07l0.08,0.07v0.07
						l0.31-0.21l-0.23-0.14L354.38,325.56z M354.61,327.38v0.14l0.16,0.14l0.16-0.14l-0.16-0.14H354.61z M356.41,350.55l0.16,0.42
						v0.84l0.08,0.07v0.07l-0.08,0.07h-0.16l-0.16-0.14v-0.7c0-0.08-0.18-0.15-0.55-0.21v-0.07
						C355.71,350.77,355.94,350.65,356.41,350.55z M355.86,324.59l-0.08,0.28l0.08,0.07h0.23v-0.21l-0.16-0.14H355.86z M356.8,326.4
						l0.16,0.14l-0.08,0.07h-0.08l-0.16-0.14l0.08-0.07H356.8z M357.34,325.42h0.47v-0.35L357.34,325.42z M360.38,335.68l-0.16,0.14
						l0.08,0.21h0.16l0.16-0.14L360.38,335.68z M360.77,324.24l-0.08,0.07v0.07l0.16,0.14h0.08v-0.14L360.77,324.24z M361.4,325.7
						c0,0.23-0.21,0.49-0.62,0.77l0.08,0.07h0.16c0.39,0,0.6-0.07,0.62-0.21v-0.63H361.4z M361.4,328.49l0.08,0.35l2.57-0.42
						l-0.16-0.14l-1.09,0.21c-0.47-0.15-0.7-0.27-0.7-0.35l0.08-0.21l-0.08-0.07h-0.08L361.4,328.49z M361.71,348.67v0.14l0.16,0.14
						l0.08-0.07v-0.07L361.71,348.67z M362.02,330.1v0.28h0.16v-0.14L362.02,330.1z M362.8,335.96l-0.31,0.14v0.07
						c0.94,0.35,1.4,0.81,1.4,1.4l0.39-0.07l0.31,0.21l0.23-0.21c-0.26-0.12-0.39-0.3-0.39-0.56c0-0.23,0.16-0.54,0.47-0.91
						l-1.25,0.28l-0.08-0.07l0.08-0.07v-0.28l-0.08,0.07H362.8z M362.88,345.25l-0.16,0.21h0.16l0.16-0.14l-0.08-0.07H362.88z
						 M363.11,324.59v0.14c0,0.07,0.1,0.14,0.31,0.21c0-0.19,0.13-0.28,0.39-0.28v-0.35c0.21-0.28,0.42-0.42,0.62-0.42v-0.07h-0.23
						L363.11,324.59z M364.36,328.91v0.07l0.7,0.49v-0.21C364.87,329.26,364.63,329.15,364.36,328.91z M364.59,338.41l0.62,0.21
						c0-0.28,0.13-0.42,0.39-0.42v-0.07l-0.16-0.21c-0.52,0-0.78,0.07-0.78,0.21L364.59,338.41z M364.9,344.41
						c0,0.16,0.1,0.35,0.31,0.56l-0.31,0.14v0.07l1.33-0.21v-0.07c-0.47,0-0.7-0.26-0.7-0.77h-0.31L364.9,344.41z M365.14,342.45
						l-0.08,0.28l0.08,0.07h0.16v-0.21L365.14,342.45z M370.52,317.75h0.16l0.16,0.14l-0.08,0.07h-0.08l-0.16-0.14V317.75z"/>
					<path class="st0" d="M386.76,324.57c0.26,0,0.39,1.95,0.39,5.86l-0.08,0.07H387l0.08,0.56l-0.08,5.3c0,2.12,0.23,4.58,0.7,7.4
						l-0.16,0.98c0.18,0.6,0.62,0.91,1.33,0.91c0.78,0,1.17-0.4,1.17-1.19v-0.35l-0.39-1.68l0.23-5.16l-0.23-3.77v-6
						c0-1.14-0.05-2.05-0.16-2.72l0.08-0.07h0.08l8.65-0.21l0.08,0.07l0.16,6.98l-0.16,6.98l0.16,0.63l-0.16,2.3
						c0.26,0.69,0.39,1.15,0.39,1.4l-0.16,0.91v0.07l0.31,1.88c-0.12,0-0.27,0.26-0.47,0.77l-3.35,0.77c0,0.1,0.13,0.17,0.39,0.21
						l0.23-0.21h0.16c0.47,0.08,0.7,0.24,0.7,0.49h0.16c0.79,0,1.52-0.07,2.18-0.21c0.16,0.22,0.23,0.52,0.23,0.91v0.49
						c0,0.51-0.18,0.77-0.54,0.77c0,0.09-1.56,0.16-4.68,0.21l-3.66-0.07l-0.23-0.35c0-0.4,0.05-0.72,0.16-0.98
						c-0.06-0.23-0.14-0.35-0.23-0.35h-0.08c-0.08,0-0.26,0.26-0.55,0.77c-1.35,1.02-2.49,1.54-3.43,1.54h-1.48
						c-2.18-0.16-3.27-0.49-3.27-0.98c-0.69-0.22-1.34-0.9-1.95-2.02c-0.47-0.84-0.7-2.3-0.7-4.4v-1.88h0.08l0.08,0.07h0.08
						l0.16-0.28c-0.26-0.04-0.39-0.1-0.39-0.21l-0.31-6.14l0.08-0.07h0.08c0.09,0.09,0.51,0.19,1.25,0.28l0.23-0.28
						c-0.47-0.14-0.7-0.49-0.7-1.05v-0.21h-0.08c0,0.51-0.29,0.77-0.86,0.77l-0.08-0.07l-0.08-3.49v-3.77l-0.16-1.95l0.08-0.07h0.08
						l1.48-0.07l1.79,0.07v0.07l-0.08,0.28h0.23v-0.14h0.08l-0.08-0.07v-0.14h2.18L386.76,324.57z M378.58,335.25l-0.16,0.21v0.14
						h0.31v-0.21L378.58,335.25z M378.89,325.89l-0.08,0.07v0.07l0.31,0.21l0.16-0.21L378.89,325.89z M379.75,341.18v0.21h0.16
						l0.08-0.21H379.75z M379.82,332.11c0.31,0.28,0.47,0.51,0.47,0.7v0.28l-0.23,0.21l0.16,0.35c0.22-0.19,0.58-0.28,1.09-0.28
						l-0.16-0.21v-0.28l0.08-0.07v-0.07h-0.23l-0.39,0.07c-0.2-0.45-0.35-0.69-0.47-0.7H379.82z M380.29,338.18v0.07l0.16,0.14
						l0.08-0.07v-0.14H380.29z M381.7,345.79l-0.08,0.07v0.07l0.08,0.07h0.23L381.7,345.79z M382.71,336.36l-0.62-0.21l-0.39,0.14
						l0.55,0.91l0.86,0.21c0.31-0.23,0.47-0.44,0.47-0.63l0.16-0.7L382.71,336.36z M381.7,340.06c0,0.1,0.31,0.17,0.94,0.21
						c0.21,0.2,0.31,0.38,0.31,0.56v0.14l-0.16,0.21l0.08,0.07v0.07c0,0.22-0.36,0.55-1.09,0.98c0.36,0,0.55,0.26,0.55,0.77
						l0.62,0.14l-0.31-0.35v-0.07h0.47l0.39,0.07c0.31-0.47,0.47-0.77,0.47-0.91v-0.07l-0.47-0.56v-0.35l0.39-0.35
						c-0.25-0.65-0.64-0.98-1.17-0.98c0-0.09-0.1-0.14-0.31-0.14C382.14,339.5,381.9,339.69,381.7,340.06z M382.48,334.97
						l-0.08,0.28h0.23v-0.07l-0.08-0.21H382.48z M384.74,333.78c-0.48-0.14-0.92-0.21-1.33-0.21h-0.23
						c0.26,0.28,0.39,0.49,0.39,0.63c-0.31,0.1-0.62,0.29-0.94,0.56v0.07h0.08l1.01-0.42l-0.08-0.07v-0.28l0.39-0.35
						c1.14,0.37,1.71,0.67,1.71,0.91l0.39-0.07h0.23l0.08,0.07h0.08l0.08-0.07v-0.07c-0.16-0.17-0.23-0.34-0.23-0.49v-0.14
						l0.08-0.35C385.85,333.5,385.28,333.6,384.74,333.78z M383.8,347.95v0.14h0.08l0.16-0.14H383.8z M385.59,336.85v0.07h0.08
						l0.16-0.14v-0.07h-0.08L385.59,336.85z M390.82,333.78v0.21h0.23L390.82,333.78z M391.36,331.34v0.07
						c0.21,0.2,0.31,0.38,0.31,0.56v0.14c0,0.09-0.1,0.14-0.31,0.14l-0.08,0.35v0.07l0.7-0.14l0.7,0.21l0.23-0.49H393
						c0.3,0.37,0.53,0.56,0.7,0.56c0.74,0,1.26-0.19,1.56-0.56c0.36-0.19,0.73-0.28,1.09-0.28l0.86,0.28v-0.07l-0.23-0.63
						c-1.2,0-1.79,0.21-1.79,0.63l-0.23,0.14h-1.4l-0.47-0.28l-0.7,0.07v-0.07l0.31-0.49l-0.16-0.42v-0.07l0.08-0.07v-0.07h-0.08
						l-0.78,0.35L391.36,331.34z M391.36,334.13v0.14h0.23v-0.14H391.36z M391.67,334.76c0,0.09-0.08,0.14-0.23,0.14v0.21h0.31
						l0.08-0.28l-0.08-0.07H391.67z M393.31,335.74v0.07c0,0.33,0.18,0.49,0.55,0.49h0.08c0.48-0.45,1.13-0.8,1.95-1.05
						c0-0.09,0.08-0.14,0.23-0.14v-0.07l-0.39-0.07h-0.23c-1.25,0-1.87,0.09-1.87,0.28L393.31,335.74z M394.79,337.27l0.08,0.07
						h0.08l0.08-0.07v-0.14h-0.08L394.79,337.27z M397.21,332.32l-0.08,0.21h0.16v-0.21H397.21z"/>
					<path class="st0" d="M418.95,324.1h0.7c3.38,0.14,5.28,0.54,5.69,1.19c0.68,0.2,1.01,0.34,1.01,0.42
						c0.23,0.45,0.75,1.01,1.56,1.68c0.83,2.02,1.25,3.26,1.25,3.7l-0.23,1.19l0.39,0.49v0.21l-0.55,0.49l0.08,1.26l-0.08,2.86
						l-0.08,0.07h-0.08l-1.79,0.07l-2.49-0.14v-0.07l0.16-0.49h-0.08c-0.48,0.42-1.13,0.63-1.95,0.63l-0.94,0.07l-0.16-0.21
						l-2.96,0.28c0,0.21-0.23,0.4-0.7,0.56c0,0.13-0.13,0.31-0.39,0.56v0.14c0.34,0,0.62,0.14,0.86,0.42v0.14
						c0,0.4-0.36,0.72-1.09,0.98c-0.16,0.33-0.39,0.49-0.7,0.49l-0.62-0.28l-0.16,0.14v0.07c0,0.17,0.31,0.29,0.94,0.35l0.39,1.33
						c0.39-0.19,0.78-0.28,1.17-0.28v0.07c-0.1,0.21-0.16,0.51-0.16,0.91v0.28c0,1.3,0.44,1.95,1.33,1.95
						c0.99-0.17,1.48-0.59,1.48-1.26c0.16-0.37,0.23-0.86,0.23-1.47v-0.56l0.16-0.14h0.16c0,0.31,0.23,0.55,0.7,0.7l0.23-0.28
						l-0.16-0.21v-0.07c0-0.42,0.16-0.63,0.47-0.63l1.25,0.14c0-0.13,0.13-0.2,0.39-0.21v-0.14c0-0.35-0.18-0.6-0.55-0.77l-0.7,0.35
						l-1.17-0.28v0.14l0.08,0.35l-0.39,0.07l0.08,0.49v0.14h-0.08c-0.23-0.08-0.42-0.22-0.55-0.42v-0.91l-0.08-0.35
						c0.12-0.09,0.3-0.14,0.54-0.14l0.08-0.35l-0.47-0.35v-0.07c0-0.09,0.52-0.19,1.56-0.28c0,0.07,0.1,0.14,0.31,0.21l0.47-0.14
						c0.3,0,0.56,0.12,0.78,0.35l-0.08,0.07v0.07c0.79,0.33,1.34,0.49,1.64,0.49l0.08,0.07v0.07l-0.7,0.63v0.07h0.23
						c0.52,0,0.78,0.21,0.78,0.63l0.39-0.07h0.23l0.23-0.56l-0.16-0.42l0.16-0.63v-0.07c0-0.28-0.21-0.42-0.62-0.42l-0.08-0.07
						v-0.07c0.27-0.09,0.82-0.14,1.64-0.14h0.7l0.23,0.14l-0.08,0.84v3.07c0,2.19-1.09,4-3.27,5.44c-2.34,1.02-4.31,1.54-5.92,1.54
						c-1.31,0-3.5-0.37-6.55-1.12c-0.4-0.19-0.61-0.37-0.62-0.56c-0.29,0-1.09-0.72-2.42-2.16l0.08-0.28l-0.62-1.81v-0.14l0.16-0.14
						h0.23l0.86,0.56l0.62-0.42c-0.42,0-0.78-0.12-1.09-0.35l-0.08,0.07h-0.62l-0.08-0.07h-0.08l0.08-1.19v-2.44
						c0-0.58,0.16-1.37,0.47-2.37l-0.08-0.07v-1.4c0.26,0,0.39-0.12,0.39-0.35c0-0.19,0.16-0.28,0.47-0.28v-0.07
						c-0.57,0-0.86-0.09-0.86-0.28l-0.08-1.26v-0.77c0-2.15,0.73-4.39,2.18-6.7c1.68-1.14,3-1.79,3.98-1.95
						C416.31,324.28,417.35,324.1,418.95,324.1z M409.6,340.29l0.47,0.49v0.35h0.62v-0.07c-0.33,0-0.53-0.28-0.62-0.84L409.6,340.29
						z M412.25,338.89v0.49c-0.26,0.16-0.39,0.37-0.39,0.63c-0.09,0.23-0.25,0.35-0.47,0.35l0.08,0.07v0.07
						c0,0.37-0.21,0.56-0.62,0.56v0.07l0.47,0.42v0.07l-0.62,0.7l0.23,0.56c1.14-0.28,1.71-0.49,1.71-0.63
						c-0.83-0.57-1.25-0.9-1.25-0.98c0-0.15,0.44-0.57,1.33-1.26c0-0.14,0.05-0.21,0.16-0.21c0.27,0.33,0.53,0.49,0.78,0.49h0.08
						l-0.08-0.07v-0.14l0.47-0.42c-0.31,0-0.47-0.05-0.47-0.14l0.08-0.21c0-0.29-0.31-0.5-0.94-0.63h-0.08L412.25,338.89z
						 M410.77,329.61v0.14l0.08,0.21h0.08v-0.14l0.08-0.07l-0.16-0.14H410.77z M411.62,322.98c0.21,0.07,0.31,0.23,0.31,0.49v0.14
						l-0.08,0.07v0.07c-0.31-0.09-0.47-0.28-0.47-0.56L411.62,322.98z M413.34,331.08l-0.16,0.14l0.08,0.21l0.23-0.07v-0.14
						L413.34,331.08z M418.41,330.38l0.08,3h2.34v-2.93c0-0.57-0.18-1.17-0.55-1.81h-0.31c-0.93,0.08-1.4,0.31-1.4,0.7
						L418.41,330.38z M421.45,325.7l0.08,0.07h0.08c0.21-0.07,0.31-0.14,0.31-0.21l-0.16-0.14h-0.08
						C421.6,325.42,421.52,325.52,421.45,325.7z M422.62,325.91v0.07l0.16,0.14l0.08-0.07v-0.07l-0.08-0.07H422.62z M426.12,320.4
						l0.39,0.49v0.07c-0.27,0-0.46-0.09-0.55-0.28v-0.14L426.12,320.4z M426.12,328.35c0.05,0.51,0.13,0.77,0.23,0.77h0.08v-0.14
						h0.08l-0.08-0.07v-0.63h-0.16l-0.08,0.07H426.12z M426.98,322.63c0.57,0.07,0.86,0.19,0.86,0.35v0.14h-0.16
						C427.21,323.12,426.98,322.96,426.98,322.63z M427.45,335.19v0.07c0.03,0.09,0.16,0.19,0.39,0.28v-0.07l-0.23-0.28H427.45z
						 M429.24,334.99h0.08l0.39,0.28l-0.08,0.07h-0.39l-0.16-0.14v-0.07L429.24,334.99z M430.18,332.26l0.16,0.14v0.14l-0.23,0.21
						h-0.08l-0.16-0.14C429.97,332.4,430.07,332.29,430.18,332.26z"/>
					<path class="st0" d="M453.15,322.98l0.16,0.28l-0.31,6.28v1.61l0.08,0.7l-2.57,0.49c-1.09,0.31-1.64,0.66-1.64,1.05
						c-0.68,0-1.01,1.3-1.01,3.91v0.63c-0.21,0-0.31,0.05-0.31,0.14c0.26,0.07,0.39,0.23,0.39,0.49v0.98l-0.08,0.07v0.07l-0.08-0.07
						h-0.55l-0.23,0.14l-0.31-0.07l-0.16,0.14h-0.78l-0.31-0.28v-0.35l0.23-0.21h0.55l0.16-0.35h-0.78c-0.68,0-1.01,0.07-1.01,0.21
						v0.63l-0.08,0.07c-0.17,0.08-0.33,0.31-0.47,0.7c-0.29,0.23-0.6,0.35-0.94,0.35h-0.23c-0.78,0-1.17-0.12-1.17-0.35h-0.08
						c-0.1,0-0.16,0.16-0.16,0.49c-0.36,0.13-0.6,0.38-0.7,0.77h0.62c0.27-0.19,0.51-0.28,0.7-0.28h0.08
						c0.42,0.06,0.62,0.2,0.62,0.42l-0.23,0.42h0.7c0,0.14,0.05,0.21,0.16,0.21c0.14-0.1,0.66-0.22,1.56-0.35l-0.23-0.98
						c0.01-0.1,0.51-0.41,1.48-0.91h0.16v0.56c0.26,0.37,0.52,0.58,0.78,0.63l0.08,0.07l0.08-0.07v-0.07
						c-0.36-0.12-0.55-0.4-0.55-0.84l0.7-0.28c0.36,0.08,0.55,0.17,0.55,0.28v0.42c0,0.15-0.08,0.31-0.23,0.49
						c0.21,0,0.31,0.21,0.31,0.63v0.07c0,1.9,0.1,4.25,0.31,7.05c-2.1,0.33-4.03,0.49-5.77,0.49h-2.73l-0.08-0.07h-0.08
						c-0.16-7.33-0.34-12.1-0.55-14.31l0.7-4.54l-0.16-0.98l0.16-4.05l-0.08-0.7c0-0.2,0.1-0.43,0.31-0.7l8.34-0.28l0.08,0.07v0.07
						l-0.31,2.37l1.25-1.75c0.23-0.19,0.47-0.28,0.7-0.28c0-0.29,0.26-0.45,0.78-0.49c0.26-0.35,0.96-0.63,2.1-0.84H453.15z
						 M440.21,333.1l0.08,0.21l0.31-0.21H440.21z M440.75,337.99v0.07l0.16,0.14h0.08v-0.07l-0.16-0.14H440.75z M441.22,324.45v0.07
						h0.08l0.08-0.28C441.27,324.24,441.22,324.31,441.22,324.45z M441.45,337.78l-0.16,0.28l0.23,0.14h0.08l0.08-0.28
						L441.45,337.78z M442.23,342.59v0.14l0.16,0.14h0.16v-0.14l-0.16-0.14H442.23z M442.93,325.84l0.16,0.14h0.23v-0.07l-0.23-0.21
						L442.93,325.84z M443.64,333.24v0.07l0.47-0.07l-0.16-0.21C443.74,333.1,443.64,333.17,443.64,333.24z M443.79,337.29v0.07
						h0.08c0-0.19,0.08-0.28,0.23-0.28v-0.14C444,336.96,443.9,337.08,443.79,337.29z M444.49,333.87l0.31,0.91h0.08l0.31-0.21
						l-0.23-0.42l0.08-0.63L444.49,333.87z M446.36,332.96v0.07l0.16,0.14h0.08l0.08-0.07h0.08l-0.23-0.28L446.36,332.96z
						 M451.28,321.24l0.16,0.21v0.07l-0.16,0.14l-0.16-0.35l0.08-0.07H451.28z M452.29,321.52l0.23,0.21v0.14l-0.16,0.14h-0.16
						l-0.08-0.07h-0.08C452.12,321.65,452.2,321.52,452.29,321.52z M453.15,321.72c0.29,0.08,0.49,0.2,0.62,0.35l-0.23,0.14
						c-0.42-0.06-0.62-0.15-0.62-0.28L453.15,321.72z"/>
					<path class="st0" d="M477.25,322.98l0.16,0.28l-0.31,6.28v1.61l0.08,0.7l-2.57,0.49c-1.09,0.31-1.64,0.66-1.64,1.05
						c-0.68,0-1.01,1.3-1.01,3.91v0.63c-0.21,0-0.31,0.05-0.31,0.14c0.26,0.07,0.39,0.23,0.39,0.49v0.98l-0.08,0.07v0.07l-0.08-0.07
						h-0.55l-0.23,0.14l-0.31-0.07l-0.16,0.14h-0.78l-0.31-0.28v-0.35l0.23-0.21h0.55l0.16-0.35h-0.78c-0.68,0-1.01,0.07-1.01,0.21
						v0.63l-0.08,0.07c-0.17,0.08-0.33,0.31-0.47,0.7c-0.29,0.23-0.6,0.35-0.94,0.35h-0.23c-0.78,0-1.17-0.12-1.17-0.35h-0.08
						c-0.1,0-0.16,0.16-0.16,0.49c-0.36,0.13-0.6,0.38-0.7,0.77h0.62c0.27-0.19,0.51-0.28,0.7-0.28h0.08
						c0.42,0.06,0.62,0.2,0.62,0.42l-0.23,0.42h0.7c0,0.14,0.05,0.21,0.16,0.21c0.14-0.1,0.66-0.22,1.56-0.35l-0.23-0.98
						c0.01-0.1,0.51-0.41,1.48-0.91h0.16v0.56c0.26,0.37,0.52,0.58,0.78,0.63l0.08,0.07l0.08-0.07v-0.07
						c-0.36-0.12-0.55-0.4-0.55-0.84l0.7-0.28c0.36,0.08,0.55,0.17,0.55,0.28v0.42c0,0.15-0.08,0.31-0.23,0.49
						c0.21,0,0.31,0.21,0.31,0.63v0.07c0,1.9,0.1,4.25,0.31,7.05c-2.1,0.33-4.03,0.49-5.77,0.49h-2.73l-0.08-0.07h-0.08
						c-0.16-7.33-0.34-12.1-0.55-14.31l0.7-4.54l-0.16-0.98l0.16-4.05l-0.08-0.7c0-0.2,0.1-0.43,0.31-0.7l8.34-0.28l0.08,0.07v0.07
						l-0.31,2.37l1.25-1.75c0.23-0.19,0.47-0.28,0.7-0.28c0-0.29,0.26-0.45,0.78-0.49c0.26-0.35,0.96-0.63,2.1-0.84H477.25z
						 M464.31,333.1l0.08,0.21l0.31-0.21H464.31z M464.85,337.99v0.07l0.16,0.14h0.08v-0.07l-0.16-0.14H464.85z M465.32,324.45v0.07
						h0.08l0.08-0.28C465.37,324.24,465.32,324.31,465.32,324.45z M465.55,337.78l-0.16,0.28l0.23,0.14h0.08l0.08-0.28
						L465.55,337.78z M466.33,342.59v0.14l0.16,0.14h0.16v-0.14l-0.16-0.14H466.33z M467.03,325.84l0.16,0.14h0.23v-0.07l-0.23-0.21
						L467.03,325.84z M467.74,333.24v0.07l0.47-0.07l-0.16-0.21C467.84,333.1,467.74,333.17,467.74,333.24z M467.89,337.29v0.07
						h0.08c0-0.19,0.08-0.28,0.23-0.28v-0.14C468.1,336.96,468,337.08,467.89,337.29z M468.59,333.87l0.31,0.91h0.08l0.31-0.21
						l-0.23-0.42l0.08-0.63L468.59,333.87z M470.47,332.96v0.07l0.16,0.14h0.08l0.08-0.07h0.08l-0.23-0.28L470.47,332.96z
						 M475.38,321.24l0.16,0.21v0.07l-0.16,0.14l-0.16-0.35l0.08-0.07H475.38z M476.39,321.52l0.23,0.21v0.14l-0.16,0.14h-0.16
						l-0.08-0.07h-0.08C476.22,321.65,476.3,321.52,476.39,321.52z M477.25,321.72c0.29,0.08,0.49,0.2,0.62,0.35l-0.23,0.14
						c-0.42-0.06-0.62-0.15-0.62-0.28L477.25,321.72z"/>
					<path class="st0" d="M497.33,324.1h0.7c3.38,0.14,5.28,0.54,5.69,1.19c0.68,0.2,1.01,0.34,1.01,0.42
						c0.23,0.45,0.75,1.01,1.56,1.68c0.83,2.02,1.25,3.26,1.25,3.7l-0.23,1.19l0.39,0.49v0.21l-0.55,0.49l0.08,1.26l-0.08,2.86
						l-0.08,0.07H507l-1.79,0.07l-2.49-0.14v-0.07l0.16-0.49h-0.08c-0.48,0.42-1.13,0.63-1.95,0.63l-0.94,0.07l-0.16-0.21
						l-2.96,0.28c0,0.21-0.23,0.4-0.7,0.56c0,0.13-0.13,0.31-0.39,0.56v0.14c0.34,0,0.62,0.14,0.86,0.42v0.14
						c0,0.4-0.36,0.72-1.09,0.98c-0.16,0.33-0.39,0.49-0.7,0.49l-0.62-0.28l-0.16,0.14v0.07c0,0.17,0.31,0.29,0.94,0.35l0.39,1.33
						c0.39-0.19,0.78-0.28,1.17-0.28v0.07c-0.1,0.21-0.16,0.51-0.16,0.91v0.28c0,1.3,0.44,1.95,1.33,1.95
						c0.99-0.17,1.48-0.59,1.48-1.26c0.16-0.37,0.23-0.86,0.23-1.47v-0.56l0.16-0.14h0.16c0,0.31,0.23,0.55,0.7,0.7l0.23-0.28
						l-0.16-0.21v-0.07c0-0.42,0.16-0.63,0.47-0.63l1.25,0.14c0-0.13,0.13-0.2,0.39-0.21v-0.14c0-0.35-0.18-0.6-0.55-0.77l-0.7,0.35
						l-1.17-0.28v0.14l0.08,0.35l-0.39,0.07l0.08,0.49v0.14h-0.08c-0.23-0.08-0.42-0.22-0.55-0.42v-0.91l-0.08-0.35
						c0.12-0.09,0.3-0.14,0.54-0.14l0.08-0.35l-0.47-0.35v-0.07c0-0.09,0.52-0.19,1.56-0.28c0,0.07,0.1,0.14,0.31,0.21l0.47-0.14
						c0.3,0,0.56,0.12,0.78,0.35l-0.08,0.07v0.07c0.79,0.33,1.34,0.49,1.64,0.49l0.08,0.07v0.07l-0.7,0.63v0.07h0.23
						c0.52,0,0.78,0.21,0.78,0.63l0.39-0.07h0.23l0.23-0.56l-0.16-0.42l0.16-0.63v-0.07c0-0.28-0.21-0.42-0.62-0.42l-0.08-0.07
						v-0.07c0.27-0.09,0.82-0.14,1.64-0.14h0.7l0.23,0.14l-0.08,0.84v3.07c0,2.19-1.09,4-3.27,5.44c-2.34,1.02-4.31,1.54-5.92,1.54
						c-1.31,0-3.5-0.37-6.55-1.12c-0.4-0.19-0.61-0.37-0.62-0.56c-0.29,0-1.09-0.72-2.42-2.16l0.08-0.28l-0.62-1.81v-0.14l0.16-0.14
						h0.23l0.86,0.56l0.62-0.42c-0.42,0-0.78-0.12-1.09-0.35l-0.08,0.07h-0.62l-0.08-0.07h-0.08l0.08-1.19v-2.44
						c0-0.58,0.16-1.37,0.47-2.37l-0.08-0.07v-1.4c0.26,0,0.39-0.12,0.39-0.35c0-0.19,0.16-0.28,0.47-0.28v-0.07
						c-0.57,0-0.86-0.09-0.86-0.28l-0.08-1.26v-0.77c0-2.15,0.73-4.39,2.18-6.7c1.68-1.14,3-1.79,3.98-1.95
						C494.69,324.28,495.73,324.1,497.33,324.1z M487.98,340.29l0.47,0.49v0.35h0.62v-0.07c-0.33,0-0.53-0.28-0.62-0.84
						L487.98,340.29z M490.63,338.89v0.49c-0.26,0.16-0.39,0.37-0.39,0.63c-0.09,0.23-0.25,0.35-0.47,0.35l0.08,0.07v0.07
						c0,0.37-0.21,0.56-0.62,0.56v0.07l0.47,0.42v0.07l-0.62,0.7l0.23,0.56c1.14-0.28,1.71-0.49,1.71-0.63
						c-0.83-0.57-1.25-0.9-1.25-0.98c0-0.15,0.44-0.57,1.33-1.26c0-0.14,0.05-0.21,0.16-0.21c0.27,0.33,0.53,0.49,0.78,0.49h0.08
						l-0.08-0.07v-0.14l0.47-0.42c-0.31,0-0.47-0.05-0.47-0.14l0.08-0.21c0-0.29-0.31-0.5-0.94-0.63h-0.08L490.63,338.89z
						 M489.15,329.61v0.14l0.08,0.21h0.08v-0.14l0.08-0.07l-0.16-0.14H489.15z M490,322.98c0.21,0.07,0.31,0.23,0.31,0.49v0.14
						l-0.08,0.07v0.07c-0.31-0.09-0.47-0.28-0.47-0.56L490,322.98z M491.72,331.08l-0.16,0.14l0.08,0.21l0.23-0.07v-0.14
						L491.72,331.08z M496.79,330.38l0.08,3h2.34v-2.93c0-0.57-0.18-1.17-0.55-1.81h-0.31c-0.93,0.08-1.4,0.31-1.4,0.7
						L496.79,330.38z M499.83,325.7l0.08,0.07h0.08c0.21-0.07,0.31-0.14,0.31-0.21l-0.16-0.14h-0.08
						C499.98,325.42,499.9,325.52,499.83,325.7z M501,325.91v0.07l0.16,0.14l0.08-0.07v-0.07l-0.08-0.07H501z M504.5,320.4
						l0.39,0.49v0.07c-0.27,0-0.46-0.09-0.55-0.28v-0.14L504.5,320.4z M504.5,328.35c0.05,0.51,0.13,0.77,0.23,0.77h0.08v-0.14h0.08
						l-0.08-0.07v-0.63h-0.16l-0.08,0.07H504.5z M505.36,322.63c0.57,0.07,0.86,0.19,0.86,0.35v0.14h-0.16
						C505.6,323.12,505.36,322.96,505.36,322.63z M505.83,335.19v0.07c0.03,0.09,0.16,0.19,0.39,0.28v-0.07l-0.23-0.28H505.83z
						 M507.62,334.99h0.08l0.39,0.28l-0.08,0.07h-0.39l-0.16-0.14v-0.07L507.62,334.99z M508.56,332.26l0.16,0.14v0.14l-0.23,0.21
						h-0.08l-0.16-0.14C508.35,332.4,508.45,332.29,508.56,332.26z"/>
					<path class="st0" d="M517.44,327.31l0.08,0.21c-0.1,0.21-0.21,0.33-0.31,0.35l-0.08-0.07v-0.07
						C517.24,327.45,517.35,327.31,517.44,327.31z M517.44,326.54l0.16,0.21c-0.07,0.23-0.14,0.35-0.23,0.35h-0.08v-0.42
						L517.44,326.54z M517.52,324.17l0.08,0.07v0.21h-0.08l-0.16-0.14L517.52,324.17z M526.71,323.89c1.35,0,2.86,0.26,4.52,0.77
						c0.2,0.36,0.79,0.69,1.79,0.98c0,0.15,0.39,0.5,1.17,1.05c0.94,1.1,1.4,2.83,1.4,5.16c0,0.55-0.05,0.92-0.16,1.12l-4.05,0.07
						h-0.08c-1.58,0-2.73-0.12-3.43-0.35c0.1-0.2,0.16-0.57,0.16-1.12v-0.77c-0.12-1.35-0.27-2.02-0.47-2.02h-0.86
						c-0.62,0-0.99,0.54-1.09,1.6c0,1.57,0.7,2.59,2.1,3.07l0.39,0.28h0.08c0.16-0.05,0.23-0.19,0.23-0.42h0.08
						c0.07,0,0.2,0.37,0.39,1.12c1.55,0.83,2.58,1.29,3.12,1.4c0,0.2,0.49,0.41,1.48,0.63c0.03,0.23,0.52,0.58,1.48,1.05
						c0.31,0.19,0.78,1.28,1.4,3.28c0,0.76,0.08,1.57,0.23,2.44v0.28c0,0.4-0.05,0.7-0.16,0.91l0.08,0.21c-0.74,2-1.21,3-1.4,3
						c-1.39,1.21-2.2,1.81-2.42,1.81l-3.59,0.7l-1.25,0.07h-0.62c-3.26,0-6.02-1.07-8.26-3.21l-0.55-2.79
						c-0.09,0-0.17-0.26-0.23-0.77l0.08-2.02l-0.08-0.77l2.03-0.14h0.39c3.22,0.09,4.83,0.26,4.83,0.49
						c0.16,1.93,0.42,3.3,0.78,4.12c0.22,0.23,0.58,0.35,1.09,0.35c0.36,0,0.78-0.3,1.25-0.91l-0.08-0.07v-0.42
						c0-0.15,0.08-0.31,0.23-0.49c0-1.57-0.68-2.5-2.03-2.79c-0.13,0-1.95-1.14-5.46-3.42c-2.39-1.2-3.59-2.92-3.59-5.16v-0.56
						l0.16-1.33l-0.08-0.07h-0.08c0-1.99,0.75-3.69,2.26-5.1C521.8,324.31,524.06,323.89,526.71,323.89z M518.06,335.82h0.39v0.14
						h-0.39V335.82z M518.61,341.13v0.28h0.08v-0.28H518.61z M524.61,327.8v0.07l0.39,0.07h0.16v-0.14H524.61z M531,323.4h0.16
						l0.08,0.63h-0.16l-0.16-0.14v-0.14L531,323.4z"/>
					<path class="st0" d="M546.98,318.72c0.67,0.19,1.33,0.28,1.95,0.28h4.6c1.3,0,1.95,0.09,1.95,0.28v1.95l0.08,1.47
						c-0.05,0.37-0.26,0.56-0.62,0.56h-0.08l-1.48-0.21l-1.17,0.21l-3.59-0.56l-1.33,0.14c-0.31-0.05-0.47-0.12-0.47-0.21v-3.77
						L546.98,318.72z M547.13,324.38h2.88l0.39,0.07l0.47-0.07h1.87c1.97,0,2.96,0.09,2.96,0.28v2.23l-0.08,1.54l0.08,2.02v7.4
						l0.47,10.61v1.26l-0.16,0.14h-0.7l-2.88,0.21l-2.11-0.14l-0.08-0.07v-0.14c0.16,0,0.23-0.05,0.23-0.14
						c0-0.15-0.13-0.43-0.39-0.84c-0.35,0.19-0.66,0.28-0.94,0.28l-0.39-0.28c0,0.33-0.18,0.49-0.55,0.49h-0.16
						c-0.52-0.24-0.78-0.48-0.78-0.7c-0.16,0-0.26-0.35-0.31-1.05l0.08-1.95l0.16-0.14c-0.13,0-0.21-0.09-0.23-0.28l0.08-14.24
						l-0.16-4.75l0.16-1.33l-0.16-0.14v-0.07L547.13,324.38z M547.75,335.96c0,0.33-0.1,0.49-0.31,0.49v0.14l0.31,0.07
						c0-0.12,0.1-0.28,0.31-0.49L547.75,335.96z M547.6,330.17h0.39v-0.28h-0.08L547.6,330.17z M547.68,319.35v0.07l1.25,0.21
						l0.23-0.49h-0.23C548.48,319.28,548.07,319.35,547.68,319.35z M547.99,344.9l-0.08,0.07v0.07l0.08,0.07h0.31v-0.14
						L547.99,344.9z M549.24,349.5l0.55,0.21v0.14c-0.42-0.04-0.62-0.1-0.62-0.21l0.08-0.07V349.5z M550.72,334.29
						c0,0.19-0.26,0.42-0.78,0.7v0.14l0.23-0.07l0.39,0.21c0.1-0.19,0.26-0.28,0.47-0.28v-0.49L550.72,334.29z M550.02,345.32v0.21
						l0.23,0.07l0.08-0.07v-0.07l-0.16-0.14H550.02z M550.02,346.36l0.23,0.21l0.23-0.14l-0.08-0.21h-0.23L550.02,346.36z
						 M550.25,333.66c0.09,0.09,0.61,0.19,1.56,0.28l0.08-0.21c0-0.28-0.16-0.42-0.47-0.42h-0.08
						C550.61,333.31,550.25,333.43,550.25,333.66z M552.2,350.48l0.08,0.07v0.07l-0.08,0.07h-0.08l-0.08-0.07v-0.07l0.08-0.07H552.2
						z M553.06,346.78l-0.08,0.07v0.07l0.39,0.21v-0.14l0.08-0.07l-0.08-0.07L553.06,346.78z M554.3,350.69v0.14l-0.16,0.14h-0.08
						l-0.16-0.14L554.3,350.69z"/>
					<path class="st0" d="M566.59,346.5v0.14l-0.47,0.07l-0.08-0.07v-0.07l0.08-0.07H566.59z M570.65,342.8h2.34
						c0.17,0,0.3,0.49,0.39,1.47h-0.08l0.55,4.12v0.91l-0.08,0.07v0.07c-0.73,0-2-0.14-3.82-0.42l-1.95,0.07
						c-0.68-0.08-1.01-0.17-1.01-0.28v-1.75c0-0.15-0.08-0.31-0.23-0.49v-0.07h0.23v-0.77l-0.16-2.58
						C566.83,343.02,568.1,342.91,570.65,342.8z"/>
					<path class="st0" d="M595.86,324.73c2.74,0,4.95,0.77,6.63,2.3c0.17,0,0.38,0.28,0.62,0.84c0.52,0.69,0.78,1.36,0.78,2.02v0.07
						h-0.08c-0.62-0.4-0.94-0.65-0.94-0.77h-0.55l-0.86,0.28l-0.39-0.35h-0.16c-0.88,0-1.33,0.28-1.33,0.84l0.08,0.21l0.39-0.07
						h0.23c0.75,0,1.58,0.14,2.5,0.42l0.08-0.07h0.47c0.1,0,0.16,0.07,0.16,0.21l0.39-0.07c0.26,0,0.39,0.86,0.39,2.58l0.16,1.26
						l-0.08,0.07l-1.71-0.07h-1.4c-0.1,0-0.16-0.12-0.16-0.35c-0.44,0-0.88-0.16-1.33-0.49v-0.07l0.08-0.35
						c-1.1-0.28-1.81-0.42-2.1-0.42l-0.7,0.07l0.08,0.7l-0.39,0.35c0.49,0,0.88,0.19,1.17,0.56l-1.87,0.21l-0.16-0.21l0.47-3.14
						c-0.19-1.3-0.61-1.95-1.25-1.95h-0.47c-0.47,0.17-0.7,0.59-0.7,1.26v1.47c0,0.74-0.1,1.12-0.31,1.12h-0.16v0.07
						c0.21,0,0.31,0.05,0.31,0.14v1.12l0.08,0.7l-0.31,0.14c0-0.6-0.26-0.91-0.78-0.91l-0.7-0.14l-0.08,0.21
						c0,0.74,0.29,1.12,0.86,1.12l0.62,0.07h0.31l0.16,0.14v2.44h-0.16c0-0.14-0.05-0.21-0.16-0.21h-0.94
						c-0.3,0-0.61-0.12-0.94-0.35l0.31-0.63c0-0.27-0.29-0.45-0.86-0.56c-0.52,0-0.78,0.28-0.78,0.84c0,0.15,0.26,0.29,0.78,0.42
						c0,0.19,0.08,0.28,0.23,0.28l0.39,0.35c-0.17,0.42-0.51,0.63-1.01,0.63h-0.62l-0.39-0.07c0,0.15,0.36,0.24,1.09,0.28
						c0.53,0.33,1.21,0.49,2.03,0.49c0.42,0.24,0.62,0.55,0.62,0.91v0.21c0,0.12-0.29,0.23-0.86,0.35l-0.78-0.07h-1.17
						c-0.26,0-0.75,0.23-1.48,0.7h-0.55c-0.48-0.42-0.95-0.63-1.4-0.63h-0.08v0.07c0.18,0,0.6,0.26,1.25,0.77v0.28l-0.08,0.07v0.07
						l0.39-0.07h0.78c0.27,0,0.69,0.14,1.25,0.42l0.47-0.35h0.08l0.62,0.07l-0.16-0.21v-0.07h0.08l1.95-0.42h0.31
						c0.17,0.05,0.35,0.28,0.55,0.7c0.21,0,0.31,0.14,0.31,0.42l1.09,0.14h0.47c0.14,0,0.25-0.33,0.31-0.98l-0.08-1.33h0.16
						c0.21,0.09,0.31,0.21,0.31,0.35h0.16l1.09-0.77v-0.42h-0.08l-1.56,0.07v-0.42l0.23-0.21l2.5,0.07l2.42-0.07l0.47-0.28
						c0.27,0.13,1.03,0.27,2.26,0.42c0.1,0.21,0.16,0.51,0.16,0.91v0.7c-0.22,2.56-0.48,3.84-0.78,3.84
						c-0.36,0.42-0.62,0.93-0.78,1.54c-0.47,0.16-0.7,0.44-0.7,0.84c-1.57,1.63-2.82,2.44-3.74,2.44l-3.59,0.42l-1.4-0.28
						l-0.39,0.14l-2.18-0.49v-0.07l0.62-0.56v-0.07c-1,0.33-1.75,0.49-2.26,0.49h-0.08v-0.14l0.31-0.07l-1.25-0.98v-0.07h0.55
						c0.97,0,1.65-0.19,2.03-0.56l0.39,0.14c0.67-0.31,1.04-0.55,1.09-0.7c-0.1,0-0.23-0.19-0.39-0.56
						c-0.25,0.14-0.58,0.21-1.01,0.21h-0.62l-0.78-0.07c-0.31,0.37-0.81,0.56-1.48,0.56c-0.53,0-0.95-0.19-1.25-0.56l0.08-0.56
						c-0.51-0.16-0.84-1.09-1.01-2.79c0.1-0.09,0.31-0.14,0.62-0.14l0.08-0.07c0.36-0.04,0.55-0.1,0.55-0.21
						c-0.88,0-1.33-0.14-1.33-0.42l-0.78-3.21l0.08-0.07h0.08c0.65,0,1.2,0.19,1.64,0.56h1.09c0.29,0,0.49-0.23,0.62-0.7l0.47-0.07
						v-0.07h-0.08l-1.25,0.07l-1.48-0.14c-0.14,0.09-0.53,0.19-1.17,0.28c-0.1-0.21-0.18-0.93-0.23-2.16l0.08-3.21l-0.16-1.33
						c0.26-0.45,0.49-1.69,0.7-3.7c2.58-2.56,5.29-3.84,8.11-3.84L595.86,324.73z M587.91,329.54v0.14h0.08l0.7-0.21v-0.07h-0.23
						L587.91,329.54z M588.06,347.62h0.08c0.21,0.07,0.31,0.14,0.31,0.21v0.14h-0.08l-0.31-0.28V347.62z M591.57,334.22l0.08,0.21
						h0.08l0.16-0.14v-0.07h-0.16l-0.08-0.07L591.57,334.22z M594.61,343.29v0.07c0.13,1.35,0.6,2.02,1.4,2.02h0.16
						c0.47,0,0.8-0.6,1.01-1.81l-0.47-0.14h-0.94L594.61,343.29z M599.6,326.54v0.07l0.16,0.14h0.08v-0.21H599.6z M600.15,331.43
						v0.07h0.23l0.55-0.07v-0.07h-0.39L600.15,331.43z M601.47,340.5v0.07l0.31,0.28v-0.14h0.08c-0.07-0.23-0.14-0.35-0.23-0.35
						L601.47,340.5z M601.78,346.01h0.08l0.16-0.14h-0.08L601.78,346.01z M602.41,345.45l0.16,0.35h0.16v-0.14h0.08
						c-0.08-0.19-0.16-0.28-0.23-0.28l-0.08,0.07H602.41z M603.96,341.48c0.08,0.19,0.16,0.28,0.23,0.28l0.08-0.07v-0.07l-0.16-0.14
						H603.96z M604.2,342.24v0.07l0.23-0.21v-0.07L604.2,342.24z"/>
					<path class="st0" d="M622.78,323.68c0.43,0.14,0.79,0.21,1.09,0.21l0.7-0.14h0.23c2.07,0.07,4.04,0.47,5.92,1.19
						c1.53,0.95,2.55,1.86,3.04,2.72c0.34,0,0.57,0.86,0.7,2.58l0.31,2.09l-0.08,0.07l-0.31-0.14c-1.09,0.14-1.64,0.26-1.64,0.35
						c0,0.09-0.18,0.3-0.55,0.63v0.14l0.55,0.07h0.39v0.35c0.31,0.28,0.47,0.56,0.47,0.84l0.47-0.14h0.08
						c0.57,0,0.86,0.26,0.86,0.77v0.7c0,0.07-0.21,0.16-0.62,0.28v0.21h0.47l0.16,0.14v1.12l-0.55-0.07l-0.62,0.07
						c0,0.51,0.31,0.77,0.94,0.77l0.16,0.14l-0.08,0.84l0.55,3.14v0.63c-0.12,1.55-1.13,3.29-3.04,5.23
						c-2.04,1.16-4.38,1.74-7.02,1.74h-0.39v-0.07l0.08-0.21h-0.08l-0.08-0.07l-0.31,0.14l0.08,0.07v0.14h-0.31
						c-2.18,0-4.21-0.6-6.08-1.81c-0.78-0.56-1.17-0.95-1.17-1.19c0-0.3-0.18-0.58-0.55-0.84l-1.09-3.49v-0.07l0.16-0.42v-0.14
						c-0.36-0.7-0.55-1.79-0.55-3.28l0.23-4.96l-0.08-2.58l0.23-0.35l-0.23-0.49c0.52-2.13,1.12-3.5,1.79-4.12
						c0.09,0,0.43-0.35,1.01-1.05c0.57-0.17,0.93-0.41,1.09-0.7c0.18-0.21,0.94-0.42,2.26-0.63
						C621.56,323.96,622.03,323.82,622.78,323.68z M618.26,342.52l-1.4,0.77c0.26,0.35,0.39,0.6,0.39,0.77v0.35l-0.54,0.63v0.21
						h0.23c0.35-0.7,0.79-1.05,1.33-1.05h0.39c0.94,0,1.4,0.21,1.4,0.63c0.55,0.13,0.94,0.36,1.17,0.7l-0.08,0.56
						c0.4,0.33,0.71,0.49,0.94,0.49l0.54-0.14v-0.21c-0.16,0-0.23-0.07-0.23-0.21c-0.52-0.04-0.78-0.24-0.78-0.63v-0.35l0.23-0.7
						l-0.62-0.07v-0.07c0.23-0.28,0.44-0.42,0.62-0.42l-0.16-0.14h-0.23l-0.23,0.14h-0.39c0,0.31-0.13,0.52-0.39,0.63h-0.16
						c-0.42,0-0.62-0.19-0.62-0.56l0.08-0.35c-0.52-0.27-0.78-0.57-0.78-0.91h-0.16L618.26,342.52z M617.01,328.42v0.07h0.16
						c0.42-0.08,0.62-0.17,0.62-0.28v-0.14h-0.08L617.01,328.42z M620.52,342.66v0.07l0.39,0.28h0.08
						C620.9,342.84,620.74,342.72,620.52,342.66z M621.3,341.27c0,0.28-0.13,0.42-0.39,0.42v0.42l0.7,0.35
						c0-0.19,0.18-0.44,0.54-0.77v-0.07l-0.08-0.35H621.3z M621.69,336.45H622l-0.16-0.14L621.69,336.45z M623.64,331.29v1.12
						l0.31,0.91l-0.16,1.05l0.39,7.75c0.19,0,0.32,0.95,0.39,2.86l0.31,0.35h0.62c0.73,0,1.14-0.42,1.25-1.26v-0.7l-0.23-3.07v-1.12
						l-0.47-3.35l0.08-0.49v-0.07h0.16v-0.14h-0.16v-0.07l0.16-0.14l0.23,0.21l0.08-0.07h0.16c0.47,0,0.7,0.19,0.7,0.56v0.14h0.08
						c0-0.51,0.57-0.77,1.72-0.77c0.26,0,0.47-0.12,0.62-0.35c-0.1-0.21-0.16-0.51-0.16-0.91v-0.14h-0.31
						c-0.23,0.28-0.54,0.42-0.94,0.42l-0.08-0.07c0,0.15-0.16,0.29-0.47,0.42c-0.22,0.37-0.46,0.56-0.7,0.56
						c-0.19,0-0.46-0.14-0.78-0.42l-0.31,0.07v-1.26l0.31-0.21l0.23,0.07c0-0.1,0.21-0.22,0.62-0.35v-0.07l-1.17-0.21l0.08-0.07
						v-2.23c0-1.12-0.42-1.68-1.25-1.68c-0.73,0-1.09,0.3-1.09,0.91C623.74,329.47,623.67,330.08,623.64,331.29z M626.84,335.96
						v0.35h0.08c0.16,0,0.31-0.14,0.47-0.42L626.84,335.96z M626.91,339.59l0.23,0.21h0.16v-0.14h0.08l-0.08-0.21h-0.23
						L626.91,339.59z M626.91,340.43v0.07l0.94,0.14c-0.08-0.19-0.26-0.28-0.55-0.28L626.91,340.43z M630.19,337.64v0.07h0.08
						c0.68-0.19,1.51-0.3,2.5-0.35c-0.26-0.6-0.44-0.91-0.55-0.91h-0.16c-0.88,0-1.33,0.19-1.33,0.56
						C630.6,337.43,630.42,337.64,630.19,337.64z M632.22,338.61l0.08,0.07h0.23l-0.08-0.21h-0.08L632.22,338.61z M634.79,333.24
						l0.16,0.84h-0.16c-0.13,0-0.23-0.21-0.31-0.63L634.79,333.24z"/>
					<path class="st0" d="M669.72,323.68l0.55,0.02c2.09,0.03,3.84,1.06,5.24,3.09c0.2,0.59,0.38,1.73,0.57,3.42
						c0.12,0,0.19,0.35,0.21,1.05l-0.02,0.14c0,0.09-0.08,0.14-0.23,0.14c0.16,0.16,0.23,0.44,0.21,0.84l-0.04,2.44l0.35,2.46
						l-0.21,6.47l0.21,0.65l-0.16,0.12v0.07l0.43,1.9v0.14h-0.08l-0.31-0.21l-0.31-0.02l-0.39,0.28h-0.23l-0.31-0.09l-0.31,0.07
						h-0.23c-0.46-0.29-0.89-0.44-1.31-0.44l-0.18,0.21c0.87,0.38,1.47,0.58,1.79,0.58v0.28l0.62-0.12c0.78,0.1,1.16,0.23,1.15,0.37
						l-0.08,0.42l0.21,1.4c-0.01,0.22-1.14,0.31-3.37,0.28h-0.86c-0.34-0.37-0.59-0.56-0.76-0.58l-0.25,0.35l0.31,0.07v0.14h-0.23
						c-2.34-0.03-3.5-0.19-3.49-0.47l0.12-1.95l-0.29-1.19l0.08-0.07v-0.07c-0.31-0.24-0.45-1.34-0.41-3.28l0.02-0.84l0.1-1.4h0.47
						c0.27,0.2,0.56,0.3,0.86,0.3l0.55-0.07v-0.07c-0.16,0-0.28-0.14-0.37-0.42h-0.39c-0.55-0.01-0.91-0.09-1.09-0.23l0.14-2.65
						l-0.12-2.58l0.18-0.49c-0.34-1.38-0.49-2.93-0.47-4.62c0.01-0.71-0.47-1.13-1.44-1.27h-0.08c-0.62-0.01-0.95,0.35-0.97,1.1
						l-0.02,1.05l0.29,1.81l-0.02,0.07l-0.16,0.77l0.17,2.58l-0.08,0.07v0.07c0.13,0.47,0.23,2.1,0.29,4.9l-0.47,0.05l0.16,0.14
						l0.08,0.02l0.08-0.07h0.08l0.08,0.07l0.16,8.03l0.06,0.7c-1.4,0.3-3.2,0.44-5.38,0.4l-3.27-0.12l-0.14-1.05l0.08-0.07
						c-0.1-0.28-0.16-1.67-0.16-4.19l0.14-3.28l-0.35-1.54l0.16-0.42l-0.12-1.4l0.04-2.3c-0.35-0.92-0.49-2.76-0.43-5.53l-0.08-0.35
						l0.16-0.14c-0.14,0-0.24-0.19-0.29-0.56c-0.25-0.37-0.58-0.56-1.01-0.58c-0.51,0-0.84,0.13-1.01,0.4l-0.08-0.07h-0.16v0.14
						l0.08-0.07h0.08l-0.18,0.7l0.08,0.07l-0.02,0.56l0.06,1.12l-0.23,0.77l0.35,1.54l-0.06,2.86l-0.08,0.28l0.08,0.28l-0.02,0.49
						c0.34,1.65,0.49,3.29,0.45,4.9v0.21l-0.2,5.65h-0.08l0.16,0.56l-0.02,0.68c0,0.19-1.25,0.26-3.74,0.23
						c-3.33-0.06-4.99-0.2-4.99-0.42l0.02-0.91c0-0.09,0.08-0.14,0.23-0.14l0.08-0.07l0.02-0.14c-0.26,0-0.39-0.07-0.39-0.21
						c0.05-11.04-0.06-18.47-0.35-22.28c-0.1,0-0.15-0.47-0.14-1.4c0.29-0.08,0.84-0.12,1.66-0.1l5.28,0.07l1.19-0.05
						c0.25,0.2,0.36,0.58,0.35,1.13v0.7l0.31,0.07c0.13,0,0.42-0.32,0.88-0.96c1.38-0.86,2.94-1.28,4.7-1.26h0.23
						c1.53,0.02,3.18,0.89,4.93,2.6C666.21,324.56,667.92,323.66,669.72,323.68z M645.79,335.67v0.35h0.08l0.39-0.07v-0.07
						L645.79,335.67z M645.99,326.03l0.21,0.21l0.18-0.14v-0.07l-0.16-0.14h-0.08L645.99,326.03z M646.75,326.12l0.08,0.21h0.08
						l0.02-0.42C646.82,325.91,646.76,325.98,646.75,326.12z M647.25,328.49l0.08,0.07h0.16l0.16-0.12l-0.08-0.23L647.25,328.49z
						 M647.33,332.61l0.08,0.07h0.08l0.08-0.05v-0.14l-0.08-0.02L647.33,332.61z M647.35,347.27v0.14c0,0.22,0.28,0.67,0.84,1.34
						l0.64-0.75c0.51,0,0.86,0.22,1.07,0.65l0.55-0.07h0.16l1.17,0.09v-0.14l-1.31-0.79l-0.78-0.14l-0.62,0.19h-0.31l-1.33-0.51
						L647.35,347.27z M649.48,334.81l0.08,0.07h0.08l0.23-0.19l-0.08-0.07l-0.08-0.02L649.48,334.81z M651.4,335.96l0.16,0.14h0.08
						l-0.16-0.14H651.4z M651.5,334.57v0.14h0.16l0.16-0.14v-0.14h-0.16L651.5,334.57z M651.87,348.05l-0.02,0.28h0.08l0.1-0.28
						H651.87z M652.09,328.86v0.07c0.09,0.21,0.19,0.33,0.29,0.35l0.1-0.21L652.09,328.86z M652.16,336.33l0.31,0.28v-0.07
						l-0.08-0.21H652.16z M653.51,343.67v0.14l0.23,0.21h0.08l-0.16-0.35H653.51z M653.66,347.3l0.39,0.28l0.08-0.05v-0.07
						l-0.31-0.3L653.66,347.3z M654.58,352.4l0.7,0.02v0.14l-0.78,0.12l-0.08-0.07v-0.07L654.58,352.4z M657.54,324.74l-0.08,0.07
						v0.21l0.31,0.09v-0.28L657.54,324.74z M657.84,337.88l0.16,0.14l0.23-0.07v-0.07l-0.16-0.14h-0.08L657.84,337.88z
						 M657.95,343.61v0.07c0.08,0.19,0.16,0.28,0.23,0.28l0.08-0.07v-0.07L657.95,343.61z M658.81,343.97v0.14h0.08l0.16-0.14
						H658.81z M659.01,325.76v0.07h0.23v-0.14L659.01,325.76z M659.78,334.13c0.06,0.2,0.14,0.3,0.21,0.3l0.18-0.21l-0.16-0.14
						h-0.08l-0.08,0.07L659.78,334.13z M662.05,337.6c0.35,0.58,0.6,0.91,0.76,0.98c0.73-0.17,1.1-0.33,1.11-0.47v-0.21
						C663.12,337.84,662.5,337.74,662.05,337.6z M663.21,345.79l-0.17,0.49l0.92,1.26l0.49-0.33c-0.47-0.4-0.7-0.75-0.68-1.06
						l0.23-0.28l-0.39-0.07H663.21z M664.15,341.25v0.07l0.16,0.16l0.23-0.07v-0.14l-0.14-0.14h-0.08L664.15,341.25z M665.22,326.47
						v0.21l0.16,0.14l0.16,0.02v-0.07L665.22,326.47z M668.67,346.08l0.06,0.21h0.08l0.02-0.28l-0.08,0.07H668.67z M668.91,337.36
						c0.06,0.23,0.14,0.35,0.23,0.35l0.16-0.21l-0.14-0.21L668.91,337.36z M669.06,330.24h0.08l0.23-0.21v-0.07L669.06,330.24z
						 M669.26,347.55l0.16,0.28l0.23-0.07v-0.07l-0.23-0.21l-0.08,0.07H669.26z M670.07,325.65l0.16,0.14h0.16v-0.21h-0.08
						L670.07,325.65z M671.52,347.58V348l0.06,0.35l-0.23,0.14c0.08,0.19,0.16,0.28,0.23,0.28l0.88-0.82L671.52,347.58z
						 M672.2,337.06v0.07l0.47,0.07v-0.21h-0.08L672.2,337.06z M673.04,325.96l-0.16,0.21l0.21,0.21l0.47,0.02v-0.07
						C673.54,326.19,673.36,326.07,673.04,325.96z M673.66,337.92l-0.02,0.42l1.33,0.85h0.08v-0.28l-0.68-0.91L673.66,337.92z
						 M674.83,326.21l-0.17,0.21l0.31,0.07v-0.14L674.83,326.21z M675.8,336.14l-0.56,0.4l0.86,0.16
						C676.07,336.32,675.97,336.14,675.8,336.14z M675.8,339.98l-0.08,0.28h0.08l0.23-0.21l-0.08-0.07H675.8z"/>
				</g>
			</g>
		</g>
		<g>
			<path d="M158.91,460.73h7.77c1.91,0,2.78,0.27,3.62,1.09c0.52,0.55,0.79,1.27,0.79,2.26c0,0.32-0.03,0.62-0.07,0.94l-0.4,2.56
				c-0.47,2.8-2.48,4.47-5.46,4.47h-5.43l-1.04,6.58h-2.61L158.91,460.73z M160.12,469.46h5.41c1.56,0,2.28-0.55,2.51-2.01
				l0.37-2.31c0.02-0.12,0.02-0.3,0.02-0.42c0-0.99-0.52-1.39-1.89-1.39h-5.46L160.12,469.46z"/>
			<path d="M173.95,460.73H183c1.76,0,3.27,1.29,3.27,2.85c0,0.22-0.02,0.52-0.12,0.87l-0.47,3.1c-0.27,1.81-2.18,3.47-3.94,3.47
				l-3.05-0.03l5.38,7.62h-3.42l-5.31-7.52c-0.15-0.2-0.2-0.37-0.2-0.57c0-1.19,0.99-2.11,2.23-2.11h3.92
				c0.94,0,1.76-0.65,1.88-1.44l0.32-1.98c0-0.12,0.02-0.25,0.02-0.35c0-0.84-0.5-1.31-1.36-1.31h-6.03l-2.41,15.28h-2.61
				L173.95,460.73z"/>
			<path d="M187.94,477.3c-0.55-0.67-0.72-1.26-0.72-2.26c0-0.45,0.05-0.94,0.12-1.44l1.24-7.87c0.3-1.74,0.77-2.75,1.76-3.7
				c1.17-1.07,1.96-1.32,4.49-1.32h1.96c2.48,0,3.18,0.25,4.04,1.32c0.55,0.69,0.69,1.26,0.69,2.26c0,0.45-0.02,0.94-0.1,1.44
				l-1.24,7.87c-0.3,1.74-0.77,2.75-1.76,3.7c-1.19,1.07-1.96,1.32-4.49,1.32h-1.96C189.51,478.62,188.81,478.39,187.94,477.3z
				 M192.01,476.01h2.78c1.86,0,2.51-0.5,2.78-2.26l1.29-8.14c0.05-0.32,0.07-0.6,0.07-0.87c0-1.02-0.6-1.41-2.13-1.41h-2.78
				c-1.89,0-2.53,0.52-2.8,2.28l-1.29,8.11c-0.05,0.32-0.07,0.6-0.07,0.84C189.86,475.64,190.45,476.01,192.01,476.01z"/>
			<path d="M216.09,473.93c-0.22,1.44-0.57,2.23-1.46,3.15c-1.07,1.17-2.01,1.54-3.77,1.54h-3.6c-1.41,0-2.13-0.25-2.93-0.94
				c-0.82-0.72-1.14-1.39-1.14-2.36c0-0.45,0.02-0.89,0.1-1.34l1.34-8.56c0.3-1.76,0.89-2.88,2.01-3.7c0.97-0.69,1.96-0.99,3.5-0.99
				h6.85l-0.4,2.61h-7.07c-1.39,0-2.03,0.55-2.26,1.93l-1.41,8.86c0,0.15-0.02,0.3-0.02,0.45c0,0.87,0.45,1.44,1.14,1.44h0.7h3.6
				c1.22,0,2.01-0.67,2.21-1.81l0.92-5.78h2.58L216.09,473.93z"/>
			<path d="M221.32,460.73h9.06c1.76,0,3.27,1.29,3.27,2.85c0,0.22-0.02,0.52-0.12,0.87l-0.47,3.1c-0.27,1.81-2.18,3.47-3.94,3.47
				l-3.05-0.03l5.38,7.62h-3.42l-5.31-7.52c-0.15-0.2-0.2-0.37-0.2-0.57c0-1.19,0.99-2.11,2.23-2.11h3.92
				c0.94,0,1.76-0.65,1.88-1.44l0.32-1.98c0-0.12,0.02-0.25,0.02-0.35c0-0.84-0.5-1.31-1.36-1.31h-6.03l-2.41,15.28h-2.61
				L221.32,460.73z"/>
			<path d="M240.66,462.41c0.74-1.39,1.32-1.86,2.36-1.86c1.09,0,1.54,0.45,1.84,1.86l3.35,16.2h-2.78l-0.74-3.72h-7.77l-1.96,3.72
				h-2.78L240.66,462.41z M238.25,472.31h5.91l-1.71-8.16L238.25,472.31z"/>
			<path d="M251.65,463.36c0.3-1.94,1.24-2.9,2.83-2.9c1.71,0,2.13,0.4,2.38,2.18l1.71,13.12l6-13.12c0.77-1.69,1.37-2.21,2.71-2.21
				c1.59,0,2.33,0.67,2.33,2.06c0,0.3-0.02,0.57-0.07,0.87l-2.41,15.26h-2.6l2.43-15.31l-6.1,13.35c-0.72,1.61-1.39,2.18-2.63,2.18
				c-1.39,0-1.88-0.52-2.11-2.18l-1.89-13.35l-2.41,15.31h-2.61L251.65,463.36z"/>
			<path d="M272.67,463.36c0.3-1.94,1.24-2.9,2.83-2.9c1.71,0,2.13,0.4,2.38,2.18l1.71,13.12l6-13.12c0.77-1.69,1.37-2.21,2.71-2.21
				c1.59,0,2.33,0.67,2.33,2.06c0,0.3-0.02,0.57-0.07,0.87l-2.41,15.26h-2.6l2.43-15.31l-6.1,13.35c-0.72,1.61-1.39,2.18-2.63,2.18
				c-1.39,0-1.88-0.52-2.11-2.18l-1.89-13.35l-2.41,15.31h-2.61L272.67,463.36z"/>
			<path d="M294.14,460.73h2.61l-2.83,17.89h-2.61L294.14,460.73z"/>
			<path d="M307.07,460.73h9.13c1.94,0,3.13,1.32,3.13,3.37c0,0.27,0,0.52-0.05,0.77l-1.44,9.18c-0.4,2.58-2.58,4.57-4.96,4.57
				h-8.63L307.07,460.73z M307.24,476.01h5.91c1.22,0,1.89-0.67,2.11-2.13l1.37-8.51c0.02-0.25,0.05-0.52,0.05-0.74
				c0-0.94-0.42-1.29-1.56-1.29h-5.86L307.24,476.01z"/>
			<path d="M323.08,460.73h2.61l-2.83,17.89h-2.61L323.08,460.73z"/>
			<path d="M339.85,462.41c0.74-1.39,1.32-1.86,2.36-1.86c1.09,0,1.54,0.45,1.84,1.86l3.35,16.2h-2.78l-0.74-3.72h-7.77l-1.96,3.72
				h-2.78L339.85,462.41z M337.45,472.31h5.91l-1.71-8.16L337.45,472.31z"/>
			<path d="M353.5,478.62c-2.66,0-4.09-1.24-4.09-3.5c0-0.32,0.02-0.67,0.07-1.02l2.11-13.37h2.61l-2.11,13.35
				c-0.05,0.25-0.05,0.47-0.05,0.64c0,0.92,0.52,1.29,1.81,1.29h6.77l-0.42,2.61H353.5z"/>
			<path d="M366.66,478.62c-2.66,0-4.09-1.24-4.09-3.5c0-0.32,0.02-0.67,0.07-1.02l2.11-13.37h2.61l-2.11,13.35
				c-0.05,0.25-0.05,0.47-0.05,0.64c0,0.92,0.52,1.29,1.81,1.29h6.77l-0.42,2.61H366.66z"/>
			<path d="M379.81,478.62c-2.61,0-4.09-1.27-4.09-3.42c0-0.42,0.05-0.87,0.12-1.39l1.36-8.61c0.27-1.74,0.99-2.93,2.26-3.72
				c0.97-0.59,1.71-0.74,3.65-0.74h6.55l-0.42,2.61h-6.48h-1.07c-0.92,0-1.74,0.82-1.91,1.93l-0.47,3.05h9.11l-0.4,2.61h-9.16
				l-0.37,2.38l-0.17,1.12v0.17c0,0.32,0.12,0.67,0.37,0.94c0.22,0.25,0.52,0.42,0.84,0.47h1.36h6.25l-0.4,2.61H379.81z"/>
			<path d="M392.05,463.21c0.3-1.79,1.07-2.58,2.56-2.58c1.31,0,1.81,0.4,2.13,1.74l3.35,13.12l2.36-14.76H405l-2.48,15.75
				c-0.22,1.36-1.34,2.38-2.63,2.38c-1.09,0-1.69-0.52-2.03-1.84l-3.35-12.88l-2.28,14.46h-2.61L392.05,463.21z"/>
			<path d="M412.02,462.41c0.74-1.39,1.32-1.86,2.36-1.86c1.09,0,1.54,0.45,1.84,1.86l3.35,16.2h-2.78l-0.74-3.72h-7.77l-1.96,3.72
				h-2.78L412.02,462.41z M409.61,472.31h5.91l-1.71-8.16L409.61,472.31z"/>
			<path d="M423.02,463.36c0.3-1.94,1.24-2.9,2.83-2.9c1.71,0,2.13,0.4,2.38,2.18l1.71,13.12l6-13.12c0.77-1.69,1.37-2.21,2.71-2.21
				c1.59,0,2.33,0.67,2.33,2.06c0,0.3-0.02,0.57-0.07,0.87l-2.41,15.26h-2.6l2.43-15.31l-6.1,13.35c-0.72,1.61-1.39,2.18-2.63,2.18
				c-1.39,0-1.88-0.52-2.11-2.18l-1.89-13.35l-2.41,15.31h-2.61L423.02,463.36z"/>
			<path d="M446.4,478.62c-2.61,0-4.09-1.27-4.09-3.42c0-0.42,0.05-0.87,0.12-1.39l1.36-8.61c0.27-1.74,0.99-2.93,2.26-3.72
				c0.97-0.59,1.71-0.74,3.65-0.74h6.55l-0.42,2.61h-6.48h-1.07c-0.92,0-1.74,0.82-1.91,1.93l-0.47,3.05H455l-0.4,2.61h-9.16
				l-0.37,2.38l-0.17,1.12v0.17c0,0.32,0.12,0.67,0.37,0.94c0.22,0.25,0.52,0.42,0.84,0.47h1.36h6.25l-0.4,2.61H446.4z"/>
			<path d="M458.63,463.21c0.3-1.79,1.07-2.58,2.56-2.58c1.31,0,1.81,0.4,2.13,1.74l3.35,13.12l2.36-14.76h2.56l-2.48,15.75
				c-0.22,1.36-1.34,2.38-2.63,2.38c-1.09,0-1.69-0.52-2.03-1.84l-3.35-12.88l-2.28,14.46h-2.61L458.63,463.21z"/>
			<path d="M473.32,460.73h10.32l-0.4,2.61h-3.9l-2.41,15.28h-2.61l2.43-15.28h-3.85L473.32,460.73z"/>
			<path d="M483.37,477.3c-0.55-0.67-0.72-1.26-0.72-2.26c0-0.45,0.05-0.94,0.12-1.44l1.24-7.87c0.3-1.74,0.77-2.75,1.76-3.7
				c1.17-1.07,1.96-1.32,4.49-1.32h1.96c2.48,0,3.18,0.25,4.04,1.32c0.55,0.69,0.69,1.26,0.69,2.26c0,0.45-0.02,0.94-0.1,1.44
				l-1.24,7.87c-0.3,1.74-0.77,2.75-1.76,3.7c-1.19,1.07-1.96,1.32-4.49,1.32h-1.96C484.94,478.62,484.24,478.39,483.37,477.3z
				 M487.44,476.01h2.78c1.86,0,2.51-0.5,2.78-2.26l1.29-8.14c0.05-0.32,0.07-0.6,0.07-0.87c0-1.02-0.6-1.41-2.13-1.41h-2.78
				c-1.89,0-2.53,0.52-2.8,2.28l-1.29,8.11c-0.05,0.32-0.07,0.6-0.07,0.84C485.28,475.64,485.88,476.01,487.44,476.01z"/>
			<path d="M507.99,460.73h7.77c1.91,0,2.78,0.27,3.62,1.09c0.52,0.55,0.79,1.27,0.79,2.26c0,0.32-0.03,0.62-0.07,0.94l-0.4,2.56
				c-0.47,2.8-2.48,4.47-5.46,4.47h-5.43l-1.04,6.58h-2.61L507.99,460.73z M509.21,469.46h5.41c1.56,0,2.28-0.55,2.51-2.01
				l0.37-2.31c0.02-0.12,0.02-0.3,0.02-0.42c0-0.99-0.52-1.39-1.89-1.39h-5.46L509.21,469.46z"/>
			<path d="M524.94,478.62c-2.61,0-4.09-1.27-4.09-3.42c0-0.42,0.05-0.87,0.12-1.39l1.36-8.61c0.27-1.74,0.99-2.93,2.26-3.72
				c0.97-0.59,1.71-0.74,3.65-0.74h6.55l-0.42,2.61h-6.48h-1.07c-0.92,0-1.74,0.82-1.91,1.93l-0.47,3.05h9.11l-0.4,2.61H524
				l-0.37,2.38l-0.17,1.12v0.17c0,0.32,0.12,0.67,0.37,0.94c0.22,0.25,0.52,0.42,0.84,0.47h1.36h6.25l-0.4,2.61H524.94z"/>
			<path d="M537.58,460.73h9.06c1.76,0,3.27,1.29,3.27,2.85c0,0.22-0.02,0.52-0.12,0.87l-0.47,3.1c-0.27,1.81-2.18,3.47-3.94,3.47
				l-3.05-0.03l5.38,7.62h-3.42l-5.31-7.52c-0.15-0.2-0.2-0.37-0.2-0.57c0-1.19,0.99-2.11,2.23-2.11h3.92
				c0.94,0,1.76-0.65,1.88-1.44l0.32-1.98c0-0.12,0.02-0.25,0.02-0.35c0-0.84-0.5-1.31-1.36-1.31h-6.03l-2.41,15.28h-2.61
				L537.58,460.73z"/>
			<path d="M550.08,476.01h7.17c0.97,0,1.84-0.64,1.96-1.46l0.35-2.26c0.02-0.07,0.02-0.15,0.02-0.22c0-0.79-0.62-1.29-1.69-1.29
				h-2.66c-2.21,0-3.75-1.29-3.75-3.1c0-0.2,0-0.35,0.02-0.52l0.37-2.23c0.27-1.79,0.87-2.75,2.16-3.52
				c0.84-0.52,1.51-0.67,2.8-0.67h7.25l-0.45,2.61h-7.34c-1.07,0-1.66,0.45-1.81,1.46l-0.27,1.79c-0.02,0.15-0.05,0.32-0.05,0.47
				c0,0.97,0.42,1.36,1.41,1.36h3.13c1.98,0,3.55,1.29,3.55,2.98c0,0.17-0.02,0.3-0.05,0.47l-0.42,2.8
				c-0.35,2.26-2.36,3.95-4.66,3.95h-7.44L550.08,476.01z"/>
			<path d="M565.25,477.3c-0.55-0.67-0.72-1.26-0.72-2.26c0-0.45,0.05-0.94,0.12-1.44l1.24-7.87c0.3-1.74,0.77-2.75,1.76-3.7
				c1.17-1.07,1.96-1.32,4.49-1.32h1.96c2.48,0,3.18,0.25,4.04,1.32c0.55,0.69,0.69,1.26,0.69,2.26c0,0.45-0.02,0.94-0.1,1.44
				l-1.24,7.87c-0.3,1.74-0.77,2.75-1.76,3.7c-1.19,1.07-1.96,1.32-4.49,1.32h-1.96C566.81,478.62,566.12,478.39,565.25,477.3z
				 M569.32,476.01h2.78c1.86,0,2.51-0.5,2.78-2.26l1.29-8.14c0.05-0.32,0.07-0.6,0.07-0.87c0-1.02-0.6-1.41-2.13-1.41h-2.78
				c-1.89,0-2.53,0.52-2.8,2.28l-1.29,8.11c-0.05,0.32-0.07,0.6-0.07,0.84C567.16,475.64,567.75,476.01,569.32,476.01z"/>
			<path d="M582.27,463.21c0.3-1.79,1.07-2.58,2.56-2.58c1.31,0,1.81,0.4,2.13,1.74l3.35,13.12l2.36-14.76h2.56l-2.48,15.75
				c-0.22,1.36-1.34,2.38-2.63,2.38c-1.09,0-1.69-0.52-2.03-1.84l-3.35-12.88l-2.28,14.46h-2.61L582.27,463.21z"/>
			<path d="M602.25,462.41c0.74-1.39,1.32-1.86,2.36-1.86c1.09,0,1.54,0.45,1.84,1.86l3.35,16.2h-2.78l-0.74-3.72h-7.77l-1.96,3.72
				h-2.78L602.25,462.41z M599.84,472.31h5.91l-1.71-8.16L599.84,472.31z"/>
			<path d="M615.9,478.62c-2.66,0-4.09-1.24-4.09-3.5c0-0.32,0.02-0.67,0.07-1.02l2.11-13.37h2.61l-2.11,13.35
				c-0.05,0.25-0.05,0.47-0.05,0.64c0,0.92,0.52,1.29,1.81,1.29h6.77l-0.42,2.61H615.9z"/>
			<path d="M627.14,460.73h2.61l-2.83,17.89h-2.61L627.14,460.73z"/>
			<path d="M631.58,478.62c-1.19,0-2.03-0.79-2.03-1.96c0-0.55,0.27-1.12,0.74-1.64l10.12-11.69h-8.54l0.42-2.61h9.4
				c1.12,0,1.76,0.67,1.76,1.74c0,0.62-0.22,1.26-0.67,1.79l-10.22,11.76h8.58l-0.42,2.61H631.58z"/>
			<path d="M644.84,478.62c-1.19,0-2.03-0.79-2.03-1.96c0-0.55,0.27-1.12,0.74-1.64l10.12-11.69h-8.54l0.42-2.61h9.4
				c1.12,0,1.76,0.67,1.76,1.74c0,0.62-0.22,1.26-0.67,1.79l-10.22,11.76h8.58l-0.42,2.61H644.84z"/>
			<path d="M663.23,462.41c0.74-1.39,1.32-1.86,2.36-1.86c1.09,0,1.54,0.45,1.84,1.86l3.35,16.2h-2.78l-0.74-3.72h-7.77l-1.96,3.72
				h-2.78L663.23,462.41z M660.82,472.31h5.91l-1.71-8.16L660.82,472.31z"/>
			<path d="M671.15,460.73h10.32l-0.4,2.61h-3.9l-2.41,15.28h-2.61l2.43-15.28h-3.85L671.15,460.73z"/>
			<path d="M683.2,460.73h2.61l-2.83,17.89h-2.61L683.2,460.73z"/>
		</g>
		<g>
			<path d="M194.71,380.34h3.53l-3.83,21.3h-3.53L194.71,380.34z"/>
			<path d="M200.53,380.34h14l-0.54,3.1h-5.28l-3.26,18.2h-3.53l3.3-18.2H200L200.53,380.34z"/>
			<path d="M216.72,384.1c-0.91-0.68-1.41-1.33-1.41-1.77c0-1.09,1.14-1.98,2.59-1.98c0.98,0,1.72,0.83,1.72,1.86
				c0,0.27-0.2,0.8-0.64,1.48l-2.25,3.4h-2.09L216.72,384.1z"/>
			<path d="M219.01,398.54h9.72c1.31,0,2.49-0.77,2.66-1.74l0.47-2.69c0.03-0.09,0.03-0.18,0.03-0.27c0-0.95-0.84-1.54-2.29-1.54
				h-3.6c-3,0-5.08-1.54-5.08-3.69c0-0.24,0-0.41,0.03-0.62l0.5-2.66c0.37-2.13,1.18-3.28,2.93-4.19c1.14-0.62,2.05-0.8,3.8-0.8
				h9.82l-0.61,3.1h-9.96c-1.45,0-2.25,0.53-2.46,1.74l-0.37,2.13c-0.03,0.18-0.07,0.38-0.07,0.56c0,1.15,0.57,1.62,1.92,1.62h4.24
				c2.69,0,4.81,1.54,4.81,3.54c0,0.21-0.03,0.35-0.07,0.56l-0.57,3.34c-0.47,2.69-3.2,4.7-6.33,4.7h-10.09L219.01,398.54z"/>
			<path d="M249.32,380.34h14l-0.54,3.1h-5.28l-3.26,18.2h-3.53l3.3-18.2h-5.21L249.32,380.34z"/>
			<path d="M265.68,380.34h3.53l-1.65,9.16h10.53l1.65-9.16h3.53l-3.87,21.3h-3.5l1.62-9.04h-10.53l-1.61,9.04h-3.53L265.68,380.34z
				"/>
			<path d="M290.1,401.64c-3.53,0-5.55-1.51-5.55-4.08c0-0.5,0.07-1.03,0.17-1.65l1.85-10.25c0.37-2.07,1.35-3.49,3.06-4.43
				c1.31-0.71,2.32-0.89,4.95-0.89h8.88l-0.57,3.1h-8.78h-1.45c-1.25,0-2.36,0.98-2.59,2.3l-0.64,3.63h12.35l-0.54,3.1h-12.42
				l-0.5,2.84l-0.24,1.33v0.21c0,0.38,0.17,0.8,0.5,1.12c0.3,0.3,0.71,0.5,1.14,0.56h1.85h8.48l-0.54,3.1H290.1z"/>
			<path d="M316.99,380.34h10.53c2.59,0,3.77,0.33,4.91,1.3c0.71,0.65,1.08,1.51,1.08,2.69c0,0.38-0.03,0.74-0.1,1.12l-0.54,3.04
				c-0.64,3.34-3.37,5.32-7.4,5.32h-7.37l-1.41,7.83h-3.53L316.99,380.34z M318.64,390.74h7.33c2.12,0,3.09-0.65,3.4-2.39l0.5-2.75
				c0.03-0.15,0.03-0.35,0.03-0.5c0-1.18-0.71-1.65-2.56-1.65h-7.4L318.64,390.74z"/>
			<path d="M351.75,396.41c-0.54,2.98-3.33,5.23-6.56,5.23h-6.02c-2.76,0-4.74-1.74-4.74-4.17c0-0.32,0-0.68,0.07-1.06l2.89-16.07
				h3.53l-2.83,15.69c-0.07,0.38-0.1,0.71-0.1,0.95c0,1.09,0.71,1.57,2.29,1.57h4.95c1.92,0,2.76-0.59,3.06-2.33l2.86-15.86h3.53
				L351.75,396.41z"/>
			<path d="M358.37,383.3c0.4-2.13,1.45-3.07,3.47-3.07c1.78,0,2.46,0.47,2.89,2.07l4.54,15.63l3.2-17.58h3.47l-3.36,18.76
				c-0.3,1.62-1.82,2.84-3.57,2.84c-1.48,0-2.29-0.62-2.76-2.19l-4.54-15.33l-3.09,17.22h-3.53L358.37,383.3z"/>
			<path d="M381.76,401.64c-2.62,0-4.47-1.8-4.47-4.25c0-0.3,0-0.56,0.07-0.86l1.95-10.93c0.54-3.13,3.2-5.26,6.53-5.26h10.26
				l-0.61,3.1h-9.72c-1.68,0-2.69,0.77-2.96,2.22l-1.88,10.61c-0.03,0.15-0.03,0.24-0.03,0.33c0,1.18,0.84,1.95,2.15,1.95h9.66
				l-0.54,3.1H381.76z"/>
			<path d="M399.59,380.34h3.53l-1.65,9.16h10.53l1.65-9.16h3.53l-3.87,21.3h-3.5l1.62-9.04h-10.53l-1.61,9.04h-3.53L399.59,380.34z
				"/>
			<path d="M432.67,380.34l4.61,8.83l8.01-8.83h4.17l-10.97,12.17l-1.68,9.13h-3.53l1.65-9.13l-6.43-12.17H432.67z"/>
			<path d="M447.68,400.08c-0.74-0.8-0.98-1.51-0.98-2.69c0-0.53,0.07-1.12,0.17-1.71l1.68-9.36c0.4-2.07,1.04-3.28,2.39-4.4
				c1.58-1.27,2.66-1.57,6.09-1.57h2.66c3.36,0,4.31,0.3,5.48,1.57c0.74,0.83,0.94,1.51,0.94,2.69c0,0.53-0.03,1.12-0.13,1.71
				l-1.68,9.36c-0.4,2.07-1.04,3.28-2.39,4.4c-1.62,1.27-2.66,1.57-6.09,1.57h-2.66C449.8,401.64,448.85,401.38,447.68,400.08z
				 M453.19,398.54h3.77c2.52,0,3.4-0.59,3.77-2.69l1.75-9.69c0.07-0.38,0.1-0.71,0.1-1.03c0-1.21-0.81-1.68-2.89-1.68h-3.77
				c-2.56,0-3.43,0.62-3.8,2.72l-1.75,9.66c-0.07,0.38-0.1,0.71-0.1,1C450.27,398.1,451.07,398.54,453.19,398.54z"/>
			<path d="M485.66,396.41c-0.54,2.98-3.33,5.23-6.56,5.23h-6.02c-2.76,0-4.74-1.74-4.74-4.17c0-0.32,0-0.68,0.07-1.06l2.89-16.07
				h3.53L472,396.03c-0.07,0.38-0.1,0.71-0.1,0.95c0,1.09,0.71,1.57,2.29,1.57h4.95c1.92,0,2.76-0.59,3.06-2.33l2.86-15.86h3.53
				L485.66,396.41z"/>
			<path d="M502.59,380.34h12.38c2.62,0,4.24,1.57,4.24,4.02c0,0.33,0,0.62-0.07,0.92l-1.95,10.93c-0.54,3.07-3.5,5.44-6.73,5.44
				h-11.71L502.59,380.34z M502.82,398.54h8.01c1.65,0,2.56-0.8,2.86-2.54l1.85-10.13c0.03-0.3,0.07-0.62,0.07-0.89
				c0-1.12-0.57-1.54-2.12-1.54h-7.94L502.82,398.54z"/>
			<path d="M522.34,400.08c-0.74-0.8-0.98-1.51-0.98-2.69c0-0.53,0.07-1.12,0.17-1.71l1.68-9.36c0.4-2.07,1.04-3.28,2.39-4.4
				c1.58-1.27,2.66-1.57,6.09-1.57h2.66c3.36,0,4.31,0.3,5.48,1.57c0.74,0.83,0.94,1.51,0.94,2.69c0,0.53-0.03,1.12-0.13,1.71
				l-1.68,9.36c-0.4,2.07-1.04,3.28-2.39,4.4c-1.62,1.27-2.66,1.57-6.09,1.57h-2.66C524.46,401.64,523.52,401.38,522.34,400.08z
				 M527.86,398.54h3.77c2.52,0,3.4-0.59,3.77-2.69l1.75-9.69c0.07-0.38,0.1-0.71,0.1-1.03c0-1.21-0.81-1.68-2.89-1.68h-3.77
				c-2.56,0-3.43,0.62-3.8,2.72l-1.75,9.66c-0.07,0.38-0.1,0.71-0.1,1C524.93,398.1,525.74,398.54,527.86,398.54z"/>
			<path d="M545.42,383.3c0.4-2.13,1.45-3.07,3.47-3.07c1.78,0,2.46,0.47,2.89,2.07l4.54,15.63l3.2-17.58h3.47l-3.36,18.76
				c-0.3,1.62-1.82,2.84-3.57,2.84c-1.48,0-2.29-0.62-2.76-2.19l-4.54-15.33l-3.09,17.22h-3.53L545.42,383.3z"/>
			<path d="M567.12,384.1c-0.91-0.68-1.41-1.33-1.41-1.77c0-1.09,1.14-1.98,2.59-1.98c0.98,0,1.72,0.83,1.72,1.86
				c0,0.27-0.2,0.8-0.64,1.48l-2.25,3.4h-2.09L567.12,384.1z"/>
			<path d="M571.5,380.34h14l-0.54,3.1h-5.28l-3.26,18.2h-3.53l3.3-18.2h-5.21L571.5,380.34z"/>
			<path d="M593.57,398.54h9.72c1.31,0,2.49-0.77,2.66-1.74l0.47-2.69c0.03-0.09,0.03-0.18,0.03-0.27c0-0.95-0.84-1.54-2.29-1.54
				h-3.6c-3,0-5.08-1.54-5.08-3.69c0-0.24,0-0.41,0.03-0.62l0.5-2.66c0.37-2.13,1.18-3.28,2.93-4.19c1.14-0.62,2.05-0.8,3.8-0.8
				h9.82l-0.61,3.1h-9.96c-1.45,0-2.25,0.53-2.46,1.74l-0.37,2.13c-0.03,0.18-0.07,0.38-0.07,0.56c0,1.15,0.57,1.62,1.92,1.62h4.24
				c2.69,0,4.81,1.54,4.81,3.54c0,0.21-0.03,0.35-0.07,0.56l-0.57,3.34c-0.47,2.69-3.2,4.7-6.33,4.7h-10.09L593.57,398.54z"/>
			<path d="M618.67,401.64c-3.53,0-5.55-1.51-5.55-4.08c0-0.5,0.07-1.03,0.17-1.65l1.85-10.25c0.37-2.07,1.35-3.49,3.06-4.43
				c1.31-0.71,2.32-0.89,4.95-0.89h8.88l-0.57,3.1h-8.78h-1.45c-1.25,0-2.36,0.98-2.59,2.3l-0.64,3.63h12.35l-0.54,3.1h-12.42
				l-0.5,2.84l-0.24,1.33v0.21c0,0.38,0.17,0.8,0.5,1.12c0.3,0.3,0.71,0.5,1.14,0.56h1.85h8.48l-0.54,3.1H618.67z"/>
			<path d="M638.39,401.64c-3.53,0-5.55-1.51-5.55-4.08c0-0.5,0.07-1.03,0.17-1.65l1.85-10.25c0.37-2.07,1.35-3.49,3.06-4.43
				c1.31-0.71,2.32-0.89,4.95-0.89h8.88l-0.57,3.1h-8.78h-1.45c-1.25,0-2.36,0.98-2.59,2.3l-0.64,3.63h12.35l-0.54,3.1h-12.42
				l-0.5,2.84l-0.24,1.33v0.21c0,0.38,0.17,0.8,0.5,1.12c0.3,0.3,0.71,0.5,1.14,0.56h1.85h8.48l-0.54,3.1H638.39z"/>
			<path d="M152.57,410.41h14l-0.54,3.1h-5.28l-3.26,18.2h-3.53l3.3-18.2h-5.21L152.57,410.41z"/>
			<path d="M168.92,410.41h3.53l-1.65,9.16h10.53l1.65-9.16h3.53l-3.87,21.3h-3.5l1.62-9.04h-10.53l-1.61,9.04h-3.53L168.92,410.41z
				"/>
			<path d="M193.35,431.71c-3.53,0-5.55-1.51-5.55-4.08c0-0.5,0.07-1.03,0.17-1.65l1.85-10.25c0.37-2.07,1.35-3.49,3.06-4.43
				c1.31-0.71,2.32-0.89,4.95-0.89h8.88l-0.57,3.1h-8.78h-1.45c-1.25,0-2.36,0.97-2.59,2.3l-0.64,3.63h12.35l-0.54,3.1h-12.42
				l-0.5,2.84l-0.24,1.33v0.21c0,0.38,0.17,0.8,0.5,1.12c0.3,0.29,0.71,0.5,1.14,0.56h1.85h8.48l-0.54,3.1H193.35z"/>
			<path d="M218.28,430.14c-0.74-0.8-0.98-1.51-0.98-2.69c0-0.53,0.07-1.12,0.17-1.71l1.68-9.36c0.4-2.07,1.04-3.28,2.39-4.4
				c1.58-1.27,2.66-1.57,6.09-1.57h2.66c3.36,0,4.31,0.29,5.48,1.57c0.74,0.83,0.94,1.51,0.94,2.69c0,0.53-0.03,1.12-0.13,1.71
				l-1.68,9.36c-0.4,2.07-1.04,3.28-2.39,4.4c-1.62,1.27-2.66,1.57-6.09,1.57h-2.66C220.4,431.71,219.46,431.44,218.28,430.14z
				 M223.8,428.61h3.77c2.52,0,3.4-0.59,3.77-2.69l1.75-9.69c0.07-0.38,0.1-0.71,0.1-1.03c0-1.21-0.81-1.68-2.89-1.68h-3.77
				c-2.56,0-3.43,0.62-3.8,2.72l-1.75,9.66c-0.07,0.38-0.1,0.71-0.1,1C220.87,428.16,221.68,428.61,223.8,428.61z"/>
			<path d="M241.36,413.36c0.4-2.13,1.45-3.07,3.47-3.07c1.78,0,2.46,0.47,2.89,2.07l4.54,15.63l3.2-17.58h3.47l-3.36,18.76
				c-0.3,1.62-1.82,2.84-3.57,2.84c-1.48,0-2.29-0.62-2.76-2.19l-4.54-15.33l-3.09,17.22h-3.53L241.36,413.36z"/>
			<path d="M265.83,431.71c-3.53,0-5.55-1.51-5.55-4.08c0-0.5,0.07-1.03,0.17-1.65l1.85-10.25c0.37-2.07,1.35-3.49,3.06-4.43
				c1.31-0.71,2.32-0.89,4.95-0.89h8.88l-0.57,3.1h-8.78h-1.45c-1.25,0-2.36,0.97-2.59,2.3l-0.64,3.63h12.35l-0.54,3.1h-12.42
				l-0.5,2.84l-0.24,1.33v0.21c0,0.38,0.17,0.8,0.5,1.12c0.3,0.29,0.71,0.5,1.14,0.56h1.85h8.48l-0.54,3.1H265.83z"/>
			<path d="M290.76,410.41h14l-0.54,3.1h-5.28l-3.26,18.2h-3.53l3.3-18.2h-5.21L290.76,410.41z"/>
			<path d="M307.11,410.41h3.53l-1.65,9.16h10.53l1.65-9.16h3.53l-3.87,21.3h-3.5l1.62-9.04h-10.53l-1.61,9.04h-3.53L307.11,410.41z
				"/>
			<path d="M334.16,412.42c1.01-1.65,1.78-2.22,3.2-2.22c1.48,0,2.09,0.53,2.49,2.22l4.54,19.29h-3.77l-1.01-4.43h-10.53l-2.66,4.43
				h-3.77L334.16,412.42z M330.9,424.2h8.01l-2.32-9.72L330.9,424.2z"/>
			<path d="M344.9,410.41h14l-0.54,3.1h-5.28l-3.26,18.2h-3.53l3.3-18.2h-5.21L344.9,410.41z"/>
			<path d="M371.01,410.41h3.53l-1.65,9.16h10.53l1.65-9.16h3.53l-3.87,21.3h-3.5l1.62-9.04h-10.53l-1.61,9.04h-3.53L371.01,410.41z
				"/>
			<path d="M407.21,426.48c-0.54,2.98-3.33,5.23-6.56,5.23h-6.02c-2.76,0-4.74-1.74-4.74-4.17c0-0.33,0-0.68,0.07-1.06l2.89-16.07
				h3.53l-2.83,15.69c-0.07,0.38-0.1,0.71-0.1,0.95c0,1.09,0.71,1.57,2.29,1.57h4.95c1.92,0,2.76-0.59,3.06-2.33l2.86-15.86h3.53
				L407.21,426.48z"/>
			<path d="M414.38,410.41h12.28c2.39,0,4.44,1.54,4.44,3.4c0,0.27-0.03,0.62-0.17,1.03l-0.64,3.69c-0.37,2.16-2.96,4.13-5.35,4.13
				l-4.14-0.03l7.3,9.07h-4.64l-7.2-8.95c-0.2-0.24-0.27-0.44-0.27-0.68c0-1.42,1.35-2.51,3.03-2.51h5.32
				c1.28,0,2.39-0.77,2.56-1.71l0.44-2.36c0-0.15,0.03-0.3,0.03-0.41c0-1-0.67-1.57-1.85-1.57h-8.18l-3.26,18.2h-3.53L414.38,410.41
				z"/>
			<path d="M433.43,410.41h14l-0.54,3.1h-5.28l-3.26,18.2h-3.53l3.3-18.2h-5.21L433.43,410.41z"/>
			<path d="M445.47,428.61h9.72c1.31,0,2.49-0.77,2.66-1.74l0.47-2.69c0.03-0.09,0.03-0.18,0.03-0.27c0-0.95-0.84-1.54-2.29-1.54
				h-3.6c-3,0-5.08-1.54-5.08-3.69c0-0.24,0-0.41,0.03-0.62l0.5-2.66c0.37-2.13,1.18-3.28,2.93-4.19c1.14-0.62,2.05-0.8,3.8-0.8
				h9.82l-0.61,3.1h-9.96c-1.45,0-2.25,0.53-2.46,1.74l-0.37,2.13c-0.03,0.18-0.07,0.38-0.07,0.56c0,1.15,0.57,1.62,1.92,1.62h4.24
				c2.69,0,4.81,1.54,4.81,3.54c0,0.21-0.03,0.35-0.07,0.56l-0.57,3.34c-0.47,2.69-3.2,4.7-6.33,4.7h-10.09L445.47,428.61z"/>
			<path d="M479.22,410.41l4.61,8.83l8.01-8.83h4.17l-10.97,12.17l-1.68,9.13h-3.53l1.65-9.13l-6.43-12.17H479.22z"/>
			<path d="M494.23,430.14c-0.74-0.8-0.98-1.51-0.98-2.69c0-0.53,0.07-1.12,0.17-1.71l1.68-9.36c0.4-2.07,1.04-3.28,2.39-4.4
				c1.58-1.27,2.66-1.57,6.09-1.57h2.66c3.36,0,4.31,0.29,5.48,1.57c0.74,0.83,0.94,1.51,0.94,2.69c0,0.53-0.03,1.12-0.13,1.71
				l-1.68,9.36c-0.4,2.07-1.04,3.28-2.39,4.4c-1.62,1.27-2.66,1.57-6.09,1.57h-2.66C496.35,431.71,495.4,431.44,494.23,430.14z
				 M499.74,428.61h3.77c2.52,0,3.4-0.59,3.77-2.69l1.75-9.69c0.07-0.38,0.1-0.71,0.1-1.03c0-1.21-0.81-1.68-2.89-1.68h-3.77
				c-2.56,0-3.43,0.62-3.8,2.72l-1.75,9.66c-0.07,0.38-0.1,0.71-0.1,1C496.82,428.16,497.62,428.61,499.74,428.61z"/>
			<path d="M532.21,426.48c-0.54,2.98-3.33,5.23-6.56,5.23h-6.02c-2.76,0-4.74-1.74-4.74-4.17c0-0.33,0-0.68,0.07-1.06l2.89-16.07
				h3.53l-2.83,15.69c-0.07,0.38-0.1,0.71-0.1,0.95c0,1.09,0.71,1.57,2.29,1.57h4.95c1.92,0,2.76-0.59,3.06-2.33l2.86-15.86h3.53
				L532.21,426.48z"/>
			<path d="M547.19,410.41h14l-0.54,3.1h-5.28l-3.26,18.2h-3.53l3.3-18.2h-5.21L547.19,410.41z"/>
			<path d="M563.54,410.41h3.53l-1.65,9.16h10.53l1.65-9.16h3.53l-3.87,21.3h-3.5l1.62-9.04h-10.53l-1.61,9.04h-3.53L563.54,410.41z
				"/>
			<path d="M587.97,431.71c-3.53,0-5.55-1.51-5.55-4.08c0-0.5,0.07-1.03,0.17-1.65l1.85-10.25c0.37-2.07,1.35-3.49,3.06-4.43
				c1.31-0.71,2.32-0.89,4.95-0.89h8.88l-0.57,3.1h-8.78h-1.45c-1.25,0-2.36,0.97-2.59,2.3l-0.64,3.63h12.35l-0.54,3.1h-12.42
				l-0.5,2.84l-0.24,1.33v0.21c0,0.38,0.17,0.8,0.5,1.12c0.3,0.29,0.71,0.5,1.14,0.56h1.85h8.48l-0.54,3.1H587.97z"/>
			<path d="M614.32,413.54c0.4-2.3,1.68-3.46,3.84-3.46c2.32,0,2.89,0.47,3.23,2.6l2.32,15.63l8.14-15.63
				c1.04-2.01,1.85-2.63,3.67-2.63c2.15,0,3.16,0.8,3.16,2.45c0,0.36-0.03,0.68-0.1,1.03l-3.26,18.17h-3.53l3.3-18.23l-8.28,15.89
				c-0.98,1.92-1.88,2.6-3.57,2.6c-1.88,0-2.56-0.62-2.86-2.6l-2.56-15.89l-3.26,18.23h-3.53L614.32,413.54z"/>
			<path d="M641.3,430.14c-0.74-0.8-0.98-1.51-0.98-2.69c0-0.53,0.07-1.12,0.17-1.71l1.68-9.36c0.4-2.07,1.04-3.28,2.39-4.4
				c1.58-1.27,2.66-1.57,6.09-1.57h2.66c3.36,0,4.31,0.29,5.48,1.57c0.74,0.83,0.94,1.51,0.94,2.69c0,0.53-0.03,1.12-0.13,1.71
				l-1.68,9.36c-0.4,2.07-1.04,3.28-2.39,4.4c-1.62,1.27-2.66,1.57-6.09,1.57h-2.66C643.42,431.71,642.48,431.44,641.3,430.14z
				 M646.82,428.61h3.77c2.52,0,3.4-0.59,3.77-2.69l1.75-9.69c0.07-0.38,0.1-0.71,0.1-1.03c0-1.21-0.81-1.68-2.89-1.68h-3.77
				c-2.56,0-3.43,0.62-3.8,2.72l-1.75,9.66c-0.07,0.38-0.1,0.71-0.1,1C643.89,428.16,644.7,428.61,646.82,428.61z"/>
			<path d="M660.88,428.61h9.72c1.31,0,2.49-0.77,2.66-1.74l0.47-2.69c0.03-0.09,0.03-0.18,0.03-0.27c0-0.95-0.84-1.54-2.29-1.54
				h-3.6c-3,0-5.08-1.54-5.08-3.69c0-0.24,0-0.41,0.03-0.62l0.5-2.66c0.37-2.13,1.18-3.28,2.93-4.19c1.14-0.62,2.05-0.8,3.8-0.8
				h9.82l-0.61,3.1h-9.96c-1.45,0-2.25,0.53-2.46,1.74l-0.37,2.13c-0.03,0.18-0.07,0.38-0.07,0.56c0,1.15,0.57,1.62,1.92,1.62h4.24
				c2.69,0,4.81,1.54,4.81,3.54c0,0.21-0.03,0.35-0.07,0.56l-0.57,3.34c-0.47,2.69-3.2,4.7-6.33,4.7h-10.09L660.88,428.61z"/>
			<path d="M679.36,410.41h14l-0.54,3.1h-5.28l-3.26,18.2h-3.53l3.3-18.2h-5.21L679.36,410.41z"/>
		</g>
	</g>
</g>
</svg>
