<?xml version="1.0" encoding="UTF-8" standalone="no"?>
<!-- Created with Inkscape (http://www.inkscape.org/) -->

<svg
   width="14.482575mm"
   height="15.019909mm"
   viewBox="0 0 14.482575 15.019909"
   version="1.1"
   id="svg1"
   inkscape:version="1.3 (0e150ed6c4, 2023-07-21)"
   sodipodi:docname="logo.svg"
   xmlns:inkscape="http://www.inkscape.org/namespaces/inkscape"
   xmlns:sodipodi="http://sodipodi.sourceforge.net/DTD/sodipodi-0.dtd"
   xmlns="http://www.w3.org/2000/svg"
   xmlns:svg="http://www.w3.org/2000/svg">
  <sodipodi:namedview
     id="namedview1"
     pagecolor="#ffffff"
     bordercolor="#000000"
     borderopacity="0.25"
     inkscape:showpageshadow="2"
     inkscape:pageopacity="0.0"
     inkscape:pagecheckerboard="0"
     inkscape:deskcolor="#d1d1d1"
     inkscape:document-units="mm"
     inkscape:zoom="3.6387988"
     inkscape:cx="72.414007"
     inkscape:cy="26.931965"
     inkscape:window-width="1718"
     inkscape:window-height="1360"
     inkscape:window-x="1713"
     inkscape:window-y="0"
     inkscape:window-maximized="0"
     inkscape:current-layer="layer1" />
  <defs
     id="defs1" />
  <g
     inkscape:label="Livello 1"
     inkscape:groupmode="layer"
     id="layer1"
     transform="translate(-85.944616,-38.931519)">
    <g
       id="g2"
       transform="matrix(0.26458333,0,0,0.26458333,60.933473,29.439742)">&#10;			<path
   class="st1"
   d="m 145.39,57.73 c -5.46,0.13 -10.89,0.13 -16.34,0.18 -0.51,-2.09 -1.03,-4.22 -1.57,-6.41 -2.79,3.15 -5.57,6.28 -8.34,9.41 0.03,0.03 0.05,0.05 0.08,0.08 1.39,0 2.79,0 4.18,0 1.53,0 3.06,0.01 4.59,0.02 0.7,0 1.39,0.02 2.09,0.02 0.72,0 1.45,-0.04 2.17,-0.04 0.83,0 1.67,0.03 2.5,0.02 1.12,-0.01 2.24,-0.05 3.36,-0.05 1.56,0 3.12,0.04 4.68,0.05 1.03,0 2.07,-0.02 3.1,-0.04 0.07,0 0.15,-0.07 0.21,-0.1 0.19,0.78 0.39,1.58 0.59,2.38 0.24,0.99 0.47,1.99 0.7,2.98 0.39,1.64 0.77,3.28 1.16,4.91 0.21,0.89 0.42,1.78 0.68,2.66 0.12,0.41 -0.07,0.68 -0.25,0.96 -0.4,0.63 -0.82,1.26 -1.24,1.88 -0.48,0.69 -0.96,1.38 -1.48,2.05 -1.08,1.38 -2.17,2.75 -3.29,4.1 -1.07,1.28 -2.31,2.4 -3.64,3.41 -1.02,0.77 -2.05,1.53 -3.11,2.24 -0.58,0.39 -1.23,0.7 -1.86,1 -1.2,0.57 -2.39,1.17 -3.63,1.63 -1.15,0.42 -2.36,0.66 -3.54,0.97 -1.81,0.48 -3.66,0.57 -5.52,0.6 -1.16,0.02 -2.33,-0.08 -3.49,-0.15 -0.31,-0.02 -0.62,-0.12 -0.94,-0.17 -1.97,-0.31 -3.85,-0.95 -5.7,-1.65 -0.66,-0.25 -1.28,-0.58 -1.93,-0.85 -0.99,-0.4 -1.85,-1.03 -2.75,-1.58 -0.7,-0.42 -1.34,-0.95 -1.97,-1.47 -0.77,-0.63 -1.57,-1.24 -2.24,-1.96 -0.71,-0.76 -1.33,-1.62 -1.93,-2.47 -0.59,-0.83 -1.12,-1.69 -1.65,-2.55 -0.7,-1.14 -1.27,-2.35 -1.8,-3.57 -0.56,-1.29 -0.8,-2.66 -1.19,-4 C 95.75,71.11 95.61,69.95 95.33,68.83 94.98,67.4 94.78,65.95 94.65,64.5 94.5,62.81 94.5,61.11 94.6,59.42 c 0.05,-0.89 0.1,-1.8 0.26,-2.67 0.2,-1.08 0.53,-2.14 0.8,-3.21 0.33,-1.29 0.98,-2.44 1.63,-3.59 0.43,-0.76 0.83,-1.55 1.37,-2.23 1.09,-1.36 2.26,-2.64 3.39,-3.97 0.81,-0.95 1.79,-1.7 2.8,-2.4 1.05,-0.73 2.13,-1.39 3.21,-2.08 1.21,-0.77 2.55,-1.25 3.9,-1.7 1.08,-0.36 2.17,-0.7 3.27,-0.99 1.31,-0.35 2.65,-0.54 4.01,-0.58 1.1,-0.04 2.2,-0.17 3.29,-0.11 1.4,0.08 2.8,0.27 4.17,0.52 1.06,0.19 2.11,0.5 3.12,0.87 1.15,0.42 2.26,0.95 3.36,1.47 1.05,0.5 2.08,1.04 3.1,1.59 0.65,0.35 1.29,0.74 1.92,1.14 1.06,0.68 1.99,1.5 2.77,2.49 0.34,0.43 0.68,0.85 1.05,1.26 0.58,0.63 0.71,1.43 0.89,2.21 0.24,1.07 0.49,2.13 0.74,3.19 0.1,0.41 0.19,0.83 0.29,1.24 0.24,0.98 0.48,1.96 0.72,2.94 0.22,0.92 0.46,1.85 0.73,2.92 z m -10.2,24.86 c -0.11,-0.51 -0.2,-0.95 -0.31,-1.4 -0.34,-1.37 -0.69,-2.74 -1.03,-4.12 -0.34,-1.38 -0.65,-2.78 -1,-4.16 -0.39,-1.56 -0.82,-3.11 -1.23,-4.67 -0.13,-0.51 -0.12,-0.53 -0.65,-0.54 -1.03,-0.02 -2.06,-0.01 -3.08,-0.01 -1.26,0 -2.53,0 -3.79,0 -2.55,0 -5.11,0.02 -7.66,-0.03 -1.05,-0.02 -2.09,0.05 -3.14,0.05 -0.09,0 -0.2,0.07 -0.27,0.14 -0.59,0.66 -1.17,1.32 -1.74,2 -0.08,0.09 -0.12,0.26 -0.1,0.37 0.07,0.35 0.17,0.7 0.26,1.05 0.2,0.78 0.39,1.57 0.61,2.35 0.54,1.93 1.13,3.85 2.29,5.52 0.54,0.78 1.13,1.54 1.77,2.24 0.58,0.62 1.26,1.14 1.91,1.69 0.29,0.24 0.61,0.49 0.95,0.63 0.69,0.28 1.41,0.51 2.12,0.73 0.92,0.28 1.88,0.42 2.84,0.41 1.13,-0.01 2.27,-0.02 3.39,-0.14 1.13,-0.12 2.25,-0.35 3.36,-0.58 0.87,-0.18 1.74,-0.41 2.59,-0.69 0.65,-0.22 1.27,-0.56 1.91,-0.84 z M 109.26,62.55 c 0.61,-0.7 1.2,-1.37 1.79,-2.05 0.36,-0.42 0.74,-0.82 1.1,-1.24 0.47,-0.55 0.91,-1.11 1.38,-1.66 0.92,-1.06 1.86,-2.1 2.78,-3.16 0.93,-1.07 1.84,-2.15 2.76,-3.22 0.94,-1.09 1.88,-2.17 2.82,-3.26 0.67,-0.78 1.31,-1.57 1.98,-2.35 0.5,-0.59 1.03,-1.16 1.53,-1.75 0.08,-0.09 0.12,-0.28 0.09,-0.4 -0.14,-0.61 -0.32,-1.22 -0.5,-1.91 -0.36,0.04 -0.74,0.08 -1.13,0.13 -0.59,0.08 -1.19,0.16 -1.77,0.27 -0.51,0.1 -1.01,0.22 -1.51,0.36 -0.85,0.23 -1.72,0.42 -2.55,0.71 -0.89,0.31 -1.74,0.71 -2.61,1.08 -1.49,0.63 -2.86,1.46 -4.01,2.61 -1.23,1.23 -2.17,2.64 -2.63,4.33 -0.32,1.19 -0.48,2.4 -0.58,3.62 -0.11,1.44 0.01,2.86 0.27,4.26 0.21,1.22 0.51,2.42 0.79,3.63 z"
   id="path2"
   style="fill:#FFFFFF" />
&#10;		</g>
  </g>
</svg>
